G04 #@! TF.GenerationSoftware,KiCad,Pcbnew,9.0.4*
G04 #@! TF.CreationDate,2025-09-17T21:50:00+02:00*
G04 #@! TF.ProjectId,Home-Ambient,486f6d65-2d41-46d6-9269-656e742e6b69,rev?*
G04 #@! TF.SameCoordinates,Original*
G04 #@! TF.FileFunction,Copper,L2,Bot*
G04 #@! TF.FilePolarity,Positive*
%FSLAX46Y46*%
G04 Gerber Fmt 4.6, Leading zero omitted, Abs format (unit mm)*
G04 Created by KiCad (PCBNEW 9.0.4) date 2025-09-17 21:50:00*
%MOMM*%
%LPD*%
G01*
G04 APERTURE LIST*
G04 Aperture macros list*
%AMRoundRect*
0 Rectangle with rounded corners*
0 $1 Rounding radius*
0 $2 $3 $4 $5 $6 $7 $8 $9 X,Y pos of 4 corners*
0 Add a 4 corners polygon primitive as box body*
4,1,4,$2,$3,$4,$5,$6,$7,$8,$9,$2,$3,0*
0 Add four circle primitives for the rounded corners*
1,1,$1+$1,$2,$3*
1,1,$1+$1,$4,$5*
1,1,$1+$1,$6,$7*
1,1,$1+$1,$8,$9*
0 Add four rect primitives between the rounded corners*
20,1,$1+$1,$2,$3,$4,$5,0*
20,1,$1+$1,$4,$5,$6,$7,0*
20,1,$1+$1,$6,$7,$8,$9,0*
20,1,$1+$1,$8,$9,$2,$3,0*%
G04 Aperture macros list end*
G04 #@! TA.AperFunction,ComponentPad*
%ADD10C,2.000000*%
G04 #@! TD*
G04 #@! TA.AperFunction,ComponentPad*
%ADD11C,3.600000*%
G04 #@! TD*
G04 #@! TA.AperFunction,ConnectorPad*
%ADD12C,6.400000*%
G04 #@! TD*
G04 #@! TA.AperFunction,ComponentPad*
%ADD13R,1.700000X1.700000*%
G04 #@! TD*
G04 #@! TA.AperFunction,ComponentPad*
%ADD14C,1.700000*%
G04 #@! TD*
G04 #@! TA.AperFunction,ComponentPad*
%ADD15R,3.960000X1.980000*%
G04 #@! TD*
G04 #@! TA.AperFunction,ComponentPad*
%ADD16O,3.960000X1.980000*%
G04 #@! TD*
G04 #@! TA.AperFunction,ComponentPad*
%ADD17RoundRect,0.250000X0.620000X-0.620000X0.620000X0.620000X-0.620000X0.620000X-0.620000X-0.620000X0*%
G04 #@! TD*
G04 #@! TA.AperFunction,ComponentPad*
%ADD18C,1.740000*%
G04 #@! TD*
G04 #@! TA.AperFunction,ComponentPad*
%ADD19R,1.950000X1.950000*%
G04 #@! TD*
G04 #@! TA.AperFunction,ComponentPad*
%ADD20C,1.950000*%
G04 #@! TD*
G04 #@! TA.AperFunction,ComponentPad*
%ADD21C,2.100000*%
G04 #@! TD*
G04 #@! TA.AperFunction,SMDPad,CuDef*
%ADD22RoundRect,0.250000X-1.450000X0.400000X-1.450000X-0.400000X1.450000X-0.400000X1.450000X0.400000X0*%
G04 #@! TD*
G04 #@! TA.AperFunction,ViaPad*
%ADD23C,1.200000*%
G04 #@! TD*
G04 #@! TA.AperFunction,Conductor*
%ADD24C,0.635000*%
G04 #@! TD*
G04 #@! TA.AperFunction,Conductor*
%ADD25C,1.950000*%
G04 #@! TD*
G04 #@! TA.AperFunction,Conductor*
%ADD26C,0.317500*%
G04 #@! TD*
G04 APERTURE END LIST*
D10*
X144780000Y-84836000D03*
X144780000Y-79756000D03*
D11*
X85000000Y-136000000D03*
D12*
X85000000Y-136000000D03*
D13*
X120650000Y-87630000D03*
D14*
X118110000Y-87630000D03*
X120650000Y-85090000D03*
X118110000Y-85090000D03*
X120650000Y-82550000D03*
X118110000Y-82550000D03*
X120650000Y-80010000D03*
X118110000Y-80010000D03*
D10*
X153416000Y-82550000D03*
X153416000Y-67310000D03*
X181356000Y-67310000D03*
X181356000Y-74930000D03*
D13*
X105410000Y-120396000D03*
D14*
X102870000Y-120396000D03*
X100330000Y-120396000D03*
X97790000Y-120396000D03*
X95250000Y-120396000D03*
X92710000Y-120396000D03*
D13*
X88900000Y-71120000D03*
D14*
X88900000Y-73660000D03*
X88900000Y-76200000D03*
X88900000Y-78740000D03*
X88900000Y-81280000D03*
X88900000Y-83820000D03*
X88900000Y-86360000D03*
X88900000Y-88900000D03*
X88900000Y-91440000D03*
X88900000Y-93980000D03*
X88900000Y-96520000D03*
X88900000Y-99060000D03*
X88900000Y-101600000D03*
X88900000Y-104140000D03*
X88900000Y-106680000D03*
D11*
X196000000Y-136000000D03*
D12*
X196000000Y-136000000D03*
D15*
X144780000Y-92570000D03*
D16*
X144780000Y-97570000D03*
X144780000Y-102570000D03*
X144780000Y-107570000D03*
D17*
X177304000Y-123190000D03*
D18*
X177304000Y-120650000D03*
D13*
X86360000Y-71120000D03*
D14*
X86360000Y-73660000D03*
X86360000Y-76200000D03*
X86360000Y-78740000D03*
X86360000Y-81280000D03*
X86360000Y-83820000D03*
X86360000Y-86360000D03*
X86360000Y-88900000D03*
X86360000Y-91440000D03*
X86360000Y-93980000D03*
X86360000Y-96520000D03*
X86360000Y-99060000D03*
X86360000Y-101600000D03*
X86360000Y-104140000D03*
X86360000Y-106680000D03*
D13*
X111760000Y-71120000D03*
D14*
X111760000Y-73660000D03*
X111760000Y-76200000D03*
X111760000Y-78740000D03*
X111760000Y-81280000D03*
X111760000Y-83820000D03*
X111760000Y-86360000D03*
X111760000Y-88900000D03*
X111760000Y-91440000D03*
X111760000Y-93980000D03*
X111760000Y-96520000D03*
X111760000Y-99060000D03*
X111760000Y-101600000D03*
X111760000Y-104140000D03*
X111760000Y-106680000D03*
D19*
X178000000Y-95000000D03*
D20*
X178000000Y-107000000D03*
D21*
X180000000Y-101000000D03*
D20*
X165800000Y-95000000D03*
X165800000Y-107000000D03*
D22*
X156210000Y-97851000D03*
X156210000Y-102301000D03*
D23*
X116840000Y-127000000D03*
X99060000Y-116332000D03*
X188976000Y-91440000D03*
X100330000Y-100838000D03*
X187198000Y-138176000D03*
X194056000Y-84836000D03*
X122428000Y-106680000D03*
X97282000Y-76200000D03*
X177546000Y-138430000D03*
X82169000Y-90170000D03*
X116332000Y-110998000D03*
X182118000Y-134366000D03*
X183134000Y-111506000D03*
X106680000Y-73660000D03*
X191262000Y-115316000D03*
X182372000Y-138430000D03*
X122936000Y-69088000D03*
X166116000Y-122682000D03*
X97282000Y-96520000D03*
X196342000Y-91440000D03*
X198628000Y-89154000D03*
X181356000Y-85090000D03*
X188976000Y-119380000D03*
X139954000Y-138430000D03*
X147828000Y-122174000D03*
X146304000Y-129286000D03*
X134620000Y-124460000D03*
X198628000Y-111506000D03*
X166878000Y-116713000D03*
X181356000Y-91440000D03*
X106680000Y-94488000D03*
X116332000Y-94996000D03*
X124460000Y-131318000D03*
X122936000Y-76200000D03*
X86360000Y-127000000D03*
X134620000Y-113284000D03*
X106680000Y-88900000D03*
X115062000Y-76200000D03*
X119380000Y-138430000D03*
X179832000Y-130048000D03*
X176022000Y-111506000D03*
X154178000Y-138430000D03*
X184658000Y-104902000D03*
X144018000Y-119126000D03*
X198628000Y-84836000D03*
X190500000Y-97282000D03*
X197104000Y-102108000D03*
X86360000Y-119380000D03*
X172466000Y-119888000D03*
X106680000Y-81280000D03*
X156210000Y-131064000D03*
X191262000Y-108966000D03*
X192278000Y-126238000D03*
X135382000Y-131318000D03*
X120904000Y-73660000D03*
X144018000Y-116713000D03*
X97282000Y-86360000D03*
X184658000Y-97282000D03*
X99060000Y-109220000D03*
X135382000Y-138430000D03*
X118110000Y-118110000D03*
X192024000Y-104140000D03*
X124460000Y-118110000D03*
X172212000Y-130048000D03*
X195072000Y-128016000D03*
X93980000Y-109220000D03*
X193294000Y-112776000D03*
X139954000Y-131318000D03*
X122428000Y-96520000D03*
X82169000Y-106680000D03*
X197104000Y-106172000D03*
X168402000Y-138430000D03*
X134620000Y-118110000D03*
X161290000Y-124206000D03*
X156210000Y-128016000D03*
X108204000Y-138430000D03*
X97282000Y-73660000D03*
X172720000Y-138430000D03*
X187452000Y-85090000D03*
X181102000Y-114046000D03*
X124460000Y-124460000D03*
X155194000Y-113284000D03*
X109474000Y-125222000D03*
X156210000Y-121920000D03*
X188976000Y-122428000D03*
X146304000Y-133858000D03*
X104140000Y-109220000D03*
X183642000Y-124714000D03*
X188722000Y-124714000D03*
X149606000Y-129540000D03*
X157480000Y-129540000D03*
X152400000Y-92570000D03*
X175930000Y-101000000D03*
X171958000Y-94996000D03*
X162560000Y-88646000D03*
X167640000Y-88646000D03*
X152400000Y-107570000D03*
X160020000Y-107570000D03*
X152400000Y-102570000D03*
X163703000Y-99695000D03*
X159004000Y-102570000D03*
X152400000Y-97536000D03*
X119634000Y-101600000D03*
X116332000Y-104140000D03*
X93980000Y-96520000D03*
X122428000Y-90678000D03*
X114808000Y-88900000D03*
X106680000Y-85090000D03*
X151892000Y-120650000D03*
X93980000Y-114300000D03*
X124460000Y-127000000D03*
X147320000Y-120650000D03*
X134620000Y-127000000D03*
X104140000Y-114300000D03*
X106680000Y-91440000D03*
X134620000Y-121920000D03*
X124460000Y-121920000D03*
X196342000Y-75438000D03*
X194056000Y-71374000D03*
X198628000Y-81534000D03*
X194056000Y-81534000D03*
X181356000Y-79756000D03*
X188976000Y-71374000D03*
X187452000Y-79756000D03*
X191516000Y-69342000D03*
X149606000Y-125222000D03*
X149606000Y-122174000D03*
D24*
X188722000Y-124714000D02*
X183642000Y-124714000D01*
X157480000Y-129540000D02*
X149606000Y-129540000D01*
D25*
X171958000Y-97028000D02*
X171958000Y-92964000D01*
X180000000Y-101000000D02*
X175930000Y-101000000D01*
X167640000Y-88646000D02*
X162070051Y-88646000D01*
X152596677Y-92570000D02*
X144780000Y-92570000D01*
X159004000Y-89916000D02*
G75*
G02*
X152596677Y-92569991I-6407300J6407300D01*
G01*
X171958000Y-92964000D02*
G75*
G03*
X167640000Y-88646000I-4318000J0D01*
G01*
X162070051Y-88646000D02*
G75*
G03*
X159004014Y-89916014I49J-4336100D01*
G01*
X175930000Y-101000000D02*
G75*
G02*
X171958000Y-97028000I0J3972000D01*
G01*
X144780000Y-107570000D02*
X165230000Y-107570000D01*
X165230000Y-107570000D02*
X165800000Y-107000000D01*
X144780000Y-102570000D02*
X159097003Y-102570000D01*
X162052000Y-101346000D02*
X163962936Y-99435064D01*
X163962936Y-99435064D02*
G75*
G03*
X165800008Y-95000000I-4435036J4435064D01*
G01*
X159097003Y-102570000D02*
G75*
G03*
X162051999Y-101345999I-3J4179000D01*
G01*
D26*
X119634000Y-101600000D02*
X111760000Y-101600000D01*
X111760000Y-104140000D02*
X116332000Y-104140000D01*
X116586000Y-90678000D02*
X122428000Y-90678000D01*
X93980000Y-96520000D02*
X88900000Y-96520000D01*
X114808000Y-88900000D02*
X116586000Y-90678000D01*
X118110000Y-85090000D02*
X106680000Y-85090000D01*
X93980000Y-114300000D02*
X104140000Y-114300000D01*
X124460000Y-127000000D02*
X134620000Y-127000000D01*
X151892000Y-120650000D02*
X147320000Y-120650000D01*
X111760000Y-91440000D02*
X106680000Y-91440000D01*
X124460000Y-121920000D02*
X134620000Y-121920000D01*
X149606000Y-122174000D02*
X149606000Y-125222000D01*
G04 #@! TA.AperFunction,Conductor*
G36*
X125927191Y-68054907D02*
G01*
X125963155Y-68104407D01*
X125968000Y-68135000D01*
X125968000Y-89863575D01*
X125949093Y-89921766D01*
X125938413Y-89933414D01*
X125938776Y-89933777D01*
X125936267Y-89936285D01*
X125795722Y-90098482D01*
X125795713Y-90098494D01*
X125679684Y-90279040D01*
X125679680Y-90279048D01*
X125590514Y-90474294D01*
X125530045Y-90680233D01*
X125530045Y-90680235D01*
X125499500Y-90892676D01*
X125499500Y-109107323D01*
X125530045Y-109319764D01*
X125530045Y-109319766D01*
X125590514Y-109525705D01*
X125590515Y-109525708D01*
X125590516Y-109525710D01*
X125679679Y-109720950D01*
X125679680Y-109720951D01*
X125679684Y-109720959D01*
X125795713Y-109901505D01*
X125795719Y-109901513D01*
X125936276Y-110063724D01*
X125936283Y-110063730D01*
X125936285Y-110063732D01*
X126098482Y-110204277D01*
X126098494Y-110204286D01*
X126279040Y-110320315D01*
X126279042Y-110320316D01*
X126279050Y-110320321D01*
X126474290Y-110409484D01*
X126680231Y-110469954D01*
X126759900Y-110481408D01*
X126892677Y-110500500D01*
X133045514Y-110500500D01*
X133103705Y-110519407D01*
X133115546Y-110529526D01*
X135106000Y-112522000D01*
X173459999Y-112522000D01*
X173460000Y-112522000D01*
X177016000Y-108966000D01*
X177016000Y-108055984D01*
X177034907Y-107997793D01*
X177084407Y-107961829D01*
X177145593Y-107961829D01*
X177173188Y-107975890D01*
X177331492Y-108090905D01*
X177510378Y-108182052D01*
X177701320Y-108244093D01*
X177701321Y-108244093D01*
X177701324Y-108244094D01*
X177899613Y-108275500D01*
X177899616Y-108275500D01*
X178100387Y-108275500D01*
X178298675Y-108244094D01*
X178298676Y-108244093D01*
X178298680Y-108244093D01*
X178489622Y-108182052D01*
X178668508Y-108090905D01*
X178830932Y-107972897D01*
X178972897Y-107830932D01*
X179090905Y-107668508D01*
X179182052Y-107489622D01*
X179244093Y-107298680D01*
X179268287Y-107145925D01*
X179275500Y-107100387D01*
X179275500Y-106899612D01*
X179244094Y-106701324D01*
X179215777Y-106614174D01*
X179182052Y-106510378D01*
X179090905Y-106331492D01*
X178972897Y-106169068D01*
X178830932Y-106027103D01*
X178668508Y-105909095D01*
X178668507Y-105909094D01*
X178668505Y-105909093D01*
X178489622Y-105817948D01*
X178298675Y-105755905D01*
X178100387Y-105724500D01*
X178100384Y-105724500D01*
X177899616Y-105724500D01*
X177899613Y-105724500D01*
X177701324Y-105755905D01*
X177510377Y-105817948D01*
X177331494Y-105909093D01*
X177251565Y-105967165D01*
X177173189Y-106024108D01*
X177115000Y-106043015D01*
X177056809Y-106024108D01*
X177020845Y-105974608D01*
X177016000Y-105944015D01*
X177016000Y-105451008D01*
X177034907Y-105392817D01*
X177044996Y-105381004D01*
X177396504Y-105029496D01*
X177451021Y-105001719D01*
X177466508Y-105000500D01*
X182131119Y-105000500D01*
X182131120Y-105000500D01*
X182391116Y-104966270D01*
X182644419Y-104898398D01*
X182886697Y-104798043D01*
X183113803Y-104666924D01*
X183321851Y-104507282D01*
X183507282Y-104321851D01*
X183666924Y-104113803D01*
X183798043Y-103886697D01*
X183898398Y-103644419D01*
X183966270Y-103391116D01*
X184000500Y-103131120D01*
X184000500Y-103000000D01*
X184000500Y-102934108D01*
X184000500Y-98934108D01*
X184000500Y-98868880D01*
X183966270Y-98608884D01*
X183898398Y-98355581D01*
X183798043Y-98113303D01*
X183666924Y-97886197D01*
X183507282Y-97678149D01*
X183321851Y-97492718D01*
X183227734Y-97420499D01*
X183113802Y-97333075D01*
X182992848Y-97263243D01*
X182886697Y-97201957D01*
X182886693Y-97201955D01*
X182886689Y-97201953D01*
X182644424Y-97101604D01*
X182644423Y-97101603D01*
X182644419Y-97101602D01*
X182391116Y-97033730D01*
X182391111Y-97033729D01*
X182391113Y-97033729D01*
X182364036Y-97030164D01*
X182364036Y-97030163D01*
X182350364Y-97028364D01*
X182350000Y-97028000D01*
X182347595Y-97028000D01*
X182345188Y-97027683D01*
X182341164Y-97027153D01*
X182341163Y-97027153D01*
X182341160Y-97027153D01*
X182131120Y-96999500D01*
X182065892Y-96999500D01*
X178003241Y-96999500D01*
X177996766Y-96999288D01*
X177745489Y-96982818D01*
X177732650Y-96981128D01*
X177488853Y-96932634D01*
X177476345Y-96929282D01*
X177240967Y-96849382D01*
X177229002Y-96844426D01*
X177071213Y-96766613D01*
X177027386Y-96723919D01*
X177016000Y-96677823D01*
X177016000Y-96374499D01*
X177034907Y-96316308D01*
X177084407Y-96280344D01*
X177114994Y-96275499D01*
X179019864Y-96275499D01*
X179044991Y-96272585D01*
X179147765Y-96227206D01*
X179227206Y-96147765D01*
X179272585Y-96044991D01*
X179275500Y-96019865D01*
X179275499Y-93980136D01*
X179272585Y-93955009D01*
X179227206Y-93852235D01*
X179147765Y-93772794D01*
X179044991Y-93727415D01*
X179044990Y-93727414D01*
X179044988Y-93727414D01*
X179019869Y-93724500D01*
X177115000Y-93724500D01*
X177056809Y-93705593D01*
X177020845Y-93656093D01*
X177016000Y-93625500D01*
X177016000Y-93063000D01*
X177034907Y-93004809D01*
X177084407Y-92968845D01*
X177115000Y-92964000D01*
X178031999Y-92964000D01*
X178032000Y-92964000D01*
X178032000Y-83157000D01*
X178050907Y-83098809D01*
X178100407Y-83062845D01*
X178131000Y-83058000D01*
X199400500Y-83058000D01*
X199458691Y-83076907D01*
X199494655Y-83126407D01*
X199499500Y-83157000D01*
X199499500Y-139400500D01*
X199480593Y-139458691D01*
X199431093Y-139494655D01*
X199400500Y-139499500D01*
X107287000Y-139499500D01*
X107228809Y-139480593D01*
X107192845Y-139431093D01*
X107188000Y-139400500D01*
X107188000Y-129451306D01*
X148705500Y-129451306D01*
X148705500Y-129628693D01*
X148740106Y-129802665D01*
X148740106Y-129802667D01*
X148807985Y-129966544D01*
X148807985Y-129966545D01*
X148906535Y-130114034D01*
X148906536Y-130114035D01*
X149031965Y-130239464D01*
X149179453Y-130338013D01*
X149343334Y-130405894D01*
X149517309Y-130440500D01*
X149517310Y-130440500D01*
X149694690Y-130440500D01*
X149694691Y-130440500D01*
X149868666Y-130405894D01*
X150032547Y-130338013D01*
X150180035Y-130239464D01*
X150232503Y-130186996D01*
X150287020Y-130159219D01*
X150302507Y-130158000D01*
X156783493Y-130158000D01*
X156841684Y-130176907D01*
X156853497Y-130186996D01*
X156905965Y-130239464D01*
X157053453Y-130338013D01*
X157217334Y-130405894D01*
X157391309Y-130440500D01*
X157391310Y-130440500D01*
X157568690Y-130440500D01*
X157568691Y-130440500D01*
X157742666Y-130405894D01*
X157906547Y-130338013D01*
X158054035Y-130239464D01*
X158179464Y-130114035D01*
X158278013Y-129966547D01*
X158345894Y-129802666D01*
X158380500Y-129628691D01*
X158380500Y-129451309D01*
X158345894Y-129277334D01*
X158278014Y-129113455D01*
X158278014Y-129113454D01*
X158179464Y-128965965D01*
X158054034Y-128840535D01*
X157906544Y-128741985D01*
X157742666Y-128674106D01*
X157568693Y-128639500D01*
X157568691Y-128639500D01*
X157391309Y-128639500D01*
X157391306Y-128639500D01*
X157217334Y-128674106D01*
X157217332Y-128674106D01*
X157053455Y-128741985D01*
X157053454Y-128741985D01*
X156905965Y-128840535D01*
X156853497Y-128893004D01*
X156798980Y-128920781D01*
X156783493Y-128922000D01*
X150302507Y-128922000D01*
X150244316Y-128903093D01*
X150232503Y-128893004D01*
X150180034Y-128840535D01*
X150032544Y-128741985D01*
X149868666Y-128674106D01*
X149694693Y-128639500D01*
X149694691Y-128639500D01*
X149517309Y-128639500D01*
X149517306Y-128639500D01*
X149343334Y-128674106D01*
X149343332Y-128674106D01*
X149179455Y-128741985D01*
X149179454Y-128741985D01*
X149031965Y-128840535D01*
X148906535Y-128965965D01*
X148807985Y-129113454D01*
X148807985Y-129113455D01*
X148740106Y-129277332D01*
X148740106Y-129277334D01*
X148705500Y-129451306D01*
X107188000Y-129451306D01*
X107188000Y-126911306D01*
X123559500Y-126911306D01*
X123559500Y-127088693D01*
X123594106Y-127262665D01*
X123594106Y-127262667D01*
X123661985Y-127426544D01*
X123661985Y-127426545D01*
X123713237Y-127503248D01*
X123760536Y-127574035D01*
X123885965Y-127699464D01*
X124033453Y-127798013D01*
X124197334Y-127865894D01*
X124371309Y-127900500D01*
X124371310Y-127900500D01*
X124548690Y-127900500D01*
X124548691Y-127900500D01*
X124722666Y-127865894D01*
X124886547Y-127798013D01*
X125034035Y-127699464D01*
X125159464Y-127574035D01*
X125206762Y-127503247D01*
X125254812Y-127465369D01*
X125289077Y-127459250D01*
X133790923Y-127459250D01*
X133849114Y-127478157D01*
X133873236Y-127503246D01*
X133920536Y-127574035D01*
X134045965Y-127699464D01*
X134193453Y-127798013D01*
X134357334Y-127865894D01*
X134531309Y-127900500D01*
X134531310Y-127900500D01*
X134708690Y-127900500D01*
X134708691Y-127900500D01*
X134882666Y-127865894D01*
X135046547Y-127798013D01*
X135194035Y-127699464D01*
X135319464Y-127574035D01*
X135418013Y-127426547D01*
X135485894Y-127262666D01*
X135520500Y-127088691D01*
X135520500Y-126911309D01*
X135485894Y-126737334D01*
X135418014Y-126573455D01*
X135418014Y-126573454D01*
X135319464Y-126425965D01*
X135194034Y-126300535D01*
X135046544Y-126201985D01*
X134882666Y-126134106D01*
X134708693Y-126099500D01*
X134708691Y-126099500D01*
X134531309Y-126099500D01*
X134531306Y-126099500D01*
X134357334Y-126134106D01*
X134357332Y-126134106D01*
X134193455Y-126201985D01*
X134193454Y-126201985D01*
X134045965Y-126300535D01*
X133920539Y-126425961D01*
X133920536Y-126425965D01*
X133873238Y-126496752D01*
X133825188Y-126534631D01*
X133790923Y-126540750D01*
X125289077Y-126540750D01*
X125230886Y-126521843D01*
X125206762Y-126496752D01*
X125159464Y-126425965D01*
X125034035Y-126300536D01*
X124886547Y-126201987D01*
X124886546Y-126201986D01*
X124886544Y-126201985D01*
X124722666Y-126134106D01*
X124548693Y-126099500D01*
X124548691Y-126099500D01*
X124371309Y-126099500D01*
X124371306Y-126099500D01*
X124197334Y-126134106D01*
X124197332Y-126134106D01*
X124033455Y-126201985D01*
X124033454Y-126201985D01*
X123885965Y-126300535D01*
X123760535Y-126425965D01*
X123661985Y-126573454D01*
X123661985Y-126573455D01*
X123594106Y-126737332D01*
X123594106Y-126737334D01*
X123559500Y-126911306D01*
X107188000Y-126911306D01*
X107188000Y-125984001D01*
X107188000Y-125984000D01*
X90932000Y-125984000D01*
X90932000Y-125984001D01*
X90932000Y-139400500D01*
X90913093Y-139458691D01*
X90863593Y-139494655D01*
X90833000Y-139499500D01*
X81599500Y-139499500D01*
X81541309Y-139480593D01*
X81505345Y-139431093D01*
X81500500Y-139400500D01*
X81500500Y-121831306D01*
X123559500Y-121831306D01*
X123559500Y-122008693D01*
X123574806Y-122085639D01*
X123592994Y-122177078D01*
X123594106Y-122182665D01*
X123594106Y-122182667D01*
X123661985Y-122346544D01*
X123661985Y-122346545D01*
X123755203Y-122486054D01*
X123760536Y-122494035D01*
X123885965Y-122619464D01*
X124033453Y-122718013D01*
X124197334Y-122785894D01*
X124371309Y-122820500D01*
X124371310Y-122820500D01*
X124548690Y-122820500D01*
X124548691Y-122820500D01*
X124722666Y-122785894D01*
X124886547Y-122718013D01*
X125034035Y-122619464D01*
X125159464Y-122494035D01*
X125206762Y-122423247D01*
X125254812Y-122385369D01*
X125289077Y-122379250D01*
X133790923Y-122379250D01*
X133849114Y-122398157D01*
X133873236Y-122423246D01*
X133920536Y-122494035D01*
X134045965Y-122619464D01*
X134193453Y-122718013D01*
X134357334Y-122785894D01*
X134531309Y-122820500D01*
X134531310Y-122820500D01*
X134708690Y-122820500D01*
X134708691Y-122820500D01*
X134882666Y-122785894D01*
X135046547Y-122718013D01*
X135194035Y-122619464D01*
X135319464Y-122494035D01*
X135418013Y-122346547D01*
X135485894Y-122182666D01*
X135520500Y-122008691D01*
X135520500Y-121831309D01*
X135485894Y-121657334D01*
X135439985Y-121546498D01*
X135418014Y-121493455D01*
X135418014Y-121493454D01*
X135319464Y-121345965D01*
X135194034Y-121220535D01*
X135046544Y-121121985D01*
X134882666Y-121054106D01*
X134708693Y-121019500D01*
X134708691Y-121019500D01*
X134531309Y-121019500D01*
X134531306Y-121019500D01*
X134357334Y-121054106D01*
X134357332Y-121054106D01*
X134193455Y-121121985D01*
X134193454Y-121121985D01*
X134045965Y-121220535D01*
X133920539Y-121345961D01*
X133920536Y-121345965D01*
X133873238Y-121416752D01*
X133825188Y-121454631D01*
X133790923Y-121460750D01*
X125289077Y-121460750D01*
X125230886Y-121441843D01*
X125206762Y-121416752D01*
X125159464Y-121345965D01*
X125034035Y-121220536D01*
X125033062Y-121219886D01*
X124886544Y-121121985D01*
X124722666Y-121054106D01*
X124548693Y-121019500D01*
X124548691Y-121019500D01*
X124371309Y-121019500D01*
X124371306Y-121019500D01*
X124197334Y-121054106D01*
X124197332Y-121054106D01*
X124033455Y-121121985D01*
X124033454Y-121121985D01*
X123885965Y-121220535D01*
X123760535Y-121345965D01*
X123661985Y-121493454D01*
X123661985Y-121493455D01*
X123594106Y-121657332D01*
X123594106Y-121657334D01*
X123559500Y-121831306D01*
X81500500Y-121831306D01*
X81500500Y-120305450D01*
X91559500Y-120305450D01*
X91559500Y-120486549D01*
X91587828Y-120665406D01*
X91643788Y-120837637D01*
X91711210Y-120969961D01*
X91726004Y-120998994D01*
X91832447Y-121145501D01*
X91960499Y-121273553D01*
X92107006Y-121379996D01*
X92268361Y-121462211D01*
X92440591Y-121518171D01*
X92512136Y-121529502D01*
X92619451Y-121546500D01*
X92619454Y-121546500D01*
X92800549Y-121546500D01*
X92889977Y-121532335D01*
X92979409Y-121518171D01*
X93151639Y-121462211D01*
X93312994Y-121379996D01*
X93459501Y-121273553D01*
X93587553Y-121145501D01*
X93693996Y-120998994D01*
X93776211Y-120837639D01*
X93832171Y-120665409D01*
X93860500Y-120486546D01*
X93860500Y-120305454D01*
X93860500Y-120305450D01*
X94099500Y-120305450D01*
X94099500Y-120486549D01*
X94127828Y-120665406D01*
X94183788Y-120837637D01*
X94251210Y-120969961D01*
X94266004Y-120998994D01*
X94372447Y-121145501D01*
X94500499Y-121273553D01*
X94647006Y-121379996D01*
X94808361Y-121462211D01*
X94980591Y-121518171D01*
X95052136Y-121529502D01*
X95159451Y-121546500D01*
X95159454Y-121546500D01*
X95340549Y-121546500D01*
X95429977Y-121532335D01*
X95519409Y-121518171D01*
X95691639Y-121462211D01*
X95852994Y-121379996D01*
X95999501Y-121273553D01*
X96127553Y-121145501D01*
X96233996Y-120998994D01*
X96316211Y-120837639D01*
X96372171Y-120665409D01*
X96400500Y-120486546D01*
X96400500Y-120305454D01*
X96400500Y-120305450D01*
X96639500Y-120305450D01*
X96639500Y-120486549D01*
X96667828Y-120665406D01*
X96723788Y-120837637D01*
X96791210Y-120969961D01*
X96806004Y-120998994D01*
X96912447Y-121145501D01*
X97040499Y-121273553D01*
X97187006Y-121379996D01*
X97348361Y-121462211D01*
X97520591Y-121518171D01*
X97592136Y-121529502D01*
X97699451Y-121546500D01*
X97699454Y-121546500D01*
X97880549Y-121546500D01*
X97969977Y-121532335D01*
X98059409Y-121518171D01*
X98231639Y-121462211D01*
X98392994Y-121379996D01*
X98539501Y-121273553D01*
X98667553Y-121145501D01*
X98773996Y-120998994D01*
X98856211Y-120837639D01*
X98912171Y-120665409D01*
X98940500Y-120486546D01*
X98940500Y-120305454D01*
X98940500Y-120305450D01*
X99179500Y-120305450D01*
X99179500Y-120486549D01*
X99207828Y-120665406D01*
X99263788Y-120837637D01*
X99331210Y-120969961D01*
X99346004Y-120998994D01*
X99452447Y-121145501D01*
X99580499Y-121273553D01*
X99727006Y-121379996D01*
X99888361Y-121462211D01*
X100060591Y-121518171D01*
X100132136Y-121529502D01*
X100239451Y-121546500D01*
X100239454Y-121546500D01*
X100420549Y-121546500D01*
X100509977Y-121532335D01*
X100599409Y-121518171D01*
X100771639Y-121462211D01*
X100932994Y-121379996D01*
X101079501Y-121273553D01*
X101207553Y-121145501D01*
X101313996Y-120998994D01*
X101396211Y-120837639D01*
X101452171Y-120665409D01*
X101480500Y-120486546D01*
X101480500Y-120305489D01*
X101720000Y-120305489D01*
X101720000Y-120486510D01*
X101748316Y-120665289D01*
X101804252Y-120837445D01*
X101871772Y-120969961D01*
X102372093Y-120469639D01*
X102404075Y-120588993D01*
X102469901Y-120703007D01*
X102562993Y-120796099D01*
X102677007Y-120861925D01*
X102796357Y-120893905D01*
X102296037Y-121394226D01*
X102428556Y-121461748D01*
X102600710Y-121517683D01*
X102779490Y-121546000D01*
X102960510Y-121546000D01*
X103139289Y-121517683D01*
X103311445Y-121461747D01*
X103443961Y-121394226D01*
X102943640Y-120893905D01*
X103062993Y-120861925D01*
X103177007Y-120796099D01*
X103270099Y-120703007D01*
X103335925Y-120588993D01*
X103367905Y-120469640D01*
X103868226Y-120969961D01*
X103935747Y-120837445D01*
X103991683Y-120665289D01*
X104020000Y-120486510D01*
X104020000Y-120305489D01*
X103991683Y-120126710D01*
X103935748Y-119954556D01*
X103868226Y-119822037D01*
X103367905Y-120322357D01*
X103335925Y-120203007D01*
X103270099Y-120088993D01*
X103177007Y-119995901D01*
X103062993Y-119930075D01*
X102943639Y-119898093D01*
X103340604Y-119501130D01*
X104259500Y-119501130D01*
X104259500Y-121290860D01*
X104259501Y-121290863D01*
X104262414Y-121315990D01*
X104287756Y-121373385D01*
X104307794Y-121418765D01*
X104387235Y-121498206D01*
X104490009Y-121543585D01*
X104515135Y-121546500D01*
X106304864Y-121546499D01*
X106329991Y-121543585D01*
X106432765Y-121498206D01*
X106512206Y-121418765D01*
X106557585Y-121315991D01*
X106560500Y-121290865D01*
X106560499Y-120561306D01*
X146419500Y-120561306D01*
X146419500Y-120738693D01*
X146454106Y-120912665D01*
X146454106Y-120912667D01*
X146521985Y-121076544D01*
X146521985Y-121076545D01*
X146618197Y-121220535D01*
X146620536Y-121224035D01*
X146745965Y-121349464D01*
X146893453Y-121448013D01*
X147057334Y-121515894D01*
X147231309Y-121550500D01*
X147231310Y-121550500D01*
X147408690Y-121550500D01*
X147408691Y-121550500D01*
X147582666Y-121515894D01*
X147746547Y-121448013D01*
X147894035Y-121349464D01*
X148019464Y-121224035D01*
X148066762Y-121153247D01*
X148114812Y-121115369D01*
X148149077Y-121109250D01*
X149337886Y-121109250D01*
X149396077Y-121128157D01*
X149432041Y-121177657D01*
X149432041Y-121238843D01*
X149396077Y-121288343D01*
X149357200Y-121305347D01*
X149343334Y-121308106D01*
X149343332Y-121308106D01*
X149179455Y-121375985D01*
X149179454Y-121375985D01*
X149031965Y-121474535D01*
X148906535Y-121599965D01*
X148807985Y-121747454D01*
X148807985Y-121747455D01*
X148740106Y-121911332D01*
X148740106Y-121911334D01*
X148705500Y-122085306D01*
X148705500Y-122262693D01*
X148740106Y-122436665D01*
X148740106Y-122436667D01*
X148807985Y-122600544D01*
X148807985Y-122600545D01*
X148886476Y-122718014D01*
X148906536Y-122748035D01*
X149031965Y-122873464D01*
X149102752Y-122920762D01*
X149140631Y-122968812D01*
X149146750Y-123003077D01*
X149146750Y-124392921D01*
X149127843Y-124451112D01*
X149102753Y-124475236D01*
X149031963Y-124522537D01*
X148906535Y-124647965D01*
X148807985Y-124795454D01*
X148807985Y-124795455D01*
X148740106Y-124959332D01*
X148740106Y-124959334D01*
X148705500Y-125133306D01*
X148705500Y-125310693D01*
X148740106Y-125484665D01*
X148740106Y-125484667D01*
X148807985Y-125648544D01*
X148807985Y-125648545D01*
X148906535Y-125796034D01*
X148906536Y-125796035D01*
X149031965Y-125921464D01*
X149179453Y-126020013D01*
X149343334Y-126087894D01*
X149517309Y-126122500D01*
X149517310Y-126122500D01*
X149694690Y-126122500D01*
X149694691Y-126122500D01*
X149868666Y-126087894D01*
X150032547Y-126020013D01*
X150180035Y-125921464D01*
X150305464Y-125796035D01*
X150404013Y-125648547D01*
X150471894Y-125484666D01*
X150506500Y-125310691D01*
X150506500Y-125133309D01*
X150471894Y-124959334D01*
X150404014Y-124795455D01*
X150404014Y-124795454D01*
X150323827Y-124675447D01*
X150323826Y-124675445D01*
X150305466Y-124647967D01*
X150282805Y-124625306D01*
X182741500Y-124625306D01*
X182741500Y-124625309D01*
X182741500Y-124802691D01*
X182772658Y-124959334D01*
X182776106Y-124976665D01*
X182776106Y-124976667D01*
X182843985Y-125140544D01*
X182843985Y-125140545D01*
X182942535Y-125288034D01*
X182942536Y-125288035D01*
X183067965Y-125413464D01*
X183215453Y-125512013D01*
X183379334Y-125579894D01*
X183553309Y-125614500D01*
X183553310Y-125614500D01*
X183730690Y-125614500D01*
X183730691Y-125614500D01*
X183734525Y-125613737D01*
X183809644Y-125598795D01*
X183822728Y-125597089D01*
X183845880Y-125595631D01*
X184876324Y-125335021D01*
X184900598Y-125332000D01*
X187463402Y-125332000D01*
X187487675Y-125335021D01*
X188518125Y-125595632D01*
X188524208Y-125597088D01*
X188525708Y-125597447D01*
X188526215Y-125597562D01*
X188526238Y-125597566D01*
X188526253Y-125597570D01*
X188540420Y-125600421D01*
X188551238Y-125600314D01*
X188571527Y-125602210D01*
X188633309Y-125614500D01*
X188633310Y-125614500D01*
X188810690Y-125614500D01*
X188810691Y-125614500D01*
X188984666Y-125579894D01*
X189148547Y-125512013D01*
X189296035Y-125413464D01*
X189421464Y-125288035D01*
X189520013Y-125140547D01*
X189587894Y-124976666D01*
X189622500Y-124802691D01*
X189622500Y-124625309D01*
X189587894Y-124451334D01*
X189522875Y-124294362D01*
X189520014Y-124287455D01*
X189520014Y-124287454D01*
X189421464Y-124139965D01*
X189296034Y-124014535D01*
X189148544Y-123915985D01*
X188984666Y-123848106D01*
X188810693Y-123813500D01*
X188810691Y-123813500D01*
X188633309Y-123813500D01*
X188633306Y-123813500D01*
X188554362Y-123829203D01*
X188541275Y-123830909D01*
X188518120Y-123832368D01*
X188086362Y-123941564D01*
X187529729Y-124082342D01*
X187487674Y-124092978D01*
X187463400Y-124096000D01*
X184900603Y-124096000D01*
X184876329Y-124092978D01*
X183845878Y-123832368D01*
X183845871Y-123832366D01*
X183845846Y-123832360D01*
X183837922Y-123830468D01*
X183837388Y-123830348D01*
X183837381Y-123830346D01*
X183837343Y-123830338D01*
X183823579Y-123827577D01*
X183812751Y-123827684D01*
X183792465Y-123825787D01*
X183730695Y-123813500D01*
X183730691Y-123813500D01*
X183553309Y-123813500D01*
X183553306Y-123813500D01*
X183379334Y-123848106D01*
X183379332Y-123848106D01*
X183215455Y-123915985D01*
X183215454Y-123915985D01*
X183067965Y-124014535D01*
X182942535Y-124139965D01*
X182843985Y-124287454D01*
X182843985Y-124287455D01*
X182776106Y-124451332D01*
X182776106Y-124451334D01*
X182741500Y-124625306D01*
X150282805Y-124625306D01*
X150180036Y-124522537D01*
X150109247Y-124475236D01*
X150071369Y-124427185D01*
X150065250Y-124392921D01*
X150065250Y-123003077D01*
X150084157Y-122944886D01*
X150109246Y-122920763D01*
X150180035Y-122873464D01*
X150305464Y-122748035D01*
X150404013Y-122600547D01*
X150434521Y-122526893D01*
X176133500Y-122526893D01*
X176133500Y-123853106D01*
X176144123Y-123941565D01*
X176199637Y-124082339D01*
X176199638Y-124082341D01*
X176199639Y-124082342D01*
X176291078Y-124202922D01*
X176411658Y-124294361D01*
X176411659Y-124294361D01*
X176411660Y-124294362D01*
X176482047Y-124322119D01*
X176552436Y-124349877D01*
X176640898Y-124360500D01*
X176640900Y-124360500D01*
X177967100Y-124360500D01*
X177967102Y-124360500D01*
X178055564Y-124349877D01*
X178196342Y-124294361D01*
X178316922Y-124202922D01*
X178408361Y-124082342D01*
X178463877Y-123941564D01*
X178474500Y-123853102D01*
X178474500Y-122526898D01*
X178463877Y-122438436D01*
X178436119Y-122368047D01*
X178408362Y-122297660D01*
X178408361Y-122297659D01*
X178408361Y-122297658D01*
X178316922Y-122177078D01*
X178196342Y-122085639D01*
X178196341Y-122085638D01*
X178196339Y-122085637D01*
X178055565Y-122030123D01*
X177967106Y-122019500D01*
X177967102Y-122019500D01*
X176640898Y-122019500D01*
X176640893Y-122019500D01*
X176552434Y-122030123D01*
X176411660Y-122085637D01*
X176411656Y-122085640D01*
X176291081Y-122177075D01*
X176291075Y-122177081D01*
X176199640Y-122297656D01*
X176199637Y-122297660D01*
X176144123Y-122438434D01*
X176133500Y-122526893D01*
X150434521Y-122526893D01*
X150471894Y-122436666D01*
X150506500Y-122262691D01*
X150506500Y-122085309D01*
X150471894Y-121911334D01*
X150404014Y-121747455D01*
X150404014Y-121747454D01*
X150305464Y-121599965D01*
X150180034Y-121474535D01*
X150032544Y-121375985D01*
X149868666Y-121308106D01*
X149854799Y-121305347D01*
X149801416Y-121275451D01*
X149775800Y-121219886D01*
X149787737Y-121159876D01*
X149832667Y-121118344D01*
X149874114Y-121109250D01*
X151062923Y-121109250D01*
X151121114Y-121128157D01*
X151145236Y-121153246D01*
X151192536Y-121224035D01*
X151317965Y-121349464D01*
X151465453Y-121448013D01*
X151629334Y-121515894D01*
X151803309Y-121550500D01*
X151803310Y-121550500D01*
X151980690Y-121550500D01*
X151980691Y-121550500D01*
X152154666Y-121515894D01*
X152318547Y-121448013D01*
X152466035Y-121349464D01*
X152591464Y-121224035D01*
X152690013Y-121076547D01*
X152757894Y-120912666D01*
X152792500Y-120738691D01*
X152792500Y-120561309D01*
X152791825Y-120557915D01*
X176134000Y-120557915D01*
X176134000Y-120742084D01*
X176162807Y-120923971D01*
X176219718Y-121099124D01*
X176290902Y-121238831D01*
X176769351Y-120760381D01*
X176796141Y-120860362D01*
X176867891Y-120984638D01*
X176969362Y-121086109D01*
X177093638Y-121157859D01*
X177193615Y-121184647D01*
X176715167Y-121663096D01*
X176854878Y-121734282D01*
X177030028Y-121791192D01*
X177211916Y-121820000D01*
X177396084Y-121820000D01*
X177577971Y-121791192D01*
X177753124Y-121734281D01*
X177892831Y-121663096D01*
X177414383Y-121184648D01*
X177514362Y-121157859D01*
X177638638Y-121086109D01*
X177740109Y-120984638D01*
X177811859Y-120860362D01*
X177838648Y-120760383D01*
X178317096Y-121238831D01*
X178388281Y-121099124D01*
X178445192Y-120923971D01*
X178474000Y-120742084D01*
X178474000Y-120557915D01*
X178445192Y-120376028D01*
X178388282Y-120200878D01*
X178317096Y-120061167D01*
X177838647Y-120539615D01*
X177811859Y-120439638D01*
X177740109Y-120315362D01*
X177638638Y-120213891D01*
X177514362Y-120142141D01*
X177414381Y-120115351D01*
X177892831Y-119636902D01*
X177753124Y-119565718D01*
X177577971Y-119508807D01*
X177396084Y-119480000D01*
X177211916Y-119480000D01*
X177030028Y-119508807D01*
X176854875Y-119565718D01*
X176715167Y-119636902D01*
X177193616Y-120115351D01*
X177093638Y-120142141D01*
X176969362Y-120213891D01*
X176867891Y-120315362D01*
X176796141Y-120439638D01*
X176769351Y-120539616D01*
X176290902Y-120061167D01*
X176219718Y-120200875D01*
X176162807Y-120376028D01*
X176134000Y-120557915D01*
X152791825Y-120557915D01*
X152757894Y-120387334D01*
X152690014Y-120223455D01*
X152690014Y-120223454D01*
X152591464Y-120075965D01*
X152466034Y-119950535D01*
X152318544Y-119851985D01*
X152154666Y-119784106D01*
X152075385Y-119768336D01*
X151980693Y-119749500D01*
X151980691Y-119749500D01*
X151803309Y-119749500D01*
X151803306Y-119749500D01*
X151629334Y-119784106D01*
X151629332Y-119784106D01*
X151465455Y-119851985D01*
X151465454Y-119851985D01*
X151317965Y-119950535D01*
X151192539Y-120075961D01*
X151192536Y-120075965D01*
X151158630Y-120126710D01*
X151145238Y-120146752D01*
X151097188Y-120184631D01*
X151062923Y-120190750D01*
X148149077Y-120190750D01*
X148090886Y-120171843D01*
X148066762Y-120146752D01*
X148063681Y-120142141D01*
X148019464Y-120075965D01*
X147894035Y-119950536D01*
X147863413Y-119930075D01*
X147746544Y-119851985D01*
X147582666Y-119784106D01*
X147408693Y-119749500D01*
X147408691Y-119749500D01*
X147231309Y-119749500D01*
X147231306Y-119749500D01*
X147057334Y-119784106D01*
X147057332Y-119784106D01*
X146893455Y-119851985D01*
X146893454Y-119851985D01*
X146745965Y-119950535D01*
X146620535Y-120075965D01*
X146521985Y-120223454D01*
X146521985Y-120223455D01*
X146454106Y-120387332D01*
X146454106Y-120387334D01*
X146419500Y-120561306D01*
X106560499Y-120561306D01*
X106560499Y-120395999D01*
X106560499Y-119501139D01*
X106560499Y-119501136D01*
X106557585Y-119476009D01*
X106512206Y-119373235D01*
X106432765Y-119293794D01*
X106329991Y-119248415D01*
X106329990Y-119248414D01*
X106329988Y-119248414D01*
X106304868Y-119245500D01*
X104515139Y-119245500D01*
X104515136Y-119245501D01*
X104490009Y-119248414D01*
X104387235Y-119293794D01*
X104307794Y-119373235D01*
X104262414Y-119476011D01*
X104259500Y-119501130D01*
X103340604Y-119501130D01*
X103413462Y-119428272D01*
X103443961Y-119397772D01*
X103311445Y-119330252D01*
X103139289Y-119274316D01*
X102960510Y-119246000D01*
X102779490Y-119246000D01*
X102600710Y-119274316D01*
X102428554Y-119330252D01*
X102296037Y-119397772D01*
X102796359Y-119898094D01*
X102677007Y-119930075D01*
X102562993Y-119995901D01*
X102469901Y-120088993D01*
X102404075Y-120203007D01*
X102372094Y-120322359D01*
X101871772Y-119822037D01*
X101804252Y-119954554D01*
X101748316Y-120126710D01*
X101720000Y-120305489D01*
X101480500Y-120305489D01*
X101480500Y-120305454D01*
X101480500Y-120305450D01*
X101452171Y-120126593D01*
X101452171Y-120126591D01*
X101396211Y-119954361D01*
X101313996Y-119793006D01*
X101207553Y-119646499D01*
X101079501Y-119518447D01*
X100932994Y-119412004D01*
X100932993Y-119412003D01*
X100932991Y-119412002D01*
X100771637Y-119329788D01*
X100599406Y-119273828D01*
X100420549Y-119245500D01*
X100420546Y-119245500D01*
X100239454Y-119245500D01*
X100239451Y-119245500D01*
X100060593Y-119273828D01*
X99888362Y-119329788D01*
X99727008Y-119412002D01*
X99653752Y-119465225D01*
X99580499Y-119518447D01*
X99452447Y-119646499D01*
X99399225Y-119719752D01*
X99346002Y-119793008D01*
X99263788Y-119954362D01*
X99207828Y-120126593D01*
X99179500Y-120305450D01*
X98940500Y-120305450D01*
X98912171Y-120126593D01*
X98912171Y-120126591D01*
X98856211Y-119954361D01*
X98773996Y-119793006D01*
X98667553Y-119646499D01*
X98539501Y-119518447D01*
X98392994Y-119412004D01*
X98392993Y-119412003D01*
X98392991Y-119412002D01*
X98231637Y-119329788D01*
X98059406Y-119273828D01*
X97880549Y-119245500D01*
X97880546Y-119245500D01*
X97699454Y-119245500D01*
X97699451Y-119245500D01*
X97520593Y-119273828D01*
X97348362Y-119329788D01*
X97187008Y-119412002D01*
X97113752Y-119465225D01*
X97040499Y-119518447D01*
X96912447Y-119646499D01*
X96859225Y-119719752D01*
X96806002Y-119793008D01*
X96723788Y-119954362D01*
X96667828Y-120126593D01*
X96639500Y-120305450D01*
X96400500Y-120305450D01*
X96372171Y-120126593D01*
X96372171Y-120126591D01*
X96316211Y-119954361D01*
X96233996Y-119793006D01*
X96127553Y-119646499D01*
X95999501Y-119518447D01*
X95852994Y-119412004D01*
X95852993Y-119412003D01*
X95852991Y-119412002D01*
X95691637Y-119329788D01*
X95519406Y-119273828D01*
X95340549Y-119245500D01*
X95340546Y-119245500D01*
X95159454Y-119245500D01*
X95159451Y-119245500D01*
X94980593Y-119273828D01*
X94808362Y-119329788D01*
X94647008Y-119412002D01*
X94573752Y-119465225D01*
X94500499Y-119518447D01*
X94372447Y-119646499D01*
X94319225Y-119719752D01*
X94266002Y-119793008D01*
X94183788Y-119954362D01*
X94127828Y-120126593D01*
X94099500Y-120305450D01*
X93860500Y-120305450D01*
X93832171Y-120126593D01*
X93832171Y-120126591D01*
X93776211Y-119954361D01*
X93693996Y-119793006D01*
X93587553Y-119646499D01*
X93459501Y-119518447D01*
X93312994Y-119412004D01*
X93312993Y-119412003D01*
X93312991Y-119412002D01*
X93151637Y-119329788D01*
X92979406Y-119273828D01*
X92800549Y-119245500D01*
X92800546Y-119245500D01*
X92619454Y-119245500D01*
X92619451Y-119245500D01*
X92440593Y-119273828D01*
X92268362Y-119329788D01*
X92107008Y-119412002D01*
X92033752Y-119465225D01*
X91960499Y-119518447D01*
X91832447Y-119646499D01*
X91779225Y-119719752D01*
X91726002Y-119793008D01*
X91643788Y-119954362D01*
X91587828Y-120126593D01*
X91559500Y-120305450D01*
X81500500Y-120305450D01*
X81500500Y-114211306D01*
X93079500Y-114211306D01*
X93079500Y-114388693D01*
X93114106Y-114562665D01*
X93114106Y-114562667D01*
X93181985Y-114726544D01*
X93181985Y-114726545D01*
X93233237Y-114803248D01*
X93280536Y-114874035D01*
X93405965Y-114999464D01*
X93553453Y-115098013D01*
X93717334Y-115165894D01*
X93891309Y-115200500D01*
X93891310Y-115200500D01*
X94068690Y-115200500D01*
X94068691Y-115200500D01*
X94242666Y-115165894D01*
X94406547Y-115098013D01*
X94554035Y-114999464D01*
X94679464Y-114874035D01*
X94726762Y-114803247D01*
X94774812Y-114765369D01*
X94809077Y-114759250D01*
X103310923Y-114759250D01*
X103369114Y-114778157D01*
X103393236Y-114803246D01*
X103440536Y-114874035D01*
X103565965Y-114999464D01*
X103713453Y-115098013D01*
X103877334Y-115165894D01*
X104051309Y-115200500D01*
X104051310Y-115200500D01*
X104228690Y-115200500D01*
X104228691Y-115200500D01*
X104402666Y-115165894D01*
X104566547Y-115098013D01*
X104714035Y-114999464D01*
X104839464Y-114874035D01*
X104938013Y-114726547D01*
X105005894Y-114562666D01*
X105040500Y-114388691D01*
X105040500Y-114211309D01*
X105005894Y-114037334D01*
X104938014Y-113873455D01*
X104938014Y-113873454D01*
X104839464Y-113725965D01*
X104714034Y-113600535D01*
X104566544Y-113501985D01*
X104402666Y-113434106D01*
X104228693Y-113399500D01*
X104228691Y-113399500D01*
X104051309Y-113399500D01*
X104051306Y-113399500D01*
X103877334Y-113434106D01*
X103877332Y-113434106D01*
X103713455Y-113501985D01*
X103713454Y-113501985D01*
X103565965Y-113600535D01*
X103440539Y-113725961D01*
X103440536Y-113725965D01*
X103393238Y-113796752D01*
X103345188Y-113834631D01*
X103310923Y-113840750D01*
X94809077Y-113840750D01*
X94750886Y-113821843D01*
X94726762Y-113796752D01*
X94679464Y-113725965D01*
X94554035Y-113600536D01*
X94406547Y-113501987D01*
X94406546Y-113501986D01*
X94406544Y-113501985D01*
X94242666Y-113434106D01*
X94068693Y-113399500D01*
X94068691Y-113399500D01*
X93891309Y-113399500D01*
X93891306Y-113399500D01*
X93717334Y-113434106D01*
X93717332Y-113434106D01*
X93553455Y-113501985D01*
X93553454Y-113501985D01*
X93405965Y-113600535D01*
X93280535Y-113725965D01*
X93181985Y-113873454D01*
X93181985Y-113873455D01*
X93114106Y-114037332D01*
X93114106Y-114037334D01*
X93079500Y-114211306D01*
X81500500Y-114211306D01*
X81500500Y-106589489D01*
X85210000Y-106589489D01*
X85210000Y-106770510D01*
X85238316Y-106949289D01*
X85294252Y-107121445D01*
X85361772Y-107253961D01*
X85862093Y-106753639D01*
X85894075Y-106872993D01*
X85959901Y-106987007D01*
X86052993Y-107080099D01*
X86167007Y-107145925D01*
X86286357Y-107177905D01*
X85786037Y-107678226D01*
X85918556Y-107745748D01*
X86090710Y-107801683D01*
X86269490Y-107830000D01*
X86450510Y-107830000D01*
X86629289Y-107801683D01*
X86801445Y-107745747D01*
X86933961Y-107678226D01*
X86433640Y-107177905D01*
X86552993Y-107145925D01*
X86667007Y-107080099D01*
X86760099Y-106987007D01*
X86825925Y-106872993D01*
X86857905Y-106753640D01*
X87358226Y-107253961D01*
X87425747Y-107121445D01*
X87481683Y-106949289D01*
X87510000Y-106770510D01*
X87510000Y-106589489D01*
X87750000Y-106589489D01*
X87750000Y-106770510D01*
X87778316Y-106949289D01*
X87834252Y-107121445D01*
X87901772Y-107253961D01*
X88402093Y-106753639D01*
X88434075Y-106872993D01*
X88499901Y-106987007D01*
X88592993Y-107080099D01*
X88707007Y-107145925D01*
X88826357Y-107177905D01*
X88326037Y-107678226D01*
X88458556Y-107745748D01*
X88630710Y-107801683D01*
X88809490Y-107830000D01*
X88990510Y-107830000D01*
X89169289Y-107801683D01*
X89341445Y-107745747D01*
X89473961Y-107678226D01*
X88973640Y-107177905D01*
X89092993Y-107145925D01*
X89207007Y-107080099D01*
X89300099Y-106987007D01*
X89365925Y-106872993D01*
X89397905Y-106753640D01*
X89898226Y-107253961D01*
X89965747Y-107121445D01*
X90021683Y-106949289D01*
X90050000Y-106770510D01*
X90050000Y-106589489D01*
X110610000Y-106589489D01*
X110610000Y-106770510D01*
X110638316Y-106949289D01*
X110694252Y-107121445D01*
X110761772Y-107253961D01*
X111262093Y-106753639D01*
X111294075Y-106872993D01*
X111359901Y-106987007D01*
X111452993Y-107080099D01*
X111567007Y-107145925D01*
X111686357Y-107177905D01*
X111186037Y-107678226D01*
X111318556Y-107745748D01*
X111490710Y-107801683D01*
X111669490Y-107830000D01*
X111850510Y-107830000D01*
X112029289Y-107801683D01*
X112201445Y-107745747D01*
X112333961Y-107678226D01*
X111833640Y-107177905D01*
X111952993Y-107145925D01*
X112067007Y-107080099D01*
X112160099Y-106987007D01*
X112225925Y-106872993D01*
X112257905Y-106753640D01*
X112758226Y-107253961D01*
X112825747Y-107121445D01*
X112881683Y-106949289D01*
X112910000Y-106770510D01*
X112910000Y-106589489D01*
X112881683Y-106410710D01*
X112825748Y-106238556D01*
X112758226Y-106106037D01*
X112257905Y-106606357D01*
X112225925Y-106487007D01*
X112160099Y-106372993D01*
X112067007Y-106279901D01*
X111952993Y-106214075D01*
X111833639Y-106182093D01*
X112333961Y-105681772D01*
X112201445Y-105614252D01*
X112029289Y-105558316D01*
X111850510Y-105530000D01*
X111669490Y-105530000D01*
X111490710Y-105558316D01*
X111318554Y-105614252D01*
X111186037Y-105681772D01*
X111686359Y-106182094D01*
X111567007Y-106214075D01*
X111452993Y-106279901D01*
X111359901Y-106372993D01*
X111294075Y-106487007D01*
X111262094Y-106606359D01*
X110761772Y-106106037D01*
X110694252Y-106238554D01*
X110638316Y-106410710D01*
X110610000Y-106589489D01*
X90050000Y-106589489D01*
X90021683Y-106410710D01*
X89965748Y-106238556D01*
X89898226Y-106106037D01*
X89397905Y-106606357D01*
X89365925Y-106487007D01*
X89300099Y-106372993D01*
X89207007Y-106279901D01*
X89092993Y-106214075D01*
X88973639Y-106182093D01*
X89473961Y-105681772D01*
X89341445Y-105614252D01*
X89169289Y-105558316D01*
X88990510Y-105530000D01*
X88809490Y-105530000D01*
X88630710Y-105558316D01*
X88458554Y-105614252D01*
X88326037Y-105681772D01*
X88826359Y-106182094D01*
X88707007Y-106214075D01*
X88592993Y-106279901D01*
X88499901Y-106372993D01*
X88434075Y-106487007D01*
X88402094Y-106606359D01*
X87901772Y-106106037D01*
X87834252Y-106238554D01*
X87778316Y-106410710D01*
X87750000Y-106589489D01*
X87510000Y-106589489D01*
X87481683Y-106410710D01*
X87425748Y-106238556D01*
X87358226Y-106106037D01*
X86857905Y-106606357D01*
X86825925Y-106487007D01*
X86760099Y-106372993D01*
X86667007Y-106279901D01*
X86552993Y-106214075D01*
X86433639Y-106182093D01*
X86933961Y-105681772D01*
X86801445Y-105614252D01*
X86629289Y-105558316D01*
X86450510Y-105530000D01*
X86269490Y-105530000D01*
X86090710Y-105558316D01*
X85918554Y-105614252D01*
X85786037Y-105681772D01*
X86286359Y-106182094D01*
X86167007Y-106214075D01*
X86052993Y-106279901D01*
X85959901Y-106372993D01*
X85894075Y-106487007D01*
X85862094Y-106606359D01*
X85361772Y-106106037D01*
X85294252Y-106238554D01*
X85238316Y-106410710D01*
X85210000Y-106589489D01*
X81500500Y-106589489D01*
X81500500Y-104049450D01*
X85209500Y-104049450D01*
X85209500Y-104230549D01*
X85237828Y-104409406D01*
X85293788Y-104581637D01*
X85361248Y-104714035D01*
X85376004Y-104742994D01*
X85482447Y-104889501D01*
X85610499Y-105017553D01*
X85757006Y-105123996D01*
X85918361Y-105206211D01*
X86090591Y-105262171D01*
X86162136Y-105273502D01*
X86269451Y-105290500D01*
X86269454Y-105290500D01*
X86450549Y-105290500D01*
X86539977Y-105276335D01*
X86629409Y-105262171D01*
X86801639Y-105206211D01*
X86962994Y-105123996D01*
X87109501Y-105017553D01*
X87237553Y-104889501D01*
X87343996Y-104742994D01*
X87426211Y-104581639D01*
X87482171Y-104409409D01*
X87510500Y-104230546D01*
X87510500Y-104049454D01*
X87510500Y-104049450D01*
X87749500Y-104049450D01*
X87749500Y-104230549D01*
X87777828Y-104409406D01*
X87833788Y-104581637D01*
X87901248Y-104714035D01*
X87916004Y-104742994D01*
X88022447Y-104889501D01*
X88150499Y-105017553D01*
X88297006Y-105123996D01*
X88458361Y-105206211D01*
X88630591Y-105262171D01*
X88702136Y-105273502D01*
X88809451Y-105290500D01*
X88809454Y-105290500D01*
X88990549Y-105290500D01*
X89079977Y-105276335D01*
X89169409Y-105262171D01*
X89341639Y-105206211D01*
X89502994Y-105123996D01*
X89649501Y-105017553D01*
X89777553Y-104889501D01*
X89883996Y-104742994D01*
X89966211Y-104581639D01*
X90022171Y-104409409D01*
X90050500Y-104230546D01*
X90050500Y-104049454D01*
X90050500Y-104049450D01*
X110609500Y-104049450D01*
X110609500Y-104230549D01*
X110637828Y-104409406D01*
X110693788Y-104581637D01*
X110761248Y-104714035D01*
X110776004Y-104742994D01*
X110882447Y-104889501D01*
X111010499Y-105017553D01*
X111157006Y-105123996D01*
X111318361Y-105206211D01*
X111490591Y-105262171D01*
X111562136Y-105273502D01*
X111669451Y-105290500D01*
X111669454Y-105290500D01*
X111850549Y-105290500D01*
X111939977Y-105276335D01*
X112029409Y-105262171D01*
X112201639Y-105206211D01*
X112362994Y-105123996D01*
X112509501Y-105017553D01*
X112637553Y-104889501D01*
X112743996Y-104742994D01*
X112789695Y-104653304D01*
X112832960Y-104610040D01*
X112877905Y-104599250D01*
X115502923Y-104599250D01*
X115561114Y-104618157D01*
X115585236Y-104643246D01*
X115632536Y-104714035D01*
X115757965Y-104839464D01*
X115905453Y-104938013D01*
X116069334Y-105005894D01*
X116243309Y-105040500D01*
X116243310Y-105040500D01*
X116420690Y-105040500D01*
X116420691Y-105040500D01*
X116594666Y-105005894D01*
X116758547Y-104938013D01*
X116906035Y-104839464D01*
X117031464Y-104714035D01*
X117130013Y-104566547D01*
X117197894Y-104402666D01*
X117232500Y-104228691D01*
X117232500Y-104051309D01*
X117197894Y-103877334D01*
X117130014Y-103713455D01*
X117130014Y-103713454D01*
X117031464Y-103565965D01*
X116906034Y-103440535D01*
X116758544Y-103341985D01*
X116594666Y-103274106D01*
X116420693Y-103239500D01*
X116420691Y-103239500D01*
X116243309Y-103239500D01*
X116243306Y-103239500D01*
X116069334Y-103274106D01*
X116069332Y-103274106D01*
X115905455Y-103341985D01*
X115905454Y-103341985D01*
X115757965Y-103440535D01*
X115632539Y-103565961D01*
X115632536Y-103565965D01*
X115591958Y-103626695D01*
X115585238Y-103636752D01*
X115537188Y-103674631D01*
X115502923Y-103680750D01*
X112877905Y-103680750D01*
X112819714Y-103661843D01*
X112789695Y-103626695D01*
X112758751Y-103565965D01*
X112743996Y-103537006D01*
X112637553Y-103390499D01*
X112509501Y-103262447D01*
X112362994Y-103156004D01*
X112362993Y-103156003D01*
X112362991Y-103156002D01*
X112201637Y-103073788D01*
X112029406Y-103017828D01*
X111850549Y-102989500D01*
X111850546Y-102989500D01*
X111669454Y-102989500D01*
X111669451Y-102989500D01*
X111490593Y-103017828D01*
X111318362Y-103073788D01*
X111157008Y-103156002D01*
X111098979Y-103198163D01*
X111010499Y-103262447D01*
X110882447Y-103390499D01*
X110846094Y-103440535D01*
X110776002Y-103537008D01*
X110693788Y-103698362D01*
X110637828Y-103870593D01*
X110609500Y-104049450D01*
X90050500Y-104049450D01*
X90024722Y-103886697D01*
X90022171Y-103870591D01*
X89966211Y-103698361D01*
X89883996Y-103537006D01*
X89777553Y-103390499D01*
X89649501Y-103262447D01*
X89502994Y-103156004D01*
X89502993Y-103156003D01*
X89502991Y-103156002D01*
X89341637Y-103073788D01*
X89169406Y-103017828D01*
X88990549Y-102989500D01*
X88990546Y-102989500D01*
X88809454Y-102989500D01*
X88809451Y-102989500D01*
X88630593Y-103017828D01*
X88458362Y-103073788D01*
X88297008Y-103156002D01*
X88238979Y-103198163D01*
X88150499Y-103262447D01*
X88022447Y-103390499D01*
X87986094Y-103440535D01*
X87916002Y-103537008D01*
X87833788Y-103698362D01*
X87777828Y-103870593D01*
X87749500Y-104049450D01*
X87510500Y-104049450D01*
X87484722Y-103886697D01*
X87482171Y-103870591D01*
X87426211Y-103698361D01*
X87343996Y-103537006D01*
X87237553Y-103390499D01*
X87109501Y-103262447D01*
X86962994Y-103156004D01*
X86962993Y-103156003D01*
X86962991Y-103156002D01*
X86801637Y-103073788D01*
X86629406Y-103017828D01*
X86450549Y-102989500D01*
X86450546Y-102989500D01*
X86269454Y-102989500D01*
X86269451Y-102989500D01*
X86090593Y-103017828D01*
X85918362Y-103073788D01*
X85757008Y-103156002D01*
X85698979Y-103198163D01*
X85610499Y-103262447D01*
X85482447Y-103390499D01*
X85446094Y-103440535D01*
X85376002Y-103537008D01*
X85293788Y-103698362D01*
X85237828Y-103870593D01*
X85209500Y-104049450D01*
X81500500Y-104049450D01*
X81500500Y-101509450D01*
X85209500Y-101509450D01*
X85209500Y-101690549D01*
X85237828Y-101869406D01*
X85293788Y-102041637D01*
X85361248Y-102174035D01*
X85376004Y-102202994D01*
X85482447Y-102349501D01*
X85610499Y-102477553D01*
X85757006Y-102583996D01*
X85918361Y-102666211D01*
X86090591Y-102722171D01*
X86162136Y-102733502D01*
X86269451Y-102750500D01*
X86269454Y-102750500D01*
X86450549Y-102750500D01*
X86539977Y-102736335D01*
X86629409Y-102722171D01*
X86801639Y-102666211D01*
X86962994Y-102583996D01*
X87109501Y-102477553D01*
X87237553Y-102349501D01*
X87343996Y-102202994D01*
X87426211Y-102041639D01*
X87482171Y-101869409D01*
X87510500Y-101690546D01*
X87510500Y-101509454D01*
X87510500Y-101509450D01*
X87749500Y-101509450D01*
X87749500Y-101690549D01*
X87777828Y-101869406D01*
X87833788Y-102041637D01*
X87901248Y-102174035D01*
X87916004Y-102202994D01*
X88022447Y-102349501D01*
X88150499Y-102477553D01*
X88297006Y-102583996D01*
X88458361Y-102666211D01*
X88630591Y-102722171D01*
X88702136Y-102733502D01*
X88809451Y-102750500D01*
X88809454Y-102750500D01*
X88990549Y-102750500D01*
X89079977Y-102736335D01*
X89169409Y-102722171D01*
X89341639Y-102666211D01*
X89502994Y-102583996D01*
X89649501Y-102477553D01*
X89777553Y-102349501D01*
X89883996Y-102202994D01*
X89966211Y-102041639D01*
X90022171Y-101869409D01*
X90050500Y-101690546D01*
X90050500Y-101509454D01*
X90050500Y-101509450D01*
X110609500Y-101509450D01*
X110609500Y-101690549D01*
X110637828Y-101869406D01*
X110693788Y-102041637D01*
X110761248Y-102174035D01*
X110776004Y-102202994D01*
X110882447Y-102349501D01*
X111010499Y-102477553D01*
X111157006Y-102583996D01*
X111318361Y-102666211D01*
X111490591Y-102722171D01*
X111562136Y-102733502D01*
X111669451Y-102750500D01*
X111669454Y-102750500D01*
X111850549Y-102750500D01*
X111939977Y-102736335D01*
X112029409Y-102722171D01*
X112201639Y-102666211D01*
X112362994Y-102583996D01*
X112509501Y-102477553D01*
X112637553Y-102349501D01*
X112743996Y-102202994D01*
X112789695Y-102113304D01*
X112832960Y-102070040D01*
X112877905Y-102059250D01*
X118804923Y-102059250D01*
X118863114Y-102078157D01*
X118887236Y-102103246D01*
X118934536Y-102174035D01*
X119059965Y-102299464D01*
X119207453Y-102398013D01*
X119207454Y-102398013D01*
X119207455Y-102398014D01*
X119244581Y-102413391D01*
X119371334Y-102465894D01*
X119545309Y-102500500D01*
X119545310Y-102500500D01*
X119722690Y-102500500D01*
X119722691Y-102500500D01*
X119896666Y-102465894D01*
X120060547Y-102398013D01*
X120208035Y-102299464D01*
X120333464Y-102174035D01*
X120432013Y-102026547D01*
X120499894Y-101862666D01*
X120534500Y-101688691D01*
X120534500Y-101511309D01*
X120499894Y-101337334D01*
X120432014Y-101173455D01*
X120432014Y-101173454D01*
X120333464Y-101025965D01*
X120208034Y-100900535D01*
X120060544Y-100801985D01*
X119896666Y-100734106D01*
X119722693Y-100699500D01*
X119722691Y-100699500D01*
X119545309Y-100699500D01*
X119545306Y-100699500D01*
X119371334Y-100734106D01*
X119371332Y-100734106D01*
X119207455Y-100801985D01*
X119207454Y-100801985D01*
X119059965Y-100900535D01*
X118934539Y-101025961D01*
X118934536Y-101025965D01*
X118893958Y-101086695D01*
X118887238Y-101096752D01*
X118839188Y-101134631D01*
X118804923Y-101140750D01*
X112877905Y-101140750D01*
X112819714Y-101121843D01*
X112789695Y-101086695D01*
X112758751Y-101025965D01*
X112743996Y-100997006D01*
X112637553Y-100850499D01*
X112509501Y-100722447D01*
X112362994Y-100616004D01*
X112362993Y-100616003D01*
X112362991Y-100616002D01*
X112201637Y-100533788D01*
X112029406Y-100477828D01*
X111850549Y-100449500D01*
X111850546Y-100449500D01*
X111669454Y-100449500D01*
X111669451Y-100449500D01*
X111490593Y-100477828D01*
X111318362Y-100533788D01*
X111157008Y-100616002D01*
X111130260Y-100635436D01*
X111010499Y-100722447D01*
X110882447Y-100850499D01*
X110846094Y-100900535D01*
X110776002Y-100997008D01*
X110693788Y-101158362D01*
X110637828Y-101330593D01*
X110609500Y-101509450D01*
X90050500Y-101509450D01*
X90023239Y-101337334D01*
X90022171Y-101330591D01*
X89966211Y-101158361D01*
X89883996Y-100997006D01*
X89777553Y-100850499D01*
X89649501Y-100722447D01*
X89502994Y-100616004D01*
X89502993Y-100616003D01*
X89502991Y-100616002D01*
X89341637Y-100533788D01*
X89169406Y-100477828D01*
X88990549Y-100449500D01*
X88990546Y-100449500D01*
X88809454Y-100449500D01*
X88809451Y-100449500D01*
X88630593Y-100477828D01*
X88458362Y-100533788D01*
X88297008Y-100616002D01*
X88270260Y-100635436D01*
X88150499Y-100722447D01*
X88022447Y-100850499D01*
X87986094Y-100900535D01*
X87916002Y-100997008D01*
X87833788Y-101158362D01*
X87777828Y-101330593D01*
X87749500Y-101509450D01*
X87510500Y-101509450D01*
X87483239Y-101337334D01*
X87482171Y-101330591D01*
X87426211Y-101158361D01*
X87343996Y-100997006D01*
X87237553Y-100850499D01*
X87109501Y-100722447D01*
X86962994Y-100616004D01*
X86962993Y-100616003D01*
X86962991Y-100616002D01*
X86801637Y-100533788D01*
X86629406Y-100477828D01*
X86450549Y-100449500D01*
X86450546Y-100449500D01*
X86269454Y-100449500D01*
X86269451Y-100449500D01*
X86090593Y-100477828D01*
X85918362Y-100533788D01*
X85757008Y-100616002D01*
X85730260Y-100635436D01*
X85610499Y-100722447D01*
X85482447Y-100850499D01*
X85446094Y-100900535D01*
X85376002Y-100997008D01*
X85293788Y-101158362D01*
X85237828Y-101330593D01*
X85209500Y-101509450D01*
X81500500Y-101509450D01*
X81500500Y-98969489D01*
X85210000Y-98969489D01*
X85210000Y-99150510D01*
X85238316Y-99329289D01*
X85294252Y-99501445D01*
X85361772Y-99633961D01*
X85862093Y-99133639D01*
X85894075Y-99252993D01*
X85959901Y-99367007D01*
X86052993Y-99460099D01*
X86167007Y-99525925D01*
X86286357Y-99557905D01*
X85786037Y-100058226D01*
X85918556Y-100125748D01*
X86090710Y-100181683D01*
X86269490Y-100210000D01*
X86450510Y-100210000D01*
X86629289Y-100181683D01*
X86801445Y-100125747D01*
X86933961Y-100058226D01*
X86433640Y-99557905D01*
X86552993Y-99525925D01*
X86667007Y-99460099D01*
X86760099Y-99367007D01*
X86825925Y-99252993D01*
X86857905Y-99133640D01*
X87358226Y-99633961D01*
X87425747Y-99501445D01*
X87481683Y-99329289D01*
X87510000Y-99150510D01*
X87510000Y-98969489D01*
X87750000Y-98969489D01*
X87750000Y-99150510D01*
X87778316Y-99329289D01*
X87834252Y-99501445D01*
X87901772Y-99633961D01*
X88402093Y-99133639D01*
X88434075Y-99252993D01*
X88499901Y-99367007D01*
X88592993Y-99460099D01*
X88707007Y-99525925D01*
X88826357Y-99557905D01*
X88326037Y-100058226D01*
X88458556Y-100125748D01*
X88630710Y-100181683D01*
X88809490Y-100210000D01*
X88990510Y-100210000D01*
X89169289Y-100181683D01*
X89341445Y-100125747D01*
X89473961Y-100058226D01*
X88973640Y-99557905D01*
X89092993Y-99525925D01*
X89207007Y-99460099D01*
X89300099Y-99367007D01*
X89365925Y-99252993D01*
X89397905Y-99133640D01*
X89898226Y-99633961D01*
X89965747Y-99501445D01*
X90021683Y-99329289D01*
X90050000Y-99150510D01*
X90050000Y-98969489D01*
X110610000Y-98969489D01*
X110610000Y-99150510D01*
X110638316Y-99329289D01*
X110694252Y-99501445D01*
X110761772Y-99633961D01*
X111262093Y-99133639D01*
X111294075Y-99252993D01*
X111359901Y-99367007D01*
X111452993Y-99460099D01*
X111567007Y-99525925D01*
X111686357Y-99557905D01*
X111186037Y-100058226D01*
X111318556Y-100125748D01*
X111490710Y-100181683D01*
X111669490Y-100210000D01*
X111850510Y-100210000D01*
X112029289Y-100181683D01*
X112201445Y-100125747D01*
X112333961Y-100058226D01*
X111833640Y-99557905D01*
X111952993Y-99525925D01*
X112067007Y-99460099D01*
X112160099Y-99367007D01*
X112225925Y-99252993D01*
X112257905Y-99133640D01*
X112758226Y-99633961D01*
X112825747Y-99501445D01*
X112881683Y-99329289D01*
X112910000Y-99150510D01*
X112910000Y-98969489D01*
X112881683Y-98790710D01*
X112825748Y-98618556D01*
X112758226Y-98486037D01*
X112257905Y-98986357D01*
X112225925Y-98867007D01*
X112160099Y-98752993D01*
X112067007Y-98659901D01*
X111952993Y-98594075D01*
X111833639Y-98562093D01*
X112333961Y-98061772D01*
X112201445Y-97994252D01*
X112029289Y-97938316D01*
X111850510Y-97910000D01*
X111669490Y-97910000D01*
X111490710Y-97938316D01*
X111318554Y-97994252D01*
X111186037Y-98061772D01*
X111686359Y-98562094D01*
X111567007Y-98594075D01*
X111452993Y-98659901D01*
X111359901Y-98752993D01*
X111294075Y-98867007D01*
X111262094Y-98986359D01*
X110761772Y-98486037D01*
X110694252Y-98618554D01*
X110638316Y-98790710D01*
X110610000Y-98969489D01*
X90050000Y-98969489D01*
X90021683Y-98790710D01*
X89965748Y-98618556D01*
X89898226Y-98486037D01*
X89397905Y-98986357D01*
X89365925Y-98867007D01*
X89300099Y-98752993D01*
X89207007Y-98659901D01*
X89092993Y-98594075D01*
X88973639Y-98562093D01*
X89473961Y-98061772D01*
X89341445Y-97994252D01*
X89169289Y-97938316D01*
X88990510Y-97910000D01*
X88809490Y-97910000D01*
X88630710Y-97938316D01*
X88458554Y-97994252D01*
X88326037Y-98061772D01*
X88826359Y-98562094D01*
X88707007Y-98594075D01*
X88592993Y-98659901D01*
X88499901Y-98752993D01*
X88434075Y-98867007D01*
X88402094Y-98986359D01*
X87901772Y-98486037D01*
X87834252Y-98618554D01*
X87778316Y-98790710D01*
X87750000Y-98969489D01*
X87510000Y-98969489D01*
X87481683Y-98790710D01*
X87425748Y-98618556D01*
X87358226Y-98486037D01*
X86857905Y-98986357D01*
X86825925Y-98867007D01*
X86760099Y-98752993D01*
X86667007Y-98659901D01*
X86552993Y-98594075D01*
X86433639Y-98562093D01*
X86933961Y-98061772D01*
X86801445Y-97994252D01*
X86629289Y-97938316D01*
X86450510Y-97910000D01*
X86269490Y-97910000D01*
X86090710Y-97938316D01*
X85918554Y-97994252D01*
X85786037Y-98061772D01*
X86286359Y-98562094D01*
X86167007Y-98594075D01*
X86052993Y-98659901D01*
X85959901Y-98752993D01*
X85894075Y-98867007D01*
X85862094Y-98986359D01*
X85361772Y-98486037D01*
X85294252Y-98618554D01*
X85238316Y-98790710D01*
X85210000Y-98969489D01*
X81500500Y-98969489D01*
X81500500Y-96429450D01*
X85209500Y-96429450D01*
X85209500Y-96610549D01*
X85237828Y-96789406D01*
X85293788Y-96961637D01*
X85361248Y-97094035D01*
X85376004Y-97122994D01*
X85482447Y-97269501D01*
X85610499Y-97397553D01*
X85757006Y-97503996D01*
X85918361Y-97586211D01*
X86090591Y-97642171D01*
X86162136Y-97653502D01*
X86269451Y-97670500D01*
X86269454Y-97670500D01*
X86450549Y-97670500D01*
X86539977Y-97656335D01*
X86629409Y-97642171D01*
X86801639Y-97586211D01*
X86962994Y-97503996D01*
X87109501Y-97397553D01*
X87237553Y-97269501D01*
X87343996Y-97122994D01*
X87426211Y-96961639D01*
X87482171Y-96789409D01*
X87496335Y-96699977D01*
X87510500Y-96610549D01*
X87510500Y-96429450D01*
X87749500Y-96429450D01*
X87749500Y-96610549D01*
X87777828Y-96789406D01*
X87833788Y-96961637D01*
X87901248Y-97094035D01*
X87916004Y-97122994D01*
X88022447Y-97269501D01*
X88150499Y-97397553D01*
X88297006Y-97503996D01*
X88458361Y-97586211D01*
X88630591Y-97642171D01*
X88702136Y-97653502D01*
X88809451Y-97670500D01*
X88809454Y-97670500D01*
X88990549Y-97670500D01*
X89079977Y-97656335D01*
X89169409Y-97642171D01*
X89341639Y-97586211D01*
X89502994Y-97503996D01*
X89649501Y-97397553D01*
X89777553Y-97269501D01*
X89883996Y-97122994D01*
X89929695Y-97033304D01*
X89972960Y-96990040D01*
X90017905Y-96979250D01*
X93150923Y-96979250D01*
X93209114Y-96998157D01*
X93233236Y-97023246D01*
X93280536Y-97094035D01*
X93405965Y-97219464D01*
X93553453Y-97318013D01*
X93717334Y-97385894D01*
X93891309Y-97420500D01*
X93891310Y-97420500D01*
X94068690Y-97420500D01*
X94068691Y-97420500D01*
X94242666Y-97385894D01*
X94406547Y-97318013D01*
X94554035Y-97219464D01*
X94679464Y-97094035D01*
X94778013Y-96946547D01*
X94845894Y-96782666D01*
X94880500Y-96608691D01*
X94880500Y-96431309D01*
X94880130Y-96429450D01*
X110609500Y-96429450D01*
X110609500Y-96610549D01*
X110637828Y-96789406D01*
X110693788Y-96961637D01*
X110761248Y-97094035D01*
X110776004Y-97122994D01*
X110882447Y-97269501D01*
X111010499Y-97397553D01*
X111157006Y-97503996D01*
X111318361Y-97586211D01*
X111490591Y-97642171D01*
X111562136Y-97653502D01*
X111669451Y-97670500D01*
X111669454Y-97670500D01*
X111850549Y-97670500D01*
X111939977Y-97656335D01*
X112029409Y-97642171D01*
X112201639Y-97586211D01*
X112362994Y-97503996D01*
X112509501Y-97397553D01*
X112637553Y-97269501D01*
X112743996Y-97122994D01*
X112826211Y-96961639D01*
X112882171Y-96789409D01*
X112896335Y-96699977D01*
X112910500Y-96610549D01*
X112910500Y-96429450D01*
X112883239Y-96257334D01*
X112882171Y-96250591D01*
X112826211Y-96078361D01*
X112743996Y-95917006D01*
X112637553Y-95770499D01*
X112509501Y-95642447D01*
X112362994Y-95536004D01*
X112362993Y-95536003D01*
X112362991Y-95536002D01*
X112201637Y-95453788D01*
X112029406Y-95397828D01*
X111850549Y-95369500D01*
X111850546Y-95369500D01*
X111669454Y-95369500D01*
X111669451Y-95369500D01*
X111490593Y-95397828D01*
X111318362Y-95453788D01*
X111157008Y-95536002D01*
X111083752Y-95589225D01*
X111010499Y-95642447D01*
X110882447Y-95770499D01*
X110874350Y-95781644D01*
X110776002Y-95917008D01*
X110693788Y-96078362D01*
X110637828Y-96250593D01*
X110609500Y-96429450D01*
X94880130Y-96429450D01*
X94845894Y-96257334D01*
X94778014Y-96093455D01*
X94778014Y-96093454D01*
X94679464Y-95945965D01*
X94554034Y-95820535D01*
X94406544Y-95721985D01*
X94242666Y-95654106D01*
X94068693Y-95619500D01*
X94068691Y-95619500D01*
X93891309Y-95619500D01*
X93891306Y-95619500D01*
X93717334Y-95654106D01*
X93717332Y-95654106D01*
X93553455Y-95721985D01*
X93553454Y-95721985D01*
X93405965Y-95820535D01*
X93280539Y-95945961D01*
X93280536Y-95945965D01*
X93239958Y-96006695D01*
X93233238Y-96016752D01*
X93185188Y-96054631D01*
X93150923Y-96060750D01*
X90017905Y-96060750D01*
X89959714Y-96041843D01*
X89929695Y-96006695D01*
X89926156Y-95999750D01*
X89883996Y-95917006D01*
X89777553Y-95770499D01*
X89649501Y-95642447D01*
X89502994Y-95536004D01*
X89502993Y-95536003D01*
X89502991Y-95536002D01*
X89341637Y-95453788D01*
X89169406Y-95397828D01*
X88990549Y-95369500D01*
X88990546Y-95369500D01*
X88809454Y-95369500D01*
X88809451Y-95369500D01*
X88630593Y-95397828D01*
X88458362Y-95453788D01*
X88297008Y-95536002D01*
X88223752Y-95589225D01*
X88150499Y-95642447D01*
X88022447Y-95770499D01*
X88014350Y-95781644D01*
X87916002Y-95917008D01*
X87833788Y-96078362D01*
X87777828Y-96250593D01*
X87749500Y-96429450D01*
X87510500Y-96429450D01*
X87483239Y-96257334D01*
X87482171Y-96250591D01*
X87426211Y-96078361D01*
X87343996Y-95917006D01*
X87237553Y-95770499D01*
X87109501Y-95642447D01*
X86962994Y-95536004D01*
X86962993Y-95536003D01*
X86962991Y-95536002D01*
X86801637Y-95453788D01*
X86629406Y-95397828D01*
X86450549Y-95369500D01*
X86450546Y-95369500D01*
X86269454Y-95369500D01*
X86269451Y-95369500D01*
X86090593Y-95397828D01*
X85918362Y-95453788D01*
X85757008Y-95536002D01*
X85683752Y-95589225D01*
X85610499Y-95642447D01*
X85482447Y-95770499D01*
X85474350Y-95781644D01*
X85376002Y-95917008D01*
X85293788Y-96078362D01*
X85237828Y-96250593D01*
X85209500Y-96429450D01*
X81500500Y-96429450D01*
X81500500Y-93889450D01*
X85209500Y-93889450D01*
X85209500Y-94070549D01*
X85237828Y-94249406D01*
X85293788Y-94421637D01*
X85334189Y-94500929D01*
X85376004Y-94582994D01*
X85482447Y-94729501D01*
X85610499Y-94857553D01*
X85757006Y-94963996D01*
X85918361Y-95046211D01*
X86090591Y-95102171D01*
X86162136Y-95113502D01*
X86269451Y-95130500D01*
X86269454Y-95130500D01*
X86450549Y-95130500D01*
X86539977Y-95116335D01*
X86629409Y-95102171D01*
X86801639Y-95046211D01*
X86962994Y-94963996D01*
X87109501Y-94857553D01*
X87237553Y-94729501D01*
X87343996Y-94582994D01*
X87426211Y-94421639D01*
X87482171Y-94249409D01*
X87510500Y-94070546D01*
X87510500Y-93889454D01*
X87510500Y-93889450D01*
X87749500Y-93889450D01*
X87749500Y-94070549D01*
X87777828Y-94249406D01*
X87833788Y-94421637D01*
X87874189Y-94500929D01*
X87916004Y-94582994D01*
X88022447Y-94729501D01*
X88150499Y-94857553D01*
X88297006Y-94963996D01*
X88458361Y-95046211D01*
X88630591Y-95102171D01*
X88702136Y-95113502D01*
X88809451Y-95130500D01*
X88809454Y-95130500D01*
X88990549Y-95130500D01*
X89079977Y-95116335D01*
X89169409Y-95102171D01*
X89341639Y-95046211D01*
X89502994Y-94963996D01*
X89649501Y-94857553D01*
X89777553Y-94729501D01*
X89883996Y-94582994D01*
X89966211Y-94421639D01*
X90022171Y-94249409D01*
X90050500Y-94070546D01*
X90050500Y-93889454D01*
X90050500Y-93889450D01*
X110609500Y-93889450D01*
X110609500Y-94070549D01*
X110637828Y-94249406D01*
X110693788Y-94421637D01*
X110734189Y-94500929D01*
X110776004Y-94582994D01*
X110882447Y-94729501D01*
X111010499Y-94857553D01*
X111157006Y-94963996D01*
X111318361Y-95046211D01*
X111490591Y-95102171D01*
X111562136Y-95113502D01*
X111669451Y-95130500D01*
X111669454Y-95130500D01*
X111850549Y-95130500D01*
X111939977Y-95116335D01*
X112029409Y-95102171D01*
X112201639Y-95046211D01*
X112362994Y-94963996D01*
X112509501Y-94857553D01*
X112637553Y-94729501D01*
X112743996Y-94582994D01*
X112826211Y-94421639D01*
X112882171Y-94249409D01*
X112910500Y-94070546D01*
X112910500Y-93889454D01*
X112910500Y-93889450D01*
X112885683Y-93732765D01*
X112882171Y-93710591D01*
X112826211Y-93538361D01*
X112743996Y-93377006D01*
X112637553Y-93230499D01*
X112509501Y-93102447D01*
X112362994Y-92996004D01*
X112362993Y-92996003D01*
X112362991Y-92996002D01*
X112201637Y-92913788D01*
X112029406Y-92857828D01*
X111850549Y-92829500D01*
X111850546Y-92829500D01*
X111669454Y-92829500D01*
X111669451Y-92829500D01*
X111490593Y-92857828D01*
X111318362Y-92913788D01*
X111157008Y-92996002D01*
X111134546Y-93012322D01*
X111010499Y-93102447D01*
X110882447Y-93230499D01*
X110862863Y-93257454D01*
X110776002Y-93377008D01*
X110693788Y-93538362D01*
X110637828Y-93710593D01*
X110609500Y-93889450D01*
X90050500Y-93889450D01*
X90025683Y-93732765D01*
X90022171Y-93710591D01*
X89966211Y-93538361D01*
X89883996Y-93377006D01*
X89777553Y-93230499D01*
X89649501Y-93102447D01*
X89502994Y-92996004D01*
X89502993Y-92996003D01*
X89502991Y-92996002D01*
X89341637Y-92913788D01*
X89169406Y-92857828D01*
X88990549Y-92829500D01*
X88990546Y-92829500D01*
X88809454Y-92829500D01*
X88809451Y-92829500D01*
X88630593Y-92857828D01*
X88458362Y-92913788D01*
X88297008Y-92996002D01*
X88274546Y-93012322D01*
X88150499Y-93102447D01*
X88022447Y-93230499D01*
X88002863Y-93257454D01*
X87916002Y-93377008D01*
X87833788Y-93538362D01*
X87777828Y-93710593D01*
X87749500Y-93889450D01*
X87510500Y-93889450D01*
X87485683Y-93732765D01*
X87482171Y-93710591D01*
X87426211Y-93538361D01*
X87343996Y-93377006D01*
X87237553Y-93230499D01*
X87109501Y-93102447D01*
X86962994Y-92996004D01*
X86962993Y-92996003D01*
X86962991Y-92996002D01*
X86801637Y-92913788D01*
X86629406Y-92857828D01*
X86450549Y-92829500D01*
X86450546Y-92829500D01*
X86269454Y-92829500D01*
X86269451Y-92829500D01*
X86090593Y-92857828D01*
X85918362Y-92913788D01*
X85757008Y-92996002D01*
X85734546Y-93012322D01*
X85610499Y-93102447D01*
X85482447Y-93230499D01*
X85462863Y-93257454D01*
X85376002Y-93377008D01*
X85293788Y-93538362D01*
X85237828Y-93710593D01*
X85209500Y-93889450D01*
X81500500Y-93889450D01*
X81500500Y-91349450D01*
X85209500Y-91349450D01*
X85209500Y-91530549D01*
X85237828Y-91709406D01*
X85293788Y-91881637D01*
X85361248Y-92014035D01*
X85376004Y-92042994D01*
X85482447Y-92189501D01*
X85610499Y-92317553D01*
X85757006Y-92423996D01*
X85918361Y-92506211D01*
X86090591Y-92562171D01*
X86162136Y-92573502D01*
X86269451Y-92590500D01*
X86269454Y-92590500D01*
X86450549Y-92590500D01*
X86539977Y-92576335D01*
X86629409Y-92562171D01*
X86801639Y-92506211D01*
X86962994Y-92423996D01*
X87109501Y-92317553D01*
X87237553Y-92189501D01*
X87343996Y-92042994D01*
X87426211Y-91881639D01*
X87482171Y-91709409D01*
X87508386Y-91543893D01*
X87510500Y-91530549D01*
X87510500Y-91349450D01*
X87749500Y-91349450D01*
X87749500Y-91530549D01*
X87777828Y-91709406D01*
X87833788Y-91881637D01*
X87901248Y-92014035D01*
X87916004Y-92042994D01*
X88022447Y-92189501D01*
X88150499Y-92317553D01*
X88297006Y-92423996D01*
X88458361Y-92506211D01*
X88630591Y-92562171D01*
X88702136Y-92573502D01*
X88809451Y-92590500D01*
X88809454Y-92590500D01*
X88990549Y-92590500D01*
X89079977Y-92576335D01*
X89169409Y-92562171D01*
X89341639Y-92506211D01*
X89502994Y-92423996D01*
X89649501Y-92317553D01*
X89777553Y-92189501D01*
X89883996Y-92042994D01*
X89966211Y-91881639D01*
X90022171Y-91709409D01*
X90048386Y-91543893D01*
X90050500Y-91530549D01*
X90050500Y-91351306D01*
X105779500Y-91351306D01*
X105779500Y-91528693D01*
X105814106Y-91702665D01*
X105814106Y-91702667D01*
X105881985Y-91866544D01*
X105881985Y-91866545D01*
X105933237Y-91943248D01*
X105980536Y-92014035D01*
X106105965Y-92139464D01*
X106253453Y-92238013D01*
X106417334Y-92305894D01*
X106591309Y-92340500D01*
X106591310Y-92340500D01*
X106768690Y-92340500D01*
X106768691Y-92340500D01*
X106942666Y-92305894D01*
X107106547Y-92238013D01*
X107254035Y-92139464D01*
X107379464Y-92014035D01*
X107426762Y-91943247D01*
X107474812Y-91905369D01*
X107509077Y-91899250D01*
X110642095Y-91899250D01*
X110700286Y-91918157D01*
X110730304Y-91953304D01*
X110776004Y-92042994D01*
X110882447Y-92189501D01*
X111010499Y-92317553D01*
X111157006Y-92423996D01*
X111318361Y-92506211D01*
X111490591Y-92562171D01*
X111562136Y-92573502D01*
X111669451Y-92590500D01*
X111669454Y-92590500D01*
X111850549Y-92590500D01*
X111939977Y-92576335D01*
X112029409Y-92562171D01*
X112201639Y-92506211D01*
X112362994Y-92423996D01*
X112509501Y-92317553D01*
X112637553Y-92189501D01*
X112743996Y-92042994D01*
X112826211Y-91881639D01*
X112882171Y-91709409D01*
X112908386Y-91543893D01*
X112910500Y-91530549D01*
X112910500Y-91349450D01*
X112883239Y-91177334D01*
X112882171Y-91170591D01*
X112826211Y-90998361D01*
X112743996Y-90837006D01*
X112637553Y-90690499D01*
X112509501Y-90562447D01*
X112362994Y-90456004D01*
X112362993Y-90456003D01*
X112362991Y-90456002D01*
X112201637Y-90373788D01*
X112029406Y-90317828D01*
X111850549Y-90289500D01*
X111850546Y-90289500D01*
X111669454Y-90289500D01*
X111669451Y-90289500D01*
X111490593Y-90317828D01*
X111318362Y-90373788D01*
X111157008Y-90456002D01*
X111083752Y-90509225D01*
X111010499Y-90562447D01*
X110882447Y-90690499D01*
X110873378Y-90702982D01*
X110776002Y-90837008D01*
X110730305Y-90926695D01*
X110687040Y-90969960D01*
X110642095Y-90980750D01*
X107509077Y-90980750D01*
X107450886Y-90961843D01*
X107426762Y-90936752D01*
X107379464Y-90865965D01*
X107254035Y-90740536D01*
X107176258Y-90688567D01*
X107106544Y-90641985D01*
X106942666Y-90574106D01*
X106768693Y-90539500D01*
X106768691Y-90539500D01*
X106591309Y-90539500D01*
X106591306Y-90539500D01*
X106417334Y-90574106D01*
X106417332Y-90574106D01*
X106253455Y-90641985D01*
X106253454Y-90641985D01*
X106105965Y-90740535D01*
X105980535Y-90865965D01*
X105881985Y-91013454D01*
X105881985Y-91013455D01*
X105814106Y-91177332D01*
X105814106Y-91177334D01*
X105779500Y-91351306D01*
X90050500Y-91351306D01*
X90050500Y-91349450D01*
X90023239Y-91177334D01*
X90022171Y-91170591D01*
X89966211Y-90998361D01*
X89883996Y-90837006D01*
X89777553Y-90690499D01*
X89649501Y-90562447D01*
X89502994Y-90456004D01*
X89502993Y-90456003D01*
X89502991Y-90456002D01*
X89341637Y-90373788D01*
X89169406Y-90317828D01*
X88990549Y-90289500D01*
X88990546Y-90289500D01*
X88809454Y-90289500D01*
X88809451Y-90289500D01*
X88630593Y-90317828D01*
X88458362Y-90373788D01*
X88297008Y-90456002D01*
X88223752Y-90509225D01*
X88150499Y-90562447D01*
X88022447Y-90690499D01*
X88013378Y-90702982D01*
X87916002Y-90837008D01*
X87833788Y-90998362D01*
X87777828Y-91170593D01*
X87749500Y-91349450D01*
X87510500Y-91349450D01*
X87483239Y-91177334D01*
X87482171Y-91170591D01*
X87426211Y-90998361D01*
X87343996Y-90837006D01*
X87237553Y-90690499D01*
X87109501Y-90562447D01*
X86962994Y-90456004D01*
X86962993Y-90456003D01*
X86962991Y-90456002D01*
X86801637Y-90373788D01*
X86629406Y-90317828D01*
X86450549Y-90289500D01*
X86450546Y-90289500D01*
X86269454Y-90289500D01*
X86269451Y-90289500D01*
X86090593Y-90317828D01*
X85918362Y-90373788D01*
X85757008Y-90456002D01*
X85683752Y-90509225D01*
X85610499Y-90562447D01*
X85482447Y-90690499D01*
X85473378Y-90702982D01*
X85376002Y-90837008D01*
X85293788Y-90998362D01*
X85237828Y-91170593D01*
X85209500Y-91349450D01*
X81500500Y-91349450D01*
X81500500Y-88809489D01*
X85210000Y-88809489D01*
X85210000Y-88990510D01*
X85238316Y-89169289D01*
X85294252Y-89341445D01*
X85361772Y-89473961D01*
X85862093Y-88973639D01*
X85894075Y-89092993D01*
X85959901Y-89207007D01*
X86052993Y-89300099D01*
X86167007Y-89365925D01*
X86286357Y-89397905D01*
X85786037Y-89898226D01*
X85918556Y-89965748D01*
X86090710Y-90021683D01*
X86269490Y-90050000D01*
X86450510Y-90050000D01*
X86629289Y-90021683D01*
X86801445Y-89965747D01*
X86933961Y-89898226D01*
X86433640Y-89397905D01*
X86552993Y-89365925D01*
X86667007Y-89300099D01*
X86760099Y-89207007D01*
X86825925Y-89092993D01*
X86857905Y-88973640D01*
X87358226Y-89473961D01*
X87425747Y-89341445D01*
X87481683Y-89169289D01*
X87510000Y-88990510D01*
X87510000Y-88809489D01*
X87750000Y-88809489D01*
X87750000Y-88990510D01*
X87778316Y-89169289D01*
X87834252Y-89341445D01*
X87901772Y-89473961D01*
X88402093Y-88973639D01*
X88434075Y-89092993D01*
X88499901Y-89207007D01*
X88592993Y-89300099D01*
X88707007Y-89365925D01*
X88826357Y-89397905D01*
X88326037Y-89898226D01*
X88458556Y-89965748D01*
X88630710Y-90021683D01*
X88809490Y-90050000D01*
X88990510Y-90050000D01*
X89169289Y-90021683D01*
X89341445Y-89965747D01*
X89473961Y-89898226D01*
X88973640Y-89397905D01*
X89092993Y-89365925D01*
X89207007Y-89300099D01*
X89300099Y-89207007D01*
X89365925Y-89092993D01*
X89397905Y-88973640D01*
X89898226Y-89473961D01*
X89965747Y-89341445D01*
X90021683Y-89169289D01*
X90050000Y-88990510D01*
X90050000Y-88809489D01*
X90049994Y-88809450D01*
X110609500Y-88809450D01*
X110609500Y-88990549D01*
X110637828Y-89169406D01*
X110693788Y-89341637D01*
X110774223Y-89499500D01*
X110776004Y-89502994D01*
X110882447Y-89649501D01*
X111010499Y-89777553D01*
X111157006Y-89883996D01*
X111318361Y-89966211D01*
X111490591Y-90022171D01*
X111562136Y-90033502D01*
X111669451Y-90050500D01*
X111669454Y-90050500D01*
X111850549Y-90050500D01*
X111939977Y-90036335D01*
X112029409Y-90022171D01*
X112201639Y-89966211D01*
X112362994Y-89883996D01*
X112509501Y-89777553D01*
X112637553Y-89649501D01*
X112743996Y-89502994D01*
X112826211Y-89341639D01*
X112882171Y-89169409D01*
X112910500Y-88990546D01*
X112910500Y-88811306D01*
X113907500Y-88811306D01*
X113907500Y-88988693D01*
X113912551Y-89014085D01*
X113941875Y-89161507D01*
X113942106Y-89162665D01*
X113942106Y-89162667D01*
X114009985Y-89326544D01*
X114009985Y-89326545D01*
X114108535Y-89474034D01*
X114108536Y-89474035D01*
X114233965Y-89599464D01*
X114381453Y-89698013D01*
X114545334Y-89765894D01*
X114719309Y-89800500D01*
X114719310Y-89800500D01*
X114896690Y-89800500D01*
X114896691Y-89800500D01*
X114980188Y-89783891D01*
X115040949Y-89791081D01*
X115069507Y-89810984D01*
X116218506Y-90959983D01*
X116218508Y-90959986D01*
X116304014Y-91045492D01*
X116304016Y-91045493D01*
X116406295Y-91104545D01*
X116406304Y-91104548D01*
X116408736Y-91105953D01*
X116408741Y-91105955D01*
X116498785Y-91130082D01*
X116525535Y-91137250D01*
X116525537Y-91137251D01*
X116525538Y-91137251D01*
X116652525Y-91137251D01*
X116652541Y-91137250D01*
X121598923Y-91137250D01*
X121657114Y-91156157D01*
X121681236Y-91181246D01*
X121728536Y-91252035D01*
X121853965Y-91377464D01*
X122001453Y-91476013D01*
X122165334Y-91543894D01*
X122339309Y-91578500D01*
X122339310Y-91578500D01*
X122516690Y-91578500D01*
X122516691Y-91578500D01*
X122690666Y-91543894D01*
X122854547Y-91476013D01*
X123002035Y-91377464D01*
X123127464Y-91252035D01*
X123226013Y-91104547D01*
X123293894Y-90940666D01*
X123328500Y-90766691D01*
X123328500Y-90589309D01*
X123293894Y-90415334D01*
X123253506Y-90317828D01*
X123226014Y-90251455D01*
X123226014Y-90251454D01*
X123127464Y-90103965D01*
X123002034Y-89978535D01*
X122854544Y-89879985D01*
X122690666Y-89812106D01*
X122516693Y-89777500D01*
X122516691Y-89777500D01*
X122339309Y-89777500D01*
X122339306Y-89777500D01*
X122165334Y-89812106D01*
X122165332Y-89812106D01*
X122001455Y-89879985D01*
X122001454Y-89879985D01*
X121853965Y-89978535D01*
X121728539Y-90103961D01*
X121728536Y-90103965D01*
X121681238Y-90174752D01*
X121633188Y-90212631D01*
X121598923Y-90218750D01*
X116817235Y-90218750D01*
X116759044Y-90199843D01*
X116747231Y-90189754D01*
X115718984Y-89161507D01*
X115691207Y-89106990D01*
X115691891Y-89072188D01*
X115708498Y-88988701D01*
X115708497Y-88988701D01*
X115708500Y-88988691D01*
X115708500Y-88811309D01*
X115673894Y-88637334D01*
X115637715Y-88549990D01*
X115606014Y-88473455D01*
X115606014Y-88473454D01*
X115507464Y-88325965D01*
X115382034Y-88200535D01*
X115234544Y-88101985D01*
X115070666Y-88034106D01*
X114896693Y-87999500D01*
X114896691Y-87999500D01*
X114719309Y-87999500D01*
X114719306Y-87999500D01*
X114545334Y-88034106D01*
X114545332Y-88034106D01*
X114381455Y-88101985D01*
X114381454Y-88101985D01*
X114233965Y-88200535D01*
X114108535Y-88325965D01*
X114009985Y-88473454D01*
X114009985Y-88473455D01*
X113942106Y-88637332D01*
X113942106Y-88637334D01*
X113907500Y-88811306D01*
X112910500Y-88811306D01*
X112910500Y-88809454D01*
X112910500Y-88809450D01*
X112883239Y-88637334D01*
X112882171Y-88630591D01*
X112826211Y-88458361D01*
X112743996Y-88297006D01*
X112637553Y-88150499D01*
X112509501Y-88022447D01*
X112362994Y-87916004D01*
X112362993Y-87916003D01*
X112362991Y-87916002D01*
X112201637Y-87833788D01*
X112029406Y-87777828D01*
X111850549Y-87749500D01*
X111850546Y-87749500D01*
X111669454Y-87749500D01*
X111669451Y-87749500D01*
X111490593Y-87777828D01*
X111318362Y-87833788D01*
X111157008Y-87916002D01*
X111083752Y-87969225D01*
X111010499Y-88022447D01*
X110882447Y-88150499D01*
X110846094Y-88200535D01*
X110776002Y-88297008D01*
X110693788Y-88458362D01*
X110637828Y-88630593D01*
X110609500Y-88809450D01*
X90049994Y-88809450D01*
X90021683Y-88630710D01*
X89965748Y-88458556D01*
X89898226Y-88326037D01*
X89397905Y-88826357D01*
X89365925Y-88707007D01*
X89300099Y-88592993D01*
X89207007Y-88499901D01*
X89092993Y-88434075D01*
X88973639Y-88402093D01*
X89473961Y-87901772D01*
X89341445Y-87834252D01*
X89169289Y-87778316D01*
X88990510Y-87750000D01*
X88809490Y-87750000D01*
X88630710Y-87778316D01*
X88458554Y-87834252D01*
X88326037Y-87901772D01*
X88826359Y-88402094D01*
X88707007Y-88434075D01*
X88592993Y-88499901D01*
X88499901Y-88592993D01*
X88434075Y-88707007D01*
X88402094Y-88826359D01*
X87901772Y-88326037D01*
X87834252Y-88458554D01*
X87778316Y-88630710D01*
X87750000Y-88809489D01*
X87510000Y-88809489D01*
X87481683Y-88630710D01*
X87425748Y-88458556D01*
X87358226Y-88326037D01*
X86857905Y-88826357D01*
X86825925Y-88707007D01*
X86760099Y-88592993D01*
X86667007Y-88499901D01*
X86552993Y-88434075D01*
X86433639Y-88402093D01*
X86933961Y-87901772D01*
X86801445Y-87834252D01*
X86629289Y-87778316D01*
X86450510Y-87750000D01*
X86269490Y-87750000D01*
X86090710Y-87778316D01*
X85918554Y-87834252D01*
X85786037Y-87901772D01*
X86286359Y-88402094D01*
X86167007Y-88434075D01*
X86052993Y-88499901D01*
X85959901Y-88592993D01*
X85894075Y-88707007D01*
X85862094Y-88826359D01*
X85361772Y-88326037D01*
X85294252Y-88458554D01*
X85238316Y-88630710D01*
X85210000Y-88809489D01*
X81500500Y-88809489D01*
X81500500Y-87539450D01*
X116959500Y-87539450D01*
X116959500Y-87720549D01*
X116987828Y-87899406D01*
X117043788Y-88071637D01*
X117109465Y-88200536D01*
X117126004Y-88232994D01*
X117232447Y-88379501D01*
X117360499Y-88507553D01*
X117507006Y-88613996D01*
X117668361Y-88696211D01*
X117840591Y-88752171D01*
X117912136Y-88763502D01*
X118019451Y-88780500D01*
X118019454Y-88780500D01*
X118200549Y-88780500D01*
X118289977Y-88766335D01*
X118379409Y-88752171D01*
X118551639Y-88696211D01*
X118712994Y-88613996D01*
X118859501Y-88507553D01*
X118987553Y-88379501D01*
X119093996Y-88232994D01*
X119176211Y-88071639D01*
X119232171Y-87899409D01*
X119251427Y-87777829D01*
X119260500Y-87720549D01*
X119260500Y-87539450D01*
X119233740Y-87370499D01*
X119232171Y-87360591D01*
X119176211Y-87188361D01*
X119093996Y-87027006D01*
X118987553Y-86880499D01*
X118859501Y-86752447D01*
X118835666Y-86735130D01*
X119499500Y-86735130D01*
X119499500Y-88524860D01*
X119499501Y-88524863D01*
X119502414Y-88549990D01*
X119521402Y-88592993D01*
X119547794Y-88652765D01*
X119627235Y-88732206D01*
X119730009Y-88777585D01*
X119755135Y-88780500D01*
X121544864Y-88780499D01*
X121569991Y-88777585D01*
X121672765Y-88732206D01*
X121752206Y-88652765D01*
X121797585Y-88549991D01*
X121800500Y-88524865D01*
X121800499Y-86735136D01*
X121797585Y-86710009D01*
X121752206Y-86607235D01*
X121672765Y-86527794D01*
X121569991Y-86482415D01*
X121569990Y-86482414D01*
X121569988Y-86482414D01*
X121544868Y-86479500D01*
X119755139Y-86479500D01*
X119755136Y-86479501D01*
X119730009Y-86482414D01*
X119627235Y-86527794D01*
X119547794Y-86607235D01*
X119502414Y-86710011D01*
X119499500Y-86735130D01*
X118835666Y-86735130D01*
X118712994Y-86646004D01*
X118712993Y-86646003D01*
X118712991Y-86646002D01*
X118551637Y-86563788D01*
X118379406Y-86507828D01*
X118200549Y-86479500D01*
X118200546Y-86479500D01*
X118019454Y-86479500D01*
X118019451Y-86479500D01*
X117840593Y-86507828D01*
X117668362Y-86563788D01*
X117507008Y-86646002D01*
X117433752Y-86699225D01*
X117360499Y-86752447D01*
X117232447Y-86880499D01*
X117193605Y-86933961D01*
X117126002Y-87027008D01*
X117043788Y-87188362D01*
X116987828Y-87360593D01*
X116959500Y-87539450D01*
X81500500Y-87539450D01*
X81500500Y-86269450D01*
X85209500Y-86269450D01*
X85209500Y-86450549D01*
X85237828Y-86629406D01*
X85293788Y-86801637D01*
X85361210Y-86933961D01*
X85376004Y-86962994D01*
X85482447Y-87109501D01*
X85610499Y-87237553D01*
X85757006Y-87343996D01*
X85918361Y-87426211D01*
X86090591Y-87482171D01*
X86162136Y-87493502D01*
X86269451Y-87510500D01*
X86269454Y-87510500D01*
X86450549Y-87510500D01*
X86539977Y-87496335D01*
X86629409Y-87482171D01*
X86801639Y-87426211D01*
X86962994Y-87343996D01*
X87109501Y-87237553D01*
X87237553Y-87109501D01*
X87343996Y-86962994D01*
X87426211Y-86801639D01*
X87482171Y-86629409D01*
X87501427Y-86507829D01*
X87510500Y-86450549D01*
X87510500Y-86269450D01*
X87749500Y-86269450D01*
X87749500Y-86450549D01*
X87777828Y-86629406D01*
X87833788Y-86801637D01*
X87901210Y-86933961D01*
X87916004Y-86962994D01*
X88022447Y-87109501D01*
X88150499Y-87237553D01*
X88297006Y-87343996D01*
X88458361Y-87426211D01*
X88630591Y-87482171D01*
X88702136Y-87493502D01*
X88809451Y-87510500D01*
X88809454Y-87510500D01*
X88990549Y-87510500D01*
X89079977Y-87496335D01*
X89169409Y-87482171D01*
X89341639Y-87426211D01*
X89502994Y-87343996D01*
X89649501Y-87237553D01*
X89777553Y-87109501D01*
X89883996Y-86962994D01*
X89966211Y-86801639D01*
X90022171Y-86629409D01*
X90041427Y-86507829D01*
X90050500Y-86450549D01*
X90050500Y-86269450D01*
X90022171Y-86090593D01*
X90022171Y-86090591D01*
X89966211Y-85918361D01*
X89883996Y-85757006D01*
X89777553Y-85610499D01*
X89649501Y-85482447D01*
X89502994Y-85376004D01*
X89502993Y-85376003D01*
X89502991Y-85376002D01*
X89341637Y-85293788D01*
X89169406Y-85237828D01*
X88990549Y-85209500D01*
X88990546Y-85209500D01*
X88809454Y-85209500D01*
X88809451Y-85209500D01*
X88630593Y-85237828D01*
X88458362Y-85293788D01*
X88297008Y-85376002D01*
X88223752Y-85429225D01*
X88150499Y-85482447D01*
X88022447Y-85610499D01*
X87983552Y-85664034D01*
X87916002Y-85757008D01*
X87833788Y-85918362D01*
X87777828Y-86090593D01*
X87749500Y-86269450D01*
X87510500Y-86269450D01*
X87482171Y-86090593D01*
X87482171Y-86090591D01*
X87426211Y-85918361D01*
X87343996Y-85757006D01*
X87237553Y-85610499D01*
X87109501Y-85482447D01*
X86962994Y-85376004D01*
X86962993Y-85376003D01*
X86962991Y-85376002D01*
X86801637Y-85293788D01*
X86629406Y-85237828D01*
X86450549Y-85209500D01*
X86450546Y-85209500D01*
X86269454Y-85209500D01*
X86269451Y-85209500D01*
X86090593Y-85237828D01*
X85918362Y-85293788D01*
X85757008Y-85376002D01*
X85683752Y-85429225D01*
X85610499Y-85482447D01*
X85482447Y-85610499D01*
X85443552Y-85664034D01*
X85376002Y-85757008D01*
X85293788Y-85918362D01*
X85237828Y-86090593D01*
X85209500Y-86269450D01*
X81500500Y-86269450D01*
X81500500Y-85001306D01*
X105779500Y-85001306D01*
X105779500Y-85178693D01*
X105814106Y-85352665D01*
X105814106Y-85352667D01*
X105881985Y-85516544D01*
X105881985Y-85516545D01*
X105980535Y-85664034D01*
X105980536Y-85664035D01*
X106105965Y-85789464D01*
X106253453Y-85888013D01*
X106417334Y-85955894D01*
X106591309Y-85990500D01*
X106591310Y-85990500D01*
X106768690Y-85990500D01*
X106768691Y-85990500D01*
X106942666Y-85955894D01*
X107106547Y-85888013D01*
X107254035Y-85789464D01*
X107379464Y-85664035D01*
X107426762Y-85593247D01*
X107474812Y-85555369D01*
X107509077Y-85549250D01*
X110733268Y-85549250D01*
X110791459Y-85568157D01*
X110827423Y-85617657D01*
X110827423Y-85678843D01*
X110813361Y-85706441D01*
X110776430Y-85757270D01*
X110694250Y-85918559D01*
X110638316Y-86090710D01*
X110610000Y-86269489D01*
X110610000Y-86450510D01*
X110638316Y-86629289D01*
X110694252Y-86801445D01*
X110761772Y-86933961D01*
X111262093Y-86433640D01*
X111294075Y-86552993D01*
X111359901Y-86667007D01*
X111452993Y-86760099D01*
X111567007Y-86825925D01*
X111686357Y-86857905D01*
X111186037Y-87358226D01*
X111318556Y-87425748D01*
X111490710Y-87481683D01*
X111669490Y-87510000D01*
X111850510Y-87510000D01*
X112029289Y-87481683D01*
X112153244Y-87441409D01*
X112201445Y-87425747D01*
X112333961Y-87358226D01*
X111833640Y-86857905D01*
X111952993Y-86825925D01*
X112067007Y-86760099D01*
X112160099Y-86667007D01*
X112225925Y-86552993D01*
X112257905Y-86433641D01*
X112758226Y-86933961D01*
X112825747Y-86801445D01*
X112881683Y-86629289D01*
X112910000Y-86450510D01*
X112910000Y-86269489D01*
X112881683Y-86090710D01*
X112825749Y-85918559D01*
X112743569Y-85757270D01*
X112706639Y-85706441D01*
X112687732Y-85648250D01*
X112706639Y-85590059D01*
X112756139Y-85554095D01*
X112786732Y-85549250D01*
X116992095Y-85549250D01*
X117050286Y-85568157D01*
X117080304Y-85603304D01*
X117098463Y-85638943D01*
X117118793Y-85678843D01*
X117126004Y-85692994D01*
X117232447Y-85839501D01*
X117360499Y-85967553D01*
X117507006Y-86073996D01*
X117668361Y-86156211D01*
X117840591Y-86212171D01*
X117912136Y-86223502D01*
X118019451Y-86240500D01*
X118019454Y-86240500D01*
X118200549Y-86240500D01*
X118289977Y-86226335D01*
X118379409Y-86212171D01*
X118551639Y-86156211D01*
X118712994Y-86073996D01*
X118859501Y-85967553D01*
X118987553Y-85839501D01*
X119093996Y-85692994D01*
X119176211Y-85531639D01*
X119232171Y-85359409D01*
X119251427Y-85237829D01*
X119260500Y-85180549D01*
X119260500Y-84999450D01*
X119499500Y-84999450D01*
X119499500Y-85180549D01*
X119527828Y-85359406D01*
X119583788Y-85531637D01*
X119658793Y-85678843D01*
X119666004Y-85692994D01*
X119772447Y-85839501D01*
X119900499Y-85967553D01*
X120047006Y-86073996D01*
X120208361Y-86156211D01*
X120380591Y-86212171D01*
X120452136Y-86223502D01*
X120559451Y-86240500D01*
X120559454Y-86240500D01*
X120740549Y-86240500D01*
X120829977Y-86226335D01*
X120919409Y-86212171D01*
X121091639Y-86156211D01*
X121252994Y-86073996D01*
X121399501Y-85967553D01*
X121527553Y-85839501D01*
X121633996Y-85692994D01*
X121716211Y-85531639D01*
X121772171Y-85359409D01*
X121791427Y-85237829D01*
X121800500Y-85180549D01*
X121800500Y-84999450D01*
X121773239Y-84827334D01*
X121772171Y-84820591D01*
X121716211Y-84648361D01*
X121633996Y-84487006D01*
X121527553Y-84340499D01*
X121399501Y-84212447D01*
X121252994Y-84106004D01*
X121252993Y-84106003D01*
X121252991Y-84106002D01*
X121091637Y-84023788D01*
X120919406Y-83967828D01*
X120740549Y-83939500D01*
X120740546Y-83939500D01*
X120559454Y-83939500D01*
X120559451Y-83939500D01*
X120380593Y-83967828D01*
X120208362Y-84023788D01*
X120047008Y-84106002D01*
X119980408Y-84154390D01*
X119900499Y-84212447D01*
X119772447Y-84340499D01*
X119736094Y-84390535D01*
X119666002Y-84487008D01*
X119583788Y-84648362D01*
X119527828Y-84820593D01*
X119499500Y-84999450D01*
X119260500Y-84999450D01*
X119233239Y-84827334D01*
X119232171Y-84820591D01*
X119176211Y-84648361D01*
X119093996Y-84487006D01*
X118987553Y-84340499D01*
X118859501Y-84212447D01*
X118712994Y-84106004D01*
X118712993Y-84106003D01*
X118712991Y-84106002D01*
X118551637Y-84023788D01*
X118379406Y-83967828D01*
X118200549Y-83939500D01*
X118200546Y-83939500D01*
X118019454Y-83939500D01*
X118019451Y-83939500D01*
X117840593Y-83967828D01*
X117668362Y-84023788D01*
X117507008Y-84106002D01*
X117440408Y-84154390D01*
X117360499Y-84212447D01*
X117232447Y-84340499D01*
X117196094Y-84390535D01*
X117126002Y-84487008D01*
X117091301Y-84555113D01*
X117087618Y-84562343D01*
X117080305Y-84576695D01*
X117037040Y-84619960D01*
X116992095Y-84630750D01*
X112787351Y-84630750D01*
X112729160Y-84611843D01*
X112693196Y-84562343D01*
X112693196Y-84501157D01*
X112707256Y-84473561D01*
X112743996Y-84422994D01*
X112826211Y-84261639D01*
X112882171Y-84089409D01*
X112901427Y-83967829D01*
X112910500Y-83910549D01*
X112910500Y-83729450D01*
X112882171Y-83550593D01*
X112882171Y-83550591D01*
X112826211Y-83378361D01*
X112743996Y-83217006D01*
X112637553Y-83070499D01*
X112509501Y-82942447D01*
X112362994Y-82836004D01*
X112362993Y-82836003D01*
X112362991Y-82836002D01*
X112201637Y-82753788D01*
X112029406Y-82697828D01*
X111850549Y-82669500D01*
X111850546Y-82669500D01*
X111669454Y-82669500D01*
X111669451Y-82669500D01*
X111490593Y-82697828D01*
X111318362Y-82753788D01*
X111157008Y-82836002D01*
X111083752Y-82889225D01*
X111010499Y-82942447D01*
X110882447Y-83070499D01*
X110861879Y-83098809D01*
X110776002Y-83217008D01*
X110693788Y-83378362D01*
X110637828Y-83550593D01*
X110609500Y-83729450D01*
X110609500Y-83910549D01*
X110637828Y-84089406D01*
X110693788Y-84261637D01*
X110761210Y-84393961D01*
X110776004Y-84422994D01*
X110812742Y-84473560D01*
X110831649Y-84531750D01*
X110812742Y-84589941D01*
X110763242Y-84625905D01*
X110732649Y-84630750D01*
X107509077Y-84630750D01*
X107450886Y-84611843D01*
X107426762Y-84586752D01*
X107379464Y-84515965D01*
X107254035Y-84390536D01*
X107106547Y-84291987D01*
X107106546Y-84291986D01*
X107106544Y-84291985D01*
X106942666Y-84224106D01*
X106768693Y-84189500D01*
X106768691Y-84189500D01*
X106591309Y-84189500D01*
X106591306Y-84189500D01*
X106417334Y-84224106D01*
X106417332Y-84224106D01*
X106253455Y-84291985D01*
X106253454Y-84291985D01*
X106105965Y-84390535D01*
X105980535Y-84515965D01*
X105881985Y-84663454D01*
X105881985Y-84663455D01*
X105814106Y-84827332D01*
X105814106Y-84827334D01*
X105779500Y-85001306D01*
X81500500Y-85001306D01*
X81500500Y-83729489D01*
X85210000Y-83729489D01*
X85210000Y-83910510D01*
X85238316Y-84089289D01*
X85294252Y-84261445D01*
X85361772Y-84393961D01*
X85862093Y-83893639D01*
X85894075Y-84012993D01*
X85959901Y-84127007D01*
X86052993Y-84220099D01*
X86167007Y-84285925D01*
X86286357Y-84317905D01*
X85786037Y-84818226D01*
X85918556Y-84885748D01*
X86090710Y-84941683D01*
X86269490Y-84970000D01*
X86450510Y-84970000D01*
X86629289Y-84941683D01*
X86801445Y-84885747D01*
X86933961Y-84818226D01*
X86433640Y-84317905D01*
X86552993Y-84285925D01*
X86667007Y-84220099D01*
X86760099Y-84127007D01*
X86825925Y-84012993D01*
X86857905Y-83893640D01*
X87358226Y-84393961D01*
X87425747Y-84261445D01*
X87481683Y-84089289D01*
X87510000Y-83910510D01*
X87510000Y-83729489D01*
X87750000Y-83729489D01*
X87750000Y-83910510D01*
X87778316Y-84089289D01*
X87834252Y-84261445D01*
X87901772Y-84393961D01*
X88402093Y-83893639D01*
X88434075Y-84012993D01*
X88499901Y-84127007D01*
X88592993Y-84220099D01*
X88707007Y-84285925D01*
X88826357Y-84317905D01*
X88326037Y-84818226D01*
X88458556Y-84885748D01*
X88630710Y-84941683D01*
X88809490Y-84970000D01*
X88990510Y-84970000D01*
X89169289Y-84941683D01*
X89290533Y-84902290D01*
X89341445Y-84885747D01*
X89473961Y-84818226D01*
X88973640Y-84317905D01*
X89092993Y-84285925D01*
X89207007Y-84220099D01*
X89300099Y-84127007D01*
X89365925Y-84012993D01*
X89397905Y-83893640D01*
X89898226Y-84393961D01*
X89965747Y-84261445D01*
X90021683Y-84089289D01*
X90050000Y-83910510D01*
X90050000Y-83729489D01*
X90021683Y-83550710D01*
X89965748Y-83378556D01*
X89898226Y-83246037D01*
X89397905Y-83746357D01*
X89365925Y-83627007D01*
X89300099Y-83512993D01*
X89207007Y-83419901D01*
X89092993Y-83354075D01*
X88973639Y-83322093D01*
X89473961Y-82821772D01*
X89341445Y-82754252D01*
X89169289Y-82698316D01*
X88990510Y-82670000D01*
X88809490Y-82670000D01*
X88630710Y-82698316D01*
X88458554Y-82754252D01*
X88326037Y-82821772D01*
X88826359Y-83322094D01*
X88707007Y-83354075D01*
X88592993Y-83419901D01*
X88499901Y-83512993D01*
X88434075Y-83627007D01*
X88402094Y-83746359D01*
X87901772Y-83246037D01*
X87834252Y-83378554D01*
X87778316Y-83550710D01*
X87750000Y-83729489D01*
X87510000Y-83729489D01*
X87481683Y-83550710D01*
X87425748Y-83378556D01*
X87358226Y-83246037D01*
X86857905Y-83746357D01*
X86825925Y-83627007D01*
X86760099Y-83512993D01*
X86667007Y-83419901D01*
X86552993Y-83354075D01*
X86433639Y-83322093D01*
X86933961Y-82821772D01*
X86801445Y-82754252D01*
X86629289Y-82698316D01*
X86450510Y-82670000D01*
X86269490Y-82670000D01*
X86090710Y-82698316D01*
X85918554Y-82754252D01*
X85786037Y-82821772D01*
X86286359Y-83322094D01*
X86167007Y-83354075D01*
X86052993Y-83419901D01*
X85959901Y-83512993D01*
X85894075Y-83627007D01*
X85862094Y-83746359D01*
X85361772Y-83246037D01*
X85294252Y-83378554D01*
X85238316Y-83550710D01*
X85210000Y-83729489D01*
X81500500Y-83729489D01*
X81500500Y-82459450D01*
X116959500Y-82459450D01*
X116959500Y-82640549D01*
X116987828Y-82819406D01*
X116987829Y-82819409D01*
X117043789Y-82991639D01*
X117126004Y-83152994D01*
X117232447Y-83299501D01*
X117360499Y-83427553D01*
X117507006Y-83533996D01*
X117668361Y-83616211D01*
X117840591Y-83672171D01*
X117912136Y-83683502D01*
X118019451Y-83700500D01*
X118019454Y-83700500D01*
X118200549Y-83700500D01*
X118289977Y-83686335D01*
X118379409Y-83672171D01*
X118551639Y-83616211D01*
X118712994Y-83533996D01*
X118859501Y-83427553D01*
X118987553Y-83299501D01*
X119093996Y-83152994D01*
X119176211Y-82991639D01*
X119232171Y-82819409D01*
X119251427Y-82697829D01*
X119260500Y-82640549D01*
X119260500Y-82459450D01*
X119499500Y-82459450D01*
X119499500Y-82640549D01*
X119527828Y-82819406D01*
X119527829Y-82819409D01*
X119583789Y-82991639D01*
X119666004Y-83152994D01*
X119772447Y-83299501D01*
X119900499Y-83427553D01*
X120047006Y-83533996D01*
X120208361Y-83616211D01*
X120380591Y-83672171D01*
X120452136Y-83683502D01*
X120559451Y-83700500D01*
X120559454Y-83700500D01*
X120740549Y-83700500D01*
X120829977Y-83686335D01*
X120919409Y-83672171D01*
X121091639Y-83616211D01*
X121252994Y-83533996D01*
X121399501Y-83427553D01*
X121527553Y-83299501D01*
X121633996Y-83152994D01*
X121716211Y-82991639D01*
X121772171Y-82819409D01*
X121791427Y-82697829D01*
X121800500Y-82640549D01*
X121800500Y-82459450D01*
X121772171Y-82280593D01*
X121772171Y-82280591D01*
X121716211Y-82108361D01*
X121633996Y-81947006D01*
X121527553Y-81800499D01*
X121399501Y-81672447D01*
X121252994Y-81566004D01*
X121252993Y-81566003D01*
X121252991Y-81566002D01*
X121091637Y-81483788D01*
X120919406Y-81427828D01*
X120740549Y-81399500D01*
X120740546Y-81399500D01*
X120559454Y-81399500D01*
X120559451Y-81399500D01*
X120380593Y-81427828D01*
X120208362Y-81483788D01*
X120047008Y-81566002D01*
X119973752Y-81619225D01*
X119900499Y-81672447D01*
X119772447Y-81800499D01*
X119723122Y-81868390D01*
X119666002Y-81947008D01*
X119583788Y-82108362D01*
X119527828Y-82280593D01*
X119499500Y-82459450D01*
X119260500Y-82459450D01*
X119232171Y-82280593D01*
X119232171Y-82280591D01*
X119176211Y-82108361D01*
X119093996Y-81947006D01*
X118987553Y-81800499D01*
X118859501Y-81672447D01*
X118712994Y-81566004D01*
X118712993Y-81566003D01*
X118712991Y-81566002D01*
X118551637Y-81483788D01*
X118379406Y-81427828D01*
X118200549Y-81399500D01*
X118200546Y-81399500D01*
X118019454Y-81399500D01*
X118019451Y-81399500D01*
X117840593Y-81427828D01*
X117668362Y-81483788D01*
X117507008Y-81566002D01*
X117433752Y-81619225D01*
X117360499Y-81672447D01*
X117232447Y-81800499D01*
X117183122Y-81868390D01*
X117126002Y-81947008D01*
X117043788Y-82108362D01*
X116987828Y-82280593D01*
X116959500Y-82459450D01*
X81500500Y-82459450D01*
X81500500Y-81189450D01*
X85209500Y-81189450D01*
X85209500Y-81370549D01*
X85237828Y-81549406D01*
X85293788Y-81721637D01*
X85368562Y-81868390D01*
X85376004Y-81882994D01*
X85482447Y-82029501D01*
X85610499Y-82157553D01*
X85757006Y-82263996D01*
X85918361Y-82346211D01*
X86090591Y-82402171D01*
X86162136Y-82413502D01*
X86269451Y-82430500D01*
X86269454Y-82430500D01*
X86450549Y-82430500D01*
X86539977Y-82416335D01*
X86629409Y-82402171D01*
X86801639Y-82346211D01*
X86962994Y-82263996D01*
X87109501Y-82157553D01*
X87237553Y-82029501D01*
X87343996Y-81882994D01*
X87426211Y-81721639D01*
X87482171Y-81549409D01*
X87501427Y-81427829D01*
X87510500Y-81370549D01*
X87510500Y-81189450D01*
X87749500Y-81189450D01*
X87749500Y-81370549D01*
X87777828Y-81549406D01*
X87833788Y-81721637D01*
X87908562Y-81868390D01*
X87916004Y-81882994D01*
X88022447Y-82029501D01*
X88150499Y-82157553D01*
X88297006Y-82263996D01*
X88458361Y-82346211D01*
X88630591Y-82402171D01*
X88702136Y-82413502D01*
X88809451Y-82430500D01*
X88809454Y-82430500D01*
X88990549Y-82430500D01*
X89079977Y-82416335D01*
X89169409Y-82402171D01*
X89341639Y-82346211D01*
X89502994Y-82263996D01*
X89649501Y-82157553D01*
X89777553Y-82029501D01*
X89883996Y-81882994D01*
X89966211Y-81721639D01*
X90022171Y-81549409D01*
X90041427Y-81427829D01*
X90050500Y-81370549D01*
X90050500Y-81189450D01*
X110609500Y-81189450D01*
X110609500Y-81370549D01*
X110637828Y-81549406D01*
X110693788Y-81721637D01*
X110768562Y-81868390D01*
X110776004Y-81882994D01*
X110882447Y-82029501D01*
X111010499Y-82157553D01*
X111157006Y-82263996D01*
X111318361Y-82346211D01*
X111490591Y-82402171D01*
X111562136Y-82413502D01*
X111669451Y-82430500D01*
X111669454Y-82430500D01*
X111850549Y-82430500D01*
X111939977Y-82416335D01*
X112029409Y-82402171D01*
X112201639Y-82346211D01*
X112362994Y-82263996D01*
X112509501Y-82157553D01*
X112637553Y-82029501D01*
X112743996Y-81882994D01*
X112826211Y-81721639D01*
X112882171Y-81549409D01*
X112901427Y-81427829D01*
X112910500Y-81370549D01*
X112910500Y-81189450D01*
X112882171Y-81010593D01*
X112882171Y-81010591D01*
X112826211Y-80838361D01*
X112743996Y-80677006D01*
X112637553Y-80530499D01*
X112509501Y-80402447D01*
X112362994Y-80296004D01*
X112362993Y-80296003D01*
X112362991Y-80296002D01*
X112201637Y-80213788D01*
X112029406Y-80157828D01*
X111850549Y-80129500D01*
X111850546Y-80129500D01*
X111669454Y-80129500D01*
X111669451Y-80129500D01*
X111490593Y-80157828D01*
X111318362Y-80213788D01*
X111157008Y-80296002D01*
X111110166Y-80330035D01*
X111010499Y-80402447D01*
X110882447Y-80530499D01*
X110843605Y-80583961D01*
X110776002Y-80677008D01*
X110693788Y-80838362D01*
X110637828Y-81010593D01*
X110609500Y-81189450D01*
X90050500Y-81189450D01*
X90022171Y-81010593D01*
X90022171Y-81010591D01*
X89966211Y-80838361D01*
X89883996Y-80677006D01*
X89777553Y-80530499D01*
X89649501Y-80402447D01*
X89502994Y-80296004D01*
X89502993Y-80296003D01*
X89502991Y-80296002D01*
X89341637Y-80213788D01*
X89169406Y-80157828D01*
X88990549Y-80129500D01*
X88990546Y-80129500D01*
X88809454Y-80129500D01*
X88809451Y-80129500D01*
X88630593Y-80157828D01*
X88458362Y-80213788D01*
X88297008Y-80296002D01*
X88250166Y-80330035D01*
X88150499Y-80402447D01*
X88022447Y-80530499D01*
X87983605Y-80583961D01*
X87916002Y-80677008D01*
X87833788Y-80838362D01*
X87777828Y-81010593D01*
X87749500Y-81189450D01*
X87510500Y-81189450D01*
X87482171Y-81010593D01*
X87482171Y-81010591D01*
X87426211Y-80838361D01*
X87343996Y-80677006D01*
X87237553Y-80530499D01*
X87109501Y-80402447D01*
X86962994Y-80296004D01*
X86962993Y-80296003D01*
X86962991Y-80296002D01*
X86801637Y-80213788D01*
X86629406Y-80157828D01*
X86450549Y-80129500D01*
X86450546Y-80129500D01*
X86269454Y-80129500D01*
X86269451Y-80129500D01*
X86090593Y-80157828D01*
X85918362Y-80213788D01*
X85757008Y-80296002D01*
X85710166Y-80330035D01*
X85610499Y-80402447D01*
X85482447Y-80530499D01*
X85443605Y-80583961D01*
X85376002Y-80677008D01*
X85293788Y-80838362D01*
X85237828Y-81010593D01*
X85209500Y-81189450D01*
X81500500Y-81189450D01*
X81500500Y-79919450D01*
X116959500Y-79919450D01*
X116959500Y-80100549D01*
X116987828Y-80279406D01*
X117043788Y-80451637D01*
X117111210Y-80583961D01*
X117126004Y-80612994D01*
X117232447Y-80759501D01*
X117360499Y-80887553D01*
X117507006Y-80993996D01*
X117668361Y-81076211D01*
X117840591Y-81132171D01*
X117912136Y-81143502D01*
X118019451Y-81160500D01*
X118019454Y-81160500D01*
X118200549Y-81160500D01*
X118289977Y-81146335D01*
X118379409Y-81132171D01*
X118551639Y-81076211D01*
X118712994Y-80993996D01*
X118859501Y-80887553D01*
X118987553Y-80759501D01*
X119093996Y-80612994D01*
X119176211Y-80451639D01*
X119232171Y-80279409D01*
X119251427Y-80157829D01*
X119260500Y-80100549D01*
X119260500Y-79919489D01*
X119500000Y-79919489D01*
X119500000Y-80100510D01*
X119528316Y-80279289D01*
X119584252Y-80451445D01*
X119651772Y-80583961D01*
X120152093Y-80083639D01*
X120184075Y-80202993D01*
X120249901Y-80317007D01*
X120342993Y-80410099D01*
X120457007Y-80475925D01*
X120576357Y-80507905D01*
X120076037Y-81008226D01*
X120208556Y-81075748D01*
X120380710Y-81131683D01*
X120559490Y-81160000D01*
X120740510Y-81160000D01*
X120919289Y-81131683D01*
X121091445Y-81075747D01*
X121223961Y-81008226D01*
X120723640Y-80507905D01*
X120842993Y-80475925D01*
X120957007Y-80410099D01*
X121050099Y-80317007D01*
X121115925Y-80202993D01*
X121147905Y-80083640D01*
X121648226Y-80583961D01*
X121715747Y-80451445D01*
X121771683Y-80279289D01*
X121800000Y-80100510D01*
X121800000Y-79919489D01*
X121771683Y-79740710D01*
X121715748Y-79568556D01*
X121648226Y-79436037D01*
X121147905Y-79936357D01*
X121115925Y-79817007D01*
X121050099Y-79702993D01*
X120957007Y-79609901D01*
X120842993Y-79544075D01*
X120723639Y-79512093D01*
X121223961Y-79011772D01*
X121091445Y-78944252D01*
X120919289Y-78888316D01*
X120740510Y-78860000D01*
X120559490Y-78860000D01*
X120380710Y-78888316D01*
X120208554Y-78944252D01*
X120076037Y-79011772D01*
X120576359Y-79512094D01*
X120457007Y-79544075D01*
X120342993Y-79609901D01*
X120249901Y-79702993D01*
X120184075Y-79817007D01*
X120152094Y-79936359D01*
X119651772Y-79436037D01*
X119584252Y-79568554D01*
X119528316Y-79740710D01*
X119500000Y-79919489D01*
X119260500Y-79919489D01*
X119260500Y-79919450D01*
X119232171Y-79740593D01*
X119232171Y-79740591D01*
X119176211Y-79568361D01*
X119093996Y-79407006D01*
X118987553Y-79260499D01*
X118859501Y-79132447D01*
X118712994Y-79026004D01*
X118712993Y-79026003D01*
X118712991Y-79026002D01*
X118551637Y-78943788D01*
X118379406Y-78887828D01*
X118200549Y-78859500D01*
X118200546Y-78859500D01*
X118019454Y-78859500D01*
X118019451Y-78859500D01*
X117840593Y-78887828D01*
X117668362Y-78943788D01*
X117507008Y-79026002D01*
X117464982Y-79056536D01*
X117360499Y-79132447D01*
X117232447Y-79260499D01*
X117193605Y-79313961D01*
X117126002Y-79407008D01*
X117043788Y-79568362D01*
X116987828Y-79740593D01*
X116959500Y-79919450D01*
X81500500Y-79919450D01*
X81500500Y-78649450D01*
X85209500Y-78649450D01*
X85209500Y-78830549D01*
X85237828Y-79009406D01*
X85293788Y-79181637D01*
X85361210Y-79313961D01*
X85376004Y-79342994D01*
X85482447Y-79489501D01*
X85610499Y-79617553D01*
X85757006Y-79723996D01*
X85918361Y-79806211D01*
X86090591Y-79862171D01*
X86162136Y-79873502D01*
X86269451Y-79890500D01*
X86269454Y-79890500D01*
X86450549Y-79890500D01*
X86539977Y-79876335D01*
X86629409Y-79862171D01*
X86801639Y-79806211D01*
X86962994Y-79723996D01*
X87109501Y-79617553D01*
X87237553Y-79489501D01*
X87343996Y-79342994D01*
X87426211Y-79181639D01*
X87482171Y-79009409D01*
X87501427Y-78887829D01*
X87510500Y-78830549D01*
X87510500Y-78649450D01*
X87749500Y-78649450D01*
X87749500Y-78830549D01*
X87777828Y-79009406D01*
X87833788Y-79181637D01*
X87901210Y-79313961D01*
X87916004Y-79342994D01*
X88022447Y-79489501D01*
X88150499Y-79617553D01*
X88297006Y-79723996D01*
X88458361Y-79806211D01*
X88630591Y-79862171D01*
X88702136Y-79873502D01*
X88809451Y-79890500D01*
X88809454Y-79890500D01*
X88990549Y-79890500D01*
X89079977Y-79876335D01*
X89169409Y-79862171D01*
X89341639Y-79806211D01*
X89502994Y-79723996D01*
X89649501Y-79617553D01*
X89777553Y-79489501D01*
X89883996Y-79342994D01*
X89966211Y-79181639D01*
X90022171Y-79009409D01*
X90041427Y-78887829D01*
X90050500Y-78830549D01*
X90050500Y-78649489D01*
X110610000Y-78649489D01*
X110610000Y-78830510D01*
X110638316Y-79009289D01*
X110694252Y-79181445D01*
X110761772Y-79313961D01*
X111262093Y-78813639D01*
X111294075Y-78932993D01*
X111359901Y-79047007D01*
X111452993Y-79140099D01*
X111567007Y-79205925D01*
X111686357Y-79237905D01*
X111186037Y-79738226D01*
X111318556Y-79805748D01*
X111490710Y-79861683D01*
X111669490Y-79890000D01*
X111850510Y-79890000D01*
X112029289Y-79861683D01*
X112153244Y-79821409D01*
X112201445Y-79805747D01*
X112333961Y-79738226D01*
X111833640Y-79237905D01*
X111952993Y-79205925D01*
X112067007Y-79140099D01*
X112160099Y-79047007D01*
X112225925Y-78932993D01*
X112257905Y-78813640D01*
X112758226Y-79313961D01*
X112825747Y-79181445D01*
X112881683Y-79009289D01*
X112910000Y-78830510D01*
X112910000Y-78649489D01*
X112881683Y-78470710D01*
X112825748Y-78298556D01*
X112758226Y-78166037D01*
X112257905Y-78666357D01*
X112225925Y-78547007D01*
X112160099Y-78432993D01*
X112067007Y-78339901D01*
X111952993Y-78274075D01*
X111833639Y-78242093D01*
X112333961Y-77741772D01*
X112201445Y-77674252D01*
X112029289Y-77618316D01*
X111850510Y-77590000D01*
X111669490Y-77590000D01*
X111490710Y-77618316D01*
X111318554Y-77674252D01*
X111186037Y-77741772D01*
X111686359Y-78242094D01*
X111567007Y-78274075D01*
X111452993Y-78339901D01*
X111359901Y-78432993D01*
X111294075Y-78547007D01*
X111262094Y-78666359D01*
X110761772Y-78166037D01*
X110694252Y-78298554D01*
X110638316Y-78470710D01*
X110610000Y-78649489D01*
X90050500Y-78649489D01*
X90050500Y-78649450D01*
X90022171Y-78470593D01*
X90022171Y-78470591D01*
X89966211Y-78298361D01*
X89883996Y-78137006D01*
X89777553Y-77990499D01*
X89649501Y-77862447D01*
X89502994Y-77756004D01*
X89502993Y-77756003D01*
X89502991Y-77756002D01*
X89341637Y-77673788D01*
X89169406Y-77617828D01*
X88990549Y-77589500D01*
X88990546Y-77589500D01*
X88809454Y-77589500D01*
X88809451Y-77589500D01*
X88630593Y-77617828D01*
X88458362Y-77673788D01*
X88297008Y-77756002D01*
X88223752Y-77809225D01*
X88150499Y-77862447D01*
X88022447Y-77990499D01*
X87969225Y-78063752D01*
X87916002Y-78137008D01*
X87833788Y-78298362D01*
X87777828Y-78470593D01*
X87749500Y-78649450D01*
X87510500Y-78649450D01*
X87482171Y-78470593D01*
X87482171Y-78470591D01*
X87426211Y-78298361D01*
X87343996Y-78137006D01*
X87237553Y-77990499D01*
X87109501Y-77862447D01*
X86962994Y-77756004D01*
X86962993Y-77756003D01*
X86962991Y-77756002D01*
X86801637Y-77673788D01*
X86629406Y-77617828D01*
X86450549Y-77589500D01*
X86450546Y-77589500D01*
X86269454Y-77589500D01*
X86269451Y-77589500D01*
X86090593Y-77617828D01*
X85918362Y-77673788D01*
X85757008Y-77756002D01*
X85683752Y-77809225D01*
X85610499Y-77862447D01*
X85482447Y-77990499D01*
X85429225Y-78063752D01*
X85376002Y-78137008D01*
X85293788Y-78298362D01*
X85237828Y-78470593D01*
X85209500Y-78649450D01*
X81500500Y-78649450D01*
X81500500Y-76109450D01*
X85209500Y-76109450D01*
X85209500Y-76290549D01*
X85237828Y-76469406D01*
X85237829Y-76469409D01*
X85293789Y-76641639D01*
X85376004Y-76802994D01*
X85482447Y-76949501D01*
X85610499Y-77077553D01*
X85757006Y-77183996D01*
X85918361Y-77266211D01*
X86090591Y-77322171D01*
X86162136Y-77333502D01*
X86269451Y-77350500D01*
X86269454Y-77350500D01*
X86450549Y-77350500D01*
X86539977Y-77336335D01*
X86629409Y-77322171D01*
X86801639Y-77266211D01*
X86962994Y-77183996D01*
X87109501Y-77077553D01*
X87237553Y-76949501D01*
X87343996Y-76802994D01*
X87426211Y-76641639D01*
X87482171Y-76469409D01*
X87510500Y-76290546D01*
X87510500Y-76109454D01*
X87510500Y-76109450D01*
X87749500Y-76109450D01*
X87749500Y-76290549D01*
X87777828Y-76469406D01*
X87777829Y-76469409D01*
X87833789Y-76641639D01*
X87916004Y-76802994D01*
X88022447Y-76949501D01*
X88150499Y-77077553D01*
X88297006Y-77183996D01*
X88458361Y-77266211D01*
X88630591Y-77322171D01*
X88702136Y-77333502D01*
X88809451Y-77350500D01*
X88809454Y-77350500D01*
X88990549Y-77350500D01*
X89079977Y-77336335D01*
X89169409Y-77322171D01*
X89341639Y-77266211D01*
X89502994Y-77183996D01*
X89649501Y-77077553D01*
X89777553Y-76949501D01*
X89883996Y-76802994D01*
X89966211Y-76641639D01*
X90022171Y-76469409D01*
X90050500Y-76290546D01*
X90050500Y-76109454D01*
X90050500Y-76109450D01*
X110609500Y-76109450D01*
X110609500Y-76290549D01*
X110637828Y-76469406D01*
X110637829Y-76469409D01*
X110693789Y-76641639D01*
X110776004Y-76802994D01*
X110882447Y-76949501D01*
X111010499Y-77077553D01*
X111157006Y-77183996D01*
X111318361Y-77266211D01*
X111490591Y-77322171D01*
X111562136Y-77333502D01*
X111669451Y-77350500D01*
X111669454Y-77350500D01*
X111850549Y-77350500D01*
X111939977Y-77336335D01*
X112029409Y-77322171D01*
X112201639Y-77266211D01*
X112362994Y-77183996D01*
X112509501Y-77077553D01*
X112637553Y-76949501D01*
X112743996Y-76802994D01*
X112826211Y-76641639D01*
X112882171Y-76469409D01*
X112910500Y-76290546D01*
X112910500Y-76109454D01*
X112910500Y-76109450D01*
X112882171Y-75930593D01*
X112882171Y-75930591D01*
X112826211Y-75758361D01*
X112743996Y-75597006D01*
X112637553Y-75450499D01*
X112509501Y-75322447D01*
X112362994Y-75216004D01*
X112362993Y-75216003D01*
X112362991Y-75216002D01*
X112201637Y-75133788D01*
X112029406Y-75077828D01*
X111850549Y-75049500D01*
X111850546Y-75049500D01*
X111669454Y-75049500D01*
X111669451Y-75049500D01*
X111490593Y-75077828D01*
X111318362Y-75133788D01*
X111157008Y-75216002D01*
X111083752Y-75269225D01*
X111010499Y-75322447D01*
X110882447Y-75450499D01*
X110829225Y-75523752D01*
X110776002Y-75597008D01*
X110693788Y-75758362D01*
X110637828Y-75930593D01*
X110609500Y-76109450D01*
X90050500Y-76109450D01*
X90022171Y-75930593D01*
X90022171Y-75930591D01*
X89966211Y-75758361D01*
X89883996Y-75597006D01*
X89777553Y-75450499D01*
X89649501Y-75322447D01*
X89502994Y-75216004D01*
X89502993Y-75216003D01*
X89502991Y-75216002D01*
X89341637Y-75133788D01*
X89169406Y-75077828D01*
X88990549Y-75049500D01*
X88990546Y-75049500D01*
X88809454Y-75049500D01*
X88809451Y-75049500D01*
X88630593Y-75077828D01*
X88458362Y-75133788D01*
X88297008Y-75216002D01*
X88223752Y-75269225D01*
X88150499Y-75322447D01*
X88022447Y-75450499D01*
X87969225Y-75523752D01*
X87916002Y-75597008D01*
X87833788Y-75758362D01*
X87777828Y-75930593D01*
X87749500Y-76109450D01*
X87510500Y-76109450D01*
X87482171Y-75930593D01*
X87482171Y-75930591D01*
X87426211Y-75758361D01*
X87343996Y-75597006D01*
X87237553Y-75450499D01*
X87109501Y-75322447D01*
X86962994Y-75216004D01*
X86962993Y-75216003D01*
X86962991Y-75216002D01*
X86801637Y-75133788D01*
X86629406Y-75077828D01*
X86450549Y-75049500D01*
X86450546Y-75049500D01*
X86269454Y-75049500D01*
X86269451Y-75049500D01*
X86090593Y-75077828D01*
X85918362Y-75133788D01*
X85757008Y-75216002D01*
X85683752Y-75269225D01*
X85610499Y-75322447D01*
X85482447Y-75450499D01*
X85429225Y-75523752D01*
X85376002Y-75597008D01*
X85293788Y-75758362D01*
X85237828Y-75930593D01*
X85209500Y-76109450D01*
X81500500Y-76109450D01*
X81500500Y-73569450D01*
X85209500Y-73569450D01*
X85209500Y-73750549D01*
X85237828Y-73929406D01*
X85293788Y-74101637D01*
X85368562Y-74248390D01*
X85376004Y-74262994D01*
X85482447Y-74409501D01*
X85610499Y-74537553D01*
X85757006Y-74643996D01*
X85918361Y-74726211D01*
X86090591Y-74782171D01*
X86162136Y-74793502D01*
X86269451Y-74810500D01*
X86269454Y-74810500D01*
X86450549Y-74810500D01*
X86539977Y-74796335D01*
X86629409Y-74782171D01*
X86801639Y-74726211D01*
X86962994Y-74643996D01*
X87109501Y-74537553D01*
X87237553Y-74409501D01*
X87343996Y-74262994D01*
X87426211Y-74101639D01*
X87482171Y-73929409D01*
X87510500Y-73750546D01*
X87510500Y-73569454D01*
X87510500Y-73569450D01*
X87749500Y-73569450D01*
X87749500Y-73750549D01*
X87777828Y-73929406D01*
X87833788Y-74101637D01*
X87908562Y-74248390D01*
X87916004Y-74262994D01*
X88022447Y-74409501D01*
X88150499Y-74537553D01*
X88297006Y-74643996D01*
X88458361Y-74726211D01*
X88630591Y-74782171D01*
X88702136Y-74793502D01*
X88809451Y-74810500D01*
X88809454Y-74810500D01*
X88990549Y-74810500D01*
X89079977Y-74796335D01*
X89169409Y-74782171D01*
X89341639Y-74726211D01*
X89502994Y-74643996D01*
X89649501Y-74537553D01*
X89777553Y-74409501D01*
X89883996Y-74262994D01*
X89966211Y-74101639D01*
X90022171Y-73929409D01*
X90050500Y-73750546D01*
X90050500Y-73569454D01*
X90050500Y-73569450D01*
X110609500Y-73569450D01*
X110609500Y-73750549D01*
X110637828Y-73929406D01*
X110693788Y-74101637D01*
X110768562Y-74248390D01*
X110776004Y-74262994D01*
X110882447Y-74409501D01*
X111010499Y-74537553D01*
X111157006Y-74643996D01*
X111318361Y-74726211D01*
X111490591Y-74782171D01*
X111562136Y-74793502D01*
X111669451Y-74810500D01*
X111669454Y-74810500D01*
X111850549Y-74810500D01*
X111939977Y-74796335D01*
X112029409Y-74782171D01*
X112201639Y-74726211D01*
X112362994Y-74643996D01*
X112509501Y-74537553D01*
X112637553Y-74409501D01*
X112743996Y-74262994D01*
X112826211Y-74101639D01*
X112882171Y-73929409D01*
X112910500Y-73750546D01*
X112910500Y-73569454D01*
X112910500Y-73569450D01*
X112882171Y-73390593D01*
X112882171Y-73390591D01*
X112826211Y-73218361D01*
X112743996Y-73057006D01*
X112637553Y-72910499D01*
X112509501Y-72782447D01*
X112362994Y-72676004D01*
X112362993Y-72676003D01*
X112362991Y-72676002D01*
X112201637Y-72593788D01*
X112029406Y-72537828D01*
X111850549Y-72509500D01*
X111850546Y-72509500D01*
X111669454Y-72509500D01*
X111669451Y-72509500D01*
X111490593Y-72537828D01*
X111318362Y-72593788D01*
X111157008Y-72676002D01*
X111083752Y-72729225D01*
X111010499Y-72782447D01*
X110882447Y-72910499D01*
X110829225Y-72983752D01*
X110776002Y-73057008D01*
X110693788Y-73218362D01*
X110637828Y-73390593D01*
X110609500Y-73569450D01*
X90050500Y-73569450D01*
X90022171Y-73390593D01*
X90022171Y-73390591D01*
X89966211Y-73218361D01*
X89883996Y-73057006D01*
X89777553Y-72910499D01*
X89649501Y-72782447D01*
X89502994Y-72676004D01*
X89502993Y-72676003D01*
X89502991Y-72676002D01*
X89341637Y-72593788D01*
X89169406Y-72537828D01*
X88990549Y-72509500D01*
X88990546Y-72509500D01*
X88809454Y-72509500D01*
X88809451Y-72509500D01*
X88630593Y-72537828D01*
X88458362Y-72593788D01*
X88297008Y-72676002D01*
X88223752Y-72729225D01*
X88150499Y-72782447D01*
X88022447Y-72910499D01*
X87969225Y-72983752D01*
X87916002Y-73057008D01*
X87833788Y-73218362D01*
X87777828Y-73390593D01*
X87749500Y-73569450D01*
X87510500Y-73569450D01*
X87482171Y-73390593D01*
X87482171Y-73390591D01*
X87426211Y-73218361D01*
X87343996Y-73057006D01*
X87237553Y-72910499D01*
X87109501Y-72782447D01*
X86962994Y-72676004D01*
X86962993Y-72676003D01*
X86962991Y-72676002D01*
X86801637Y-72593788D01*
X86629406Y-72537828D01*
X86450549Y-72509500D01*
X86450546Y-72509500D01*
X86269454Y-72509500D01*
X86269451Y-72509500D01*
X86090593Y-72537828D01*
X85918362Y-72593788D01*
X85757008Y-72676002D01*
X85683752Y-72729225D01*
X85610499Y-72782447D01*
X85482447Y-72910499D01*
X85429225Y-72983752D01*
X85376002Y-73057008D01*
X85293788Y-73218362D01*
X85237828Y-73390593D01*
X85209500Y-73569450D01*
X81500500Y-73569450D01*
X81500500Y-70225202D01*
X85210000Y-70225202D01*
X85210000Y-70819999D01*
X85210001Y-70820000D01*
X85955856Y-70820000D01*
X85894075Y-70927007D01*
X85860000Y-71054174D01*
X85860000Y-71185826D01*
X85894075Y-71312993D01*
X85955856Y-71420000D01*
X85210002Y-71420000D01*
X85210001Y-71420001D01*
X85210001Y-72014791D01*
X85212909Y-72039874D01*
X85258213Y-72142477D01*
X85337522Y-72221786D01*
X85440127Y-72267090D01*
X85465203Y-72269999D01*
X86059998Y-72269999D01*
X86060000Y-72269998D01*
X86060000Y-71524144D01*
X86167007Y-71585925D01*
X86294174Y-71620000D01*
X86425826Y-71620000D01*
X86552993Y-71585925D01*
X86660000Y-71524144D01*
X86660000Y-72269998D01*
X86660001Y-72269999D01*
X87254790Y-72269999D01*
X87254791Y-72269998D01*
X87279874Y-72267090D01*
X87382477Y-72221786D01*
X87461786Y-72142477D01*
X87507090Y-72039872D01*
X87509999Y-72014797D01*
X87510000Y-72014795D01*
X87510000Y-71420001D01*
X87509999Y-71420000D01*
X86764144Y-71420000D01*
X86825925Y-71312993D01*
X86860000Y-71185826D01*
X86860000Y-71054174D01*
X86825925Y-70927007D01*
X86764144Y-70820000D01*
X87509998Y-70820000D01*
X87509999Y-70819999D01*
X87509999Y-70225211D01*
X87509998Y-70225207D01*
X87509997Y-70225202D01*
X87750000Y-70225202D01*
X87750000Y-70819999D01*
X87750001Y-70820000D01*
X88495856Y-70820000D01*
X88434075Y-70927007D01*
X88400000Y-71054174D01*
X88400000Y-71185826D01*
X88434075Y-71312993D01*
X88495856Y-71420000D01*
X87750002Y-71420000D01*
X87750001Y-71420001D01*
X87750001Y-72014791D01*
X87752909Y-72039874D01*
X87798213Y-72142477D01*
X87877522Y-72221786D01*
X87980127Y-72267090D01*
X88005203Y-72269999D01*
X88599998Y-72269999D01*
X88600000Y-72269998D01*
X88600000Y-71524144D01*
X88707007Y-71585925D01*
X88834174Y-71620000D01*
X88965826Y-71620000D01*
X89092993Y-71585925D01*
X89200000Y-71524144D01*
X89200000Y-72269998D01*
X89200001Y-72269999D01*
X89794790Y-72269999D01*
X89794791Y-72269998D01*
X89819874Y-72267090D01*
X89922477Y-72221786D01*
X90001786Y-72142477D01*
X90047090Y-72039872D01*
X90049999Y-72014797D01*
X90050000Y-72014795D01*
X90050000Y-71420001D01*
X90049999Y-71420000D01*
X89304144Y-71420000D01*
X89365925Y-71312993D01*
X89400000Y-71185826D01*
X89400000Y-71054174D01*
X89365925Y-70927007D01*
X89304144Y-70820000D01*
X90049998Y-70820000D01*
X90049999Y-70819999D01*
X90049999Y-70225211D01*
X90049998Y-70225207D01*
X90049997Y-70225202D01*
X110610000Y-70225202D01*
X110610000Y-70819999D01*
X110610001Y-70820000D01*
X111355856Y-70820000D01*
X111294075Y-70927007D01*
X111260000Y-71054174D01*
X111260000Y-71185826D01*
X111294075Y-71312993D01*
X111355856Y-71420000D01*
X110610002Y-71420000D01*
X110610001Y-71420001D01*
X110610001Y-72014791D01*
X110612909Y-72039874D01*
X110658213Y-72142477D01*
X110737522Y-72221786D01*
X110840127Y-72267090D01*
X110865203Y-72269999D01*
X111459998Y-72269999D01*
X111460000Y-72269998D01*
X111460000Y-71524144D01*
X111567007Y-71585925D01*
X111694174Y-71620000D01*
X111825826Y-71620000D01*
X111952993Y-71585925D01*
X112060000Y-71524144D01*
X112060000Y-72269998D01*
X112060001Y-72269999D01*
X112654790Y-72269999D01*
X112654791Y-72269998D01*
X112679874Y-72267090D01*
X112782477Y-72221786D01*
X112861786Y-72142477D01*
X112907090Y-72039872D01*
X112909999Y-72014797D01*
X112910000Y-72014795D01*
X112910000Y-71420001D01*
X112909999Y-71420000D01*
X112164144Y-71420000D01*
X112225925Y-71312993D01*
X112260000Y-71185826D01*
X112260000Y-71054174D01*
X112225925Y-70927007D01*
X112164144Y-70820000D01*
X112909998Y-70820000D01*
X112909999Y-70819999D01*
X112909999Y-70225210D01*
X112909998Y-70225208D01*
X112907090Y-70200125D01*
X112861786Y-70097522D01*
X112782477Y-70018213D01*
X112679872Y-69972909D01*
X112654797Y-69970000D01*
X112060001Y-69970000D01*
X112060000Y-69970001D01*
X112060000Y-70715855D01*
X111952993Y-70654075D01*
X111825826Y-70620000D01*
X111694174Y-70620000D01*
X111567007Y-70654075D01*
X111460000Y-70715855D01*
X111460000Y-69970001D01*
X111459999Y-69970000D01*
X110865210Y-69970000D01*
X110865207Y-69970001D01*
X110840125Y-69972909D01*
X110737522Y-70018213D01*
X110658213Y-70097522D01*
X110612909Y-70200127D01*
X110610000Y-70225202D01*
X90049997Y-70225202D01*
X90047090Y-70200125D01*
X90001786Y-70097522D01*
X89922477Y-70018213D01*
X89819872Y-69972909D01*
X89794797Y-69970000D01*
X89200001Y-69970000D01*
X89200000Y-69970001D01*
X89200000Y-70715855D01*
X89092993Y-70654075D01*
X88965826Y-70620000D01*
X88834174Y-70620000D01*
X88707007Y-70654075D01*
X88600000Y-70715855D01*
X88600000Y-69970001D01*
X88599999Y-69970000D01*
X88005210Y-69970000D01*
X88005207Y-69970001D01*
X87980125Y-69972909D01*
X87877522Y-70018213D01*
X87798213Y-70097522D01*
X87752909Y-70200127D01*
X87750000Y-70225202D01*
X87509997Y-70225202D01*
X87507090Y-70200125D01*
X87461786Y-70097522D01*
X87382477Y-70018213D01*
X87279872Y-69972909D01*
X87254797Y-69970000D01*
X86660001Y-69970000D01*
X86660000Y-69970001D01*
X86660000Y-70715855D01*
X86552993Y-70654075D01*
X86425826Y-70620000D01*
X86294174Y-70620000D01*
X86167007Y-70654075D01*
X86060000Y-70715855D01*
X86060000Y-69970001D01*
X86059999Y-69970000D01*
X85465210Y-69970000D01*
X85465207Y-69970001D01*
X85440125Y-69972909D01*
X85337522Y-70018213D01*
X85258213Y-70097522D01*
X85212909Y-70200127D01*
X85210000Y-70225202D01*
X81500500Y-70225202D01*
X81500500Y-69151000D01*
X81519407Y-69092809D01*
X81568907Y-69056845D01*
X81599500Y-69052000D01*
X107695999Y-69052000D01*
X107696000Y-69052000D01*
X108683004Y-68064996D01*
X108737521Y-68037219D01*
X108753008Y-68036000D01*
X125869000Y-68036000D01*
X125927191Y-68054907D01*
G37*
G04 #@! TD.AperFunction*
G04 #@! TA.AperFunction,Conductor*
G36*
X157947191Y-96538907D02*
G01*
X157983155Y-96588407D01*
X157988000Y-96619000D01*
X157988000Y-98453000D01*
X157969093Y-98511191D01*
X157919593Y-98547155D01*
X157889000Y-98552000D01*
X143863000Y-98552000D01*
X143804809Y-98533093D01*
X143768845Y-98483593D01*
X143764000Y-98453000D01*
X143764000Y-96619000D01*
X143782907Y-96560809D01*
X143832407Y-96524845D01*
X143863000Y-96520000D01*
X157889000Y-96520000D01*
X157947191Y-96538907D01*
G37*
G04 #@! TD.AperFunction*
G04 #@! TA.AperFunction,Conductor*
G36*
X199458691Y-61519407D02*
G01*
X199494655Y-61568907D01*
X199499500Y-61599500D01*
X199499500Y-82653500D01*
X199480593Y-82711691D01*
X199431093Y-82747655D01*
X199400500Y-82752500D01*
X178153000Y-82752500D01*
X178094809Y-82733593D01*
X178058845Y-82684093D01*
X178054000Y-82653500D01*
X178054000Y-74827644D01*
X180055500Y-74827644D01*
X180055500Y-75032355D01*
X180087521Y-75234529D01*
X180150780Y-75429219D01*
X180243712Y-75611609D01*
X180243714Y-75611613D01*
X180364029Y-75777213D01*
X180364031Y-75777215D01*
X180364034Y-75777219D01*
X180508781Y-75921966D01*
X180508784Y-75921968D01*
X180508786Y-75921970D01*
X180674386Y-76042285D01*
X180674390Y-76042287D01*
X180856781Y-76135220D01*
X181051466Y-76198477D01*
X181051467Y-76198477D01*
X181051470Y-76198478D01*
X181253645Y-76230500D01*
X181253648Y-76230500D01*
X181458355Y-76230500D01*
X181660529Y-76198478D01*
X181660530Y-76198477D01*
X181660534Y-76198477D01*
X181855219Y-76135220D01*
X182037610Y-76042287D01*
X182203219Y-75921966D01*
X182347966Y-75777219D01*
X182468287Y-75611610D01*
X182561220Y-75429219D01*
X182624477Y-75234534D01*
X182656500Y-75032352D01*
X182656500Y-74827648D01*
X182656500Y-74827644D01*
X182624478Y-74625470D01*
X182581955Y-74494597D01*
X182561220Y-74430781D01*
X182468287Y-74248390D01*
X182468285Y-74248386D01*
X182347970Y-74082786D01*
X182347968Y-74082784D01*
X182347966Y-74082781D01*
X182203219Y-73938034D01*
X182203215Y-73938031D01*
X182203213Y-73938029D01*
X182037613Y-73817714D01*
X182037609Y-73817712D01*
X181855219Y-73724780D01*
X181660529Y-73661521D01*
X181458355Y-73629500D01*
X181458352Y-73629500D01*
X181253648Y-73629500D01*
X181253645Y-73629500D01*
X181051470Y-73661521D01*
X180856780Y-73724780D01*
X180674390Y-73817712D01*
X180674386Y-73817714D01*
X180508786Y-73938029D01*
X180364029Y-74082786D01*
X180243714Y-74248386D01*
X180243712Y-74248390D01*
X180150780Y-74430780D01*
X180087521Y-74625470D01*
X180055500Y-74827644D01*
X178054000Y-74827644D01*
X178054000Y-68419231D01*
X180671032Y-68419231D01*
X180674651Y-68421860D01*
X180856972Y-68514756D01*
X181051587Y-68577991D01*
X181253685Y-68610000D01*
X181458315Y-68610000D01*
X181660412Y-68577991D01*
X181855027Y-68514756D01*
X182037346Y-68421860D01*
X182037351Y-68421857D01*
X182040966Y-68419231D01*
X181355999Y-67734264D01*
X180671032Y-68419231D01*
X178054000Y-68419231D01*
X178054000Y-67207684D01*
X180056000Y-67207684D01*
X180056000Y-67412315D01*
X180088008Y-67614412D01*
X180151243Y-67809027D01*
X180244140Y-67991348D01*
X180244146Y-67991358D01*
X180246767Y-67994966D01*
X180931734Y-67309999D01*
X180879074Y-67257339D01*
X180956000Y-67257339D01*
X180956000Y-67362661D01*
X180983259Y-67464394D01*
X181035920Y-67555606D01*
X181110394Y-67630080D01*
X181201606Y-67682741D01*
X181303339Y-67710000D01*
X181408661Y-67710000D01*
X181510394Y-67682741D01*
X181601606Y-67630080D01*
X181676080Y-67555606D01*
X181728741Y-67464394D01*
X181756000Y-67362661D01*
X181756000Y-67309999D01*
X181780264Y-67309999D01*
X182465231Y-67994966D01*
X182467857Y-67991351D01*
X182467860Y-67991346D01*
X182560756Y-67809027D01*
X182623991Y-67614412D01*
X182656000Y-67412315D01*
X182656000Y-67207684D01*
X182623991Y-67005587D01*
X182560756Y-66810972D01*
X182467860Y-66628651D01*
X182465231Y-66625032D01*
X181780264Y-67309999D01*
X181756000Y-67309999D01*
X181756000Y-67257339D01*
X181728741Y-67155606D01*
X181676080Y-67064394D01*
X181601606Y-66989920D01*
X181510394Y-66937259D01*
X181408661Y-66910000D01*
X181303339Y-66910000D01*
X181201606Y-66937259D01*
X181110394Y-66989920D01*
X181035920Y-67064394D01*
X180983259Y-67155606D01*
X180956000Y-67257339D01*
X180879074Y-67257339D01*
X180246767Y-66625032D01*
X180244141Y-66628647D01*
X180151243Y-66810972D01*
X180088008Y-67005587D01*
X180056000Y-67207684D01*
X178054000Y-67207684D01*
X178054000Y-66200767D01*
X180671032Y-66200767D01*
X181355999Y-66885734D01*
X182040966Y-66200767D01*
X182037358Y-66198146D01*
X182037348Y-66198140D01*
X181855027Y-66105243D01*
X181660412Y-66042008D01*
X181458315Y-66010000D01*
X181253685Y-66010000D01*
X181051587Y-66042008D01*
X180856972Y-66105243D01*
X180674647Y-66198141D01*
X180671032Y-66200767D01*
X178054000Y-66200767D01*
X178054000Y-64878710D01*
X194149500Y-64878710D01*
X194149500Y-65121289D01*
X194181161Y-65361781D01*
X194181161Y-65361786D01*
X194243944Y-65596092D01*
X194243948Y-65596105D01*
X194336772Y-65820204D01*
X194336774Y-65820208D01*
X194336776Y-65820212D01*
X194446350Y-66010000D01*
X194458066Y-66030292D01*
X194605729Y-66222731D01*
X194605731Y-66222733D01*
X194605735Y-66222738D01*
X194777262Y-66394265D01*
X194777266Y-66394268D01*
X194777268Y-66394270D01*
X194969707Y-66541933D01*
X194969711Y-66541936D01*
X195179788Y-66663224D01*
X195403900Y-66756054D01*
X195638211Y-66818838D01*
X195878712Y-66850500D01*
X195878713Y-66850500D01*
X196121287Y-66850500D01*
X196121288Y-66850500D01*
X196361789Y-66818838D01*
X196596100Y-66756054D01*
X196820212Y-66663224D01*
X197030289Y-66541936D01*
X197222738Y-66394265D01*
X197394265Y-66222738D01*
X197541936Y-66030289D01*
X197663224Y-65820212D01*
X197756054Y-65596100D01*
X197818838Y-65361789D01*
X197850500Y-65121288D01*
X197850500Y-64878712D01*
X197818838Y-64638211D01*
X197756054Y-64403900D01*
X197663224Y-64179788D01*
X197541936Y-63969711D01*
X197394265Y-63777262D01*
X197222738Y-63605735D01*
X197222733Y-63605731D01*
X197222731Y-63605729D01*
X197030292Y-63458066D01*
X197030289Y-63458064D01*
X196820212Y-63336776D01*
X196820208Y-63336774D01*
X196820204Y-63336772D01*
X196596105Y-63243948D01*
X196596104Y-63243947D01*
X196596100Y-63243946D01*
X196361789Y-63181162D01*
X196361786Y-63181161D01*
X196361784Y-63181161D01*
X196121289Y-63149500D01*
X196121288Y-63149500D01*
X195878712Y-63149500D01*
X195878710Y-63149500D01*
X195638218Y-63181161D01*
X195638213Y-63181161D01*
X195403907Y-63243944D01*
X195403894Y-63243948D01*
X195179795Y-63336772D01*
X194969707Y-63458066D01*
X194777268Y-63605729D01*
X194605729Y-63777268D01*
X194458066Y-63969707D01*
X194336772Y-64179795D01*
X194243948Y-64403894D01*
X194243944Y-64403907D01*
X194181161Y-64638213D01*
X194181161Y-64638218D01*
X194149500Y-64878710D01*
X178054000Y-64878710D01*
X178054000Y-61599500D01*
X178072907Y-61541309D01*
X178122407Y-61505345D01*
X178153000Y-61500500D01*
X199400500Y-61500500D01*
X199458691Y-61519407D01*
G37*
G04 #@! TD.AperFunction*
G04 #@! TA.AperFunction,Conductor*
G36*
X188601885Y-124129837D02*
G01*
X188607236Y-124137017D01*
X188607364Y-124137585D01*
X188722538Y-124711699D01*
X188722538Y-124716301D01*
X188607364Y-125290414D01*
X188602377Y-125297852D01*
X188593592Y-125299584D01*
X188593030Y-125299457D01*
X188286386Y-125221904D01*
X187542360Y-125033733D01*
X187535180Y-125028382D01*
X187533529Y-125022390D01*
X187533529Y-124405609D01*
X187536956Y-124397336D01*
X187542358Y-124394267D01*
X188593026Y-124128543D01*
X188601885Y-124129837D01*
G37*
G04 #@! TD.AperFunction*
G04 #@! TA.AperFunction,Conductor*
G36*
X183770941Y-124128535D02*
G01*
X184821641Y-124394266D01*
X184828820Y-124399617D01*
X184830471Y-124405609D01*
X184830471Y-125022390D01*
X184827044Y-125030663D01*
X184821640Y-125033733D01*
X183770975Y-125299456D01*
X183762114Y-125298162D01*
X183756763Y-125290982D01*
X183756635Y-125290414D01*
X183704526Y-125030663D01*
X183641461Y-124716297D01*
X183641461Y-124711702D01*
X183756635Y-124137584D01*
X183761622Y-124130147D01*
X183770407Y-124128415D01*
X183770941Y-124128535D01*
G37*
G04 #@! TD.AperFunction*
M02*
