M48
; DRILL file {KiCad 9.0.4} date 2025-09-17T21:50:40+0200
; FORMAT={-:-/ absolute / metric / decimal}
; #@! TF.CreationDate,2025-09-17T21:50:40+02:00
; #@! TF.GenerationSoftware,Kicad,Pcbnew,9.0.4
; #@! TF.FileFunction,Plated,1,2,PTH
FMAT,2
METRIC
; #@! TA.AperFunction,Plated,PTH,ViaDrill
T1C0.600
; #@! TA.AperFunction,Plated,PTH,ComponentDrill
T2C0.700
; #@! TA.AperFunction,Plated,PTH,ComponentDrill
T3C0.800
; #@! TA.AperFunction,Plated,PTH,ComponentDrill
T4C1.000
; #@! TA.AperFunction,Plated,PTH,ComponentDrill
T5C1.090
; #@! TA.AperFunction,Plated,PTH,ComponentDrill
T6C1.300
; #@! TA.AperFunction,Plated,PTH,ComponentDrill
T7C1.320
; #@! TA.AperFunction,Plated,PTH,ComponentDrill
T8C1.400
; #@! TA.AperFunction,Plated,PTH,ComponentDrill
T9C3.200
%
G90
G05
T1
X82.169Y-90.17
X82.169Y-106.68
X86.36Y-119.38
X86.36Y-127.0
X93.98Y-96.52
X93.98Y-109.22
X93.98Y-114.3
X97.282Y-73.66
X97.282Y-76.2
X97.282Y-86.36
X97.282Y-96.52
X99.06Y-109.22
X99.06Y-116.332
X100.33Y-100.838
X104.14Y-109.22
X104.14Y-114.3
X106.68Y-73.66
X106.68Y-81.28
X106.68Y-85.09
X106.68Y-88.9
X106.68Y-91.44
X106.68Y-94.488
X108.204Y-138.43
X109.474Y-125.222
X114.808Y-88.9
X115.062Y-76.2
X116.332Y-94.996
X116.332Y-104.14
X116.332Y-110.998
X116.84Y-127.0
X118.11Y-118.11
X119.38Y-138.43
X119.634Y-101.6
X120.904Y-73.66
X122.428Y-90.678
X122.428Y-96.52
X122.428Y-106.68
X122.936Y-69.088
X122.936Y-76.2
X124.46Y-118.11
X124.46Y-121.92
X124.46Y-124.46
X124.46Y-127.0
X124.46Y-131.318
X134.62Y-113.284
X134.62Y-118.11
X134.62Y-121.92
X134.62Y-124.46
X134.62Y-127.0
X135.382Y-131.318
X135.382Y-138.43
X139.954Y-131.318
X139.954Y-138.43
X144.018Y-116.713
X144.018Y-119.126
X146.304Y-129.286
X146.304Y-133.858
X147.32Y-120.65
X147.828Y-122.174
X149.606Y-122.174
X149.606Y-125.222
X149.606Y-129.54
X151.892Y-120.65
X152.4Y-92.57
X152.4Y-97.536
X152.4Y-102.57
X152.4Y-107.57
X154.178Y-138.43
X155.194Y-113.284
X156.21Y-121.92
X156.21Y-128.016
X156.21Y-131.064
X157.48Y-129.54
X159.004Y-102.57
X160.02Y-107.57
X161.29Y-124.206
X162.56Y-88.646
X163.703Y-99.695
X166.116Y-122.682
X166.878Y-116.713
X167.64Y-88.646
X168.402Y-138.43
X171.958Y-94.996
X172.212Y-130.048
X172.466Y-119.888
X172.72Y-138.43
X175.93Y-101.0
X176.022Y-111.506
X177.546Y-138.43
X179.832Y-130.048
X181.102Y-114.046
X181.356Y-79.756
X181.356Y-85.09
X181.356Y-91.44
X182.118Y-134.366
X182.372Y-138.43
X183.134Y-111.506
X183.642Y-124.714
X184.658Y-97.282
X184.658Y-104.902
X187.198Y-138.176
X187.452Y-79.756
X187.452Y-85.09
X188.722Y-124.714
X188.976Y-71.374
X188.976Y-91.44
X188.976Y-119.38
X188.976Y-122.428
X190.5Y-97.282
X191.262Y-108.966
X191.262Y-115.316
X191.516Y-69.342
X192.024Y-104.14
X192.278Y-126.238
X193.294Y-112.776
X194.056Y-71.374
X194.056Y-81.534
X194.056Y-84.836
X195.072Y-128.016
X196.342Y-75.438
X196.342Y-91.44
X197.104Y-102.108
X197.104Y-106.172
X198.628Y-81.534
X198.628Y-84.836
X198.628Y-89.154
X198.628Y-111.506
T2
X144.78Y-79.756
X144.78Y-84.836
T3
X153.416Y-67.31
X153.416Y-82.55
X181.356Y-67.31
X181.356Y-74.93
T4
X86.36Y-71.12
X86.36Y-73.66
X86.36Y-76.2
X86.36Y-78.74
X86.36Y-81.28
X86.36Y-83.82
X86.36Y-86.36
X86.36Y-88.9
X86.36Y-91.44
X86.36Y-93.98
X86.36Y-96.52
X86.36Y-99.06
X86.36Y-101.6
X86.36Y-104.14
X86.36Y-106.68
X88.9Y-71.12
X88.9Y-73.66
X88.9Y-76.2
X88.9Y-78.74
X88.9Y-81.28
X88.9Y-83.82
X88.9Y-86.36
X88.9Y-88.9
X88.9Y-91.44
X88.9Y-93.98
X88.9Y-96.52
X88.9Y-99.06
X88.9Y-101.6
X88.9Y-104.14
X88.9Y-106.68
X92.71Y-120.396
X95.25Y-120.396
X97.79Y-120.396
X100.33Y-120.396
X102.87Y-120.396
X105.41Y-120.396
X111.76Y-71.12
X111.76Y-73.66
X111.76Y-76.2
X111.76Y-78.74
X111.76Y-81.28
X111.76Y-83.82
X111.76Y-86.36
X111.76Y-88.9
X111.76Y-91.44
X111.76Y-93.98
X111.76Y-96.52
X111.76Y-99.06
X111.76Y-101.6
X111.76Y-104.14
X111.76Y-106.68
X118.11Y-80.01
X118.11Y-82.55
X118.11Y-85.09
X118.11Y-87.63
X120.65Y-80.01
X120.65Y-82.55
X120.65Y-85.09
X120.65Y-87.63
T5
X177.304Y-120.65
X177.304Y-123.19
T6
X165.8Y-95.0
X165.8Y-107.0
X178.0Y-95.0
X178.0Y-107.0
T7
X144.78Y-92.57
X144.78Y-97.57
X144.78Y-102.57
X144.78Y-107.57
T8
X180.0Y-101.0
T9
X85.0Y-136.0
X196.0Y-136.0
M30
