%TF.GenerationSoftware,KiCad,Pcbnew,9.0.4*%
%TF.CreationDate,2025-09-17T21:50:40+02:00*%
%TF.ProjectId,Home-Ambient,486f6d65-2d41-46d6-9269-656e742e6b69,rev?*%
%TF.SameCoordinates,Original*%
%TF.FileFunction,Drillmap*%
%TF.FilePolarity,Positive*%
%FSLAX45Y45*%
G04 Gerber Fmt 4.5, Leading zero omitted, Abs format (unit mm)*
G04 Created by KiCad (PCBNEW 9.0.4) date 2025-09-17 21:50:40*
%MOMM*%
%LPD*%
G01*
G04 APERTURE LIST*
%ADD10C,0.050000*%
%ADD11C,0.200000*%
%ADD12C,0.100000*%
%ADD13C,0.109000*%
%ADD14C,0.130000*%
%ADD15C,0.132000*%
%ADD16C,0.140000*%
%ADD17C,0.320000*%
G04 APERTURE END LIST*
D10*
X13500000Y-10900000D02*
G75*
G02*
X13400000Y-11000000I-100000J0D01*
G01*
X12700000Y-9000000D02*
X13400000Y-9000000D01*
X17650000Y-10350000D02*
X18200000Y-10350000D01*
X13400000Y-11000000D02*
X12700000Y-11000000D01*
X17550000Y-9500000D02*
X17550000Y-9400000D01*
X18350000Y-10300000D02*
G75*
G02*
X18200000Y-10450000I-150000J0D01*
G01*
X18250000Y-10300000D02*
G75*
G02*
X18200000Y-10350000I-50000J0D01*
G01*
X17800000Y-9750000D02*
X18200000Y-9750000D01*
X18200000Y-9850000D02*
G75*
G02*
X18250000Y-9900000I0J-50000D01*
G01*
X14200000Y-11100000D02*
X16750000Y-11100000D01*
X17800000Y-9750000D02*
G75*
G02*
X17550000Y-9500000I0J250000D01*
G01*
X17450000Y-9400000D02*
X17450000Y-9500000D01*
X13400000Y-9000000D02*
G75*
G02*
X13500000Y-9100000I0J-100000D01*
G01*
X17800000Y-9850000D02*
G75*
G02*
X17450000Y-9500000I0J350000D01*
G01*
X17800000Y-9850000D02*
X18200000Y-9850000D01*
X13500000Y-9100000D02*
X13500000Y-10900000D01*
X12600000Y-9100000D02*
G75*
G02*
X12700000Y-9000000I100000J0D01*
G01*
X17450000Y-9400000D02*
G75*
G02*
X17550000Y-9400000I50000J0D01*
G01*
X18350000Y-10300000D02*
X18350000Y-9900000D01*
X14200000Y-11200000D02*
G75*
G02*
X14200000Y-11100000I0J50000D01*
G01*
X12600000Y-10900000D02*
X12600000Y-9100000D01*
X12700000Y-11000000D02*
G75*
G02*
X12600000Y-10900000I0J100000D01*
G01*
X18200000Y-10450000D02*
X17650000Y-10450000D01*
X17650000Y-10450000D02*
G75*
G02*
X17650000Y-10350000I0J50000D01*
G01*
X8100000Y-6100000D02*
X20000000Y-6100000D01*
X20000000Y-14000000D01*
X8100000Y-14000000D01*
X8100000Y-6100000D01*
X16750000Y-11200000D02*
X14200000Y-11200000D01*
X16750000Y-11100000D02*
G75*
G02*
X16750000Y-11200000I0J-50000D01*
G01*
X18200000Y-9750000D02*
G75*
G02*
X18350000Y-9900000I0J-150000D01*
G01*
X18250000Y-9900000D02*
X18250000Y-10300000D01*
D11*
D12*
X8186900Y-8987000D02*
X8246900Y-9047000D01*
X8246900Y-8987000D02*
X8186900Y-9047000D01*
X8186900Y-10638000D02*
X8246900Y-10698000D01*
X8246900Y-10638000D02*
X8186900Y-10698000D01*
X8606000Y-11908000D02*
X8666000Y-11968000D01*
X8666000Y-11908000D02*
X8606000Y-11968000D01*
X8606000Y-12670000D02*
X8666000Y-12730000D01*
X8666000Y-12670000D02*
X8606000Y-12730000D01*
X9368000Y-9622000D02*
X9428000Y-9682000D01*
X9428000Y-9622000D02*
X9368000Y-9682000D01*
X9368000Y-10892000D02*
X9428000Y-10952000D01*
X9428000Y-10892000D02*
X9368000Y-10952000D01*
X9368000Y-11400000D02*
X9428000Y-11460000D01*
X9428000Y-11400000D02*
X9368000Y-11460000D01*
X9698200Y-7336000D02*
X9758200Y-7396000D01*
X9758200Y-7336000D02*
X9698200Y-7396000D01*
X9698200Y-7590000D02*
X9758200Y-7650000D01*
X9758200Y-7590000D02*
X9698200Y-7650000D01*
X9698200Y-8606000D02*
X9758200Y-8666000D01*
X9758200Y-8606000D02*
X9698200Y-8666000D01*
X9698200Y-9622000D02*
X9758200Y-9682000D01*
X9758200Y-9622000D02*
X9698200Y-9682000D01*
X9876000Y-10892000D02*
X9936000Y-10952000D01*
X9936000Y-10892000D02*
X9876000Y-10952000D01*
X9876000Y-11603200D02*
X9936000Y-11663200D01*
X9936000Y-11603200D02*
X9876000Y-11663200D01*
X10003000Y-10053800D02*
X10063000Y-10113800D01*
X10063000Y-10053800D02*
X10003000Y-10113800D01*
X10384000Y-10892000D02*
X10444000Y-10952000D01*
X10444000Y-10892000D02*
X10384000Y-10952000D01*
X10384000Y-11400000D02*
X10444000Y-11460000D01*
X10444000Y-11400000D02*
X10384000Y-11460000D01*
X10638000Y-7336000D02*
X10698000Y-7396000D01*
X10698000Y-7336000D02*
X10638000Y-7396000D01*
X10638000Y-8098000D02*
X10698000Y-8158000D01*
X10698000Y-8098000D02*
X10638000Y-8158000D01*
X10638000Y-8479000D02*
X10698000Y-8539000D01*
X10698000Y-8479000D02*
X10638000Y-8539000D01*
X10638000Y-8860000D02*
X10698000Y-8920000D01*
X10698000Y-8860000D02*
X10638000Y-8920000D01*
X10638000Y-9114000D02*
X10698000Y-9174000D01*
X10698000Y-9114000D02*
X10638000Y-9174000D01*
X10638000Y-9418800D02*
X10698000Y-9478800D01*
X10698000Y-9418800D02*
X10638000Y-9478800D01*
X10790400Y-13813000D02*
X10850400Y-13873000D01*
X10850400Y-13813000D02*
X10790400Y-13873000D01*
X10917400Y-12492200D02*
X10977400Y-12552200D01*
X10977400Y-12492200D02*
X10917400Y-12552200D01*
X11450800Y-8860000D02*
X11510800Y-8920000D01*
X11510800Y-8860000D02*
X11450800Y-8920000D01*
X11476200Y-7590000D02*
X11536200Y-7650000D01*
X11536200Y-7590000D02*
X11476200Y-7650000D01*
X11603200Y-9469600D02*
X11663200Y-9529600D01*
X11663200Y-9469600D02*
X11603200Y-9529600D01*
X11603200Y-10384000D02*
X11663200Y-10444000D01*
X11663200Y-10384000D02*
X11603200Y-10444000D01*
X11603200Y-11069800D02*
X11663200Y-11129800D01*
X11663200Y-11069800D02*
X11603200Y-11129800D01*
X11654000Y-12670000D02*
X11714000Y-12730000D01*
X11714000Y-12670000D02*
X11654000Y-12730000D01*
X11781000Y-11781000D02*
X11841000Y-11841000D01*
X11841000Y-11781000D02*
X11781000Y-11841000D01*
X11908000Y-13813000D02*
X11968000Y-13873000D01*
X11968000Y-13813000D02*
X11908000Y-13873000D01*
X11933400Y-10130000D02*
X11993400Y-10190000D01*
X11993400Y-10130000D02*
X11933400Y-10190000D01*
X12060400Y-7336000D02*
X12120400Y-7396000D01*
X12120400Y-7336000D02*
X12060400Y-7396000D01*
X12212800Y-9037800D02*
X12272800Y-9097800D01*
X12272800Y-9037800D02*
X12212800Y-9097800D01*
X12212800Y-9622000D02*
X12272800Y-9682000D01*
X12272800Y-9622000D02*
X12212800Y-9682000D01*
X12212800Y-10638000D02*
X12272800Y-10698000D01*
X12272800Y-10638000D02*
X12212800Y-10698000D01*
X12263600Y-6878800D02*
X12323600Y-6938800D01*
X12323600Y-6878800D02*
X12263600Y-6938800D01*
X12263600Y-7590000D02*
X12323600Y-7650000D01*
X12323600Y-7590000D02*
X12263600Y-7650000D01*
X12416000Y-11781000D02*
X12476000Y-11841000D01*
X12476000Y-11781000D02*
X12416000Y-11841000D01*
X12416000Y-12162000D02*
X12476000Y-12222000D01*
X12476000Y-12162000D02*
X12416000Y-12222000D01*
X12416000Y-12416000D02*
X12476000Y-12476000D01*
X12476000Y-12416000D02*
X12416000Y-12476000D01*
X12416000Y-12670000D02*
X12476000Y-12730000D01*
X12476000Y-12670000D02*
X12416000Y-12730000D01*
X12416000Y-13101800D02*
X12476000Y-13161800D01*
X12476000Y-13101800D02*
X12416000Y-13161800D01*
X13432000Y-11298400D02*
X13492000Y-11358400D01*
X13492000Y-11298400D02*
X13432000Y-11358400D01*
X13432000Y-11781000D02*
X13492000Y-11841000D01*
X13492000Y-11781000D02*
X13432000Y-11841000D01*
X13432000Y-12162000D02*
X13492000Y-12222000D01*
X13492000Y-12162000D02*
X13432000Y-12222000D01*
X13432000Y-12416000D02*
X13492000Y-12476000D01*
X13492000Y-12416000D02*
X13432000Y-12476000D01*
X13432000Y-12670000D02*
X13492000Y-12730000D01*
X13492000Y-12670000D02*
X13432000Y-12730000D01*
X13508200Y-13101800D02*
X13568200Y-13161800D01*
X13568200Y-13101800D02*
X13508200Y-13161800D01*
X13508200Y-13813000D02*
X13568200Y-13873000D01*
X13568200Y-13813000D02*
X13508200Y-13873000D01*
X13965400Y-13101800D02*
X14025400Y-13161800D01*
X14025400Y-13101800D02*
X13965400Y-13161800D01*
X13965400Y-13813000D02*
X14025400Y-13873000D01*
X14025400Y-13813000D02*
X13965400Y-13873000D01*
X14371800Y-11641300D02*
X14431800Y-11701300D01*
X14431800Y-11641300D02*
X14371800Y-11701300D01*
X14371800Y-11882600D02*
X14431800Y-11942600D01*
X14431800Y-11882600D02*
X14371800Y-11942600D01*
X14600400Y-12898600D02*
X14660400Y-12958600D01*
X14660400Y-12898600D02*
X14600400Y-12958600D01*
X14600400Y-13355800D02*
X14660400Y-13415800D01*
X14660400Y-13355800D02*
X14600400Y-13415800D01*
X14702000Y-12035000D02*
X14762000Y-12095000D01*
X14762000Y-12035000D02*
X14702000Y-12095000D01*
X14752800Y-12187400D02*
X14812800Y-12247400D01*
X14812800Y-12187400D02*
X14752800Y-12247400D01*
X14930600Y-12187400D02*
X14990600Y-12247400D01*
X14990600Y-12187400D02*
X14930600Y-12247400D01*
X14930600Y-12492200D02*
X14990600Y-12552200D01*
X14990600Y-12492200D02*
X14930600Y-12552200D01*
X14930600Y-12924000D02*
X14990600Y-12984000D01*
X14990600Y-12924000D02*
X14930600Y-12984000D01*
X15159200Y-12035000D02*
X15219200Y-12095000D01*
X15219200Y-12035000D02*
X15159200Y-12095000D01*
X15210000Y-9227000D02*
X15270000Y-9287000D01*
X15270000Y-9227000D02*
X15210000Y-9287000D01*
X15210000Y-9723600D02*
X15270000Y-9783600D01*
X15270000Y-9723600D02*
X15210000Y-9783600D01*
X15210000Y-10227000D02*
X15270000Y-10287000D01*
X15270000Y-10227000D02*
X15210000Y-10287000D01*
X15210000Y-10727000D02*
X15270000Y-10787000D01*
X15270000Y-10727000D02*
X15210000Y-10787000D01*
X15387800Y-13813000D02*
X15447800Y-13873000D01*
X15447800Y-13813000D02*
X15387800Y-13873000D01*
X15489400Y-11298400D02*
X15549400Y-11358400D01*
X15549400Y-11298400D02*
X15489400Y-11358400D01*
X15591000Y-12162000D02*
X15651000Y-12222000D01*
X15651000Y-12162000D02*
X15591000Y-12222000D01*
X15591000Y-12771600D02*
X15651000Y-12831600D01*
X15651000Y-12771600D02*
X15591000Y-12831600D01*
X15591000Y-13076400D02*
X15651000Y-13136400D01*
X15651000Y-13076400D02*
X15591000Y-13136400D01*
X15718000Y-12924000D02*
X15778000Y-12984000D01*
X15778000Y-12924000D02*
X15718000Y-12984000D01*
X15870400Y-10227000D02*
X15930400Y-10287000D01*
X15930400Y-10227000D02*
X15870400Y-10287000D01*
X15972000Y-10727000D02*
X16032000Y-10787000D01*
X16032000Y-10727000D02*
X15972000Y-10787000D01*
X16099000Y-12390600D02*
X16159000Y-12450600D01*
X16159000Y-12390600D02*
X16099000Y-12450600D01*
X16226000Y-8834600D02*
X16286000Y-8894600D01*
X16286000Y-8834600D02*
X16226000Y-8894600D01*
X16340300Y-9939500D02*
X16400300Y-9999500D01*
X16400300Y-9939500D02*
X16340300Y-9999500D01*
X16581600Y-12238200D02*
X16641600Y-12298200D01*
X16641600Y-12238200D02*
X16581600Y-12298200D01*
X16657800Y-11641300D02*
X16717800Y-11701300D01*
X16717800Y-11641300D02*
X16657800Y-11701300D01*
X16734000Y-8834600D02*
X16794000Y-8894600D01*
X16794000Y-8834600D02*
X16734000Y-8894600D01*
X16810200Y-13813000D02*
X16870200Y-13873000D01*
X16870200Y-13813000D02*
X16810200Y-13873000D01*
X17165800Y-9469600D02*
X17225800Y-9529600D01*
X17225800Y-9469600D02*
X17165800Y-9529600D01*
X17191200Y-12974800D02*
X17251200Y-13034800D01*
X17251200Y-12974800D02*
X17191200Y-13034800D01*
X17216600Y-11958800D02*
X17276600Y-12018800D01*
X17276600Y-11958800D02*
X17216600Y-12018800D01*
X17242000Y-13813000D02*
X17302000Y-13873000D01*
X17302000Y-13813000D02*
X17242000Y-13873000D01*
X17563000Y-10070000D02*
X17623000Y-10130000D01*
X17623000Y-10070000D02*
X17563000Y-10130000D01*
X17572200Y-11120600D02*
X17632200Y-11180600D01*
X17632200Y-11120600D02*
X17572200Y-11180600D01*
X17724600Y-13813000D02*
X17784600Y-13873000D01*
X17784600Y-13813000D02*
X17724600Y-13873000D01*
X17953200Y-12974800D02*
X18013200Y-13034800D01*
X18013200Y-12974800D02*
X17953200Y-13034800D01*
X18080200Y-11374600D02*
X18140200Y-11434600D01*
X18140200Y-11374600D02*
X18080200Y-11434600D01*
X18105600Y-7945600D02*
X18165600Y-8005600D01*
X18165600Y-7945600D02*
X18105600Y-8005600D01*
X18105600Y-8479000D02*
X18165600Y-8539000D01*
X18165600Y-8479000D02*
X18105600Y-8539000D01*
X18105600Y-9114000D02*
X18165600Y-9174000D01*
X18165600Y-9114000D02*
X18105600Y-9174000D01*
X18181800Y-13406600D02*
X18241800Y-13466600D01*
X18241800Y-13406600D02*
X18181800Y-13466600D01*
X18207200Y-13813000D02*
X18267200Y-13873000D01*
X18267200Y-13813000D02*
X18207200Y-13873000D01*
X18283400Y-11120600D02*
X18343400Y-11180600D01*
X18343400Y-11120600D02*
X18283400Y-11180600D01*
X18334200Y-12441400D02*
X18394200Y-12501400D01*
X18394200Y-12441400D02*
X18334200Y-12501400D01*
X18435800Y-9698200D02*
X18495800Y-9758200D01*
X18495800Y-9698200D02*
X18435800Y-9758200D01*
X18435800Y-10460200D02*
X18495800Y-10520200D01*
X18495800Y-10460200D02*
X18435800Y-10520200D01*
X18689800Y-13787600D02*
X18749800Y-13847600D01*
X18749800Y-13787600D02*
X18689800Y-13847600D01*
X18715200Y-7945600D02*
X18775200Y-8005600D01*
X18775200Y-7945600D02*
X18715200Y-8005600D01*
X18715200Y-8479000D02*
X18775200Y-8539000D01*
X18775200Y-8479000D02*
X18715200Y-8539000D01*
X18842200Y-12441400D02*
X18902200Y-12501400D01*
X18902200Y-12441400D02*
X18842200Y-12501400D01*
X18867600Y-7107400D02*
X18927600Y-7167400D01*
X18927600Y-7107400D02*
X18867600Y-7167400D01*
X18867600Y-9114000D02*
X18927600Y-9174000D01*
X18927600Y-9114000D02*
X18867600Y-9174000D01*
X18867600Y-11908000D02*
X18927600Y-11968000D01*
X18927600Y-11908000D02*
X18867600Y-11968000D01*
X18867600Y-12212800D02*
X18927600Y-12272800D01*
X18927600Y-12212800D02*
X18867600Y-12272800D01*
X19020000Y-9698200D02*
X19080000Y-9758200D01*
X19080000Y-9698200D02*
X19020000Y-9758200D01*
X19096200Y-10866600D02*
X19156200Y-10926600D01*
X19156200Y-10866600D02*
X19096200Y-10926600D01*
X19096200Y-11501600D02*
X19156200Y-11561600D01*
X19156200Y-11501600D02*
X19096200Y-11561600D01*
X19121600Y-6904200D02*
X19181600Y-6964200D01*
X19181600Y-6904200D02*
X19121600Y-6964200D01*
X19172400Y-10384000D02*
X19232400Y-10444000D01*
X19232400Y-10384000D02*
X19172400Y-10444000D01*
X19197800Y-12593800D02*
X19257800Y-12653800D01*
X19257800Y-12593800D02*
X19197800Y-12653800D01*
X19299400Y-11247600D02*
X19359400Y-11307600D01*
X19359400Y-11247600D02*
X19299400Y-11307600D01*
X19375600Y-7107400D02*
X19435600Y-7167400D01*
X19435600Y-7107400D02*
X19375600Y-7167400D01*
X19375600Y-8123400D02*
X19435600Y-8183400D01*
X19435600Y-8123400D02*
X19375600Y-8183400D01*
X19375600Y-8453600D02*
X19435600Y-8513600D01*
X19435600Y-8453600D02*
X19375600Y-8513600D01*
X19477200Y-12771600D02*
X19537200Y-12831600D01*
X19537200Y-12771600D02*
X19477200Y-12831600D01*
X19604200Y-7513800D02*
X19664200Y-7573800D01*
X19664200Y-7513800D02*
X19604200Y-7573800D01*
X19604200Y-9114000D02*
X19664200Y-9174000D01*
X19664200Y-9114000D02*
X19604200Y-9174000D01*
X19680400Y-10180800D02*
X19740400Y-10240800D01*
X19740400Y-10180800D02*
X19680400Y-10240800D01*
X19680400Y-10587200D02*
X19740400Y-10647200D01*
X19740400Y-10587200D02*
X19680400Y-10647200D01*
X19832800Y-8123400D02*
X19892800Y-8183400D01*
X19892800Y-8123400D02*
X19832800Y-8183400D01*
X19832800Y-8453600D02*
X19892800Y-8513600D01*
X19892800Y-8453600D02*
X19832800Y-8513600D01*
X19832800Y-8885400D02*
X19892800Y-8945400D01*
X19892800Y-8885400D02*
X19832800Y-8945400D01*
X19832800Y-11120600D02*
X19892800Y-11180600D01*
X19892800Y-11120600D02*
X19832800Y-11180600D01*
X14513000Y-7975600D02*
G75*
G02*
X14443000Y-7975600I-35000J0D01*
G01*
X14443000Y-7975600D02*
G75*
G02*
X14513000Y-7975600I35000J0D01*
G01*
X14513000Y-8483600D02*
G75*
G02*
X14443000Y-8483600I-35000J0D01*
G01*
X14443000Y-8483600D02*
G75*
G02*
X14513000Y-8483600I35000J0D01*
G01*
X15341600Y-6691000D02*
X15341600Y-6771000D01*
X15301600Y-6731000D02*
X15381600Y-6731000D01*
X15341600Y-8215000D02*
X15341600Y-8295000D01*
X15301600Y-8255000D02*
X15381600Y-8255000D01*
X18135600Y-6691000D02*
X18135600Y-6771000D01*
X18095600Y-6731000D02*
X18175600Y-6731000D01*
X18135600Y-7453000D02*
X18135600Y-7533000D01*
X18095600Y-7493000D02*
X18175600Y-7493000D01*
X8671356Y-7147356D02*
X8671356Y-7076644D01*
X8600644Y-7076644D01*
X8600644Y-7147356D01*
X8671356Y-7147356D01*
X8671356Y-7401356D02*
X8671356Y-7330644D01*
X8600644Y-7330644D01*
X8600644Y-7401356D01*
X8671356Y-7401356D01*
X8671356Y-7655356D02*
X8671356Y-7584644D01*
X8600644Y-7584644D01*
X8600644Y-7655356D01*
X8671356Y-7655356D01*
X8671356Y-7909356D02*
X8671356Y-7838644D01*
X8600644Y-7838644D01*
X8600644Y-7909356D01*
X8671356Y-7909356D01*
X8671356Y-8163356D02*
X8671356Y-8092644D01*
X8600644Y-8092644D01*
X8600644Y-8163356D01*
X8671356Y-8163356D01*
X8671356Y-8417356D02*
X8671356Y-8346644D01*
X8600644Y-8346644D01*
X8600644Y-8417356D01*
X8671356Y-8417356D01*
X8671356Y-8671356D02*
X8671356Y-8600644D01*
X8600644Y-8600644D01*
X8600644Y-8671356D01*
X8671356Y-8671356D01*
X8671356Y-8925356D02*
X8671356Y-8854644D01*
X8600644Y-8854644D01*
X8600644Y-8925356D01*
X8671356Y-8925356D01*
X8671356Y-9179356D02*
X8671356Y-9108644D01*
X8600644Y-9108644D01*
X8600644Y-9179356D01*
X8671356Y-9179356D01*
X8671356Y-9433356D02*
X8671356Y-9362644D01*
X8600644Y-9362644D01*
X8600644Y-9433356D01*
X8671356Y-9433356D01*
X8671356Y-9687356D02*
X8671356Y-9616644D01*
X8600644Y-9616644D01*
X8600644Y-9687356D01*
X8671356Y-9687356D01*
X8671356Y-9941356D02*
X8671356Y-9870644D01*
X8600644Y-9870644D01*
X8600644Y-9941356D01*
X8671356Y-9941356D01*
X8671356Y-10195356D02*
X8671356Y-10124644D01*
X8600644Y-10124644D01*
X8600644Y-10195356D01*
X8671356Y-10195356D01*
X8671356Y-10449356D02*
X8671356Y-10378644D01*
X8600644Y-10378644D01*
X8600644Y-10449356D01*
X8671356Y-10449356D01*
X8671356Y-10703356D02*
X8671356Y-10632644D01*
X8600644Y-10632644D01*
X8600644Y-10703356D01*
X8671356Y-10703356D01*
X8925356Y-7147356D02*
X8925356Y-7076644D01*
X8854644Y-7076644D01*
X8854644Y-7147356D01*
X8925356Y-7147356D01*
X8925356Y-7401356D02*
X8925356Y-7330644D01*
X8854644Y-7330644D01*
X8854644Y-7401356D01*
X8925356Y-7401356D01*
X8925356Y-7655356D02*
X8925356Y-7584644D01*
X8854644Y-7584644D01*
X8854644Y-7655356D01*
X8925356Y-7655356D01*
X8925356Y-7909356D02*
X8925356Y-7838644D01*
X8854644Y-7838644D01*
X8854644Y-7909356D01*
X8925356Y-7909356D01*
X8925356Y-8163356D02*
X8925356Y-8092644D01*
X8854644Y-8092644D01*
X8854644Y-8163356D01*
X8925356Y-8163356D01*
X8925356Y-8417356D02*
X8925356Y-8346644D01*
X8854644Y-8346644D01*
X8854644Y-8417356D01*
X8925356Y-8417356D01*
X8925356Y-8671356D02*
X8925356Y-8600644D01*
X8854644Y-8600644D01*
X8854644Y-8671356D01*
X8925356Y-8671356D01*
X8925356Y-8925356D02*
X8925356Y-8854644D01*
X8854644Y-8854644D01*
X8854644Y-8925356D01*
X8925356Y-8925356D01*
X8925356Y-9179356D02*
X8925356Y-9108644D01*
X8854644Y-9108644D01*
X8854644Y-9179356D01*
X8925356Y-9179356D01*
X8925356Y-9433356D02*
X8925356Y-9362644D01*
X8854644Y-9362644D01*
X8854644Y-9433356D01*
X8925356Y-9433356D01*
X8925356Y-9687356D02*
X8925356Y-9616644D01*
X8854644Y-9616644D01*
X8854644Y-9687356D01*
X8925356Y-9687356D01*
X8925356Y-9941356D02*
X8925356Y-9870644D01*
X8854644Y-9870644D01*
X8854644Y-9941356D01*
X8925356Y-9941356D01*
X8925356Y-10195356D02*
X8925356Y-10124644D01*
X8854644Y-10124644D01*
X8854644Y-10195356D01*
X8925356Y-10195356D01*
X8925356Y-10449356D02*
X8925356Y-10378644D01*
X8854644Y-10378644D01*
X8854644Y-10449356D01*
X8925356Y-10449356D01*
X8925356Y-10703356D02*
X8925356Y-10632644D01*
X8854644Y-10632644D01*
X8854644Y-10703356D01*
X8925356Y-10703356D01*
X9306356Y-12074956D02*
X9306356Y-12004244D01*
X9235644Y-12004244D01*
X9235644Y-12074956D01*
X9306356Y-12074956D01*
X9560356Y-12074956D02*
X9560356Y-12004244D01*
X9489644Y-12004244D01*
X9489644Y-12074956D01*
X9560356Y-12074956D01*
X9814356Y-12074956D02*
X9814356Y-12004244D01*
X9743644Y-12004244D01*
X9743644Y-12074956D01*
X9814356Y-12074956D01*
X10068356Y-12074956D02*
X10068356Y-12004244D01*
X9997644Y-12004244D01*
X9997644Y-12074956D01*
X10068356Y-12074956D01*
X10322356Y-12074956D02*
X10322356Y-12004244D01*
X10251644Y-12004244D01*
X10251644Y-12074956D01*
X10322356Y-12074956D01*
X10576356Y-12074956D02*
X10576356Y-12004244D01*
X10505644Y-12004244D01*
X10505644Y-12074956D01*
X10576356Y-12074956D01*
X11211356Y-7147356D02*
X11211356Y-7076644D01*
X11140644Y-7076644D01*
X11140644Y-7147356D01*
X11211356Y-7147356D01*
X11211356Y-7401356D02*
X11211356Y-7330644D01*
X11140644Y-7330644D01*
X11140644Y-7401356D01*
X11211356Y-7401356D01*
X11211356Y-7655356D02*
X11211356Y-7584644D01*
X11140644Y-7584644D01*
X11140644Y-7655356D01*
X11211356Y-7655356D01*
X11211356Y-7909356D02*
X11211356Y-7838644D01*
X11140644Y-7838644D01*
X11140644Y-7909356D01*
X11211356Y-7909356D01*
X11211356Y-8163356D02*
X11211356Y-8092644D01*
X11140644Y-8092644D01*
X11140644Y-8163356D01*
X11211356Y-8163356D01*
X11211356Y-8417356D02*
X11211356Y-8346644D01*
X11140644Y-8346644D01*
X11140644Y-8417356D01*
X11211356Y-8417356D01*
X11211356Y-8671356D02*
X11211356Y-8600644D01*
X11140644Y-8600644D01*
X11140644Y-8671356D01*
X11211356Y-8671356D01*
X11211356Y-8925356D02*
X11211356Y-8854644D01*
X11140644Y-8854644D01*
X11140644Y-8925356D01*
X11211356Y-8925356D01*
X11211356Y-9179356D02*
X11211356Y-9108644D01*
X11140644Y-9108644D01*
X11140644Y-9179356D01*
X11211356Y-9179356D01*
X11211356Y-9433356D02*
X11211356Y-9362644D01*
X11140644Y-9362644D01*
X11140644Y-9433356D01*
X11211356Y-9433356D01*
X11211356Y-9687356D02*
X11211356Y-9616644D01*
X11140644Y-9616644D01*
X11140644Y-9687356D01*
X11211356Y-9687356D01*
X11211356Y-9941356D02*
X11211356Y-9870644D01*
X11140644Y-9870644D01*
X11140644Y-9941356D01*
X11211356Y-9941356D01*
X11211356Y-10195356D02*
X11211356Y-10124644D01*
X11140644Y-10124644D01*
X11140644Y-10195356D01*
X11211356Y-10195356D01*
X11211356Y-10449356D02*
X11211356Y-10378644D01*
X11140644Y-10378644D01*
X11140644Y-10449356D01*
X11211356Y-10449356D01*
X11211356Y-10703356D02*
X11211356Y-10632644D01*
X11140644Y-10632644D01*
X11140644Y-10703356D01*
X11211356Y-10703356D01*
X11846356Y-8036356D02*
X11846356Y-7965644D01*
X11775644Y-7965644D01*
X11775644Y-8036356D01*
X11846356Y-8036356D01*
X11846356Y-8290356D02*
X11846356Y-8219644D01*
X11775644Y-8219644D01*
X11775644Y-8290356D01*
X11846356Y-8290356D01*
X11846356Y-8544356D02*
X11846356Y-8473644D01*
X11775644Y-8473644D01*
X11775644Y-8544356D01*
X11846356Y-8544356D01*
X11846356Y-8798356D02*
X11846356Y-8727644D01*
X11775644Y-8727644D01*
X11775644Y-8798356D01*
X11846356Y-8798356D01*
X12100356Y-8036356D02*
X12100356Y-7965644D01*
X12029644Y-7965644D01*
X12029644Y-8036356D01*
X12100356Y-8036356D01*
X12100356Y-8290356D02*
X12100356Y-8219644D01*
X12029644Y-8219644D01*
X12029644Y-8290356D01*
X12100356Y-8290356D01*
X12100356Y-8544356D02*
X12100356Y-8473644D01*
X12029644Y-8473644D01*
X12029644Y-8544356D01*
X12100356Y-8544356D01*
X12100356Y-8798356D02*
X12100356Y-8727644D01*
X12029644Y-8727644D01*
X12029644Y-8798356D01*
X12100356Y-8798356D01*
D13*
X17730400Y-12119500D02*
X17784900Y-12065000D01*
X17730400Y-12010500D01*
X17675900Y-12065000D01*
X17730400Y-12119500D01*
X17730400Y-12373500D02*
X17784900Y-12319000D01*
X17730400Y-12264500D01*
X17675900Y-12319000D01*
X17730400Y-12373500D01*
D14*
X16515000Y-9435000D02*
X16645000Y-9565000D01*
X16645000Y-9435000D02*
X16515000Y-9565000D01*
X16645000Y-9500000D02*
G75*
G02*
X16515000Y-9500000I-65000J0D01*
G01*
X16515000Y-9500000D02*
G75*
G02*
X16645000Y-9500000I65000J0D01*
G01*
X16515000Y-10635000D02*
X16645000Y-10765000D01*
X16645000Y-10635000D02*
X16515000Y-10765000D01*
X16645000Y-10700000D02*
G75*
G02*
X16515000Y-10700000I-65000J0D01*
G01*
X16515000Y-10700000D02*
G75*
G02*
X16645000Y-10700000I65000J0D01*
G01*
X17735000Y-9435000D02*
X17865000Y-9565000D01*
X17865000Y-9435000D02*
X17735000Y-9565000D01*
X17865000Y-9500000D02*
G75*
G02*
X17735000Y-9500000I-65000J0D01*
G01*
X17735000Y-9500000D02*
G75*
G02*
X17865000Y-9500000I65000J0D01*
G01*
X17735000Y-10635000D02*
X17865000Y-10765000D01*
X17865000Y-10635000D02*
X17735000Y-10765000D01*
X17865000Y-10700000D02*
G75*
G02*
X17735000Y-10700000I-65000J0D01*
G01*
X17735000Y-10700000D02*
G75*
G02*
X17865000Y-10700000I65000J0D01*
G01*
D15*
X14412000Y-9191000D02*
X14544000Y-9323000D01*
X14544000Y-9191000D02*
X14412000Y-9323000D01*
X14478000Y-9191000D02*
X14478000Y-9323000D01*
X14412000Y-9257000D02*
X14544000Y-9257000D01*
X14412000Y-9691000D02*
X14544000Y-9823000D01*
X14544000Y-9691000D02*
X14412000Y-9823000D01*
X14478000Y-9691000D02*
X14478000Y-9823000D01*
X14412000Y-9757000D02*
X14544000Y-9757000D01*
X14412000Y-10191000D02*
X14544000Y-10323000D01*
X14544000Y-10191000D02*
X14412000Y-10323000D01*
X14478000Y-10191000D02*
X14478000Y-10323000D01*
X14412000Y-10257000D02*
X14544000Y-10257000D01*
X14412000Y-10691000D02*
X14544000Y-10823000D01*
X14544000Y-10691000D02*
X14412000Y-10823000D01*
X14478000Y-10691000D02*
X14478000Y-10823000D01*
X14412000Y-10757000D02*
X14544000Y-10757000D01*
D16*
X17930000Y-10030000D02*
X18070000Y-10170000D01*
X18070000Y-10030000D02*
X17930000Y-10170000D01*
X18049498Y-10149498D02*
X18049498Y-10050502D01*
X17950502Y-10050502D01*
X17950502Y-10149498D01*
X18049498Y-10149498D01*
D17*
X8340000Y-13440000D02*
X8660000Y-13760000D01*
X8660000Y-13440000D02*
X8340000Y-13760000D01*
X8500000Y-13760000D02*
X8660000Y-13600000D01*
X8500000Y-13440000D01*
X8340000Y-13600000D01*
X8500000Y-13760000D01*
X19440000Y-13440000D02*
X19760000Y-13760000D01*
X19760000Y-13440000D02*
X19440000Y-13760000D01*
X19600000Y-13760000D02*
X19760000Y-13600000D01*
X19600000Y-13440000D01*
X19440000Y-13600000D01*
X19600000Y-13760000D01*
D11*
X8358277Y-14313984D02*
X8358277Y-14113984D01*
X8358277Y-14113984D02*
X8405896Y-14113984D01*
X8405896Y-14113984D02*
X8434467Y-14123508D01*
X8434467Y-14123508D02*
X8453515Y-14142555D01*
X8453515Y-14142555D02*
X8463039Y-14161603D01*
X8463039Y-14161603D02*
X8472563Y-14199698D01*
X8472563Y-14199698D02*
X8472563Y-14228269D01*
X8472563Y-14228269D02*
X8463039Y-14266365D01*
X8463039Y-14266365D02*
X8453515Y-14285412D01*
X8453515Y-14285412D02*
X8434467Y-14304460D01*
X8434467Y-14304460D02*
X8405896Y-14313984D01*
X8405896Y-14313984D02*
X8358277Y-14313984D01*
X8558277Y-14313984D02*
X8558277Y-14180650D01*
X8558277Y-14218746D02*
X8567801Y-14199698D01*
X8567801Y-14199698D02*
X8577324Y-14190174D01*
X8577324Y-14190174D02*
X8596372Y-14180650D01*
X8596372Y-14180650D02*
X8615420Y-14180650D01*
X8682086Y-14313984D02*
X8682086Y-14180650D01*
X8682086Y-14113984D02*
X8672563Y-14123508D01*
X8672563Y-14123508D02*
X8682086Y-14133031D01*
X8682086Y-14133031D02*
X8691610Y-14123508D01*
X8691610Y-14123508D02*
X8682086Y-14113984D01*
X8682086Y-14113984D02*
X8682086Y-14133031D01*
X8805896Y-14313984D02*
X8786848Y-14304460D01*
X8786848Y-14304460D02*
X8777324Y-14285412D01*
X8777324Y-14285412D02*
X8777324Y-14113984D01*
X8910658Y-14313984D02*
X8891610Y-14304460D01*
X8891610Y-14304460D02*
X8882086Y-14285412D01*
X8882086Y-14285412D02*
X8882086Y-14113984D01*
X9139229Y-14313984D02*
X9139229Y-14113984D01*
X9139229Y-14113984D02*
X9205896Y-14256841D01*
X9205896Y-14256841D02*
X9272563Y-14113984D01*
X9272563Y-14113984D02*
X9272563Y-14313984D01*
X9453515Y-14313984D02*
X9453515Y-14209222D01*
X9453515Y-14209222D02*
X9443991Y-14190174D01*
X9443991Y-14190174D02*
X9424944Y-14180650D01*
X9424944Y-14180650D02*
X9386848Y-14180650D01*
X9386848Y-14180650D02*
X9367801Y-14190174D01*
X9453515Y-14304460D02*
X9434467Y-14313984D01*
X9434467Y-14313984D02*
X9386848Y-14313984D01*
X9386848Y-14313984D02*
X9367801Y-14304460D01*
X9367801Y-14304460D02*
X9358277Y-14285412D01*
X9358277Y-14285412D02*
X9358277Y-14266365D01*
X9358277Y-14266365D02*
X9367801Y-14247317D01*
X9367801Y-14247317D02*
X9386848Y-14237793D01*
X9386848Y-14237793D02*
X9434467Y-14237793D01*
X9434467Y-14237793D02*
X9453515Y-14228269D01*
X9548753Y-14180650D02*
X9548753Y-14380650D01*
X9548753Y-14190174D02*
X9567801Y-14180650D01*
X9567801Y-14180650D02*
X9605896Y-14180650D01*
X9605896Y-14180650D02*
X9624944Y-14190174D01*
X9624944Y-14190174D02*
X9634467Y-14199698D01*
X9634467Y-14199698D02*
X9643991Y-14218746D01*
X9643991Y-14218746D02*
X9643991Y-14275888D01*
X9643991Y-14275888D02*
X9634467Y-14294936D01*
X9634467Y-14294936D02*
X9624944Y-14304460D01*
X9624944Y-14304460D02*
X9605896Y-14313984D01*
X9605896Y-14313984D02*
X9567801Y-14313984D01*
X9567801Y-14313984D02*
X9548753Y-14304460D01*
X9729705Y-14294936D02*
X9739229Y-14304460D01*
X9739229Y-14304460D02*
X9729705Y-14313984D01*
X9729705Y-14313984D02*
X9720182Y-14304460D01*
X9720182Y-14304460D02*
X9729705Y-14294936D01*
X9729705Y-14294936D02*
X9729705Y-14313984D01*
X9729705Y-14190174D02*
X9739229Y-14199698D01*
X9739229Y-14199698D02*
X9729705Y-14209222D01*
X9729705Y-14209222D02*
X9720182Y-14199698D01*
X9720182Y-14199698D02*
X9729705Y-14190174D01*
X9729705Y-14190174D02*
X9729705Y-14209222D01*
D12*
X8037500Y-14612500D02*
X8097500Y-14672500D01*
X8097500Y-14612500D02*
X8037500Y-14672500D01*
D11*
X8396372Y-14533984D02*
X8415420Y-14533984D01*
X8415420Y-14533984D02*
X8434467Y-14543508D01*
X8434467Y-14543508D02*
X8443991Y-14553031D01*
X8443991Y-14553031D02*
X8453515Y-14572079D01*
X8453515Y-14572079D02*
X8463039Y-14610174D01*
X8463039Y-14610174D02*
X8463039Y-14657793D01*
X8463039Y-14657793D02*
X8453515Y-14695888D01*
X8453515Y-14695888D02*
X8443991Y-14714936D01*
X8443991Y-14714936D02*
X8434467Y-14724460D01*
X8434467Y-14724460D02*
X8415420Y-14733984D01*
X8415420Y-14733984D02*
X8396372Y-14733984D01*
X8396372Y-14733984D02*
X8377324Y-14724460D01*
X8377324Y-14724460D02*
X8367801Y-14714936D01*
X8367801Y-14714936D02*
X8358277Y-14695888D01*
X8358277Y-14695888D02*
X8348753Y-14657793D01*
X8348753Y-14657793D02*
X8348753Y-14610174D01*
X8348753Y-14610174D02*
X8358277Y-14572079D01*
X8358277Y-14572079D02*
X8367801Y-14553031D01*
X8367801Y-14553031D02*
X8377324Y-14543508D01*
X8377324Y-14543508D02*
X8396372Y-14533984D01*
X8548753Y-14714936D02*
X8558277Y-14724460D01*
X8558277Y-14724460D02*
X8548753Y-14733984D01*
X8548753Y-14733984D02*
X8539229Y-14724460D01*
X8539229Y-14724460D02*
X8548753Y-14714936D01*
X8548753Y-14714936D02*
X8548753Y-14733984D01*
X8729705Y-14533984D02*
X8691610Y-14533984D01*
X8691610Y-14533984D02*
X8672563Y-14543508D01*
X8672563Y-14543508D02*
X8663039Y-14553031D01*
X8663039Y-14553031D02*
X8643991Y-14581603D01*
X8643991Y-14581603D02*
X8634467Y-14619698D01*
X8634467Y-14619698D02*
X8634467Y-14695888D01*
X8634467Y-14695888D02*
X8643991Y-14714936D01*
X8643991Y-14714936D02*
X8653515Y-14724460D01*
X8653515Y-14724460D02*
X8672563Y-14733984D01*
X8672563Y-14733984D02*
X8710658Y-14733984D01*
X8710658Y-14733984D02*
X8729705Y-14724460D01*
X8729705Y-14724460D02*
X8739229Y-14714936D01*
X8739229Y-14714936D02*
X8748753Y-14695888D01*
X8748753Y-14695888D02*
X8748753Y-14648269D01*
X8748753Y-14648269D02*
X8739229Y-14629222D01*
X8739229Y-14629222D02*
X8729705Y-14619698D01*
X8729705Y-14619698D02*
X8710658Y-14610174D01*
X8710658Y-14610174D02*
X8672563Y-14610174D01*
X8672563Y-14610174D02*
X8653515Y-14619698D01*
X8653515Y-14619698D02*
X8643991Y-14629222D01*
X8643991Y-14629222D02*
X8634467Y-14648269D01*
X8872563Y-14533984D02*
X8891610Y-14533984D01*
X8891610Y-14533984D02*
X8910658Y-14543508D01*
X8910658Y-14543508D02*
X8920182Y-14553031D01*
X8920182Y-14553031D02*
X8929705Y-14572079D01*
X8929705Y-14572079D02*
X8939229Y-14610174D01*
X8939229Y-14610174D02*
X8939229Y-14657793D01*
X8939229Y-14657793D02*
X8929705Y-14695888D01*
X8929705Y-14695888D02*
X8920182Y-14714936D01*
X8920182Y-14714936D02*
X8910658Y-14724460D01*
X8910658Y-14724460D02*
X8891610Y-14733984D01*
X8891610Y-14733984D02*
X8872563Y-14733984D01*
X8872563Y-14733984D02*
X8853515Y-14724460D01*
X8853515Y-14724460D02*
X8843991Y-14714936D01*
X8843991Y-14714936D02*
X8834467Y-14695888D01*
X8834467Y-14695888D02*
X8824944Y-14657793D01*
X8824944Y-14657793D02*
X8824944Y-14610174D01*
X8824944Y-14610174D02*
X8834467Y-14572079D01*
X8834467Y-14572079D02*
X8843991Y-14553031D01*
X8843991Y-14553031D02*
X8853515Y-14543508D01*
X8853515Y-14543508D02*
X8872563Y-14533984D01*
X9063039Y-14533984D02*
X9082086Y-14533984D01*
X9082086Y-14533984D02*
X9101134Y-14543508D01*
X9101134Y-14543508D02*
X9110658Y-14553031D01*
X9110658Y-14553031D02*
X9120182Y-14572079D01*
X9120182Y-14572079D02*
X9129705Y-14610174D01*
X9129705Y-14610174D02*
X9129705Y-14657793D01*
X9129705Y-14657793D02*
X9120182Y-14695888D01*
X9120182Y-14695888D02*
X9110658Y-14714936D01*
X9110658Y-14714936D02*
X9101134Y-14724460D01*
X9101134Y-14724460D02*
X9082086Y-14733984D01*
X9082086Y-14733984D02*
X9063039Y-14733984D01*
X9063039Y-14733984D02*
X9043991Y-14724460D01*
X9043991Y-14724460D02*
X9034467Y-14714936D01*
X9034467Y-14714936D02*
X9024944Y-14695888D01*
X9024944Y-14695888D02*
X9015420Y-14657793D01*
X9015420Y-14657793D02*
X9015420Y-14610174D01*
X9015420Y-14610174D02*
X9024944Y-14572079D01*
X9024944Y-14572079D02*
X9034467Y-14553031D01*
X9034467Y-14553031D02*
X9043991Y-14543508D01*
X9043991Y-14543508D02*
X9063039Y-14533984D01*
X9215420Y-14733984D02*
X9215420Y-14600650D01*
X9215420Y-14619698D02*
X9224944Y-14610174D01*
X9224944Y-14610174D02*
X9243991Y-14600650D01*
X9243991Y-14600650D02*
X9272563Y-14600650D01*
X9272563Y-14600650D02*
X9291610Y-14610174D01*
X9291610Y-14610174D02*
X9301134Y-14629222D01*
X9301134Y-14629222D02*
X9301134Y-14733984D01*
X9301134Y-14629222D02*
X9310658Y-14610174D01*
X9310658Y-14610174D02*
X9329705Y-14600650D01*
X9329705Y-14600650D02*
X9358277Y-14600650D01*
X9358277Y-14600650D02*
X9377325Y-14610174D01*
X9377325Y-14610174D02*
X9386848Y-14629222D01*
X9386848Y-14629222D02*
X9386848Y-14733984D01*
X9482086Y-14733984D02*
X9482086Y-14600650D01*
X9482086Y-14619698D02*
X9491610Y-14610174D01*
X9491610Y-14610174D02*
X9510658Y-14600650D01*
X9510658Y-14600650D02*
X9539229Y-14600650D01*
X9539229Y-14600650D02*
X9558277Y-14610174D01*
X9558277Y-14610174D02*
X9567801Y-14629222D01*
X9567801Y-14629222D02*
X9567801Y-14733984D01*
X9567801Y-14629222D02*
X9577325Y-14610174D01*
X9577325Y-14610174D02*
X9596372Y-14600650D01*
X9596372Y-14600650D02*
X9624944Y-14600650D01*
X9624944Y-14600650D02*
X9643991Y-14610174D01*
X9643991Y-14610174D02*
X9653515Y-14629222D01*
X9653515Y-14629222D02*
X9653515Y-14733984D01*
X10043991Y-14524460D02*
X9872563Y-14781603D01*
X10301134Y-14533984D02*
X10320182Y-14533984D01*
X10320182Y-14533984D02*
X10339229Y-14543508D01*
X10339229Y-14543508D02*
X10348753Y-14553031D01*
X10348753Y-14553031D02*
X10358277Y-14572079D01*
X10358277Y-14572079D02*
X10367801Y-14610174D01*
X10367801Y-14610174D02*
X10367801Y-14657793D01*
X10367801Y-14657793D02*
X10358277Y-14695888D01*
X10358277Y-14695888D02*
X10348753Y-14714936D01*
X10348753Y-14714936D02*
X10339229Y-14724460D01*
X10339229Y-14724460D02*
X10320182Y-14733984D01*
X10320182Y-14733984D02*
X10301134Y-14733984D01*
X10301134Y-14733984D02*
X10282087Y-14724460D01*
X10282087Y-14724460D02*
X10272563Y-14714936D01*
X10272563Y-14714936D02*
X10263039Y-14695888D01*
X10263039Y-14695888D02*
X10253515Y-14657793D01*
X10253515Y-14657793D02*
X10253515Y-14610174D01*
X10253515Y-14610174D02*
X10263039Y-14572079D01*
X10263039Y-14572079D02*
X10272563Y-14553031D01*
X10272563Y-14553031D02*
X10282087Y-14543508D01*
X10282087Y-14543508D02*
X10301134Y-14533984D01*
X10453515Y-14714936D02*
X10463039Y-14724460D01*
X10463039Y-14724460D02*
X10453515Y-14733984D01*
X10453515Y-14733984D02*
X10443991Y-14724460D01*
X10443991Y-14724460D02*
X10453515Y-14714936D01*
X10453515Y-14714936D02*
X10453515Y-14733984D01*
X10586848Y-14533984D02*
X10605896Y-14533984D01*
X10605896Y-14533984D02*
X10624944Y-14543508D01*
X10624944Y-14543508D02*
X10634468Y-14553031D01*
X10634468Y-14553031D02*
X10643991Y-14572079D01*
X10643991Y-14572079D02*
X10653515Y-14610174D01*
X10653515Y-14610174D02*
X10653515Y-14657793D01*
X10653515Y-14657793D02*
X10643991Y-14695888D01*
X10643991Y-14695888D02*
X10634468Y-14714936D01*
X10634468Y-14714936D02*
X10624944Y-14724460D01*
X10624944Y-14724460D02*
X10605896Y-14733984D01*
X10605896Y-14733984D02*
X10586848Y-14733984D01*
X10586848Y-14733984D02*
X10567801Y-14724460D01*
X10567801Y-14724460D02*
X10558277Y-14714936D01*
X10558277Y-14714936D02*
X10548753Y-14695888D01*
X10548753Y-14695888D02*
X10539229Y-14657793D01*
X10539229Y-14657793D02*
X10539229Y-14610174D01*
X10539229Y-14610174D02*
X10548753Y-14572079D01*
X10548753Y-14572079D02*
X10558277Y-14553031D01*
X10558277Y-14553031D02*
X10567801Y-14543508D01*
X10567801Y-14543508D02*
X10586848Y-14533984D01*
X10729706Y-14553031D02*
X10739229Y-14543508D01*
X10739229Y-14543508D02*
X10758277Y-14533984D01*
X10758277Y-14533984D02*
X10805896Y-14533984D01*
X10805896Y-14533984D02*
X10824944Y-14543508D01*
X10824944Y-14543508D02*
X10834468Y-14553031D01*
X10834468Y-14553031D02*
X10843991Y-14572079D01*
X10843991Y-14572079D02*
X10843991Y-14591127D01*
X10843991Y-14591127D02*
X10834468Y-14619698D01*
X10834468Y-14619698D02*
X10720182Y-14733984D01*
X10720182Y-14733984D02*
X10843991Y-14733984D01*
X10910658Y-14533984D02*
X11034468Y-14533984D01*
X11034468Y-14533984D02*
X10967801Y-14610174D01*
X10967801Y-14610174D02*
X10996372Y-14610174D01*
X10996372Y-14610174D02*
X11015420Y-14619698D01*
X11015420Y-14619698D02*
X11024944Y-14629222D01*
X11024944Y-14629222D02*
X11034468Y-14648269D01*
X11034468Y-14648269D02*
X11034468Y-14695888D01*
X11034468Y-14695888D02*
X11024944Y-14714936D01*
X11024944Y-14714936D02*
X11015420Y-14724460D01*
X11015420Y-14724460D02*
X10996372Y-14733984D01*
X10996372Y-14733984D02*
X10939229Y-14733984D01*
X10939229Y-14733984D02*
X10920182Y-14724460D01*
X10920182Y-14724460D02*
X10910658Y-14714936D01*
X11205896Y-14533984D02*
X11167801Y-14533984D01*
X11167801Y-14533984D02*
X11148753Y-14543508D01*
X11148753Y-14543508D02*
X11139229Y-14553031D01*
X11139229Y-14553031D02*
X11120182Y-14581603D01*
X11120182Y-14581603D02*
X11110658Y-14619698D01*
X11110658Y-14619698D02*
X11110658Y-14695888D01*
X11110658Y-14695888D02*
X11120182Y-14714936D01*
X11120182Y-14714936D02*
X11129706Y-14724460D01*
X11129706Y-14724460D02*
X11148753Y-14733984D01*
X11148753Y-14733984D02*
X11186848Y-14733984D01*
X11186848Y-14733984D02*
X11205896Y-14724460D01*
X11205896Y-14724460D02*
X11215420Y-14714936D01*
X11215420Y-14714936D02*
X11224944Y-14695888D01*
X11224944Y-14695888D02*
X11224944Y-14648269D01*
X11224944Y-14648269D02*
X11215420Y-14629222D01*
X11215420Y-14629222D02*
X11205896Y-14619698D01*
X11205896Y-14619698D02*
X11186848Y-14610174D01*
X11186848Y-14610174D02*
X11148753Y-14610174D01*
X11148753Y-14610174D02*
X11129706Y-14619698D01*
X11129706Y-14619698D02*
X11120182Y-14629222D01*
X11120182Y-14629222D02*
X11110658Y-14648269D01*
X11301134Y-14533984D02*
X11301134Y-14572079D01*
X11377325Y-14533984D02*
X11377325Y-14572079D01*
X11672563Y-14810174D02*
X11663039Y-14800650D01*
X11663039Y-14800650D02*
X11643991Y-14772079D01*
X11643991Y-14772079D02*
X11634468Y-14753031D01*
X11634468Y-14753031D02*
X11624944Y-14724460D01*
X11624944Y-14724460D02*
X11615420Y-14676841D01*
X11615420Y-14676841D02*
X11615420Y-14638746D01*
X11615420Y-14638746D02*
X11624944Y-14591127D01*
X11624944Y-14591127D02*
X11634468Y-14562555D01*
X11634468Y-14562555D02*
X11643991Y-14543508D01*
X11643991Y-14543508D02*
X11663039Y-14514936D01*
X11663039Y-14514936D02*
X11672563Y-14505412D01*
X11853515Y-14733984D02*
X11739229Y-14733984D01*
X11796372Y-14733984D02*
X11796372Y-14533984D01*
X11796372Y-14533984D02*
X11777325Y-14562555D01*
X11777325Y-14562555D02*
X11758277Y-14581603D01*
X11758277Y-14581603D02*
X11739229Y-14591127D01*
X11929706Y-14553031D02*
X11939229Y-14543508D01*
X11939229Y-14543508D02*
X11958277Y-14533984D01*
X11958277Y-14533984D02*
X12005896Y-14533984D01*
X12005896Y-14533984D02*
X12024944Y-14543508D01*
X12024944Y-14543508D02*
X12034468Y-14553031D01*
X12034468Y-14553031D02*
X12043991Y-14572079D01*
X12043991Y-14572079D02*
X12043991Y-14591127D01*
X12043991Y-14591127D02*
X12034468Y-14619698D01*
X12034468Y-14619698D02*
X11920182Y-14733984D01*
X11920182Y-14733984D02*
X12043991Y-14733984D01*
X12110658Y-14533984D02*
X12243991Y-14533984D01*
X12243991Y-14533984D02*
X12158277Y-14733984D01*
X12472563Y-14733984D02*
X12472563Y-14533984D01*
X12558277Y-14733984D02*
X12558277Y-14629222D01*
X12558277Y-14629222D02*
X12548753Y-14610174D01*
X12548753Y-14610174D02*
X12529706Y-14600650D01*
X12529706Y-14600650D02*
X12501134Y-14600650D01*
X12501134Y-14600650D02*
X12482087Y-14610174D01*
X12482087Y-14610174D02*
X12472563Y-14619698D01*
X12682087Y-14733984D02*
X12663039Y-14724460D01*
X12663039Y-14724460D02*
X12653515Y-14714936D01*
X12653515Y-14714936D02*
X12643991Y-14695888D01*
X12643991Y-14695888D02*
X12643991Y-14638746D01*
X12643991Y-14638746D02*
X12653515Y-14619698D01*
X12653515Y-14619698D02*
X12663039Y-14610174D01*
X12663039Y-14610174D02*
X12682087Y-14600650D01*
X12682087Y-14600650D02*
X12710658Y-14600650D01*
X12710658Y-14600650D02*
X12729706Y-14610174D01*
X12729706Y-14610174D02*
X12739230Y-14619698D01*
X12739230Y-14619698D02*
X12748753Y-14638746D01*
X12748753Y-14638746D02*
X12748753Y-14695888D01*
X12748753Y-14695888D02*
X12739230Y-14714936D01*
X12739230Y-14714936D02*
X12729706Y-14724460D01*
X12729706Y-14724460D02*
X12710658Y-14733984D01*
X12710658Y-14733984D02*
X12682087Y-14733984D01*
X12863039Y-14733984D02*
X12843991Y-14724460D01*
X12843991Y-14724460D02*
X12834468Y-14705412D01*
X12834468Y-14705412D02*
X12834468Y-14533984D01*
X13015420Y-14724460D02*
X12996372Y-14733984D01*
X12996372Y-14733984D02*
X12958277Y-14733984D01*
X12958277Y-14733984D02*
X12939230Y-14724460D01*
X12939230Y-14724460D02*
X12929706Y-14705412D01*
X12929706Y-14705412D02*
X12929706Y-14629222D01*
X12929706Y-14629222D02*
X12939230Y-14610174D01*
X12939230Y-14610174D02*
X12958277Y-14600650D01*
X12958277Y-14600650D02*
X12996372Y-14600650D01*
X12996372Y-14600650D02*
X13015420Y-14610174D01*
X13015420Y-14610174D02*
X13024944Y-14629222D01*
X13024944Y-14629222D02*
X13024944Y-14648269D01*
X13024944Y-14648269D02*
X12929706Y-14667317D01*
X13101134Y-14724460D02*
X13120182Y-14733984D01*
X13120182Y-14733984D02*
X13158277Y-14733984D01*
X13158277Y-14733984D02*
X13177325Y-14724460D01*
X13177325Y-14724460D02*
X13186849Y-14705412D01*
X13186849Y-14705412D02*
X13186849Y-14695888D01*
X13186849Y-14695888D02*
X13177325Y-14676841D01*
X13177325Y-14676841D02*
X13158277Y-14667317D01*
X13158277Y-14667317D02*
X13129706Y-14667317D01*
X13129706Y-14667317D02*
X13110658Y-14657793D01*
X13110658Y-14657793D02*
X13101134Y-14638746D01*
X13101134Y-14638746D02*
X13101134Y-14629222D01*
X13101134Y-14629222D02*
X13110658Y-14610174D01*
X13110658Y-14610174D02*
X13129706Y-14600650D01*
X13129706Y-14600650D02*
X13158277Y-14600650D01*
X13158277Y-14600650D02*
X13177325Y-14610174D01*
X13253515Y-14810174D02*
X13263039Y-14800650D01*
X13263039Y-14800650D02*
X13282087Y-14772079D01*
X13282087Y-14772079D02*
X13291611Y-14753031D01*
X13291611Y-14753031D02*
X13301134Y-14724460D01*
X13301134Y-14724460D02*
X13310658Y-14676841D01*
X13310658Y-14676841D02*
X13310658Y-14638746D01*
X13310658Y-14638746D02*
X13301134Y-14591127D01*
X13301134Y-14591127D02*
X13291611Y-14562555D01*
X13291611Y-14562555D02*
X13282087Y-14543508D01*
X13282087Y-14543508D02*
X13263039Y-14514936D01*
X13263039Y-14514936D02*
X13253515Y-14505412D01*
D12*
X8097500Y-14906500D02*
G75*
G02*
X8027500Y-14906500I-35000J0D01*
G01*
X8027500Y-14906500D02*
G75*
G02*
X8097500Y-14906500I35000J0D01*
G01*
D11*
X8396372Y-14797984D02*
X8415420Y-14797984D01*
X8415420Y-14797984D02*
X8434467Y-14807508D01*
X8434467Y-14807508D02*
X8443991Y-14817031D01*
X8443991Y-14817031D02*
X8453515Y-14836079D01*
X8453515Y-14836079D02*
X8463039Y-14874174D01*
X8463039Y-14874174D02*
X8463039Y-14921793D01*
X8463039Y-14921793D02*
X8453515Y-14959888D01*
X8453515Y-14959888D02*
X8443991Y-14978936D01*
X8443991Y-14978936D02*
X8434467Y-14988460D01*
X8434467Y-14988460D02*
X8415420Y-14997984D01*
X8415420Y-14997984D02*
X8396372Y-14997984D01*
X8396372Y-14997984D02*
X8377324Y-14988460D01*
X8377324Y-14988460D02*
X8367801Y-14978936D01*
X8367801Y-14978936D02*
X8358277Y-14959888D01*
X8358277Y-14959888D02*
X8348753Y-14921793D01*
X8348753Y-14921793D02*
X8348753Y-14874174D01*
X8348753Y-14874174D02*
X8358277Y-14836079D01*
X8358277Y-14836079D02*
X8367801Y-14817031D01*
X8367801Y-14817031D02*
X8377324Y-14807508D01*
X8377324Y-14807508D02*
X8396372Y-14797984D01*
X8548753Y-14978936D02*
X8558277Y-14988460D01*
X8558277Y-14988460D02*
X8548753Y-14997984D01*
X8548753Y-14997984D02*
X8539229Y-14988460D01*
X8539229Y-14988460D02*
X8548753Y-14978936D01*
X8548753Y-14978936D02*
X8548753Y-14997984D01*
X8624944Y-14797984D02*
X8758277Y-14797984D01*
X8758277Y-14797984D02*
X8672563Y-14997984D01*
X8872563Y-14797984D02*
X8891610Y-14797984D01*
X8891610Y-14797984D02*
X8910658Y-14807508D01*
X8910658Y-14807508D02*
X8920182Y-14817031D01*
X8920182Y-14817031D02*
X8929705Y-14836079D01*
X8929705Y-14836079D02*
X8939229Y-14874174D01*
X8939229Y-14874174D02*
X8939229Y-14921793D01*
X8939229Y-14921793D02*
X8929705Y-14959888D01*
X8929705Y-14959888D02*
X8920182Y-14978936D01*
X8920182Y-14978936D02*
X8910658Y-14988460D01*
X8910658Y-14988460D02*
X8891610Y-14997984D01*
X8891610Y-14997984D02*
X8872563Y-14997984D01*
X8872563Y-14997984D02*
X8853515Y-14988460D01*
X8853515Y-14988460D02*
X8843991Y-14978936D01*
X8843991Y-14978936D02*
X8834467Y-14959888D01*
X8834467Y-14959888D02*
X8824944Y-14921793D01*
X8824944Y-14921793D02*
X8824944Y-14874174D01*
X8824944Y-14874174D02*
X8834467Y-14836079D01*
X8834467Y-14836079D02*
X8843991Y-14817031D01*
X8843991Y-14817031D02*
X8853515Y-14807508D01*
X8853515Y-14807508D02*
X8872563Y-14797984D01*
X9063039Y-14797984D02*
X9082086Y-14797984D01*
X9082086Y-14797984D02*
X9101134Y-14807508D01*
X9101134Y-14807508D02*
X9110658Y-14817031D01*
X9110658Y-14817031D02*
X9120182Y-14836079D01*
X9120182Y-14836079D02*
X9129705Y-14874174D01*
X9129705Y-14874174D02*
X9129705Y-14921793D01*
X9129705Y-14921793D02*
X9120182Y-14959888D01*
X9120182Y-14959888D02*
X9110658Y-14978936D01*
X9110658Y-14978936D02*
X9101134Y-14988460D01*
X9101134Y-14988460D02*
X9082086Y-14997984D01*
X9082086Y-14997984D02*
X9063039Y-14997984D01*
X9063039Y-14997984D02*
X9043991Y-14988460D01*
X9043991Y-14988460D02*
X9034467Y-14978936D01*
X9034467Y-14978936D02*
X9024944Y-14959888D01*
X9024944Y-14959888D02*
X9015420Y-14921793D01*
X9015420Y-14921793D02*
X9015420Y-14874174D01*
X9015420Y-14874174D02*
X9024944Y-14836079D01*
X9024944Y-14836079D02*
X9034467Y-14817031D01*
X9034467Y-14817031D02*
X9043991Y-14807508D01*
X9043991Y-14807508D02*
X9063039Y-14797984D01*
X9215420Y-14997984D02*
X9215420Y-14864650D01*
X9215420Y-14883698D02*
X9224944Y-14874174D01*
X9224944Y-14874174D02*
X9243991Y-14864650D01*
X9243991Y-14864650D02*
X9272563Y-14864650D01*
X9272563Y-14864650D02*
X9291610Y-14874174D01*
X9291610Y-14874174D02*
X9301134Y-14893222D01*
X9301134Y-14893222D02*
X9301134Y-14997984D01*
X9301134Y-14893222D02*
X9310658Y-14874174D01*
X9310658Y-14874174D02*
X9329705Y-14864650D01*
X9329705Y-14864650D02*
X9358277Y-14864650D01*
X9358277Y-14864650D02*
X9377325Y-14874174D01*
X9377325Y-14874174D02*
X9386848Y-14893222D01*
X9386848Y-14893222D02*
X9386848Y-14997984D01*
X9482086Y-14997984D02*
X9482086Y-14864650D01*
X9482086Y-14883698D02*
X9491610Y-14874174D01*
X9491610Y-14874174D02*
X9510658Y-14864650D01*
X9510658Y-14864650D02*
X9539229Y-14864650D01*
X9539229Y-14864650D02*
X9558277Y-14874174D01*
X9558277Y-14874174D02*
X9567801Y-14893222D01*
X9567801Y-14893222D02*
X9567801Y-14997984D01*
X9567801Y-14893222D02*
X9577325Y-14874174D01*
X9577325Y-14874174D02*
X9596372Y-14864650D01*
X9596372Y-14864650D02*
X9624944Y-14864650D01*
X9624944Y-14864650D02*
X9643991Y-14874174D01*
X9643991Y-14874174D02*
X9653515Y-14893222D01*
X9653515Y-14893222D02*
X9653515Y-14997984D01*
X10043991Y-14788460D02*
X9872563Y-15045603D01*
X10301134Y-14797984D02*
X10320182Y-14797984D01*
X10320182Y-14797984D02*
X10339229Y-14807508D01*
X10339229Y-14807508D02*
X10348753Y-14817031D01*
X10348753Y-14817031D02*
X10358277Y-14836079D01*
X10358277Y-14836079D02*
X10367801Y-14874174D01*
X10367801Y-14874174D02*
X10367801Y-14921793D01*
X10367801Y-14921793D02*
X10358277Y-14959888D01*
X10358277Y-14959888D02*
X10348753Y-14978936D01*
X10348753Y-14978936D02*
X10339229Y-14988460D01*
X10339229Y-14988460D02*
X10320182Y-14997984D01*
X10320182Y-14997984D02*
X10301134Y-14997984D01*
X10301134Y-14997984D02*
X10282087Y-14988460D01*
X10282087Y-14988460D02*
X10272563Y-14978936D01*
X10272563Y-14978936D02*
X10263039Y-14959888D01*
X10263039Y-14959888D02*
X10253515Y-14921793D01*
X10253515Y-14921793D02*
X10253515Y-14874174D01*
X10253515Y-14874174D02*
X10263039Y-14836079D01*
X10263039Y-14836079D02*
X10272563Y-14817031D01*
X10272563Y-14817031D02*
X10282087Y-14807508D01*
X10282087Y-14807508D02*
X10301134Y-14797984D01*
X10453515Y-14978936D02*
X10463039Y-14988460D01*
X10463039Y-14988460D02*
X10453515Y-14997984D01*
X10453515Y-14997984D02*
X10443991Y-14988460D01*
X10443991Y-14988460D02*
X10453515Y-14978936D01*
X10453515Y-14978936D02*
X10453515Y-14997984D01*
X10586848Y-14797984D02*
X10605896Y-14797984D01*
X10605896Y-14797984D02*
X10624944Y-14807508D01*
X10624944Y-14807508D02*
X10634468Y-14817031D01*
X10634468Y-14817031D02*
X10643991Y-14836079D01*
X10643991Y-14836079D02*
X10653515Y-14874174D01*
X10653515Y-14874174D02*
X10653515Y-14921793D01*
X10653515Y-14921793D02*
X10643991Y-14959888D01*
X10643991Y-14959888D02*
X10634468Y-14978936D01*
X10634468Y-14978936D02*
X10624944Y-14988460D01*
X10624944Y-14988460D02*
X10605896Y-14997984D01*
X10605896Y-14997984D02*
X10586848Y-14997984D01*
X10586848Y-14997984D02*
X10567801Y-14988460D01*
X10567801Y-14988460D02*
X10558277Y-14978936D01*
X10558277Y-14978936D02*
X10548753Y-14959888D01*
X10548753Y-14959888D02*
X10539229Y-14921793D01*
X10539229Y-14921793D02*
X10539229Y-14874174D01*
X10539229Y-14874174D02*
X10548753Y-14836079D01*
X10548753Y-14836079D02*
X10558277Y-14817031D01*
X10558277Y-14817031D02*
X10567801Y-14807508D01*
X10567801Y-14807508D02*
X10586848Y-14797984D01*
X10729706Y-14817031D02*
X10739229Y-14807508D01*
X10739229Y-14807508D02*
X10758277Y-14797984D01*
X10758277Y-14797984D02*
X10805896Y-14797984D01*
X10805896Y-14797984D02*
X10824944Y-14807508D01*
X10824944Y-14807508D02*
X10834468Y-14817031D01*
X10834468Y-14817031D02*
X10843991Y-14836079D01*
X10843991Y-14836079D02*
X10843991Y-14855127D01*
X10843991Y-14855127D02*
X10834468Y-14883698D01*
X10834468Y-14883698D02*
X10720182Y-14997984D01*
X10720182Y-14997984D02*
X10843991Y-14997984D01*
X10910658Y-14797984D02*
X11043991Y-14797984D01*
X11043991Y-14797984D02*
X10958277Y-14997984D01*
X11205896Y-14797984D02*
X11167801Y-14797984D01*
X11167801Y-14797984D02*
X11148753Y-14807508D01*
X11148753Y-14807508D02*
X11139229Y-14817031D01*
X11139229Y-14817031D02*
X11120182Y-14845603D01*
X11120182Y-14845603D02*
X11110658Y-14883698D01*
X11110658Y-14883698D02*
X11110658Y-14959888D01*
X11110658Y-14959888D02*
X11120182Y-14978936D01*
X11120182Y-14978936D02*
X11129706Y-14988460D01*
X11129706Y-14988460D02*
X11148753Y-14997984D01*
X11148753Y-14997984D02*
X11186848Y-14997984D01*
X11186848Y-14997984D02*
X11205896Y-14988460D01*
X11205896Y-14988460D02*
X11215420Y-14978936D01*
X11215420Y-14978936D02*
X11224944Y-14959888D01*
X11224944Y-14959888D02*
X11224944Y-14912269D01*
X11224944Y-14912269D02*
X11215420Y-14893222D01*
X11215420Y-14893222D02*
X11205896Y-14883698D01*
X11205896Y-14883698D02*
X11186848Y-14874174D01*
X11186848Y-14874174D02*
X11148753Y-14874174D01*
X11148753Y-14874174D02*
X11129706Y-14883698D01*
X11129706Y-14883698D02*
X11120182Y-14893222D01*
X11120182Y-14893222D02*
X11110658Y-14912269D01*
X11301134Y-14797984D02*
X11301134Y-14836079D01*
X11377325Y-14797984D02*
X11377325Y-14836079D01*
X11672563Y-15074174D02*
X11663039Y-15064650D01*
X11663039Y-15064650D02*
X11643991Y-15036079D01*
X11643991Y-15036079D02*
X11634468Y-15017031D01*
X11634468Y-15017031D02*
X11624944Y-14988460D01*
X11624944Y-14988460D02*
X11615420Y-14940841D01*
X11615420Y-14940841D02*
X11615420Y-14902746D01*
X11615420Y-14902746D02*
X11624944Y-14855127D01*
X11624944Y-14855127D02*
X11634468Y-14826555D01*
X11634468Y-14826555D02*
X11643991Y-14807508D01*
X11643991Y-14807508D02*
X11663039Y-14778936D01*
X11663039Y-14778936D02*
X11672563Y-14769412D01*
X11739229Y-14817031D02*
X11748753Y-14807508D01*
X11748753Y-14807508D02*
X11767801Y-14797984D01*
X11767801Y-14797984D02*
X11815420Y-14797984D01*
X11815420Y-14797984D02*
X11834468Y-14807508D01*
X11834468Y-14807508D02*
X11843991Y-14817031D01*
X11843991Y-14817031D02*
X11853515Y-14836079D01*
X11853515Y-14836079D02*
X11853515Y-14855127D01*
X11853515Y-14855127D02*
X11843991Y-14883698D01*
X11843991Y-14883698D02*
X11729706Y-14997984D01*
X11729706Y-14997984D02*
X11853515Y-14997984D01*
X12091610Y-14997984D02*
X12091610Y-14797984D01*
X12177325Y-14997984D02*
X12177325Y-14893222D01*
X12177325Y-14893222D02*
X12167801Y-14874174D01*
X12167801Y-14874174D02*
X12148753Y-14864650D01*
X12148753Y-14864650D02*
X12120182Y-14864650D01*
X12120182Y-14864650D02*
X12101134Y-14874174D01*
X12101134Y-14874174D02*
X12091610Y-14883698D01*
X12301134Y-14997984D02*
X12282087Y-14988460D01*
X12282087Y-14988460D02*
X12272563Y-14978936D01*
X12272563Y-14978936D02*
X12263039Y-14959888D01*
X12263039Y-14959888D02*
X12263039Y-14902746D01*
X12263039Y-14902746D02*
X12272563Y-14883698D01*
X12272563Y-14883698D02*
X12282087Y-14874174D01*
X12282087Y-14874174D02*
X12301134Y-14864650D01*
X12301134Y-14864650D02*
X12329706Y-14864650D01*
X12329706Y-14864650D02*
X12348753Y-14874174D01*
X12348753Y-14874174D02*
X12358277Y-14883698D01*
X12358277Y-14883698D02*
X12367801Y-14902746D01*
X12367801Y-14902746D02*
X12367801Y-14959888D01*
X12367801Y-14959888D02*
X12358277Y-14978936D01*
X12358277Y-14978936D02*
X12348753Y-14988460D01*
X12348753Y-14988460D02*
X12329706Y-14997984D01*
X12329706Y-14997984D02*
X12301134Y-14997984D01*
X12482087Y-14997984D02*
X12463039Y-14988460D01*
X12463039Y-14988460D02*
X12453515Y-14969412D01*
X12453515Y-14969412D02*
X12453515Y-14797984D01*
X12634468Y-14988460D02*
X12615420Y-14997984D01*
X12615420Y-14997984D02*
X12577325Y-14997984D01*
X12577325Y-14997984D02*
X12558277Y-14988460D01*
X12558277Y-14988460D02*
X12548753Y-14969412D01*
X12548753Y-14969412D02*
X12548753Y-14893222D01*
X12548753Y-14893222D02*
X12558277Y-14874174D01*
X12558277Y-14874174D02*
X12577325Y-14864650D01*
X12577325Y-14864650D02*
X12615420Y-14864650D01*
X12615420Y-14864650D02*
X12634468Y-14874174D01*
X12634468Y-14874174D02*
X12643991Y-14893222D01*
X12643991Y-14893222D02*
X12643991Y-14912269D01*
X12643991Y-14912269D02*
X12548753Y-14931317D01*
X12720182Y-14988460D02*
X12739230Y-14997984D01*
X12739230Y-14997984D02*
X12777325Y-14997984D01*
X12777325Y-14997984D02*
X12796372Y-14988460D01*
X12796372Y-14988460D02*
X12805896Y-14969412D01*
X12805896Y-14969412D02*
X12805896Y-14959888D01*
X12805896Y-14959888D02*
X12796372Y-14940841D01*
X12796372Y-14940841D02*
X12777325Y-14931317D01*
X12777325Y-14931317D02*
X12748753Y-14931317D01*
X12748753Y-14931317D02*
X12729706Y-14921793D01*
X12729706Y-14921793D02*
X12720182Y-14902746D01*
X12720182Y-14902746D02*
X12720182Y-14893222D01*
X12720182Y-14893222D02*
X12729706Y-14874174D01*
X12729706Y-14874174D02*
X12748753Y-14864650D01*
X12748753Y-14864650D02*
X12777325Y-14864650D01*
X12777325Y-14864650D02*
X12796372Y-14874174D01*
X12872563Y-15074174D02*
X12882087Y-15064650D01*
X12882087Y-15064650D02*
X12901134Y-15036079D01*
X12901134Y-15036079D02*
X12910658Y-15017031D01*
X12910658Y-15017031D02*
X12920182Y-14988460D01*
X12920182Y-14988460D02*
X12929706Y-14940841D01*
X12929706Y-14940841D02*
X12929706Y-14902746D01*
X12929706Y-14902746D02*
X12920182Y-14855127D01*
X12920182Y-14855127D02*
X12910658Y-14826555D01*
X12910658Y-14826555D02*
X12901134Y-14807508D01*
X12901134Y-14807508D02*
X12882087Y-14778936D01*
X12882087Y-14778936D02*
X12872563Y-14769412D01*
D12*
X8057500Y-15130500D02*
X8057500Y-15210500D01*
X8017500Y-15170500D02*
X8097500Y-15170500D01*
D11*
X8396372Y-15061984D02*
X8415420Y-15061984D01*
X8415420Y-15061984D02*
X8434467Y-15071508D01*
X8434467Y-15071508D02*
X8443991Y-15081031D01*
X8443991Y-15081031D02*
X8453515Y-15100079D01*
X8453515Y-15100079D02*
X8463039Y-15138174D01*
X8463039Y-15138174D02*
X8463039Y-15185793D01*
X8463039Y-15185793D02*
X8453515Y-15223888D01*
X8453515Y-15223888D02*
X8443991Y-15242936D01*
X8443991Y-15242936D02*
X8434467Y-15252460D01*
X8434467Y-15252460D02*
X8415420Y-15261984D01*
X8415420Y-15261984D02*
X8396372Y-15261984D01*
X8396372Y-15261984D02*
X8377324Y-15252460D01*
X8377324Y-15252460D02*
X8367801Y-15242936D01*
X8367801Y-15242936D02*
X8358277Y-15223888D01*
X8358277Y-15223888D02*
X8348753Y-15185793D01*
X8348753Y-15185793D02*
X8348753Y-15138174D01*
X8348753Y-15138174D02*
X8358277Y-15100079D01*
X8358277Y-15100079D02*
X8367801Y-15081031D01*
X8367801Y-15081031D02*
X8377324Y-15071508D01*
X8377324Y-15071508D02*
X8396372Y-15061984D01*
X8548753Y-15242936D02*
X8558277Y-15252460D01*
X8558277Y-15252460D02*
X8548753Y-15261984D01*
X8548753Y-15261984D02*
X8539229Y-15252460D01*
X8539229Y-15252460D02*
X8548753Y-15242936D01*
X8548753Y-15242936D02*
X8548753Y-15261984D01*
X8672563Y-15147698D02*
X8653515Y-15138174D01*
X8653515Y-15138174D02*
X8643991Y-15128650D01*
X8643991Y-15128650D02*
X8634467Y-15109603D01*
X8634467Y-15109603D02*
X8634467Y-15100079D01*
X8634467Y-15100079D02*
X8643991Y-15081031D01*
X8643991Y-15081031D02*
X8653515Y-15071508D01*
X8653515Y-15071508D02*
X8672563Y-15061984D01*
X8672563Y-15061984D02*
X8710658Y-15061984D01*
X8710658Y-15061984D02*
X8729705Y-15071508D01*
X8729705Y-15071508D02*
X8739229Y-15081031D01*
X8739229Y-15081031D02*
X8748753Y-15100079D01*
X8748753Y-15100079D02*
X8748753Y-15109603D01*
X8748753Y-15109603D02*
X8739229Y-15128650D01*
X8739229Y-15128650D02*
X8729705Y-15138174D01*
X8729705Y-15138174D02*
X8710658Y-15147698D01*
X8710658Y-15147698D02*
X8672563Y-15147698D01*
X8672563Y-15147698D02*
X8653515Y-15157222D01*
X8653515Y-15157222D02*
X8643991Y-15166746D01*
X8643991Y-15166746D02*
X8634467Y-15185793D01*
X8634467Y-15185793D02*
X8634467Y-15223888D01*
X8634467Y-15223888D02*
X8643991Y-15242936D01*
X8643991Y-15242936D02*
X8653515Y-15252460D01*
X8653515Y-15252460D02*
X8672563Y-15261984D01*
X8672563Y-15261984D02*
X8710658Y-15261984D01*
X8710658Y-15261984D02*
X8729705Y-15252460D01*
X8729705Y-15252460D02*
X8739229Y-15242936D01*
X8739229Y-15242936D02*
X8748753Y-15223888D01*
X8748753Y-15223888D02*
X8748753Y-15185793D01*
X8748753Y-15185793D02*
X8739229Y-15166746D01*
X8739229Y-15166746D02*
X8729705Y-15157222D01*
X8729705Y-15157222D02*
X8710658Y-15147698D01*
X8872563Y-15061984D02*
X8891610Y-15061984D01*
X8891610Y-15061984D02*
X8910658Y-15071508D01*
X8910658Y-15071508D02*
X8920182Y-15081031D01*
X8920182Y-15081031D02*
X8929705Y-15100079D01*
X8929705Y-15100079D02*
X8939229Y-15138174D01*
X8939229Y-15138174D02*
X8939229Y-15185793D01*
X8939229Y-15185793D02*
X8929705Y-15223888D01*
X8929705Y-15223888D02*
X8920182Y-15242936D01*
X8920182Y-15242936D02*
X8910658Y-15252460D01*
X8910658Y-15252460D02*
X8891610Y-15261984D01*
X8891610Y-15261984D02*
X8872563Y-15261984D01*
X8872563Y-15261984D02*
X8853515Y-15252460D01*
X8853515Y-15252460D02*
X8843991Y-15242936D01*
X8843991Y-15242936D02*
X8834467Y-15223888D01*
X8834467Y-15223888D02*
X8824944Y-15185793D01*
X8824944Y-15185793D02*
X8824944Y-15138174D01*
X8824944Y-15138174D02*
X8834467Y-15100079D01*
X8834467Y-15100079D02*
X8843991Y-15081031D01*
X8843991Y-15081031D02*
X8853515Y-15071508D01*
X8853515Y-15071508D02*
X8872563Y-15061984D01*
X9063039Y-15061984D02*
X9082086Y-15061984D01*
X9082086Y-15061984D02*
X9101134Y-15071508D01*
X9101134Y-15071508D02*
X9110658Y-15081031D01*
X9110658Y-15081031D02*
X9120182Y-15100079D01*
X9120182Y-15100079D02*
X9129705Y-15138174D01*
X9129705Y-15138174D02*
X9129705Y-15185793D01*
X9129705Y-15185793D02*
X9120182Y-15223888D01*
X9120182Y-15223888D02*
X9110658Y-15242936D01*
X9110658Y-15242936D02*
X9101134Y-15252460D01*
X9101134Y-15252460D02*
X9082086Y-15261984D01*
X9082086Y-15261984D02*
X9063039Y-15261984D01*
X9063039Y-15261984D02*
X9043991Y-15252460D01*
X9043991Y-15252460D02*
X9034467Y-15242936D01*
X9034467Y-15242936D02*
X9024944Y-15223888D01*
X9024944Y-15223888D02*
X9015420Y-15185793D01*
X9015420Y-15185793D02*
X9015420Y-15138174D01*
X9015420Y-15138174D02*
X9024944Y-15100079D01*
X9024944Y-15100079D02*
X9034467Y-15081031D01*
X9034467Y-15081031D02*
X9043991Y-15071508D01*
X9043991Y-15071508D02*
X9063039Y-15061984D01*
X9215420Y-15261984D02*
X9215420Y-15128650D01*
X9215420Y-15147698D02*
X9224944Y-15138174D01*
X9224944Y-15138174D02*
X9243991Y-15128650D01*
X9243991Y-15128650D02*
X9272563Y-15128650D01*
X9272563Y-15128650D02*
X9291610Y-15138174D01*
X9291610Y-15138174D02*
X9301134Y-15157222D01*
X9301134Y-15157222D02*
X9301134Y-15261984D01*
X9301134Y-15157222D02*
X9310658Y-15138174D01*
X9310658Y-15138174D02*
X9329705Y-15128650D01*
X9329705Y-15128650D02*
X9358277Y-15128650D01*
X9358277Y-15128650D02*
X9377325Y-15138174D01*
X9377325Y-15138174D02*
X9386848Y-15157222D01*
X9386848Y-15157222D02*
X9386848Y-15261984D01*
X9482086Y-15261984D02*
X9482086Y-15128650D01*
X9482086Y-15147698D02*
X9491610Y-15138174D01*
X9491610Y-15138174D02*
X9510658Y-15128650D01*
X9510658Y-15128650D02*
X9539229Y-15128650D01*
X9539229Y-15128650D02*
X9558277Y-15138174D01*
X9558277Y-15138174D02*
X9567801Y-15157222D01*
X9567801Y-15157222D02*
X9567801Y-15261984D01*
X9567801Y-15157222D02*
X9577325Y-15138174D01*
X9577325Y-15138174D02*
X9596372Y-15128650D01*
X9596372Y-15128650D02*
X9624944Y-15128650D01*
X9624944Y-15128650D02*
X9643991Y-15138174D01*
X9643991Y-15138174D02*
X9653515Y-15157222D01*
X9653515Y-15157222D02*
X9653515Y-15261984D01*
X10043991Y-15052460D02*
X9872563Y-15309603D01*
X10301134Y-15061984D02*
X10320182Y-15061984D01*
X10320182Y-15061984D02*
X10339229Y-15071508D01*
X10339229Y-15071508D02*
X10348753Y-15081031D01*
X10348753Y-15081031D02*
X10358277Y-15100079D01*
X10358277Y-15100079D02*
X10367801Y-15138174D01*
X10367801Y-15138174D02*
X10367801Y-15185793D01*
X10367801Y-15185793D02*
X10358277Y-15223888D01*
X10358277Y-15223888D02*
X10348753Y-15242936D01*
X10348753Y-15242936D02*
X10339229Y-15252460D01*
X10339229Y-15252460D02*
X10320182Y-15261984D01*
X10320182Y-15261984D02*
X10301134Y-15261984D01*
X10301134Y-15261984D02*
X10282087Y-15252460D01*
X10282087Y-15252460D02*
X10272563Y-15242936D01*
X10272563Y-15242936D02*
X10263039Y-15223888D01*
X10263039Y-15223888D02*
X10253515Y-15185793D01*
X10253515Y-15185793D02*
X10253515Y-15138174D01*
X10253515Y-15138174D02*
X10263039Y-15100079D01*
X10263039Y-15100079D02*
X10272563Y-15081031D01*
X10272563Y-15081031D02*
X10282087Y-15071508D01*
X10282087Y-15071508D02*
X10301134Y-15061984D01*
X10453515Y-15242936D02*
X10463039Y-15252460D01*
X10463039Y-15252460D02*
X10453515Y-15261984D01*
X10453515Y-15261984D02*
X10443991Y-15252460D01*
X10443991Y-15252460D02*
X10453515Y-15242936D01*
X10453515Y-15242936D02*
X10453515Y-15261984D01*
X10586848Y-15061984D02*
X10605896Y-15061984D01*
X10605896Y-15061984D02*
X10624944Y-15071508D01*
X10624944Y-15071508D02*
X10634468Y-15081031D01*
X10634468Y-15081031D02*
X10643991Y-15100079D01*
X10643991Y-15100079D02*
X10653515Y-15138174D01*
X10653515Y-15138174D02*
X10653515Y-15185793D01*
X10653515Y-15185793D02*
X10643991Y-15223888D01*
X10643991Y-15223888D02*
X10634468Y-15242936D01*
X10634468Y-15242936D02*
X10624944Y-15252460D01*
X10624944Y-15252460D02*
X10605896Y-15261984D01*
X10605896Y-15261984D02*
X10586848Y-15261984D01*
X10586848Y-15261984D02*
X10567801Y-15252460D01*
X10567801Y-15252460D02*
X10558277Y-15242936D01*
X10558277Y-15242936D02*
X10548753Y-15223888D01*
X10548753Y-15223888D02*
X10539229Y-15185793D01*
X10539229Y-15185793D02*
X10539229Y-15138174D01*
X10539229Y-15138174D02*
X10548753Y-15100079D01*
X10548753Y-15100079D02*
X10558277Y-15081031D01*
X10558277Y-15081031D02*
X10567801Y-15071508D01*
X10567801Y-15071508D02*
X10586848Y-15061984D01*
X10720182Y-15061984D02*
X10843991Y-15061984D01*
X10843991Y-15061984D02*
X10777325Y-15138174D01*
X10777325Y-15138174D02*
X10805896Y-15138174D01*
X10805896Y-15138174D02*
X10824944Y-15147698D01*
X10824944Y-15147698D02*
X10834468Y-15157222D01*
X10834468Y-15157222D02*
X10843991Y-15176269D01*
X10843991Y-15176269D02*
X10843991Y-15223888D01*
X10843991Y-15223888D02*
X10834468Y-15242936D01*
X10834468Y-15242936D02*
X10824944Y-15252460D01*
X10824944Y-15252460D02*
X10805896Y-15261984D01*
X10805896Y-15261984D02*
X10748753Y-15261984D01*
X10748753Y-15261984D02*
X10729706Y-15252460D01*
X10729706Y-15252460D02*
X10720182Y-15242936D01*
X11034468Y-15261984D02*
X10920182Y-15261984D01*
X10977325Y-15261984D02*
X10977325Y-15061984D01*
X10977325Y-15061984D02*
X10958277Y-15090555D01*
X10958277Y-15090555D02*
X10939229Y-15109603D01*
X10939229Y-15109603D02*
X10920182Y-15119127D01*
X11215420Y-15061984D02*
X11120182Y-15061984D01*
X11120182Y-15061984D02*
X11110658Y-15157222D01*
X11110658Y-15157222D02*
X11120182Y-15147698D01*
X11120182Y-15147698D02*
X11139229Y-15138174D01*
X11139229Y-15138174D02*
X11186848Y-15138174D01*
X11186848Y-15138174D02*
X11205896Y-15147698D01*
X11205896Y-15147698D02*
X11215420Y-15157222D01*
X11215420Y-15157222D02*
X11224944Y-15176269D01*
X11224944Y-15176269D02*
X11224944Y-15223888D01*
X11224944Y-15223888D02*
X11215420Y-15242936D01*
X11215420Y-15242936D02*
X11205896Y-15252460D01*
X11205896Y-15252460D02*
X11186848Y-15261984D01*
X11186848Y-15261984D02*
X11139229Y-15261984D01*
X11139229Y-15261984D02*
X11120182Y-15252460D01*
X11120182Y-15252460D02*
X11110658Y-15242936D01*
X11301134Y-15061984D02*
X11301134Y-15100079D01*
X11377325Y-15061984D02*
X11377325Y-15100079D01*
X11672563Y-15338174D02*
X11663039Y-15328650D01*
X11663039Y-15328650D02*
X11643991Y-15300079D01*
X11643991Y-15300079D02*
X11634468Y-15281031D01*
X11634468Y-15281031D02*
X11624944Y-15252460D01*
X11624944Y-15252460D02*
X11615420Y-15204841D01*
X11615420Y-15204841D02*
X11615420Y-15166746D01*
X11615420Y-15166746D02*
X11624944Y-15119127D01*
X11624944Y-15119127D02*
X11634468Y-15090555D01*
X11634468Y-15090555D02*
X11643991Y-15071508D01*
X11643991Y-15071508D02*
X11663039Y-15042936D01*
X11663039Y-15042936D02*
X11672563Y-15033412D01*
X11834468Y-15128650D02*
X11834468Y-15261984D01*
X11786848Y-15052460D02*
X11739229Y-15195317D01*
X11739229Y-15195317D02*
X11863039Y-15195317D01*
X12091610Y-15261984D02*
X12091610Y-15061984D01*
X12177325Y-15261984D02*
X12177325Y-15157222D01*
X12177325Y-15157222D02*
X12167801Y-15138174D01*
X12167801Y-15138174D02*
X12148753Y-15128650D01*
X12148753Y-15128650D02*
X12120182Y-15128650D01*
X12120182Y-15128650D02*
X12101134Y-15138174D01*
X12101134Y-15138174D02*
X12091610Y-15147698D01*
X12301134Y-15261984D02*
X12282087Y-15252460D01*
X12282087Y-15252460D02*
X12272563Y-15242936D01*
X12272563Y-15242936D02*
X12263039Y-15223888D01*
X12263039Y-15223888D02*
X12263039Y-15166746D01*
X12263039Y-15166746D02*
X12272563Y-15147698D01*
X12272563Y-15147698D02*
X12282087Y-15138174D01*
X12282087Y-15138174D02*
X12301134Y-15128650D01*
X12301134Y-15128650D02*
X12329706Y-15128650D01*
X12329706Y-15128650D02*
X12348753Y-15138174D01*
X12348753Y-15138174D02*
X12358277Y-15147698D01*
X12358277Y-15147698D02*
X12367801Y-15166746D01*
X12367801Y-15166746D02*
X12367801Y-15223888D01*
X12367801Y-15223888D02*
X12358277Y-15242936D01*
X12358277Y-15242936D02*
X12348753Y-15252460D01*
X12348753Y-15252460D02*
X12329706Y-15261984D01*
X12329706Y-15261984D02*
X12301134Y-15261984D01*
X12482087Y-15261984D02*
X12463039Y-15252460D01*
X12463039Y-15252460D02*
X12453515Y-15233412D01*
X12453515Y-15233412D02*
X12453515Y-15061984D01*
X12634468Y-15252460D02*
X12615420Y-15261984D01*
X12615420Y-15261984D02*
X12577325Y-15261984D01*
X12577325Y-15261984D02*
X12558277Y-15252460D01*
X12558277Y-15252460D02*
X12548753Y-15233412D01*
X12548753Y-15233412D02*
X12548753Y-15157222D01*
X12548753Y-15157222D02*
X12558277Y-15138174D01*
X12558277Y-15138174D02*
X12577325Y-15128650D01*
X12577325Y-15128650D02*
X12615420Y-15128650D01*
X12615420Y-15128650D02*
X12634468Y-15138174D01*
X12634468Y-15138174D02*
X12643991Y-15157222D01*
X12643991Y-15157222D02*
X12643991Y-15176269D01*
X12643991Y-15176269D02*
X12548753Y-15195317D01*
X12720182Y-15252460D02*
X12739230Y-15261984D01*
X12739230Y-15261984D02*
X12777325Y-15261984D01*
X12777325Y-15261984D02*
X12796372Y-15252460D01*
X12796372Y-15252460D02*
X12805896Y-15233412D01*
X12805896Y-15233412D02*
X12805896Y-15223888D01*
X12805896Y-15223888D02*
X12796372Y-15204841D01*
X12796372Y-15204841D02*
X12777325Y-15195317D01*
X12777325Y-15195317D02*
X12748753Y-15195317D01*
X12748753Y-15195317D02*
X12729706Y-15185793D01*
X12729706Y-15185793D02*
X12720182Y-15166746D01*
X12720182Y-15166746D02*
X12720182Y-15157222D01*
X12720182Y-15157222D02*
X12729706Y-15138174D01*
X12729706Y-15138174D02*
X12748753Y-15128650D01*
X12748753Y-15128650D02*
X12777325Y-15128650D01*
X12777325Y-15128650D02*
X12796372Y-15138174D01*
X12872563Y-15338174D02*
X12882087Y-15328650D01*
X12882087Y-15328650D02*
X12901134Y-15300079D01*
X12901134Y-15300079D02*
X12910658Y-15281031D01*
X12910658Y-15281031D02*
X12920182Y-15252460D01*
X12920182Y-15252460D02*
X12929706Y-15204841D01*
X12929706Y-15204841D02*
X12929706Y-15166746D01*
X12929706Y-15166746D02*
X12920182Y-15119127D01*
X12920182Y-15119127D02*
X12910658Y-15090555D01*
X12910658Y-15090555D02*
X12901134Y-15071508D01*
X12901134Y-15071508D02*
X12882087Y-15042936D01*
X12882087Y-15042936D02*
X12872563Y-15033412D01*
D12*
X8082856Y-15469856D02*
X8082856Y-15399144D01*
X8012144Y-15399144D01*
X8012144Y-15469856D01*
X8082856Y-15469856D01*
D11*
X8463039Y-15525984D02*
X8348753Y-15525984D01*
X8405896Y-15525984D02*
X8405896Y-15325984D01*
X8405896Y-15325984D02*
X8386848Y-15354555D01*
X8386848Y-15354555D02*
X8367801Y-15373603D01*
X8367801Y-15373603D02*
X8348753Y-15383127D01*
X8548753Y-15506936D02*
X8558277Y-15516460D01*
X8558277Y-15516460D02*
X8548753Y-15525984D01*
X8548753Y-15525984D02*
X8539229Y-15516460D01*
X8539229Y-15516460D02*
X8548753Y-15506936D01*
X8548753Y-15506936D02*
X8548753Y-15525984D01*
X8682086Y-15325984D02*
X8701134Y-15325984D01*
X8701134Y-15325984D02*
X8720182Y-15335508D01*
X8720182Y-15335508D02*
X8729705Y-15345031D01*
X8729705Y-15345031D02*
X8739229Y-15364079D01*
X8739229Y-15364079D02*
X8748753Y-15402174D01*
X8748753Y-15402174D02*
X8748753Y-15449793D01*
X8748753Y-15449793D02*
X8739229Y-15487888D01*
X8739229Y-15487888D02*
X8729705Y-15506936D01*
X8729705Y-15506936D02*
X8720182Y-15516460D01*
X8720182Y-15516460D02*
X8701134Y-15525984D01*
X8701134Y-15525984D02*
X8682086Y-15525984D01*
X8682086Y-15525984D02*
X8663039Y-15516460D01*
X8663039Y-15516460D02*
X8653515Y-15506936D01*
X8653515Y-15506936D02*
X8643991Y-15487888D01*
X8643991Y-15487888D02*
X8634467Y-15449793D01*
X8634467Y-15449793D02*
X8634467Y-15402174D01*
X8634467Y-15402174D02*
X8643991Y-15364079D01*
X8643991Y-15364079D02*
X8653515Y-15345031D01*
X8653515Y-15345031D02*
X8663039Y-15335508D01*
X8663039Y-15335508D02*
X8682086Y-15325984D01*
X8872563Y-15325984D02*
X8891610Y-15325984D01*
X8891610Y-15325984D02*
X8910658Y-15335508D01*
X8910658Y-15335508D02*
X8920182Y-15345031D01*
X8920182Y-15345031D02*
X8929705Y-15364079D01*
X8929705Y-15364079D02*
X8939229Y-15402174D01*
X8939229Y-15402174D02*
X8939229Y-15449793D01*
X8939229Y-15449793D02*
X8929705Y-15487888D01*
X8929705Y-15487888D02*
X8920182Y-15506936D01*
X8920182Y-15506936D02*
X8910658Y-15516460D01*
X8910658Y-15516460D02*
X8891610Y-15525984D01*
X8891610Y-15525984D02*
X8872563Y-15525984D01*
X8872563Y-15525984D02*
X8853515Y-15516460D01*
X8853515Y-15516460D02*
X8843991Y-15506936D01*
X8843991Y-15506936D02*
X8834467Y-15487888D01*
X8834467Y-15487888D02*
X8824944Y-15449793D01*
X8824944Y-15449793D02*
X8824944Y-15402174D01*
X8824944Y-15402174D02*
X8834467Y-15364079D01*
X8834467Y-15364079D02*
X8843991Y-15345031D01*
X8843991Y-15345031D02*
X8853515Y-15335508D01*
X8853515Y-15335508D02*
X8872563Y-15325984D01*
X9063039Y-15325984D02*
X9082086Y-15325984D01*
X9082086Y-15325984D02*
X9101134Y-15335508D01*
X9101134Y-15335508D02*
X9110658Y-15345031D01*
X9110658Y-15345031D02*
X9120182Y-15364079D01*
X9120182Y-15364079D02*
X9129705Y-15402174D01*
X9129705Y-15402174D02*
X9129705Y-15449793D01*
X9129705Y-15449793D02*
X9120182Y-15487888D01*
X9120182Y-15487888D02*
X9110658Y-15506936D01*
X9110658Y-15506936D02*
X9101134Y-15516460D01*
X9101134Y-15516460D02*
X9082086Y-15525984D01*
X9082086Y-15525984D02*
X9063039Y-15525984D01*
X9063039Y-15525984D02*
X9043991Y-15516460D01*
X9043991Y-15516460D02*
X9034467Y-15506936D01*
X9034467Y-15506936D02*
X9024944Y-15487888D01*
X9024944Y-15487888D02*
X9015420Y-15449793D01*
X9015420Y-15449793D02*
X9015420Y-15402174D01*
X9015420Y-15402174D02*
X9024944Y-15364079D01*
X9024944Y-15364079D02*
X9034467Y-15345031D01*
X9034467Y-15345031D02*
X9043991Y-15335508D01*
X9043991Y-15335508D02*
X9063039Y-15325984D01*
X9215420Y-15525984D02*
X9215420Y-15392650D01*
X9215420Y-15411698D02*
X9224944Y-15402174D01*
X9224944Y-15402174D02*
X9243991Y-15392650D01*
X9243991Y-15392650D02*
X9272563Y-15392650D01*
X9272563Y-15392650D02*
X9291610Y-15402174D01*
X9291610Y-15402174D02*
X9301134Y-15421222D01*
X9301134Y-15421222D02*
X9301134Y-15525984D01*
X9301134Y-15421222D02*
X9310658Y-15402174D01*
X9310658Y-15402174D02*
X9329705Y-15392650D01*
X9329705Y-15392650D02*
X9358277Y-15392650D01*
X9358277Y-15392650D02*
X9377325Y-15402174D01*
X9377325Y-15402174D02*
X9386848Y-15421222D01*
X9386848Y-15421222D02*
X9386848Y-15525984D01*
X9482086Y-15525984D02*
X9482086Y-15392650D01*
X9482086Y-15411698D02*
X9491610Y-15402174D01*
X9491610Y-15402174D02*
X9510658Y-15392650D01*
X9510658Y-15392650D02*
X9539229Y-15392650D01*
X9539229Y-15392650D02*
X9558277Y-15402174D01*
X9558277Y-15402174D02*
X9567801Y-15421222D01*
X9567801Y-15421222D02*
X9567801Y-15525984D01*
X9567801Y-15421222D02*
X9577325Y-15402174D01*
X9577325Y-15402174D02*
X9596372Y-15392650D01*
X9596372Y-15392650D02*
X9624944Y-15392650D01*
X9624944Y-15392650D02*
X9643991Y-15402174D01*
X9643991Y-15402174D02*
X9653515Y-15421222D01*
X9653515Y-15421222D02*
X9653515Y-15525984D01*
X10043991Y-15316460D02*
X9872563Y-15573603D01*
X10301134Y-15325984D02*
X10320182Y-15325984D01*
X10320182Y-15325984D02*
X10339229Y-15335508D01*
X10339229Y-15335508D02*
X10348753Y-15345031D01*
X10348753Y-15345031D02*
X10358277Y-15364079D01*
X10358277Y-15364079D02*
X10367801Y-15402174D01*
X10367801Y-15402174D02*
X10367801Y-15449793D01*
X10367801Y-15449793D02*
X10358277Y-15487888D01*
X10358277Y-15487888D02*
X10348753Y-15506936D01*
X10348753Y-15506936D02*
X10339229Y-15516460D01*
X10339229Y-15516460D02*
X10320182Y-15525984D01*
X10320182Y-15525984D02*
X10301134Y-15525984D01*
X10301134Y-15525984D02*
X10282087Y-15516460D01*
X10282087Y-15516460D02*
X10272563Y-15506936D01*
X10272563Y-15506936D02*
X10263039Y-15487888D01*
X10263039Y-15487888D02*
X10253515Y-15449793D01*
X10253515Y-15449793D02*
X10253515Y-15402174D01*
X10253515Y-15402174D02*
X10263039Y-15364079D01*
X10263039Y-15364079D02*
X10272563Y-15345031D01*
X10272563Y-15345031D02*
X10282087Y-15335508D01*
X10282087Y-15335508D02*
X10301134Y-15325984D01*
X10453515Y-15506936D02*
X10463039Y-15516460D01*
X10463039Y-15516460D02*
X10453515Y-15525984D01*
X10453515Y-15525984D02*
X10443991Y-15516460D01*
X10443991Y-15516460D02*
X10453515Y-15506936D01*
X10453515Y-15506936D02*
X10453515Y-15525984D01*
X10586848Y-15325984D02*
X10605896Y-15325984D01*
X10605896Y-15325984D02*
X10624944Y-15335508D01*
X10624944Y-15335508D02*
X10634468Y-15345031D01*
X10634468Y-15345031D02*
X10643991Y-15364079D01*
X10643991Y-15364079D02*
X10653515Y-15402174D01*
X10653515Y-15402174D02*
X10653515Y-15449793D01*
X10653515Y-15449793D02*
X10643991Y-15487888D01*
X10643991Y-15487888D02*
X10634468Y-15506936D01*
X10634468Y-15506936D02*
X10624944Y-15516460D01*
X10624944Y-15516460D02*
X10605896Y-15525984D01*
X10605896Y-15525984D02*
X10586848Y-15525984D01*
X10586848Y-15525984D02*
X10567801Y-15516460D01*
X10567801Y-15516460D02*
X10558277Y-15506936D01*
X10558277Y-15506936D02*
X10548753Y-15487888D01*
X10548753Y-15487888D02*
X10539229Y-15449793D01*
X10539229Y-15449793D02*
X10539229Y-15402174D01*
X10539229Y-15402174D02*
X10548753Y-15364079D01*
X10548753Y-15364079D02*
X10558277Y-15345031D01*
X10558277Y-15345031D02*
X10567801Y-15335508D01*
X10567801Y-15335508D02*
X10586848Y-15325984D01*
X10720182Y-15325984D02*
X10843991Y-15325984D01*
X10843991Y-15325984D02*
X10777325Y-15402174D01*
X10777325Y-15402174D02*
X10805896Y-15402174D01*
X10805896Y-15402174D02*
X10824944Y-15411698D01*
X10824944Y-15411698D02*
X10834468Y-15421222D01*
X10834468Y-15421222D02*
X10843991Y-15440269D01*
X10843991Y-15440269D02*
X10843991Y-15487888D01*
X10843991Y-15487888D02*
X10834468Y-15506936D01*
X10834468Y-15506936D02*
X10824944Y-15516460D01*
X10824944Y-15516460D02*
X10805896Y-15525984D01*
X10805896Y-15525984D02*
X10748753Y-15525984D01*
X10748753Y-15525984D02*
X10729706Y-15516460D01*
X10729706Y-15516460D02*
X10720182Y-15506936D01*
X10939229Y-15525984D02*
X10977325Y-15525984D01*
X10977325Y-15525984D02*
X10996372Y-15516460D01*
X10996372Y-15516460D02*
X11005896Y-15506936D01*
X11005896Y-15506936D02*
X11024944Y-15478365D01*
X11024944Y-15478365D02*
X11034468Y-15440269D01*
X11034468Y-15440269D02*
X11034468Y-15364079D01*
X11034468Y-15364079D02*
X11024944Y-15345031D01*
X11024944Y-15345031D02*
X11015420Y-15335508D01*
X11015420Y-15335508D02*
X10996372Y-15325984D01*
X10996372Y-15325984D02*
X10958277Y-15325984D01*
X10958277Y-15325984D02*
X10939229Y-15335508D01*
X10939229Y-15335508D02*
X10929706Y-15345031D01*
X10929706Y-15345031D02*
X10920182Y-15364079D01*
X10920182Y-15364079D02*
X10920182Y-15411698D01*
X10920182Y-15411698D02*
X10929706Y-15430746D01*
X10929706Y-15430746D02*
X10939229Y-15440269D01*
X10939229Y-15440269D02*
X10958277Y-15449793D01*
X10958277Y-15449793D02*
X10996372Y-15449793D01*
X10996372Y-15449793D02*
X11015420Y-15440269D01*
X11015420Y-15440269D02*
X11024944Y-15430746D01*
X11024944Y-15430746D02*
X11034468Y-15411698D01*
X11205896Y-15392650D02*
X11205896Y-15525984D01*
X11158277Y-15316460D02*
X11110658Y-15459317D01*
X11110658Y-15459317D02*
X11234467Y-15459317D01*
X11301134Y-15325984D02*
X11301134Y-15364079D01*
X11377325Y-15325984D02*
X11377325Y-15364079D01*
X11672563Y-15602174D02*
X11663039Y-15592650D01*
X11663039Y-15592650D02*
X11643991Y-15564079D01*
X11643991Y-15564079D02*
X11634468Y-15545031D01*
X11634468Y-15545031D02*
X11624944Y-15516460D01*
X11624944Y-15516460D02*
X11615420Y-15468841D01*
X11615420Y-15468841D02*
X11615420Y-15430746D01*
X11615420Y-15430746D02*
X11624944Y-15383127D01*
X11624944Y-15383127D02*
X11634468Y-15354555D01*
X11634468Y-15354555D02*
X11643991Y-15335508D01*
X11643991Y-15335508D02*
X11663039Y-15306936D01*
X11663039Y-15306936D02*
X11672563Y-15297412D01*
X11843991Y-15325984D02*
X11748753Y-15325984D01*
X11748753Y-15325984D02*
X11739229Y-15421222D01*
X11739229Y-15421222D02*
X11748753Y-15411698D01*
X11748753Y-15411698D02*
X11767801Y-15402174D01*
X11767801Y-15402174D02*
X11815420Y-15402174D01*
X11815420Y-15402174D02*
X11834468Y-15411698D01*
X11834468Y-15411698D02*
X11843991Y-15421222D01*
X11843991Y-15421222D02*
X11853515Y-15440269D01*
X11853515Y-15440269D02*
X11853515Y-15487888D01*
X11853515Y-15487888D02*
X11843991Y-15506936D01*
X11843991Y-15506936D02*
X11834468Y-15516460D01*
X11834468Y-15516460D02*
X11815420Y-15525984D01*
X11815420Y-15525984D02*
X11767801Y-15525984D01*
X11767801Y-15525984D02*
X11748753Y-15516460D01*
X11748753Y-15516460D02*
X11739229Y-15506936D01*
X11948753Y-15525984D02*
X11986848Y-15525984D01*
X11986848Y-15525984D02*
X12005896Y-15516460D01*
X12005896Y-15516460D02*
X12015420Y-15506936D01*
X12015420Y-15506936D02*
X12034468Y-15478365D01*
X12034468Y-15478365D02*
X12043991Y-15440269D01*
X12043991Y-15440269D02*
X12043991Y-15364079D01*
X12043991Y-15364079D02*
X12034468Y-15345031D01*
X12034468Y-15345031D02*
X12024944Y-15335508D01*
X12024944Y-15335508D02*
X12005896Y-15325984D01*
X12005896Y-15325984D02*
X11967801Y-15325984D01*
X11967801Y-15325984D02*
X11948753Y-15335508D01*
X11948753Y-15335508D02*
X11939229Y-15345031D01*
X11939229Y-15345031D02*
X11929706Y-15364079D01*
X11929706Y-15364079D02*
X11929706Y-15411698D01*
X11929706Y-15411698D02*
X11939229Y-15430746D01*
X11939229Y-15430746D02*
X11948753Y-15440269D01*
X11948753Y-15440269D02*
X11967801Y-15449793D01*
X11967801Y-15449793D02*
X12005896Y-15449793D01*
X12005896Y-15449793D02*
X12024944Y-15440269D01*
X12024944Y-15440269D02*
X12034468Y-15430746D01*
X12034468Y-15430746D02*
X12043991Y-15411698D01*
X12282087Y-15525984D02*
X12282087Y-15325984D01*
X12367801Y-15525984D02*
X12367801Y-15421222D01*
X12367801Y-15421222D02*
X12358277Y-15402174D01*
X12358277Y-15402174D02*
X12339230Y-15392650D01*
X12339230Y-15392650D02*
X12310658Y-15392650D01*
X12310658Y-15392650D02*
X12291610Y-15402174D01*
X12291610Y-15402174D02*
X12282087Y-15411698D01*
X12491610Y-15525984D02*
X12472563Y-15516460D01*
X12472563Y-15516460D02*
X12463039Y-15506936D01*
X12463039Y-15506936D02*
X12453515Y-15487888D01*
X12453515Y-15487888D02*
X12453515Y-15430746D01*
X12453515Y-15430746D02*
X12463039Y-15411698D01*
X12463039Y-15411698D02*
X12472563Y-15402174D01*
X12472563Y-15402174D02*
X12491610Y-15392650D01*
X12491610Y-15392650D02*
X12520182Y-15392650D01*
X12520182Y-15392650D02*
X12539230Y-15402174D01*
X12539230Y-15402174D02*
X12548753Y-15411698D01*
X12548753Y-15411698D02*
X12558277Y-15430746D01*
X12558277Y-15430746D02*
X12558277Y-15487888D01*
X12558277Y-15487888D02*
X12548753Y-15506936D01*
X12548753Y-15506936D02*
X12539230Y-15516460D01*
X12539230Y-15516460D02*
X12520182Y-15525984D01*
X12520182Y-15525984D02*
X12491610Y-15525984D01*
X12672563Y-15525984D02*
X12653515Y-15516460D01*
X12653515Y-15516460D02*
X12643991Y-15497412D01*
X12643991Y-15497412D02*
X12643991Y-15325984D01*
X12824944Y-15516460D02*
X12805896Y-15525984D01*
X12805896Y-15525984D02*
X12767801Y-15525984D01*
X12767801Y-15525984D02*
X12748753Y-15516460D01*
X12748753Y-15516460D02*
X12739230Y-15497412D01*
X12739230Y-15497412D02*
X12739230Y-15421222D01*
X12739230Y-15421222D02*
X12748753Y-15402174D01*
X12748753Y-15402174D02*
X12767801Y-15392650D01*
X12767801Y-15392650D02*
X12805896Y-15392650D01*
X12805896Y-15392650D02*
X12824944Y-15402174D01*
X12824944Y-15402174D02*
X12834468Y-15421222D01*
X12834468Y-15421222D02*
X12834468Y-15440269D01*
X12834468Y-15440269D02*
X12739230Y-15459317D01*
X12910658Y-15516460D02*
X12929706Y-15525984D01*
X12929706Y-15525984D02*
X12967801Y-15525984D01*
X12967801Y-15525984D02*
X12986849Y-15516460D01*
X12986849Y-15516460D02*
X12996372Y-15497412D01*
X12996372Y-15497412D02*
X12996372Y-15487888D01*
X12996372Y-15487888D02*
X12986849Y-15468841D01*
X12986849Y-15468841D02*
X12967801Y-15459317D01*
X12967801Y-15459317D02*
X12939230Y-15459317D01*
X12939230Y-15459317D02*
X12920182Y-15449793D01*
X12920182Y-15449793D02*
X12910658Y-15430746D01*
X12910658Y-15430746D02*
X12910658Y-15421222D01*
X12910658Y-15421222D02*
X12920182Y-15402174D01*
X12920182Y-15402174D02*
X12939230Y-15392650D01*
X12939230Y-15392650D02*
X12967801Y-15392650D01*
X12967801Y-15392650D02*
X12986849Y-15402174D01*
X13063039Y-15602174D02*
X13072563Y-15592650D01*
X13072563Y-15592650D02*
X13091611Y-15564079D01*
X13091611Y-15564079D02*
X13101134Y-15545031D01*
X13101134Y-15545031D02*
X13110658Y-15516460D01*
X13110658Y-15516460D02*
X13120182Y-15468841D01*
X13120182Y-15468841D02*
X13120182Y-15430746D01*
X13120182Y-15430746D02*
X13110658Y-15383127D01*
X13110658Y-15383127D02*
X13101134Y-15354555D01*
X13101134Y-15354555D02*
X13091611Y-15335508D01*
X13091611Y-15335508D02*
X13072563Y-15306936D01*
X13072563Y-15306936D02*
X13063039Y-15297412D01*
D13*
X8043000Y-15753000D02*
X8097500Y-15698500D01*
X8043000Y-15644000D01*
X7988500Y-15698500D01*
X8043000Y-15753000D01*
D11*
X8463039Y-15789984D02*
X8348753Y-15789984D01*
X8405896Y-15789984D02*
X8405896Y-15589984D01*
X8405896Y-15589984D02*
X8386848Y-15618555D01*
X8386848Y-15618555D02*
X8367801Y-15637603D01*
X8367801Y-15637603D02*
X8348753Y-15647127D01*
X8548753Y-15770936D02*
X8558277Y-15780460D01*
X8558277Y-15780460D02*
X8548753Y-15789984D01*
X8548753Y-15789984D02*
X8539229Y-15780460D01*
X8539229Y-15780460D02*
X8548753Y-15770936D01*
X8548753Y-15770936D02*
X8548753Y-15789984D01*
X8682086Y-15589984D02*
X8701134Y-15589984D01*
X8701134Y-15589984D02*
X8720182Y-15599508D01*
X8720182Y-15599508D02*
X8729705Y-15609031D01*
X8729705Y-15609031D02*
X8739229Y-15628079D01*
X8739229Y-15628079D02*
X8748753Y-15666174D01*
X8748753Y-15666174D02*
X8748753Y-15713793D01*
X8748753Y-15713793D02*
X8739229Y-15751888D01*
X8739229Y-15751888D02*
X8729705Y-15770936D01*
X8729705Y-15770936D02*
X8720182Y-15780460D01*
X8720182Y-15780460D02*
X8701134Y-15789984D01*
X8701134Y-15789984D02*
X8682086Y-15789984D01*
X8682086Y-15789984D02*
X8663039Y-15780460D01*
X8663039Y-15780460D02*
X8653515Y-15770936D01*
X8653515Y-15770936D02*
X8643991Y-15751888D01*
X8643991Y-15751888D02*
X8634467Y-15713793D01*
X8634467Y-15713793D02*
X8634467Y-15666174D01*
X8634467Y-15666174D02*
X8643991Y-15628079D01*
X8643991Y-15628079D02*
X8653515Y-15609031D01*
X8653515Y-15609031D02*
X8663039Y-15599508D01*
X8663039Y-15599508D02*
X8682086Y-15589984D01*
X8843991Y-15789984D02*
X8882086Y-15789984D01*
X8882086Y-15789984D02*
X8901134Y-15780460D01*
X8901134Y-15780460D02*
X8910658Y-15770936D01*
X8910658Y-15770936D02*
X8929705Y-15742365D01*
X8929705Y-15742365D02*
X8939229Y-15704269D01*
X8939229Y-15704269D02*
X8939229Y-15628079D01*
X8939229Y-15628079D02*
X8929705Y-15609031D01*
X8929705Y-15609031D02*
X8920182Y-15599508D01*
X8920182Y-15599508D02*
X8901134Y-15589984D01*
X8901134Y-15589984D02*
X8863039Y-15589984D01*
X8863039Y-15589984D02*
X8843991Y-15599508D01*
X8843991Y-15599508D02*
X8834467Y-15609031D01*
X8834467Y-15609031D02*
X8824944Y-15628079D01*
X8824944Y-15628079D02*
X8824944Y-15675698D01*
X8824944Y-15675698D02*
X8834467Y-15694746D01*
X8834467Y-15694746D02*
X8843991Y-15704269D01*
X8843991Y-15704269D02*
X8863039Y-15713793D01*
X8863039Y-15713793D02*
X8901134Y-15713793D01*
X8901134Y-15713793D02*
X8920182Y-15704269D01*
X8920182Y-15704269D02*
X8929705Y-15694746D01*
X8929705Y-15694746D02*
X8939229Y-15675698D01*
X9063039Y-15589984D02*
X9082086Y-15589984D01*
X9082086Y-15589984D02*
X9101134Y-15599508D01*
X9101134Y-15599508D02*
X9110658Y-15609031D01*
X9110658Y-15609031D02*
X9120182Y-15628079D01*
X9120182Y-15628079D02*
X9129705Y-15666174D01*
X9129705Y-15666174D02*
X9129705Y-15713793D01*
X9129705Y-15713793D02*
X9120182Y-15751888D01*
X9120182Y-15751888D02*
X9110658Y-15770936D01*
X9110658Y-15770936D02*
X9101134Y-15780460D01*
X9101134Y-15780460D02*
X9082086Y-15789984D01*
X9082086Y-15789984D02*
X9063039Y-15789984D01*
X9063039Y-15789984D02*
X9043991Y-15780460D01*
X9043991Y-15780460D02*
X9034467Y-15770936D01*
X9034467Y-15770936D02*
X9024944Y-15751888D01*
X9024944Y-15751888D02*
X9015420Y-15713793D01*
X9015420Y-15713793D02*
X9015420Y-15666174D01*
X9015420Y-15666174D02*
X9024944Y-15628079D01*
X9024944Y-15628079D02*
X9034467Y-15609031D01*
X9034467Y-15609031D02*
X9043991Y-15599508D01*
X9043991Y-15599508D02*
X9063039Y-15589984D01*
X9215420Y-15789984D02*
X9215420Y-15656650D01*
X9215420Y-15675698D02*
X9224944Y-15666174D01*
X9224944Y-15666174D02*
X9243991Y-15656650D01*
X9243991Y-15656650D02*
X9272563Y-15656650D01*
X9272563Y-15656650D02*
X9291610Y-15666174D01*
X9291610Y-15666174D02*
X9301134Y-15685222D01*
X9301134Y-15685222D02*
X9301134Y-15789984D01*
X9301134Y-15685222D02*
X9310658Y-15666174D01*
X9310658Y-15666174D02*
X9329705Y-15656650D01*
X9329705Y-15656650D02*
X9358277Y-15656650D01*
X9358277Y-15656650D02*
X9377325Y-15666174D01*
X9377325Y-15666174D02*
X9386848Y-15685222D01*
X9386848Y-15685222D02*
X9386848Y-15789984D01*
X9482086Y-15789984D02*
X9482086Y-15656650D01*
X9482086Y-15675698D02*
X9491610Y-15666174D01*
X9491610Y-15666174D02*
X9510658Y-15656650D01*
X9510658Y-15656650D02*
X9539229Y-15656650D01*
X9539229Y-15656650D02*
X9558277Y-15666174D01*
X9558277Y-15666174D02*
X9567801Y-15685222D01*
X9567801Y-15685222D02*
X9567801Y-15789984D01*
X9567801Y-15685222D02*
X9577325Y-15666174D01*
X9577325Y-15666174D02*
X9596372Y-15656650D01*
X9596372Y-15656650D02*
X9624944Y-15656650D01*
X9624944Y-15656650D02*
X9643991Y-15666174D01*
X9643991Y-15666174D02*
X9653515Y-15685222D01*
X9653515Y-15685222D02*
X9653515Y-15789984D01*
X10043991Y-15580460D02*
X9872563Y-15837603D01*
X10301134Y-15589984D02*
X10320182Y-15589984D01*
X10320182Y-15589984D02*
X10339229Y-15599508D01*
X10339229Y-15599508D02*
X10348753Y-15609031D01*
X10348753Y-15609031D02*
X10358277Y-15628079D01*
X10358277Y-15628079D02*
X10367801Y-15666174D01*
X10367801Y-15666174D02*
X10367801Y-15713793D01*
X10367801Y-15713793D02*
X10358277Y-15751888D01*
X10358277Y-15751888D02*
X10348753Y-15770936D01*
X10348753Y-15770936D02*
X10339229Y-15780460D01*
X10339229Y-15780460D02*
X10320182Y-15789984D01*
X10320182Y-15789984D02*
X10301134Y-15789984D01*
X10301134Y-15789984D02*
X10282087Y-15780460D01*
X10282087Y-15780460D02*
X10272563Y-15770936D01*
X10272563Y-15770936D02*
X10263039Y-15751888D01*
X10263039Y-15751888D02*
X10253515Y-15713793D01*
X10253515Y-15713793D02*
X10253515Y-15666174D01*
X10253515Y-15666174D02*
X10263039Y-15628079D01*
X10263039Y-15628079D02*
X10272563Y-15609031D01*
X10272563Y-15609031D02*
X10282087Y-15599508D01*
X10282087Y-15599508D02*
X10301134Y-15589984D01*
X10453515Y-15770936D02*
X10463039Y-15780460D01*
X10463039Y-15780460D02*
X10453515Y-15789984D01*
X10453515Y-15789984D02*
X10443991Y-15780460D01*
X10443991Y-15780460D02*
X10453515Y-15770936D01*
X10453515Y-15770936D02*
X10453515Y-15789984D01*
X10586848Y-15589984D02*
X10605896Y-15589984D01*
X10605896Y-15589984D02*
X10624944Y-15599508D01*
X10624944Y-15599508D02*
X10634468Y-15609031D01*
X10634468Y-15609031D02*
X10643991Y-15628079D01*
X10643991Y-15628079D02*
X10653515Y-15666174D01*
X10653515Y-15666174D02*
X10653515Y-15713793D01*
X10653515Y-15713793D02*
X10643991Y-15751888D01*
X10643991Y-15751888D02*
X10634468Y-15770936D01*
X10634468Y-15770936D02*
X10624944Y-15780460D01*
X10624944Y-15780460D02*
X10605896Y-15789984D01*
X10605896Y-15789984D02*
X10586848Y-15789984D01*
X10586848Y-15789984D02*
X10567801Y-15780460D01*
X10567801Y-15780460D02*
X10558277Y-15770936D01*
X10558277Y-15770936D02*
X10548753Y-15751888D01*
X10548753Y-15751888D02*
X10539229Y-15713793D01*
X10539229Y-15713793D02*
X10539229Y-15666174D01*
X10539229Y-15666174D02*
X10548753Y-15628079D01*
X10548753Y-15628079D02*
X10558277Y-15609031D01*
X10558277Y-15609031D02*
X10567801Y-15599508D01*
X10567801Y-15599508D02*
X10586848Y-15589984D01*
X10824944Y-15656650D02*
X10824944Y-15789984D01*
X10777325Y-15580460D02*
X10729706Y-15723317D01*
X10729706Y-15723317D02*
X10853515Y-15723317D01*
X10920182Y-15609031D02*
X10929706Y-15599508D01*
X10929706Y-15599508D02*
X10948753Y-15589984D01*
X10948753Y-15589984D02*
X10996372Y-15589984D01*
X10996372Y-15589984D02*
X11015420Y-15599508D01*
X11015420Y-15599508D02*
X11024944Y-15609031D01*
X11024944Y-15609031D02*
X11034468Y-15628079D01*
X11034468Y-15628079D02*
X11034468Y-15647127D01*
X11034468Y-15647127D02*
X11024944Y-15675698D01*
X11024944Y-15675698D02*
X10910658Y-15789984D01*
X10910658Y-15789984D02*
X11034468Y-15789984D01*
X11129706Y-15789984D02*
X11167801Y-15789984D01*
X11167801Y-15789984D02*
X11186848Y-15780460D01*
X11186848Y-15780460D02*
X11196372Y-15770936D01*
X11196372Y-15770936D02*
X11215420Y-15742365D01*
X11215420Y-15742365D02*
X11224944Y-15704269D01*
X11224944Y-15704269D02*
X11224944Y-15628079D01*
X11224944Y-15628079D02*
X11215420Y-15609031D01*
X11215420Y-15609031D02*
X11205896Y-15599508D01*
X11205896Y-15599508D02*
X11186848Y-15589984D01*
X11186848Y-15589984D02*
X11148753Y-15589984D01*
X11148753Y-15589984D02*
X11129706Y-15599508D01*
X11129706Y-15599508D02*
X11120182Y-15609031D01*
X11120182Y-15609031D02*
X11110658Y-15628079D01*
X11110658Y-15628079D02*
X11110658Y-15675698D01*
X11110658Y-15675698D02*
X11120182Y-15694746D01*
X11120182Y-15694746D02*
X11129706Y-15704269D01*
X11129706Y-15704269D02*
X11148753Y-15713793D01*
X11148753Y-15713793D02*
X11186848Y-15713793D01*
X11186848Y-15713793D02*
X11205896Y-15704269D01*
X11205896Y-15704269D02*
X11215420Y-15694746D01*
X11215420Y-15694746D02*
X11224944Y-15675698D01*
X11301134Y-15589984D02*
X11301134Y-15628079D01*
X11377325Y-15589984D02*
X11377325Y-15628079D01*
X11672563Y-15866174D02*
X11663039Y-15856650D01*
X11663039Y-15856650D02*
X11643991Y-15828079D01*
X11643991Y-15828079D02*
X11634468Y-15809031D01*
X11634468Y-15809031D02*
X11624944Y-15780460D01*
X11624944Y-15780460D02*
X11615420Y-15732841D01*
X11615420Y-15732841D02*
X11615420Y-15694746D01*
X11615420Y-15694746D02*
X11624944Y-15647127D01*
X11624944Y-15647127D02*
X11634468Y-15618555D01*
X11634468Y-15618555D02*
X11643991Y-15599508D01*
X11643991Y-15599508D02*
X11663039Y-15570936D01*
X11663039Y-15570936D02*
X11672563Y-15561412D01*
X11739229Y-15609031D02*
X11748753Y-15599508D01*
X11748753Y-15599508D02*
X11767801Y-15589984D01*
X11767801Y-15589984D02*
X11815420Y-15589984D01*
X11815420Y-15589984D02*
X11834468Y-15599508D01*
X11834468Y-15599508D02*
X11843991Y-15609031D01*
X11843991Y-15609031D02*
X11853515Y-15628079D01*
X11853515Y-15628079D02*
X11853515Y-15647127D01*
X11853515Y-15647127D02*
X11843991Y-15675698D01*
X11843991Y-15675698D02*
X11729706Y-15789984D01*
X11729706Y-15789984D02*
X11853515Y-15789984D01*
X12091610Y-15789984D02*
X12091610Y-15589984D01*
X12177325Y-15789984D02*
X12177325Y-15685222D01*
X12177325Y-15685222D02*
X12167801Y-15666174D01*
X12167801Y-15666174D02*
X12148753Y-15656650D01*
X12148753Y-15656650D02*
X12120182Y-15656650D01*
X12120182Y-15656650D02*
X12101134Y-15666174D01*
X12101134Y-15666174D02*
X12091610Y-15675698D01*
X12301134Y-15789984D02*
X12282087Y-15780460D01*
X12282087Y-15780460D02*
X12272563Y-15770936D01*
X12272563Y-15770936D02*
X12263039Y-15751888D01*
X12263039Y-15751888D02*
X12263039Y-15694746D01*
X12263039Y-15694746D02*
X12272563Y-15675698D01*
X12272563Y-15675698D02*
X12282087Y-15666174D01*
X12282087Y-15666174D02*
X12301134Y-15656650D01*
X12301134Y-15656650D02*
X12329706Y-15656650D01*
X12329706Y-15656650D02*
X12348753Y-15666174D01*
X12348753Y-15666174D02*
X12358277Y-15675698D01*
X12358277Y-15675698D02*
X12367801Y-15694746D01*
X12367801Y-15694746D02*
X12367801Y-15751888D01*
X12367801Y-15751888D02*
X12358277Y-15770936D01*
X12358277Y-15770936D02*
X12348753Y-15780460D01*
X12348753Y-15780460D02*
X12329706Y-15789984D01*
X12329706Y-15789984D02*
X12301134Y-15789984D01*
X12482087Y-15789984D02*
X12463039Y-15780460D01*
X12463039Y-15780460D02*
X12453515Y-15761412D01*
X12453515Y-15761412D02*
X12453515Y-15589984D01*
X12634468Y-15780460D02*
X12615420Y-15789984D01*
X12615420Y-15789984D02*
X12577325Y-15789984D01*
X12577325Y-15789984D02*
X12558277Y-15780460D01*
X12558277Y-15780460D02*
X12548753Y-15761412D01*
X12548753Y-15761412D02*
X12548753Y-15685222D01*
X12548753Y-15685222D02*
X12558277Y-15666174D01*
X12558277Y-15666174D02*
X12577325Y-15656650D01*
X12577325Y-15656650D02*
X12615420Y-15656650D01*
X12615420Y-15656650D02*
X12634468Y-15666174D01*
X12634468Y-15666174D02*
X12643991Y-15685222D01*
X12643991Y-15685222D02*
X12643991Y-15704269D01*
X12643991Y-15704269D02*
X12548753Y-15723317D01*
X12720182Y-15780460D02*
X12739230Y-15789984D01*
X12739230Y-15789984D02*
X12777325Y-15789984D01*
X12777325Y-15789984D02*
X12796372Y-15780460D01*
X12796372Y-15780460D02*
X12805896Y-15761412D01*
X12805896Y-15761412D02*
X12805896Y-15751888D01*
X12805896Y-15751888D02*
X12796372Y-15732841D01*
X12796372Y-15732841D02*
X12777325Y-15723317D01*
X12777325Y-15723317D02*
X12748753Y-15723317D01*
X12748753Y-15723317D02*
X12729706Y-15713793D01*
X12729706Y-15713793D02*
X12720182Y-15694746D01*
X12720182Y-15694746D02*
X12720182Y-15685222D01*
X12720182Y-15685222D02*
X12729706Y-15666174D01*
X12729706Y-15666174D02*
X12748753Y-15656650D01*
X12748753Y-15656650D02*
X12777325Y-15656650D01*
X12777325Y-15656650D02*
X12796372Y-15666174D01*
X12872563Y-15866174D02*
X12882087Y-15856650D01*
X12882087Y-15856650D02*
X12901134Y-15828079D01*
X12901134Y-15828079D02*
X12910658Y-15809031D01*
X12910658Y-15809031D02*
X12920182Y-15780460D01*
X12920182Y-15780460D02*
X12929706Y-15732841D01*
X12929706Y-15732841D02*
X12929706Y-15694746D01*
X12929706Y-15694746D02*
X12920182Y-15647127D01*
X12920182Y-15647127D02*
X12910658Y-15618555D01*
X12910658Y-15618555D02*
X12901134Y-15599508D01*
X12901134Y-15599508D02*
X12882087Y-15570936D01*
X12882087Y-15570936D02*
X12872563Y-15561412D01*
D14*
X7967500Y-15897500D02*
X8097500Y-16027500D01*
X8097500Y-15897500D02*
X7967500Y-16027500D01*
X8097500Y-15962500D02*
G75*
G02*
X7967500Y-15962500I-65000J0D01*
G01*
X7967500Y-15962500D02*
G75*
G02*
X8097500Y-15962500I65000J0D01*
G01*
D11*
X8463039Y-16053984D02*
X8348753Y-16053984D01*
X8405896Y-16053984D02*
X8405896Y-15853984D01*
X8405896Y-15853984D02*
X8386848Y-15882555D01*
X8386848Y-15882555D02*
X8367801Y-15901603D01*
X8367801Y-15901603D02*
X8348753Y-15911127D01*
X8548753Y-16034936D02*
X8558277Y-16044460D01*
X8558277Y-16044460D02*
X8548753Y-16053984D01*
X8548753Y-16053984D02*
X8539229Y-16044460D01*
X8539229Y-16044460D02*
X8548753Y-16034936D01*
X8548753Y-16034936D02*
X8548753Y-16053984D01*
X8624944Y-15853984D02*
X8748753Y-15853984D01*
X8748753Y-15853984D02*
X8682086Y-15930174D01*
X8682086Y-15930174D02*
X8710658Y-15930174D01*
X8710658Y-15930174D02*
X8729705Y-15939698D01*
X8729705Y-15939698D02*
X8739229Y-15949222D01*
X8739229Y-15949222D02*
X8748753Y-15968269D01*
X8748753Y-15968269D02*
X8748753Y-16015888D01*
X8748753Y-16015888D02*
X8739229Y-16034936D01*
X8739229Y-16034936D02*
X8729705Y-16044460D01*
X8729705Y-16044460D02*
X8710658Y-16053984D01*
X8710658Y-16053984D02*
X8653515Y-16053984D01*
X8653515Y-16053984D02*
X8634467Y-16044460D01*
X8634467Y-16044460D02*
X8624944Y-16034936D01*
X8872563Y-15853984D02*
X8891610Y-15853984D01*
X8891610Y-15853984D02*
X8910658Y-15863508D01*
X8910658Y-15863508D02*
X8920182Y-15873031D01*
X8920182Y-15873031D02*
X8929705Y-15892079D01*
X8929705Y-15892079D02*
X8939229Y-15930174D01*
X8939229Y-15930174D02*
X8939229Y-15977793D01*
X8939229Y-15977793D02*
X8929705Y-16015888D01*
X8929705Y-16015888D02*
X8920182Y-16034936D01*
X8920182Y-16034936D02*
X8910658Y-16044460D01*
X8910658Y-16044460D02*
X8891610Y-16053984D01*
X8891610Y-16053984D02*
X8872563Y-16053984D01*
X8872563Y-16053984D02*
X8853515Y-16044460D01*
X8853515Y-16044460D02*
X8843991Y-16034936D01*
X8843991Y-16034936D02*
X8834467Y-16015888D01*
X8834467Y-16015888D02*
X8824944Y-15977793D01*
X8824944Y-15977793D02*
X8824944Y-15930174D01*
X8824944Y-15930174D02*
X8834467Y-15892079D01*
X8834467Y-15892079D02*
X8843991Y-15873031D01*
X8843991Y-15873031D02*
X8853515Y-15863508D01*
X8853515Y-15863508D02*
X8872563Y-15853984D01*
X9063039Y-15853984D02*
X9082086Y-15853984D01*
X9082086Y-15853984D02*
X9101134Y-15863508D01*
X9101134Y-15863508D02*
X9110658Y-15873031D01*
X9110658Y-15873031D02*
X9120182Y-15892079D01*
X9120182Y-15892079D02*
X9129705Y-15930174D01*
X9129705Y-15930174D02*
X9129705Y-15977793D01*
X9129705Y-15977793D02*
X9120182Y-16015888D01*
X9120182Y-16015888D02*
X9110658Y-16034936D01*
X9110658Y-16034936D02*
X9101134Y-16044460D01*
X9101134Y-16044460D02*
X9082086Y-16053984D01*
X9082086Y-16053984D02*
X9063039Y-16053984D01*
X9063039Y-16053984D02*
X9043991Y-16044460D01*
X9043991Y-16044460D02*
X9034467Y-16034936D01*
X9034467Y-16034936D02*
X9024944Y-16015888D01*
X9024944Y-16015888D02*
X9015420Y-15977793D01*
X9015420Y-15977793D02*
X9015420Y-15930174D01*
X9015420Y-15930174D02*
X9024944Y-15892079D01*
X9024944Y-15892079D02*
X9034467Y-15873031D01*
X9034467Y-15873031D02*
X9043991Y-15863508D01*
X9043991Y-15863508D02*
X9063039Y-15853984D01*
X9215420Y-16053984D02*
X9215420Y-15920650D01*
X9215420Y-15939698D02*
X9224944Y-15930174D01*
X9224944Y-15930174D02*
X9243991Y-15920650D01*
X9243991Y-15920650D02*
X9272563Y-15920650D01*
X9272563Y-15920650D02*
X9291610Y-15930174D01*
X9291610Y-15930174D02*
X9301134Y-15949222D01*
X9301134Y-15949222D02*
X9301134Y-16053984D01*
X9301134Y-15949222D02*
X9310658Y-15930174D01*
X9310658Y-15930174D02*
X9329705Y-15920650D01*
X9329705Y-15920650D02*
X9358277Y-15920650D01*
X9358277Y-15920650D02*
X9377325Y-15930174D01*
X9377325Y-15930174D02*
X9386848Y-15949222D01*
X9386848Y-15949222D02*
X9386848Y-16053984D01*
X9482086Y-16053984D02*
X9482086Y-15920650D01*
X9482086Y-15939698D02*
X9491610Y-15930174D01*
X9491610Y-15930174D02*
X9510658Y-15920650D01*
X9510658Y-15920650D02*
X9539229Y-15920650D01*
X9539229Y-15920650D02*
X9558277Y-15930174D01*
X9558277Y-15930174D02*
X9567801Y-15949222D01*
X9567801Y-15949222D02*
X9567801Y-16053984D01*
X9567801Y-15949222D02*
X9577325Y-15930174D01*
X9577325Y-15930174D02*
X9596372Y-15920650D01*
X9596372Y-15920650D02*
X9624944Y-15920650D01*
X9624944Y-15920650D02*
X9643991Y-15930174D01*
X9643991Y-15930174D02*
X9653515Y-15949222D01*
X9653515Y-15949222D02*
X9653515Y-16053984D01*
X10043991Y-15844460D02*
X9872563Y-16101603D01*
X10301134Y-15853984D02*
X10320182Y-15853984D01*
X10320182Y-15853984D02*
X10339229Y-15863508D01*
X10339229Y-15863508D02*
X10348753Y-15873031D01*
X10348753Y-15873031D02*
X10358277Y-15892079D01*
X10358277Y-15892079D02*
X10367801Y-15930174D01*
X10367801Y-15930174D02*
X10367801Y-15977793D01*
X10367801Y-15977793D02*
X10358277Y-16015888D01*
X10358277Y-16015888D02*
X10348753Y-16034936D01*
X10348753Y-16034936D02*
X10339229Y-16044460D01*
X10339229Y-16044460D02*
X10320182Y-16053984D01*
X10320182Y-16053984D02*
X10301134Y-16053984D01*
X10301134Y-16053984D02*
X10282087Y-16044460D01*
X10282087Y-16044460D02*
X10272563Y-16034936D01*
X10272563Y-16034936D02*
X10263039Y-16015888D01*
X10263039Y-16015888D02*
X10253515Y-15977793D01*
X10253515Y-15977793D02*
X10253515Y-15930174D01*
X10253515Y-15930174D02*
X10263039Y-15892079D01*
X10263039Y-15892079D02*
X10272563Y-15873031D01*
X10272563Y-15873031D02*
X10282087Y-15863508D01*
X10282087Y-15863508D02*
X10301134Y-15853984D01*
X10453515Y-16034936D02*
X10463039Y-16044460D01*
X10463039Y-16044460D02*
X10453515Y-16053984D01*
X10453515Y-16053984D02*
X10443991Y-16044460D01*
X10443991Y-16044460D02*
X10453515Y-16034936D01*
X10453515Y-16034936D02*
X10453515Y-16053984D01*
X10586848Y-15853984D02*
X10605896Y-15853984D01*
X10605896Y-15853984D02*
X10624944Y-15863508D01*
X10624944Y-15863508D02*
X10634468Y-15873031D01*
X10634468Y-15873031D02*
X10643991Y-15892079D01*
X10643991Y-15892079D02*
X10653515Y-15930174D01*
X10653515Y-15930174D02*
X10653515Y-15977793D01*
X10653515Y-15977793D02*
X10643991Y-16015888D01*
X10643991Y-16015888D02*
X10634468Y-16034936D01*
X10634468Y-16034936D02*
X10624944Y-16044460D01*
X10624944Y-16044460D02*
X10605896Y-16053984D01*
X10605896Y-16053984D02*
X10586848Y-16053984D01*
X10586848Y-16053984D02*
X10567801Y-16044460D01*
X10567801Y-16044460D02*
X10558277Y-16034936D01*
X10558277Y-16034936D02*
X10548753Y-16015888D01*
X10548753Y-16015888D02*
X10539229Y-15977793D01*
X10539229Y-15977793D02*
X10539229Y-15930174D01*
X10539229Y-15930174D02*
X10548753Y-15892079D01*
X10548753Y-15892079D02*
X10558277Y-15873031D01*
X10558277Y-15873031D02*
X10567801Y-15863508D01*
X10567801Y-15863508D02*
X10586848Y-15853984D01*
X10834468Y-15853984D02*
X10739229Y-15853984D01*
X10739229Y-15853984D02*
X10729706Y-15949222D01*
X10729706Y-15949222D02*
X10739229Y-15939698D01*
X10739229Y-15939698D02*
X10758277Y-15930174D01*
X10758277Y-15930174D02*
X10805896Y-15930174D01*
X10805896Y-15930174D02*
X10824944Y-15939698D01*
X10824944Y-15939698D02*
X10834468Y-15949222D01*
X10834468Y-15949222D02*
X10843991Y-15968269D01*
X10843991Y-15968269D02*
X10843991Y-16015888D01*
X10843991Y-16015888D02*
X10834468Y-16034936D01*
X10834468Y-16034936D02*
X10824944Y-16044460D01*
X10824944Y-16044460D02*
X10805896Y-16053984D01*
X10805896Y-16053984D02*
X10758277Y-16053984D01*
X10758277Y-16053984D02*
X10739229Y-16044460D01*
X10739229Y-16044460D02*
X10729706Y-16034936D01*
X11034468Y-16053984D02*
X10920182Y-16053984D01*
X10977325Y-16053984D02*
X10977325Y-15853984D01*
X10977325Y-15853984D02*
X10958277Y-15882555D01*
X10958277Y-15882555D02*
X10939229Y-15901603D01*
X10939229Y-15901603D02*
X10920182Y-15911127D01*
X11110658Y-15873031D02*
X11120182Y-15863508D01*
X11120182Y-15863508D02*
X11139229Y-15853984D01*
X11139229Y-15853984D02*
X11186848Y-15853984D01*
X11186848Y-15853984D02*
X11205896Y-15863508D01*
X11205896Y-15863508D02*
X11215420Y-15873031D01*
X11215420Y-15873031D02*
X11224944Y-15892079D01*
X11224944Y-15892079D02*
X11224944Y-15911127D01*
X11224944Y-15911127D02*
X11215420Y-15939698D01*
X11215420Y-15939698D02*
X11101134Y-16053984D01*
X11101134Y-16053984D02*
X11224944Y-16053984D01*
X11301134Y-15853984D02*
X11301134Y-15892079D01*
X11377325Y-15853984D02*
X11377325Y-15892079D01*
X11672563Y-16130174D02*
X11663039Y-16120650D01*
X11663039Y-16120650D02*
X11643991Y-16092079D01*
X11643991Y-16092079D02*
X11634468Y-16073031D01*
X11634468Y-16073031D02*
X11624944Y-16044460D01*
X11624944Y-16044460D02*
X11615420Y-15996841D01*
X11615420Y-15996841D02*
X11615420Y-15958746D01*
X11615420Y-15958746D02*
X11624944Y-15911127D01*
X11624944Y-15911127D02*
X11634468Y-15882555D01*
X11634468Y-15882555D02*
X11643991Y-15863508D01*
X11643991Y-15863508D02*
X11663039Y-15834936D01*
X11663039Y-15834936D02*
X11672563Y-15825412D01*
X11834468Y-15920650D02*
X11834468Y-16053984D01*
X11786848Y-15844460D02*
X11739229Y-15987317D01*
X11739229Y-15987317D02*
X11863039Y-15987317D01*
X12091610Y-16053984D02*
X12091610Y-15853984D01*
X12177325Y-16053984D02*
X12177325Y-15949222D01*
X12177325Y-15949222D02*
X12167801Y-15930174D01*
X12167801Y-15930174D02*
X12148753Y-15920650D01*
X12148753Y-15920650D02*
X12120182Y-15920650D01*
X12120182Y-15920650D02*
X12101134Y-15930174D01*
X12101134Y-15930174D02*
X12091610Y-15939698D01*
X12301134Y-16053984D02*
X12282087Y-16044460D01*
X12282087Y-16044460D02*
X12272563Y-16034936D01*
X12272563Y-16034936D02*
X12263039Y-16015888D01*
X12263039Y-16015888D02*
X12263039Y-15958746D01*
X12263039Y-15958746D02*
X12272563Y-15939698D01*
X12272563Y-15939698D02*
X12282087Y-15930174D01*
X12282087Y-15930174D02*
X12301134Y-15920650D01*
X12301134Y-15920650D02*
X12329706Y-15920650D01*
X12329706Y-15920650D02*
X12348753Y-15930174D01*
X12348753Y-15930174D02*
X12358277Y-15939698D01*
X12358277Y-15939698D02*
X12367801Y-15958746D01*
X12367801Y-15958746D02*
X12367801Y-16015888D01*
X12367801Y-16015888D02*
X12358277Y-16034936D01*
X12358277Y-16034936D02*
X12348753Y-16044460D01*
X12348753Y-16044460D02*
X12329706Y-16053984D01*
X12329706Y-16053984D02*
X12301134Y-16053984D01*
X12482087Y-16053984D02*
X12463039Y-16044460D01*
X12463039Y-16044460D02*
X12453515Y-16025412D01*
X12453515Y-16025412D02*
X12453515Y-15853984D01*
X12634468Y-16044460D02*
X12615420Y-16053984D01*
X12615420Y-16053984D02*
X12577325Y-16053984D01*
X12577325Y-16053984D02*
X12558277Y-16044460D01*
X12558277Y-16044460D02*
X12548753Y-16025412D01*
X12548753Y-16025412D02*
X12548753Y-15949222D01*
X12548753Y-15949222D02*
X12558277Y-15930174D01*
X12558277Y-15930174D02*
X12577325Y-15920650D01*
X12577325Y-15920650D02*
X12615420Y-15920650D01*
X12615420Y-15920650D02*
X12634468Y-15930174D01*
X12634468Y-15930174D02*
X12643991Y-15949222D01*
X12643991Y-15949222D02*
X12643991Y-15968269D01*
X12643991Y-15968269D02*
X12548753Y-15987317D01*
X12720182Y-16044460D02*
X12739230Y-16053984D01*
X12739230Y-16053984D02*
X12777325Y-16053984D01*
X12777325Y-16053984D02*
X12796372Y-16044460D01*
X12796372Y-16044460D02*
X12805896Y-16025412D01*
X12805896Y-16025412D02*
X12805896Y-16015888D01*
X12805896Y-16015888D02*
X12796372Y-15996841D01*
X12796372Y-15996841D02*
X12777325Y-15987317D01*
X12777325Y-15987317D02*
X12748753Y-15987317D01*
X12748753Y-15987317D02*
X12729706Y-15977793D01*
X12729706Y-15977793D02*
X12720182Y-15958746D01*
X12720182Y-15958746D02*
X12720182Y-15949222D01*
X12720182Y-15949222D02*
X12729706Y-15930174D01*
X12729706Y-15930174D02*
X12748753Y-15920650D01*
X12748753Y-15920650D02*
X12777325Y-15920650D01*
X12777325Y-15920650D02*
X12796372Y-15930174D01*
X12872563Y-16130174D02*
X12882087Y-16120650D01*
X12882087Y-16120650D02*
X12901134Y-16092079D01*
X12901134Y-16092079D02*
X12910658Y-16073031D01*
X12910658Y-16073031D02*
X12920182Y-16044460D01*
X12920182Y-16044460D02*
X12929706Y-15996841D01*
X12929706Y-15996841D02*
X12929706Y-15958746D01*
X12929706Y-15958746D02*
X12920182Y-15911127D01*
X12920182Y-15911127D02*
X12910658Y-15882555D01*
X12910658Y-15882555D02*
X12901134Y-15863508D01*
X12901134Y-15863508D02*
X12882087Y-15834936D01*
X12882087Y-15834936D02*
X12872563Y-15825412D01*
D15*
X7965500Y-16160500D02*
X8097500Y-16292500D01*
X8097500Y-16160500D02*
X7965500Y-16292500D01*
X8031500Y-16160500D02*
X8031500Y-16292500D01*
X7965500Y-16226500D02*
X8097500Y-16226500D01*
D11*
X8463039Y-16317984D02*
X8348753Y-16317984D01*
X8405896Y-16317984D02*
X8405896Y-16117984D01*
X8405896Y-16117984D02*
X8386848Y-16146555D01*
X8386848Y-16146555D02*
X8367801Y-16165603D01*
X8367801Y-16165603D02*
X8348753Y-16175127D01*
X8548753Y-16298936D02*
X8558277Y-16308460D01*
X8558277Y-16308460D02*
X8548753Y-16317984D01*
X8548753Y-16317984D02*
X8539229Y-16308460D01*
X8539229Y-16308460D02*
X8548753Y-16298936D01*
X8548753Y-16298936D02*
X8548753Y-16317984D01*
X8624944Y-16117984D02*
X8748753Y-16117984D01*
X8748753Y-16117984D02*
X8682086Y-16194174D01*
X8682086Y-16194174D02*
X8710658Y-16194174D01*
X8710658Y-16194174D02*
X8729705Y-16203698D01*
X8729705Y-16203698D02*
X8739229Y-16213222D01*
X8739229Y-16213222D02*
X8748753Y-16232269D01*
X8748753Y-16232269D02*
X8748753Y-16279888D01*
X8748753Y-16279888D02*
X8739229Y-16298936D01*
X8739229Y-16298936D02*
X8729705Y-16308460D01*
X8729705Y-16308460D02*
X8710658Y-16317984D01*
X8710658Y-16317984D02*
X8653515Y-16317984D01*
X8653515Y-16317984D02*
X8634467Y-16308460D01*
X8634467Y-16308460D02*
X8624944Y-16298936D01*
X8824944Y-16137031D02*
X8834467Y-16127508D01*
X8834467Y-16127508D02*
X8853515Y-16117984D01*
X8853515Y-16117984D02*
X8901134Y-16117984D01*
X8901134Y-16117984D02*
X8920182Y-16127508D01*
X8920182Y-16127508D02*
X8929705Y-16137031D01*
X8929705Y-16137031D02*
X8939229Y-16156079D01*
X8939229Y-16156079D02*
X8939229Y-16175127D01*
X8939229Y-16175127D02*
X8929705Y-16203698D01*
X8929705Y-16203698D02*
X8815420Y-16317984D01*
X8815420Y-16317984D02*
X8939229Y-16317984D01*
X9063039Y-16117984D02*
X9082086Y-16117984D01*
X9082086Y-16117984D02*
X9101134Y-16127508D01*
X9101134Y-16127508D02*
X9110658Y-16137031D01*
X9110658Y-16137031D02*
X9120182Y-16156079D01*
X9120182Y-16156079D02*
X9129705Y-16194174D01*
X9129705Y-16194174D02*
X9129705Y-16241793D01*
X9129705Y-16241793D02*
X9120182Y-16279888D01*
X9120182Y-16279888D02*
X9110658Y-16298936D01*
X9110658Y-16298936D02*
X9101134Y-16308460D01*
X9101134Y-16308460D02*
X9082086Y-16317984D01*
X9082086Y-16317984D02*
X9063039Y-16317984D01*
X9063039Y-16317984D02*
X9043991Y-16308460D01*
X9043991Y-16308460D02*
X9034467Y-16298936D01*
X9034467Y-16298936D02*
X9024944Y-16279888D01*
X9024944Y-16279888D02*
X9015420Y-16241793D01*
X9015420Y-16241793D02*
X9015420Y-16194174D01*
X9015420Y-16194174D02*
X9024944Y-16156079D01*
X9024944Y-16156079D02*
X9034467Y-16137031D01*
X9034467Y-16137031D02*
X9043991Y-16127508D01*
X9043991Y-16127508D02*
X9063039Y-16117984D01*
X9215420Y-16317984D02*
X9215420Y-16184650D01*
X9215420Y-16203698D02*
X9224944Y-16194174D01*
X9224944Y-16194174D02*
X9243991Y-16184650D01*
X9243991Y-16184650D02*
X9272563Y-16184650D01*
X9272563Y-16184650D02*
X9291610Y-16194174D01*
X9291610Y-16194174D02*
X9301134Y-16213222D01*
X9301134Y-16213222D02*
X9301134Y-16317984D01*
X9301134Y-16213222D02*
X9310658Y-16194174D01*
X9310658Y-16194174D02*
X9329705Y-16184650D01*
X9329705Y-16184650D02*
X9358277Y-16184650D01*
X9358277Y-16184650D02*
X9377325Y-16194174D01*
X9377325Y-16194174D02*
X9386848Y-16213222D01*
X9386848Y-16213222D02*
X9386848Y-16317984D01*
X9482086Y-16317984D02*
X9482086Y-16184650D01*
X9482086Y-16203698D02*
X9491610Y-16194174D01*
X9491610Y-16194174D02*
X9510658Y-16184650D01*
X9510658Y-16184650D02*
X9539229Y-16184650D01*
X9539229Y-16184650D02*
X9558277Y-16194174D01*
X9558277Y-16194174D02*
X9567801Y-16213222D01*
X9567801Y-16213222D02*
X9567801Y-16317984D01*
X9567801Y-16213222D02*
X9577325Y-16194174D01*
X9577325Y-16194174D02*
X9596372Y-16184650D01*
X9596372Y-16184650D02*
X9624944Y-16184650D01*
X9624944Y-16184650D02*
X9643991Y-16194174D01*
X9643991Y-16194174D02*
X9653515Y-16213222D01*
X9653515Y-16213222D02*
X9653515Y-16317984D01*
X10043991Y-16108460D02*
X9872563Y-16365603D01*
X10301134Y-16117984D02*
X10320182Y-16117984D01*
X10320182Y-16117984D02*
X10339229Y-16127508D01*
X10339229Y-16127508D02*
X10348753Y-16137031D01*
X10348753Y-16137031D02*
X10358277Y-16156079D01*
X10358277Y-16156079D02*
X10367801Y-16194174D01*
X10367801Y-16194174D02*
X10367801Y-16241793D01*
X10367801Y-16241793D02*
X10358277Y-16279888D01*
X10358277Y-16279888D02*
X10348753Y-16298936D01*
X10348753Y-16298936D02*
X10339229Y-16308460D01*
X10339229Y-16308460D02*
X10320182Y-16317984D01*
X10320182Y-16317984D02*
X10301134Y-16317984D01*
X10301134Y-16317984D02*
X10282087Y-16308460D01*
X10282087Y-16308460D02*
X10272563Y-16298936D01*
X10272563Y-16298936D02*
X10263039Y-16279888D01*
X10263039Y-16279888D02*
X10253515Y-16241793D01*
X10253515Y-16241793D02*
X10253515Y-16194174D01*
X10253515Y-16194174D02*
X10263039Y-16156079D01*
X10263039Y-16156079D02*
X10272563Y-16137031D01*
X10272563Y-16137031D02*
X10282087Y-16127508D01*
X10282087Y-16127508D02*
X10301134Y-16117984D01*
X10453515Y-16298936D02*
X10463039Y-16308460D01*
X10463039Y-16308460D02*
X10453515Y-16317984D01*
X10453515Y-16317984D02*
X10443991Y-16308460D01*
X10443991Y-16308460D02*
X10453515Y-16298936D01*
X10453515Y-16298936D02*
X10453515Y-16317984D01*
X10586848Y-16117984D02*
X10605896Y-16117984D01*
X10605896Y-16117984D02*
X10624944Y-16127508D01*
X10624944Y-16127508D02*
X10634468Y-16137031D01*
X10634468Y-16137031D02*
X10643991Y-16156079D01*
X10643991Y-16156079D02*
X10653515Y-16194174D01*
X10653515Y-16194174D02*
X10653515Y-16241793D01*
X10653515Y-16241793D02*
X10643991Y-16279888D01*
X10643991Y-16279888D02*
X10634468Y-16298936D01*
X10634468Y-16298936D02*
X10624944Y-16308460D01*
X10624944Y-16308460D02*
X10605896Y-16317984D01*
X10605896Y-16317984D02*
X10586848Y-16317984D01*
X10586848Y-16317984D02*
X10567801Y-16308460D01*
X10567801Y-16308460D02*
X10558277Y-16298936D01*
X10558277Y-16298936D02*
X10548753Y-16279888D01*
X10548753Y-16279888D02*
X10539229Y-16241793D01*
X10539229Y-16241793D02*
X10539229Y-16194174D01*
X10539229Y-16194174D02*
X10548753Y-16156079D01*
X10548753Y-16156079D02*
X10558277Y-16137031D01*
X10558277Y-16137031D02*
X10567801Y-16127508D01*
X10567801Y-16127508D02*
X10586848Y-16117984D01*
X10834468Y-16117984D02*
X10739229Y-16117984D01*
X10739229Y-16117984D02*
X10729706Y-16213222D01*
X10729706Y-16213222D02*
X10739229Y-16203698D01*
X10739229Y-16203698D02*
X10758277Y-16194174D01*
X10758277Y-16194174D02*
X10805896Y-16194174D01*
X10805896Y-16194174D02*
X10824944Y-16203698D01*
X10824944Y-16203698D02*
X10834468Y-16213222D01*
X10834468Y-16213222D02*
X10843991Y-16232269D01*
X10843991Y-16232269D02*
X10843991Y-16279888D01*
X10843991Y-16279888D02*
X10834468Y-16298936D01*
X10834468Y-16298936D02*
X10824944Y-16308460D01*
X10824944Y-16308460D02*
X10805896Y-16317984D01*
X10805896Y-16317984D02*
X10758277Y-16317984D01*
X10758277Y-16317984D02*
X10739229Y-16308460D01*
X10739229Y-16308460D02*
X10729706Y-16298936D01*
X10920182Y-16137031D02*
X10929706Y-16127508D01*
X10929706Y-16127508D02*
X10948753Y-16117984D01*
X10948753Y-16117984D02*
X10996372Y-16117984D01*
X10996372Y-16117984D02*
X11015420Y-16127508D01*
X11015420Y-16127508D02*
X11024944Y-16137031D01*
X11024944Y-16137031D02*
X11034468Y-16156079D01*
X11034468Y-16156079D02*
X11034468Y-16175127D01*
X11034468Y-16175127D02*
X11024944Y-16203698D01*
X11024944Y-16203698D02*
X10910658Y-16317984D01*
X10910658Y-16317984D02*
X11034468Y-16317984D01*
X11158277Y-16117984D02*
X11177325Y-16117984D01*
X11177325Y-16117984D02*
X11196372Y-16127508D01*
X11196372Y-16127508D02*
X11205896Y-16137031D01*
X11205896Y-16137031D02*
X11215420Y-16156079D01*
X11215420Y-16156079D02*
X11224944Y-16194174D01*
X11224944Y-16194174D02*
X11224944Y-16241793D01*
X11224944Y-16241793D02*
X11215420Y-16279888D01*
X11215420Y-16279888D02*
X11205896Y-16298936D01*
X11205896Y-16298936D02*
X11196372Y-16308460D01*
X11196372Y-16308460D02*
X11177325Y-16317984D01*
X11177325Y-16317984D02*
X11158277Y-16317984D01*
X11158277Y-16317984D02*
X11139229Y-16308460D01*
X11139229Y-16308460D02*
X11129706Y-16298936D01*
X11129706Y-16298936D02*
X11120182Y-16279888D01*
X11120182Y-16279888D02*
X11110658Y-16241793D01*
X11110658Y-16241793D02*
X11110658Y-16194174D01*
X11110658Y-16194174D02*
X11120182Y-16156079D01*
X11120182Y-16156079D02*
X11129706Y-16137031D01*
X11129706Y-16137031D02*
X11139229Y-16127508D01*
X11139229Y-16127508D02*
X11158277Y-16117984D01*
X11301134Y-16117984D02*
X11301134Y-16156079D01*
X11377325Y-16117984D02*
X11377325Y-16156079D01*
X11672563Y-16394174D02*
X11663039Y-16384650D01*
X11663039Y-16384650D02*
X11643991Y-16356079D01*
X11643991Y-16356079D02*
X11634468Y-16337031D01*
X11634468Y-16337031D02*
X11624944Y-16308460D01*
X11624944Y-16308460D02*
X11615420Y-16260841D01*
X11615420Y-16260841D02*
X11615420Y-16222746D01*
X11615420Y-16222746D02*
X11624944Y-16175127D01*
X11624944Y-16175127D02*
X11634468Y-16146555D01*
X11634468Y-16146555D02*
X11643991Y-16127508D01*
X11643991Y-16127508D02*
X11663039Y-16098936D01*
X11663039Y-16098936D02*
X11672563Y-16089412D01*
X11834468Y-16184650D02*
X11834468Y-16317984D01*
X11786848Y-16108460D02*
X11739229Y-16251317D01*
X11739229Y-16251317D02*
X11863039Y-16251317D01*
X12091610Y-16317984D02*
X12091610Y-16117984D01*
X12177325Y-16317984D02*
X12177325Y-16213222D01*
X12177325Y-16213222D02*
X12167801Y-16194174D01*
X12167801Y-16194174D02*
X12148753Y-16184650D01*
X12148753Y-16184650D02*
X12120182Y-16184650D01*
X12120182Y-16184650D02*
X12101134Y-16194174D01*
X12101134Y-16194174D02*
X12091610Y-16203698D01*
X12301134Y-16317984D02*
X12282087Y-16308460D01*
X12282087Y-16308460D02*
X12272563Y-16298936D01*
X12272563Y-16298936D02*
X12263039Y-16279888D01*
X12263039Y-16279888D02*
X12263039Y-16222746D01*
X12263039Y-16222746D02*
X12272563Y-16203698D01*
X12272563Y-16203698D02*
X12282087Y-16194174D01*
X12282087Y-16194174D02*
X12301134Y-16184650D01*
X12301134Y-16184650D02*
X12329706Y-16184650D01*
X12329706Y-16184650D02*
X12348753Y-16194174D01*
X12348753Y-16194174D02*
X12358277Y-16203698D01*
X12358277Y-16203698D02*
X12367801Y-16222746D01*
X12367801Y-16222746D02*
X12367801Y-16279888D01*
X12367801Y-16279888D02*
X12358277Y-16298936D01*
X12358277Y-16298936D02*
X12348753Y-16308460D01*
X12348753Y-16308460D02*
X12329706Y-16317984D01*
X12329706Y-16317984D02*
X12301134Y-16317984D01*
X12482087Y-16317984D02*
X12463039Y-16308460D01*
X12463039Y-16308460D02*
X12453515Y-16289412D01*
X12453515Y-16289412D02*
X12453515Y-16117984D01*
X12634468Y-16308460D02*
X12615420Y-16317984D01*
X12615420Y-16317984D02*
X12577325Y-16317984D01*
X12577325Y-16317984D02*
X12558277Y-16308460D01*
X12558277Y-16308460D02*
X12548753Y-16289412D01*
X12548753Y-16289412D02*
X12548753Y-16213222D01*
X12548753Y-16213222D02*
X12558277Y-16194174D01*
X12558277Y-16194174D02*
X12577325Y-16184650D01*
X12577325Y-16184650D02*
X12615420Y-16184650D01*
X12615420Y-16184650D02*
X12634468Y-16194174D01*
X12634468Y-16194174D02*
X12643991Y-16213222D01*
X12643991Y-16213222D02*
X12643991Y-16232269D01*
X12643991Y-16232269D02*
X12548753Y-16251317D01*
X12720182Y-16308460D02*
X12739230Y-16317984D01*
X12739230Y-16317984D02*
X12777325Y-16317984D01*
X12777325Y-16317984D02*
X12796372Y-16308460D01*
X12796372Y-16308460D02*
X12805896Y-16289412D01*
X12805896Y-16289412D02*
X12805896Y-16279888D01*
X12805896Y-16279888D02*
X12796372Y-16260841D01*
X12796372Y-16260841D02*
X12777325Y-16251317D01*
X12777325Y-16251317D02*
X12748753Y-16251317D01*
X12748753Y-16251317D02*
X12729706Y-16241793D01*
X12729706Y-16241793D02*
X12720182Y-16222746D01*
X12720182Y-16222746D02*
X12720182Y-16213222D01*
X12720182Y-16213222D02*
X12729706Y-16194174D01*
X12729706Y-16194174D02*
X12748753Y-16184650D01*
X12748753Y-16184650D02*
X12777325Y-16184650D01*
X12777325Y-16184650D02*
X12796372Y-16194174D01*
X12872563Y-16394174D02*
X12882087Y-16384650D01*
X12882087Y-16384650D02*
X12901134Y-16356079D01*
X12901134Y-16356079D02*
X12910658Y-16337031D01*
X12910658Y-16337031D02*
X12920182Y-16308460D01*
X12920182Y-16308460D02*
X12929706Y-16260841D01*
X12929706Y-16260841D02*
X12929706Y-16222746D01*
X12929706Y-16222746D02*
X12920182Y-16175127D01*
X12920182Y-16175127D02*
X12910658Y-16146555D01*
X12910658Y-16146555D02*
X12901134Y-16127508D01*
X12901134Y-16127508D02*
X12882087Y-16098936D01*
X12882087Y-16098936D02*
X12872563Y-16089412D01*
D16*
X7957500Y-16420500D02*
X8097500Y-16560500D01*
X8097500Y-16420500D02*
X7957500Y-16560500D01*
X8076998Y-16539998D02*
X8076998Y-16441002D01*
X7978002Y-16441002D01*
X7978002Y-16539998D01*
X8076998Y-16539998D01*
D11*
X8463039Y-16581984D02*
X8348753Y-16581984D01*
X8405896Y-16581984D02*
X8405896Y-16381984D01*
X8405896Y-16381984D02*
X8386848Y-16410555D01*
X8386848Y-16410555D02*
X8367801Y-16429603D01*
X8367801Y-16429603D02*
X8348753Y-16439127D01*
X8548753Y-16562936D02*
X8558277Y-16572460D01*
X8558277Y-16572460D02*
X8548753Y-16581984D01*
X8548753Y-16581984D02*
X8539229Y-16572460D01*
X8539229Y-16572460D02*
X8548753Y-16562936D01*
X8548753Y-16562936D02*
X8548753Y-16581984D01*
X8729705Y-16448650D02*
X8729705Y-16581984D01*
X8682086Y-16372460D02*
X8634467Y-16515317D01*
X8634467Y-16515317D02*
X8758277Y-16515317D01*
X8872563Y-16381984D02*
X8891610Y-16381984D01*
X8891610Y-16381984D02*
X8910658Y-16391508D01*
X8910658Y-16391508D02*
X8920182Y-16401031D01*
X8920182Y-16401031D02*
X8929705Y-16420079D01*
X8929705Y-16420079D02*
X8939229Y-16458174D01*
X8939229Y-16458174D02*
X8939229Y-16505793D01*
X8939229Y-16505793D02*
X8929705Y-16543888D01*
X8929705Y-16543888D02*
X8920182Y-16562936D01*
X8920182Y-16562936D02*
X8910658Y-16572460D01*
X8910658Y-16572460D02*
X8891610Y-16581984D01*
X8891610Y-16581984D02*
X8872563Y-16581984D01*
X8872563Y-16581984D02*
X8853515Y-16572460D01*
X8853515Y-16572460D02*
X8843991Y-16562936D01*
X8843991Y-16562936D02*
X8834467Y-16543888D01*
X8834467Y-16543888D02*
X8824944Y-16505793D01*
X8824944Y-16505793D02*
X8824944Y-16458174D01*
X8824944Y-16458174D02*
X8834467Y-16420079D01*
X8834467Y-16420079D02*
X8843991Y-16401031D01*
X8843991Y-16401031D02*
X8853515Y-16391508D01*
X8853515Y-16391508D02*
X8872563Y-16381984D01*
X9063039Y-16381984D02*
X9082086Y-16381984D01*
X9082086Y-16381984D02*
X9101134Y-16391508D01*
X9101134Y-16391508D02*
X9110658Y-16401031D01*
X9110658Y-16401031D02*
X9120182Y-16420079D01*
X9120182Y-16420079D02*
X9129705Y-16458174D01*
X9129705Y-16458174D02*
X9129705Y-16505793D01*
X9129705Y-16505793D02*
X9120182Y-16543888D01*
X9120182Y-16543888D02*
X9110658Y-16562936D01*
X9110658Y-16562936D02*
X9101134Y-16572460D01*
X9101134Y-16572460D02*
X9082086Y-16581984D01*
X9082086Y-16581984D02*
X9063039Y-16581984D01*
X9063039Y-16581984D02*
X9043991Y-16572460D01*
X9043991Y-16572460D02*
X9034467Y-16562936D01*
X9034467Y-16562936D02*
X9024944Y-16543888D01*
X9024944Y-16543888D02*
X9015420Y-16505793D01*
X9015420Y-16505793D02*
X9015420Y-16458174D01*
X9015420Y-16458174D02*
X9024944Y-16420079D01*
X9024944Y-16420079D02*
X9034467Y-16401031D01*
X9034467Y-16401031D02*
X9043991Y-16391508D01*
X9043991Y-16391508D02*
X9063039Y-16381984D01*
X9215420Y-16581984D02*
X9215420Y-16448650D01*
X9215420Y-16467698D02*
X9224944Y-16458174D01*
X9224944Y-16458174D02*
X9243991Y-16448650D01*
X9243991Y-16448650D02*
X9272563Y-16448650D01*
X9272563Y-16448650D02*
X9291610Y-16458174D01*
X9291610Y-16458174D02*
X9301134Y-16477222D01*
X9301134Y-16477222D02*
X9301134Y-16581984D01*
X9301134Y-16477222D02*
X9310658Y-16458174D01*
X9310658Y-16458174D02*
X9329705Y-16448650D01*
X9329705Y-16448650D02*
X9358277Y-16448650D01*
X9358277Y-16448650D02*
X9377325Y-16458174D01*
X9377325Y-16458174D02*
X9386848Y-16477222D01*
X9386848Y-16477222D02*
X9386848Y-16581984D01*
X9482086Y-16581984D02*
X9482086Y-16448650D01*
X9482086Y-16467698D02*
X9491610Y-16458174D01*
X9491610Y-16458174D02*
X9510658Y-16448650D01*
X9510658Y-16448650D02*
X9539229Y-16448650D01*
X9539229Y-16448650D02*
X9558277Y-16458174D01*
X9558277Y-16458174D02*
X9567801Y-16477222D01*
X9567801Y-16477222D02*
X9567801Y-16581984D01*
X9567801Y-16477222D02*
X9577325Y-16458174D01*
X9577325Y-16458174D02*
X9596372Y-16448650D01*
X9596372Y-16448650D02*
X9624944Y-16448650D01*
X9624944Y-16448650D02*
X9643991Y-16458174D01*
X9643991Y-16458174D02*
X9653515Y-16477222D01*
X9653515Y-16477222D02*
X9653515Y-16581984D01*
X10043991Y-16372460D02*
X9872563Y-16629603D01*
X10301134Y-16381984D02*
X10320182Y-16381984D01*
X10320182Y-16381984D02*
X10339229Y-16391508D01*
X10339229Y-16391508D02*
X10348753Y-16401031D01*
X10348753Y-16401031D02*
X10358277Y-16420079D01*
X10358277Y-16420079D02*
X10367801Y-16458174D01*
X10367801Y-16458174D02*
X10367801Y-16505793D01*
X10367801Y-16505793D02*
X10358277Y-16543888D01*
X10358277Y-16543888D02*
X10348753Y-16562936D01*
X10348753Y-16562936D02*
X10339229Y-16572460D01*
X10339229Y-16572460D02*
X10320182Y-16581984D01*
X10320182Y-16581984D02*
X10301134Y-16581984D01*
X10301134Y-16581984D02*
X10282087Y-16572460D01*
X10282087Y-16572460D02*
X10272563Y-16562936D01*
X10272563Y-16562936D02*
X10263039Y-16543888D01*
X10263039Y-16543888D02*
X10253515Y-16505793D01*
X10253515Y-16505793D02*
X10253515Y-16458174D01*
X10253515Y-16458174D02*
X10263039Y-16420079D01*
X10263039Y-16420079D02*
X10272563Y-16401031D01*
X10272563Y-16401031D02*
X10282087Y-16391508D01*
X10282087Y-16391508D02*
X10301134Y-16381984D01*
X10453515Y-16562936D02*
X10463039Y-16572460D01*
X10463039Y-16572460D02*
X10453515Y-16581984D01*
X10453515Y-16581984D02*
X10443991Y-16572460D01*
X10443991Y-16572460D02*
X10453515Y-16562936D01*
X10453515Y-16562936D02*
X10453515Y-16581984D01*
X10586848Y-16381984D02*
X10605896Y-16381984D01*
X10605896Y-16381984D02*
X10624944Y-16391508D01*
X10624944Y-16391508D02*
X10634468Y-16401031D01*
X10634468Y-16401031D02*
X10643991Y-16420079D01*
X10643991Y-16420079D02*
X10653515Y-16458174D01*
X10653515Y-16458174D02*
X10653515Y-16505793D01*
X10653515Y-16505793D02*
X10643991Y-16543888D01*
X10643991Y-16543888D02*
X10634468Y-16562936D01*
X10634468Y-16562936D02*
X10624944Y-16572460D01*
X10624944Y-16572460D02*
X10605896Y-16581984D01*
X10605896Y-16581984D02*
X10586848Y-16581984D01*
X10586848Y-16581984D02*
X10567801Y-16572460D01*
X10567801Y-16572460D02*
X10558277Y-16562936D01*
X10558277Y-16562936D02*
X10548753Y-16543888D01*
X10548753Y-16543888D02*
X10539229Y-16505793D01*
X10539229Y-16505793D02*
X10539229Y-16458174D01*
X10539229Y-16458174D02*
X10548753Y-16420079D01*
X10548753Y-16420079D02*
X10558277Y-16401031D01*
X10558277Y-16401031D02*
X10567801Y-16391508D01*
X10567801Y-16391508D02*
X10586848Y-16381984D01*
X10834468Y-16381984D02*
X10739229Y-16381984D01*
X10739229Y-16381984D02*
X10729706Y-16477222D01*
X10729706Y-16477222D02*
X10739229Y-16467698D01*
X10739229Y-16467698D02*
X10758277Y-16458174D01*
X10758277Y-16458174D02*
X10805896Y-16458174D01*
X10805896Y-16458174D02*
X10824944Y-16467698D01*
X10824944Y-16467698D02*
X10834468Y-16477222D01*
X10834468Y-16477222D02*
X10843991Y-16496269D01*
X10843991Y-16496269D02*
X10843991Y-16543888D01*
X10843991Y-16543888D02*
X10834468Y-16562936D01*
X10834468Y-16562936D02*
X10824944Y-16572460D01*
X10824944Y-16572460D02*
X10805896Y-16581984D01*
X10805896Y-16581984D02*
X10758277Y-16581984D01*
X10758277Y-16581984D02*
X10739229Y-16572460D01*
X10739229Y-16572460D02*
X10729706Y-16562936D01*
X11024944Y-16381984D02*
X10929706Y-16381984D01*
X10929706Y-16381984D02*
X10920182Y-16477222D01*
X10920182Y-16477222D02*
X10929706Y-16467698D01*
X10929706Y-16467698D02*
X10948753Y-16458174D01*
X10948753Y-16458174D02*
X10996372Y-16458174D01*
X10996372Y-16458174D02*
X11015420Y-16467698D01*
X11015420Y-16467698D02*
X11024944Y-16477222D01*
X11024944Y-16477222D02*
X11034468Y-16496269D01*
X11034468Y-16496269D02*
X11034468Y-16543888D01*
X11034468Y-16543888D02*
X11024944Y-16562936D01*
X11024944Y-16562936D02*
X11015420Y-16572460D01*
X11015420Y-16572460D02*
X10996372Y-16581984D01*
X10996372Y-16581984D02*
X10948753Y-16581984D01*
X10948753Y-16581984D02*
X10929706Y-16572460D01*
X10929706Y-16572460D02*
X10920182Y-16562936D01*
X11224944Y-16581984D02*
X11110658Y-16581984D01*
X11167801Y-16581984D02*
X11167801Y-16381984D01*
X11167801Y-16381984D02*
X11148753Y-16410555D01*
X11148753Y-16410555D02*
X11129706Y-16429603D01*
X11129706Y-16429603D02*
X11110658Y-16439127D01*
X11301134Y-16381984D02*
X11301134Y-16420079D01*
X11377325Y-16381984D02*
X11377325Y-16420079D01*
X11672563Y-16658174D02*
X11663039Y-16648650D01*
X11663039Y-16648650D02*
X11643991Y-16620079D01*
X11643991Y-16620079D02*
X11634468Y-16601031D01*
X11634468Y-16601031D02*
X11624944Y-16572460D01*
X11624944Y-16572460D02*
X11615420Y-16524841D01*
X11615420Y-16524841D02*
X11615420Y-16486746D01*
X11615420Y-16486746D02*
X11624944Y-16439127D01*
X11624944Y-16439127D02*
X11634468Y-16410555D01*
X11634468Y-16410555D02*
X11643991Y-16391508D01*
X11643991Y-16391508D02*
X11663039Y-16362936D01*
X11663039Y-16362936D02*
X11672563Y-16353412D01*
X11853515Y-16581984D02*
X11739229Y-16581984D01*
X11796372Y-16581984D02*
X11796372Y-16381984D01*
X11796372Y-16381984D02*
X11777325Y-16410555D01*
X11777325Y-16410555D02*
X11758277Y-16429603D01*
X11758277Y-16429603D02*
X11739229Y-16439127D01*
X12091610Y-16581984D02*
X12091610Y-16381984D01*
X12177325Y-16581984D02*
X12177325Y-16477222D01*
X12177325Y-16477222D02*
X12167801Y-16458174D01*
X12167801Y-16458174D02*
X12148753Y-16448650D01*
X12148753Y-16448650D02*
X12120182Y-16448650D01*
X12120182Y-16448650D02*
X12101134Y-16458174D01*
X12101134Y-16458174D02*
X12091610Y-16467698D01*
X12301134Y-16581984D02*
X12282087Y-16572460D01*
X12282087Y-16572460D02*
X12272563Y-16562936D01*
X12272563Y-16562936D02*
X12263039Y-16543888D01*
X12263039Y-16543888D02*
X12263039Y-16486746D01*
X12263039Y-16486746D02*
X12272563Y-16467698D01*
X12272563Y-16467698D02*
X12282087Y-16458174D01*
X12282087Y-16458174D02*
X12301134Y-16448650D01*
X12301134Y-16448650D02*
X12329706Y-16448650D01*
X12329706Y-16448650D02*
X12348753Y-16458174D01*
X12348753Y-16458174D02*
X12358277Y-16467698D01*
X12358277Y-16467698D02*
X12367801Y-16486746D01*
X12367801Y-16486746D02*
X12367801Y-16543888D01*
X12367801Y-16543888D02*
X12358277Y-16562936D01*
X12358277Y-16562936D02*
X12348753Y-16572460D01*
X12348753Y-16572460D02*
X12329706Y-16581984D01*
X12329706Y-16581984D02*
X12301134Y-16581984D01*
X12482087Y-16581984D02*
X12463039Y-16572460D01*
X12463039Y-16572460D02*
X12453515Y-16553412D01*
X12453515Y-16553412D02*
X12453515Y-16381984D01*
X12634468Y-16572460D02*
X12615420Y-16581984D01*
X12615420Y-16581984D02*
X12577325Y-16581984D01*
X12577325Y-16581984D02*
X12558277Y-16572460D01*
X12558277Y-16572460D02*
X12548753Y-16553412D01*
X12548753Y-16553412D02*
X12548753Y-16477222D01*
X12548753Y-16477222D02*
X12558277Y-16458174D01*
X12558277Y-16458174D02*
X12577325Y-16448650D01*
X12577325Y-16448650D02*
X12615420Y-16448650D01*
X12615420Y-16448650D02*
X12634468Y-16458174D01*
X12634468Y-16458174D02*
X12643991Y-16477222D01*
X12643991Y-16477222D02*
X12643991Y-16496269D01*
X12643991Y-16496269D02*
X12548753Y-16515317D01*
X12710658Y-16658174D02*
X12720182Y-16648650D01*
X12720182Y-16648650D02*
X12739230Y-16620079D01*
X12739230Y-16620079D02*
X12748753Y-16601031D01*
X12748753Y-16601031D02*
X12758277Y-16572460D01*
X12758277Y-16572460D02*
X12767801Y-16524841D01*
X12767801Y-16524841D02*
X12767801Y-16486746D01*
X12767801Y-16486746D02*
X12758277Y-16439127D01*
X12758277Y-16439127D02*
X12748753Y-16410555D01*
X12748753Y-16410555D02*
X12739230Y-16391508D01*
X12739230Y-16391508D02*
X12720182Y-16362936D01*
X12720182Y-16362936D02*
X12710658Y-16353412D01*
X7897500Y-16654500D02*
X8097500Y-16854500D01*
X8097500Y-16654500D02*
X7897500Y-16854500D01*
X7997500Y-16854500D02*
X8097500Y-16754500D01*
X7997500Y-16654500D01*
X7897500Y-16754500D01*
X7997500Y-16854500D01*
X8339229Y-16645984D02*
X8463039Y-16645984D01*
X8463039Y-16645984D02*
X8396372Y-16722174D01*
X8396372Y-16722174D02*
X8424944Y-16722174D01*
X8424944Y-16722174D02*
X8443991Y-16731698D01*
X8443991Y-16731698D02*
X8453515Y-16741222D01*
X8453515Y-16741222D02*
X8463039Y-16760269D01*
X8463039Y-16760269D02*
X8463039Y-16807889D01*
X8463039Y-16807889D02*
X8453515Y-16826936D01*
X8453515Y-16826936D02*
X8443991Y-16836460D01*
X8443991Y-16836460D02*
X8424944Y-16845984D01*
X8424944Y-16845984D02*
X8367801Y-16845984D01*
X8367801Y-16845984D02*
X8348753Y-16836460D01*
X8348753Y-16836460D02*
X8339229Y-16826936D01*
X8548753Y-16826936D02*
X8558277Y-16836460D01*
X8558277Y-16836460D02*
X8548753Y-16845984D01*
X8548753Y-16845984D02*
X8539229Y-16836460D01*
X8539229Y-16836460D02*
X8548753Y-16826936D01*
X8548753Y-16826936D02*
X8548753Y-16845984D01*
X8634467Y-16665031D02*
X8643991Y-16655508D01*
X8643991Y-16655508D02*
X8663039Y-16645984D01*
X8663039Y-16645984D02*
X8710658Y-16645984D01*
X8710658Y-16645984D02*
X8729705Y-16655508D01*
X8729705Y-16655508D02*
X8739229Y-16665031D01*
X8739229Y-16665031D02*
X8748753Y-16684079D01*
X8748753Y-16684079D02*
X8748753Y-16703127D01*
X8748753Y-16703127D02*
X8739229Y-16731698D01*
X8739229Y-16731698D02*
X8624944Y-16845984D01*
X8624944Y-16845984D02*
X8748753Y-16845984D01*
X8872563Y-16645984D02*
X8891610Y-16645984D01*
X8891610Y-16645984D02*
X8910658Y-16655508D01*
X8910658Y-16655508D02*
X8920182Y-16665031D01*
X8920182Y-16665031D02*
X8929705Y-16684079D01*
X8929705Y-16684079D02*
X8939229Y-16722174D01*
X8939229Y-16722174D02*
X8939229Y-16769793D01*
X8939229Y-16769793D02*
X8929705Y-16807889D01*
X8929705Y-16807889D02*
X8920182Y-16826936D01*
X8920182Y-16826936D02*
X8910658Y-16836460D01*
X8910658Y-16836460D02*
X8891610Y-16845984D01*
X8891610Y-16845984D02*
X8872563Y-16845984D01*
X8872563Y-16845984D02*
X8853515Y-16836460D01*
X8853515Y-16836460D02*
X8843991Y-16826936D01*
X8843991Y-16826936D02*
X8834467Y-16807889D01*
X8834467Y-16807889D02*
X8824944Y-16769793D01*
X8824944Y-16769793D02*
X8824944Y-16722174D01*
X8824944Y-16722174D02*
X8834467Y-16684079D01*
X8834467Y-16684079D02*
X8843991Y-16665031D01*
X8843991Y-16665031D02*
X8853515Y-16655508D01*
X8853515Y-16655508D02*
X8872563Y-16645984D01*
X9063039Y-16645984D02*
X9082086Y-16645984D01*
X9082086Y-16645984D02*
X9101134Y-16655508D01*
X9101134Y-16655508D02*
X9110658Y-16665031D01*
X9110658Y-16665031D02*
X9120182Y-16684079D01*
X9120182Y-16684079D02*
X9129705Y-16722174D01*
X9129705Y-16722174D02*
X9129705Y-16769793D01*
X9129705Y-16769793D02*
X9120182Y-16807889D01*
X9120182Y-16807889D02*
X9110658Y-16826936D01*
X9110658Y-16826936D02*
X9101134Y-16836460D01*
X9101134Y-16836460D02*
X9082086Y-16845984D01*
X9082086Y-16845984D02*
X9063039Y-16845984D01*
X9063039Y-16845984D02*
X9043991Y-16836460D01*
X9043991Y-16836460D02*
X9034467Y-16826936D01*
X9034467Y-16826936D02*
X9024944Y-16807889D01*
X9024944Y-16807889D02*
X9015420Y-16769793D01*
X9015420Y-16769793D02*
X9015420Y-16722174D01*
X9015420Y-16722174D02*
X9024944Y-16684079D01*
X9024944Y-16684079D02*
X9034467Y-16665031D01*
X9034467Y-16665031D02*
X9043991Y-16655508D01*
X9043991Y-16655508D02*
X9063039Y-16645984D01*
X9215420Y-16845984D02*
X9215420Y-16712650D01*
X9215420Y-16731698D02*
X9224944Y-16722174D01*
X9224944Y-16722174D02*
X9243991Y-16712650D01*
X9243991Y-16712650D02*
X9272563Y-16712650D01*
X9272563Y-16712650D02*
X9291610Y-16722174D01*
X9291610Y-16722174D02*
X9301134Y-16741222D01*
X9301134Y-16741222D02*
X9301134Y-16845984D01*
X9301134Y-16741222D02*
X9310658Y-16722174D01*
X9310658Y-16722174D02*
X9329705Y-16712650D01*
X9329705Y-16712650D02*
X9358277Y-16712650D01*
X9358277Y-16712650D02*
X9377325Y-16722174D01*
X9377325Y-16722174D02*
X9386848Y-16741222D01*
X9386848Y-16741222D02*
X9386848Y-16845984D01*
X9482086Y-16845984D02*
X9482086Y-16712650D01*
X9482086Y-16731698D02*
X9491610Y-16722174D01*
X9491610Y-16722174D02*
X9510658Y-16712650D01*
X9510658Y-16712650D02*
X9539229Y-16712650D01*
X9539229Y-16712650D02*
X9558277Y-16722174D01*
X9558277Y-16722174D02*
X9567801Y-16741222D01*
X9567801Y-16741222D02*
X9567801Y-16845984D01*
X9567801Y-16741222D02*
X9577325Y-16722174D01*
X9577325Y-16722174D02*
X9596372Y-16712650D01*
X9596372Y-16712650D02*
X9624944Y-16712650D01*
X9624944Y-16712650D02*
X9643991Y-16722174D01*
X9643991Y-16722174D02*
X9653515Y-16741222D01*
X9653515Y-16741222D02*
X9653515Y-16845984D01*
X10043991Y-16636460D02*
X9872563Y-16893603D01*
X10301134Y-16645984D02*
X10320182Y-16645984D01*
X10320182Y-16645984D02*
X10339229Y-16655508D01*
X10339229Y-16655508D02*
X10348753Y-16665031D01*
X10348753Y-16665031D02*
X10358277Y-16684079D01*
X10358277Y-16684079D02*
X10367801Y-16722174D01*
X10367801Y-16722174D02*
X10367801Y-16769793D01*
X10367801Y-16769793D02*
X10358277Y-16807889D01*
X10358277Y-16807889D02*
X10348753Y-16826936D01*
X10348753Y-16826936D02*
X10339229Y-16836460D01*
X10339229Y-16836460D02*
X10320182Y-16845984D01*
X10320182Y-16845984D02*
X10301134Y-16845984D01*
X10301134Y-16845984D02*
X10282087Y-16836460D01*
X10282087Y-16836460D02*
X10272563Y-16826936D01*
X10272563Y-16826936D02*
X10263039Y-16807889D01*
X10263039Y-16807889D02*
X10253515Y-16769793D01*
X10253515Y-16769793D02*
X10253515Y-16722174D01*
X10253515Y-16722174D02*
X10263039Y-16684079D01*
X10263039Y-16684079D02*
X10272563Y-16665031D01*
X10272563Y-16665031D02*
X10282087Y-16655508D01*
X10282087Y-16655508D02*
X10301134Y-16645984D01*
X10453515Y-16826936D02*
X10463039Y-16836460D01*
X10463039Y-16836460D02*
X10453515Y-16845984D01*
X10453515Y-16845984D02*
X10443991Y-16836460D01*
X10443991Y-16836460D02*
X10453515Y-16826936D01*
X10453515Y-16826936D02*
X10453515Y-16845984D01*
X10653515Y-16845984D02*
X10539229Y-16845984D01*
X10596372Y-16845984D02*
X10596372Y-16645984D01*
X10596372Y-16645984D02*
X10577325Y-16674555D01*
X10577325Y-16674555D02*
X10558277Y-16693603D01*
X10558277Y-16693603D02*
X10539229Y-16703127D01*
X10729706Y-16665031D02*
X10739229Y-16655508D01*
X10739229Y-16655508D02*
X10758277Y-16645984D01*
X10758277Y-16645984D02*
X10805896Y-16645984D01*
X10805896Y-16645984D02*
X10824944Y-16655508D01*
X10824944Y-16655508D02*
X10834468Y-16665031D01*
X10834468Y-16665031D02*
X10843991Y-16684079D01*
X10843991Y-16684079D02*
X10843991Y-16703127D01*
X10843991Y-16703127D02*
X10834468Y-16731698D01*
X10834468Y-16731698D02*
X10720182Y-16845984D01*
X10720182Y-16845984D02*
X10843991Y-16845984D01*
X11015420Y-16645984D02*
X10977325Y-16645984D01*
X10977325Y-16645984D02*
X10958277Y-16655508D01*
X10958277Y-16655508D02*
X10948753Y-16665031D01*
X10948753Y-16665031D02*
X10929706Y-16693603D01*
X10929706Y-16693603D02*
X10920182Y-16731698D01*
X10920182Y-16731698D02*
X10920182Y-16807889D01*
X10920182Y-16807889D02*
X10929706Y-16826936D01*
X10929706Y-16826936D02*
X10939229Y-16836460D01*
X10939229Y-16836460D02*
X10958277Y-16845984D01*
X10958277Y-16845984D02*
X10996372Y-16845984D01*
X10996372Y-16845984D02*
X11015420Y-16836460D01*
X11015420Y-16836460D02*
X11024944Y-16826936D01*
X11024944Y-16826936D02*
X11034468Y-16807889D01*
X11034468Y-16807889D02*
X11034468Y-16760269D01*
X11034468Y-16760269D02*
X11024944Y-16741222D01*
X11024944Y-16741222D02*
X11015420Y-16731698D01*
X11015420Y-16731698D02*
X10996372Y-16722174D01*
X10996372Y-16722174D02*
X10958277Y-16722174D01*
X10958277Y-16722174D02*
X10939229Y-16731698D01*
X10939229Y-16731698D02*
X10929706Y-16741222D01*
X10929706Y-16741222D02*
X10920182Y-16760269D01*
X11158277Y-16645984D02*
X11177325Y-16645984D01*
X11177325Y-16645984D02*
X11196372Y-16655508D01*
X11196372Y-16655508D02*
X11205896Y-16665031D01*
X11205896Y-16665031D02*
X11215420Y-16684079D01*
X11215420Y-16684079D02*
X11224944Y-16722174D01*
X11224944Y-16722174D02*
X11224944Y-16769793D01*
X11224944Y-16769793D02*
X11215420Y-16807889D01*
X11215420Y-16807889D02*
X11205896Y-16826936D01*
X11205896Y-16826936D02*
X11196372Y-16836460D01*
X11196372Y-16836460D02*
X11177325Y-16845984D01*
X11177325Y-16845984D02*
X11158277Y-16845984D01*
X11158277Y-16845984D02*
X11139229Y-16836460D01*
X11139229Y-16836460D02*
X11129706Y-16826936D01*
X11129706Y-16826936D02*
X11120182Y-16807889D01*
X11120182Y-16807889D02*
X11110658Y-16769793D01*
X11110658Y-16769793D02*
X11110658Y-16722174D01*
X11110658Y-16722174D02*
X11120182Y-16684079D01*
X11120182Y-16684079D02*
X11129706Y-16665031D01*
X11129706Y-16665031D02*
X11139229Y-16655508D01*
X11139229Y-16655508D02*
X11158277Y-16645984D01*
X11301134Y-16645984D02*
X11301134Y-16684079D01*
X11377325Y-16645984D02*
X11377325Y-16684079D01*
X11672563Y-16922174D02*
X11663039Y-16912650D01*
X11663039Y-16912650D02*
X11643991Y-16884079D01*
X11643991Y-16884079D02*
X11634468Y-16865031D01*
X11634468Y-16865031D02*
X11624944Y-16836460D01*
X11624944Y-16836460D02*
X11615420Y-16788841D01*
X11615420Y-16788841D02*
X11615420Y-16750746D01*
X11615420Y-16750746D02*
X11624944Y-16703127D01*
X11624944Y-16703127D02*
X11634468Y-16674555D01*
X11634468Y-16674555D02*
X11643991Y-16655508D01*
X11643991Y-16655508D02*
X11663039Y-16626936D01*
X11663039Y-16626936D02*
X11672563Y-16617412D01*
X11739229Y-16665031D02*
X11748753Y-16655508D01*
X11748753Y-16655508D02*
X11767801Y-16645984D01*
X11767801Y-16645984D02*
X11815420Y-16645984D01*
X11815420Y-16645984D02*
X11834468Y-16655508D01*
X11834468Y-16655508D02*
X11843991Y-16665031D01*
X11843991Y-16665031D02*
X11853515Y-16684079D01*
X11853515Y-16684079D02*
X11853515Y-16703127D01*
X11853515Y-16703127D02*
X11843991Y-16731698D01*
X11843991Y-16731698D02*
X11729706Y-16845984D01*
X11729706Y-16845984D02*
X11853515Y-16845984D01*
X12091610Y-16845984D02*
X12091610Y-16645984D01*
X12177325Y-16845984D02*
X12177325Y-16741222D01*
X12177325Y-16741222D02*
X12167801Y-16722174D01*
X12167801Y-16722174D02*
X12148753Y-16712650D01*
X12148753Y-16712650D02*
X12120182Y-16712650D01*
X12120182Y-16712650D02*
X12101134Y-16722174D01*
X12101134Y-16722174D02*
X12091610Y-16731698D01*
X12301134Y-16845984D02*
X12282087Y-16836460D01*
X12282087Y-16836460D02*
X12272563Y-16826936D01*
X12272563Y-16826936D02*
X12263039Y-16807889D01*
X12263039Y-16807889D02*
X12263039Y-16750746D01*
X12263039Y-16750746D02*
X12272563Y-16731698D01*
X12272563Y-16731698D02*
X12282087Y-16722174D01*
X12282087Y-16722174D02*
X12301134Y-16712650D01*
X12301134Y-16712650D02*
X12329706Y-16712650D01*
X12329706Y-16712650D02*
X12348753Y-16722174D01*
X12348753Y-16722174D02*
X12358277Y-16731698D01*
X12358277Y-16731698D02*
X12367801Y-16750746D01*
X12367801Y-16750746D02*
X12367801Y-16807889D01*
X12367801Y-16807889D02*
X12358277Y-16826936D01*
X12358277Y-16826936D02*
X12348753Y-16836460D01*
X12348753Y-16836460D02*
X12329706Y-16845984D01*
X12329706Y-16845984D02*
X12301134Y-16845984D01*
X12482087Y-16845984D02*
X12463039Y-16836460D01*
X12463039Y-16836460D02*
X12453515Y-16817412D01*
X12453515Y-16817412D02*
X12453515Y-16645984D01*
X12634468Y-16836460D02*
X12615420Y-16845984D01*
X12615420Y-16845984D02*
X12577325Y-16845984D01*
X12577325Y-16845984D02*
X12558277Y-16836460D01*
X12558277Y-16836460D02*
X12548753Y-16817412D01*
X12548753Y-16817412D02*
X12548753Y-16741222D01*
X12548753Y-16741222D02*
X12558277Y-16722174D01*
X12558277Y-16722174D02*
X12577325Y-16712650D01*
X12577325Y-16712650D02*
X12615420Y-16712650D01*
X12615420Y-16712650D02*
X12634468Y-16722174D01*
X12634468Y-16722174D02*
X12643991Y-16741222D01*
X12643991Y-16741222D02*
X12643991Y-16760269D01*
X12643991Y-16760269D02*
X12548753Y-16779317D01*
X12720182Y-16836460D02*
X12739230Y-16845984D01*
X12739230Y-16845984D02*
X12777325Y-16845984D01*
X12777325Y-16845984D02*
X12796372Y-16836460D01*
X12796372Y-16836460D02*
X12805896Y-16817412D01*
X12805896Y-16817412D02*
X12805896Y-16807889D01*
X12805896Y-16807889D02*
X12796372Y-16788841D01*
X12796372Y-16788841D02*
X12777325Y-16779317D01*
X12777325Y-16779317D02*
X12748753Y-16779317D01*
X12748753Y-16779317D02*
X12729706Y-16769793D01*
X12729706Y-16769793D02*
X12720182Y-16750746D01*
X12720182Y-16750746D02*
X12720182Y-16741222D01*
X12720182Y-16741222D02*
X12729706Y-16722174D01*
X12729706Y-16722174D02*
X12748753Y-16712650D01*
X12748753Y-16712650D02*
X12777325Y-16712650D01*
X12777325Y-16712650D02*
X12796372Y-16722174D01*
X12872563Y-16922174D02*
X12882087Y-16912650D01*
X12882087Y-16912650D02*
X12901134Y-16884079D01*
X12901134Y-16884079D02*
X12910658Y-16865031D01*
X12910658Y-16865031D02*
X12920182Y-16836460D01*
X12920182Y-16836460D02*
X12929706Y-16788841D01*
X12929706Y-16788841D02*
X12929706Y-16750746D01*
X12929706Y-16750746D02*
X12920182Y-16703127D01*
X12920182Y-16703127D02*
X12910658Y-16674555D01*
X12910658Y-16674555D02*
X12901134Y-16655508D01*
X12901134Y-16655508D02*
X12882087Y-16626936D01*
X12882087Y-16626936D02*
X12872563Y-16617412D01*
M02*
