G04 #@! TF.GenerationSoftware,KiCad,Pcbnew,9.0.4*
G04 #@! TF.CreationDate,2025-09-17T21:50:00+02:00*
G04 #@! TF.ProjectId,Home-Ambient,486f6d65-2d41-46d6-9269-656e742e6b69,rev?*
G04 #@! TF.SameCoordinates,Original*
G04 #@! TF.FileFunction,Soldermask,Bot*
G04 #@! TF.FilePolarity,Negative*
%FSLAX46Y46*%
G04 Gerber Fmt 4.6, Leading zero omitted, Abs format (unit mm)*
G04 Created by KiCad (PCBNEW 9.0.4) date 2025-09-17 21:50:00*
%MOMM*%
%LPD*%
G01*
G04 APERTURE LIST*
G04 Aperture macros list*
%AMRoundRect*
0 Rectangle with rounded corners*
0 $1 Rounding radius*
0 $2 $3 $4 $5 $6 $7 $8 $9 X,Y pos of 4 corners*
0 Add a 4 corners polygon primitive as box body*
4,1,4,$2,$3,$4,$5,$6,$7,$8,$9,$2,$3,0*
0 Add four circle primitives for the rounded corners*
1,1,$1+$1,$2,$3*
1,1,$1+$1,$4,$5*
1,1,$1+$1,$6,$7*
1,1,$1+$1,$8,$9*
0 Add four rect primitives between the rounded corners*
20,1,$1+$1,$2,$3,$4,$5,0*
20,1,$1+$1,$4,$5,$6,$7,0*
20,1,$1+$1,$6,$7,$8,$9,0*
20,1,$1+$1,$8,$9,$2,$3,0*%
G04 Aperture macros list end*
%ADD10C,2.000000*%
%ADD11C,3.200000*%
%ADD12C,3.600000*%
%ADD13C,6.400000*%
%ADD14R,1.700000X1.700000*%
%ADD15C,1.700000*%
%ADD16R,3.960000X1.980000*%
%ADD17O,3.960000X1.980000*%
%ADD18RoundRect,0.250000X0.620000X-0.620000X0.620000X0.620000X-0.620000X0.620000X-0.620000X-0.620000X0*%
%ADD19C,1.740000*%
%ADD20R,1.950000X1.950000*%
%ADD21C,1.950000*%
%ADD22C,2.100000*%
%ADD23RoundRect,0.250000X-1.450000X0.400000X-1.450000X-0.400000X1.450000X-0.400000X1.450000X0.400000X0*%
%ADD24C,1.950000*%
G04 APERTURE END LIST*
G36*
X143764000Y-96520000D02*
G01*
X157988000Y-96520000D01*
X157988000Y-98552000D01*
X143764000Y-98552000D01*
X143764000Y-96520000D01*
G37*
D10*
X144780000Y-84836000D03*
X144780000Y-79756000D03*
D11*
X196000000Y-65000000D03*
D12*
X85000000Y-136000000D03*
D13*
X85000000Y-136000000D03*
D14*
X120650000Y-87630000D03*
D15*
X118110000Y-87630000D03*
X120650000Y-85090000D03*
X118110000Y-85090000D03*
X120650000Y-82550000D03*
X118110000Y-82550000D03*
X120650000Y-80010000D03*
X118110000Y-80010000D03*
D10*
X153416000Y-82550000D03*
X153416000Y-67310000D03*
X181356000Y-67310000D03*
X181356000Y-74930000D03*
D14*
X105410000Y-120396000D03*
D15*
X102870000Y-120396000D03*
X100330000Y-120396000D03*
X97790000Y-120396000D03*
X95250000Y-120396000D03*
X92710000Y-120396000D03*
D14*
X88900000Y-71120000D03*
D15*
X88900000Y-73660000D03*
X88900000Y-76200000D03*
X88900000Y-78740000D03*
X88900000Y-81280000D03*
X88900000Y-83820000D03*
X88900000Y-86360000D03*
X88900000Y-88900000D03*
X88900000Y-91440000D03*
X88900000Y-93980000D03*
X88900000Y-96520000D03*
X88900000Y-99060000D03*
X88900000Y-101600000D03*
X88900000Y-104140000D03*
X88900000Y-106680000D03*
D12*
X196000000Y-136000000D03*
D13*
X196000000Y-136000000D03*
D11*
X85000000Y-65000000D03*
D16*
X144780000Y-92570000D03*
D17*
X144780000Y-97570000D03*
X144780000Y-102570000D03*
X144780000Y-107570000D03*
D18*
X177304000Y-123190000D03*
D19*
X177304000Y-120650000D03*
D14*
X86360000Y-71120000D03*
D15*
X86360000Y-73660000D03*
X86360000Y-76200000D03*
X86360000Y-78740000D03*
X86360000Y-81280000D03*
X86360000Y-83820000D03*
X86360000Y-86360000D03*
X86360000Y-88900000D03*
X86360000Y-91440000D03*
X86360000Y-93980000D03*
X86360000Y-96520000D03*
X86360000Y-99060000D03*
X86360000Y-101600000D03*
X86360000Y-104140000D03*
X86360000Y-106680000D03*
D14*
X111760000Y-71120000D03*
D15*
X111760000Y-73660000D03*
X111760000Y-76200000D03*
X111760000Y-78740000D03*
X111760000Y-81280000D03*
X111760000Y-83820000D03*
X111760000Y-86360000D03*
X111760000Y-88900000D03*
X111760000Y-91440000D03*
X111760000Y-93980000D03*
X111760000Y-96520000D03*
X111760000Y-99060000D03*
X111760000Y-101600000D03*
X111760000Y-104140000D03*
X111760000Y-106680000D03*
D20*
X178000000Y-95000000D03*
D21*
X178000000Y-107000000D03*
D22*
X180000000Y-101000000D03*
D21*
X165800000Y-95000000D03*
X165800000Y-107000000D03*
D23*
X156210000Y-97851000D03*
X156210000Y-102301000D03*
D24*
X171958000Y-97028000D02*
X171958000Y-92964000D01*
X180000000Y-101000000D02*
X175930000Y-101000000D01*
X167640000Y-88646000D02*
X162070051Y-88646000D01*
X152596677Y-92570000D02*
X144780000Y-92570000D01*
X159004000Y-89916000D02*
G75*
G02*
X152596677Y-92569991I-6407300J6407300D01*
G01*
X171958000Y-92964000D02*
G75*
G03*
X167640000Y-88646000I-4318000J0D01*
G01*
X162070051Y-88646000D02*
G75*
G03*
X159004014Y-89916014I49J-4336100D01*
G01*
X175930000Y-101000000D02*
G75*
G02*
X171958000Y-97028000I0J3972000D01*
G01*
X144780000Y-107570000D02*
X165230000Y-107570000D01*
X144780000Y-102570000D02*
X159097003Y-102570000D01*
X162052000Y-101346000D02*
X163962936Y-99435064D01*
X163962936Y-99435064D02*
G75*
G03*
X165800008Y-95000000I-4435036J4435064D01*
G01*
X159097003Y-102570000D02*
G75*
G03*
X162051999Y-101345999I-3J4179000D01*
G01*
M02*
