%TF.GenerationSoftware,KiCad,Pcbnew,9.0.4*%
%TF.CreationDate,2025-09-17T21:50:40+02:00*%
%TF.ProjectId,Home-Ambient,486f6d65-2d41-46d6-9269-656e742e6b69,rev?*%
%TF.SameCoordinates,Original*%
%TF.FileFunction,Drillmap*%
%TF.FilePolarity,Positive*%
%FSLAX45Y45*%
G04 Gerber Fmt 4.5, Leading zero omitted, Abs format (unit mm)*
G04 Created by KiCad (PCBNEW 9.0.4) date 2025-09-17 21:50:40*
%MOMM*%
%LPD*%
G01*
G04 APERTURE LIST*
%ADD10C,0.050000*%
%ADD11C,0.200000*%
%ADD12C,0.320000*%
G04 APERTURE END LIST*
D10*
X13500000Y-10900000D02*
G75*
G02*
X13400000Y-11000000I-100000J0D01*
G01*
X12700000Y-9000000D02*
X13400000Y-9000000D01*
X17650000Y-10350000D02*
X18200000Y-10350000D01*
X13400000Y-11000000D02*
X12700000Y-11000000D01*
X17550000Y-9500000D02*
X17550000Y-9400000D01*
X18350000Y-10300000D02*
G75*
G02*
X18200000Y-10450000I-150000J0D01*
G01*
X18250000Y-10300000D02*
G75*
G02*
X18200000Y-10350000I-50000J0D01*
G01*
X17800000Y-9750000D02*
X18200000Y-9750000D01*
X18200000Y-9850000D02*
G75*
G02*
X18250000Y-9900000I0J-50000D01*
G01*
X14200000Y-11100000D02*
X16750000Y-11100000D01*
X17800000Y-9750000D02*
G75*
G02*
X17550000Y-9500000I0J250000D01*
G01*
X17450000Y-9400000D02*
X17450000Y-9500000D01*
X13400000Y-9000000D02*
G75*
G02*
X13500000Y-9100000I0J-100000D01*
G01*
X17800000Y-9850000D02*
G75*
G02*
X17450000Y-9500000I0J350000D01*
G01*
X17800000Y-9850000D02*
X18200000Y-9850000D01*
X13500000Y-9100000D02*
X13500000Y-10900000D01*
X12600000Y-9100000D02*
G75*
G02*
X12700000Y-9000000I100000J0D01*
G01*
X17450000Y-9400000D02*
G75*
G02*
X17550000Y-9400000I50000J0D01*
G01*
X18350000Y-10300000D02*
X18350000Y-9900000D01*
X14200000Y-11200000D02*
G75*
G02*
X14200000Y-11100000I0J50000D01*
G01*
X12600000Y-10900000D02*
X12600000Y-9100000D01*
X12700000Y-11000000D02*
G75*
G02*
X12600000Y-10900000I0J100000D01*
G01*
X18200000Y-10450000D02*
X17650000Y-10450000D01*
X17650000Y-10450000D02*
G75*
G02*
X17650000Y-10350000I0J50000D01*
G01*
X8100000Y-6100000D02*
X20000000Y-6100000D01*
X20000000Y-14000000D01*
X8100000Y-14000000D01*
X8100000Y-6100000D01*
X16750000Y-11200000D02*
X14200000Y-11200000D01*
X16750000Y-11100000D02*
G75*
G02*
X16750000Y-11200000I0J-50000D01*
G01*
X18200000Y-9750000D02*
G75*
G02*
X18350000Y-9900000I0J-150000D01*
G01*
X18250000Y-9900000D02*
X18250000Y-10300000D01*
D11*
D12*
X8340000Y-6340000D02*
X8660000Y-6660000D01*
X8660000Y-6340000D02*
X8340000Y-6660000D01*
X19440000Y-6340000D02*
X19760000Y-6660000D01*
X19760000Y-6340000D02*
X19440000Y-6660000D01*
D11*
X8358277Y-14313984D02*
X8358277Y-14113984D01*
X8358277Y-14113984D02*
X8405896Y-14113984D01*
X8405896Y-14113984D02*
X8434467Y-14123508D01*
X8434467Y-14123508D02*
X8453515Y-14142555D01*
X8453515Y-14142555D02*
X8463039Y-14161603D01*
X8463039Y-14161603D02*
X8472563Y-14199698D01*
X8472563Y-14199698D02*
X8472563Y-14228269D01*
X8472563Y-14228269D02*
X8463039Y-14266365D01*
X8463039Y-14266365D02*
X8453515Y-14285412D01*
X8453515Y-14285412D02*
X8434467Y-14304460D01*
X8434467Y-14304460D02*
X8405896Y-14313984D01*
X8405896Y-14313984D02*
X8358277Y-14313984D01*
X8558277Y-14313984D02*
X8558277Y-14180650D01*
X8558277Y-14218746D02*
X8567801Y-14199698D01*
X8567801Y-14199698D02*
X8577324Y-14190174D01*
X8577324Y-14190174D02*
X8596372Y-14180650D01*
X8596372Y-14180650D02*
X8615420Y-14180650D01*
X8682086Y-14313984D02*
X8682086Y-14180650D01*
X8682086Y-14113984D02*
X8672563Y-14123508D01*
X8672563Y-14123508D02*
X8682086Y-14133031D01*
X8682086Y-14133031D02*
X8691610Y-14123508D01*
X8691610Y-14123508D02*
X8682086Y-14113984D01*
X8682086Y-14113984D02*
X8682086Y-14133031D01*
X8805896Y-14313984D02*
X8786848Y-14304460D01*
X8786848Y-14304460D02*
X8777324Y-14285412D01*
X8777324Y-14285412D02*
X8777324Y-14113984D01*
X8910658Y-14313984D02*
X8891610Y-14304460D01*
X8891610Y-14304460D02*
X8882086Y-14285412D01*
X8882086Y-14285412D02*
X8882086Y-14113984D01*
X9139229Y-14313984D02*
X9139229Y-14113984D01*
X9139229Y-14113984D02*
X9205896Y-14256841D01*
X9205896Y-14256841D02*
X9272563Y-14113984D01*
X9272563Y-14113984D02*
X9272563Y-14313984D01*
X9453515Y-14313984D02*
X9453515Y-14209222D01*
X9453515Y-14209222D02*
X9443991Y-14190174D01*
X9443991Y-14190174D02*
X9424944Y-14180650D01*
X9424944Y-14180650D02*
X9386848Y-14180650D01*
X9386848Y-14180650D02*
X9367801Y-14190174D01*
X9453515Y-14304460D02*
X9434467Y-14313984D01*
X9434467Y-14313984D02*
X9386848Y-14313984D01*
X9386848Y-14313984D02*
X9367801Y-14304460D01*
X9367801Y-14304460D02*
X9358277Y-14285412D01*
X9358277Y-14285412D02*
X9358277Y-14266365D01*
X9358277Y-14266365D02*
X9367801Y-14247317D01*
X9367801Y-14247317D02*
X9386848Y-14237793D01*
X9386848Y-14237793D02*
X9434467Y-14237793D01*
X9434467Y-14237793D02*
X9453515Y-14228269D01*
X9548753Y-14180650D02*
X9548753Y-14380650D01*
X9548753Y-14190174D02*
X9567801Y-14180650D01*
X9567801Y-14180650D02*
X9605896Y-14180650D01*
X9605896Y-14180650D02*
X9624944Y-14190174D01*
X9624944Y-14190174D02*
X9634467Y-14199698D01*
X9634467Y-14199698D02*
X9643991Y-14218746D01*
X9643991Y-14218746D02*
X9643991Y-14275888D01*
X9643991Y-14275888D02*
X9634467Y-14294936D01*
X9634467Y-14294936D02*
X9624944Y-14304460D01*
X9624944Y-14304460D02*
X9605896Y-14313984D01*
X9605896Y-14313984D02*
X9567801Y-14313984D01*
X9567801Y-14313984D02*
X9548753Y-14304460D01*
X9729705Y-14294936D02*
X9739229Y-14304460D01*
X9739229Y-14304460D02*
X9729705Y-14313984D01*
X9729705Y-14313984D02*
X9720182Y-14304460D01*
X9720182Y-14304460D02*
X9729705Y-14294936D01*
X9729705Y-14294936D02*
X9729705Y-14313984D01*
X9729705Y-14190174D02*
X9739229Y-14199698D01*
X9739229Y-14199698D02*
X9729705Y-14209222D01*
X9729705Y-14209222D02*
X9720182Y-14199698D01*
X9720182Y-14199698D02*
X9729705Y-14190174D01*
X9729705Y-14190174D02*
X9729705Y-14209222D01*
X7897500Y-14542500D02*
X8097500Y-14742500D01*
X8097500Y-14542500D02*
X7897500Y-14742500D01*
X8339229Y-14533984D02*
X8463039Y-14533984D01*
X8463039Y-14533984D02*
X8396372Y-14610174D01*
X8396372Y-14610174D02*
X8424944Y-14610174D01*
X8424944Y-14610174D02*
X8443991Y-14619698D01*
X8443991Y-14619698D02*
X8453515Y-14629222D01*
X8453515Y-14629222D02*
X8463039Y-14648269D01*
X8463039Y-14648269D02*
X8463039Y-14695888D01*
X8463039Y-14695888D02*
X8453515Y-14714936D01*
X8453515Y-14714936D02*
X8443991Y-14724460D01*
X8443991Y-14724460D02*
X8424944Y-14733984D01*
X8424944Y-14733984D02*
X8367801Y-14733984D01*
X8367801Y-14733984D02*
X8348753Y-14724460D01*
X8348753Y-14724460D02*
X8339229Y-14714936D01*
X8548753Y-14714936D02*
X8558277Y-14724460D01*
X8558277Y-14724460D02*
X8548753Y-14733984D01*
X8548753Y-14733984D02*
X8539229Y-14724460D01*
X8539229Y-14724460D02*
X8548753Y-14714936D01*
X8548753Y-14714936D02*
X8548753Y-14733984D01*
X8634467Y-14553031D02*
X8643991Y-14543508D01*
X8643991Y-14543508D02*
X8663039Y-14533984D01*
X8663039Y-14533984D02*
X8710658Y-14533984D01*
X8710658Y-14533984D02*
X8729705Y-14543508D01*
X8729705Y-14543508D02*
X8739229Y-14553031D01*
X8739229Y-14553031D02*
X8748753Y-14572079D01*
X8748753Y-14572079D02*
X8748753Y-14591127D01*
X8748753Y-14591127D02*
X8739229Y-14619698D01*
X8739229Y-14619698D02*
X8624944Y-14733984D01*
X8624944Y-14733984D02*
X8748753Y-14733984D01*
X8872563Y-14533984D02*
X8891610Y-14533984D01*
X8891610Y-14533984D02*
X8910658Y-14543508D01*
X8910658Y-14543508D02*
X8920182Y-14553031D01*
X8920182Y-14553031D02*
X8929705Y-14572079D01*
X8929705Y-14572079D02*
X8939229Y-14610174D01*
X8939229Y-14610174D02*
X8939229Y-14657793D01*
X8939229Y-14657793D02*
X8929705Y-14695888D01*
X8929705Y-14695888D02*
X8920182Y-14714936D01*
X8920182Y-14714936D02*
X8910658Y-14724460D01*
X8910658Y-14724460D02*
X8891610Y-14733984D01*
X8891610Y-14733984D02*
X8872563Y-14733984D01*
X8872563Y-14733984D02*
X8853515Y-14724460D01*
X8853515Y-14724460D02*
X8843991Y-14714936D01*
X8843991Y-14714936D02*
X8834467Y-14695888D01*
X8834467Y-14695888D02*
X8824944Y-14657793D01*
X8824944Y-14657793D02*
X8824944Y-14610174D01*
X8824944Y-14610174D02*
X8834467Y-14572079D01*
X8834467Y-14572079D02*
X8843991Y-14553031D01*
X8843991Y-14553031D02*
X8853515Y-14543508D01*
X8853515Y-14543508D02*
X8872563Y-14533984D01*
X9063039Y-14533984D02*
X9082086Y-14533984D01*
X9082086Y-14533984D02*
X9101134Y-14543508D01*
X9101134Y-14543508D02*
X9110658Y-14553031D01*
X9110658Y-14553031D02*
X9120182Y-14572079D01*
X9120182Y-14572079D02*
X9129705Y-14610174D01*
X9129705Y-14610174D02*
X9129705Y-14657793D01*
X9129705Y-14657793D02*
X9120182Y-14695888D01*
X9120182Y-14695888D02*
X9110658Y-14714936D01*
X9110658Y-14714936D02*
X9101134Y-14724460D01*
X9101134Y-14724460D02*
X9082086Y-14733984D01*
X9082086Y-14733984D02*
X9063039Y-14733984D01*
X9063039Y-14733984D02*
X9043991Y-14724460D01*
X9043991Y-14724460D02*
X9034467Y-14714936D01*
X9034467Y-14714936D02*
X9024944Y-14695888D01*
X9024944Y-14695888D02*
X9015420Y-14657793D01*
X9015420Y-14657793D02*
X9015420Y-14610174D01*
X9015420Y-14610174D02*
X9024944Y-14572079D01*
X9024944Y-14572079D02*
X9034467Y-14553031D01*
X9034467Y-14553031D02*
X9043991Y-14543508D01*
X9043991Y-14543508D02*
X9063039Y-14533984D01*
X9215420Y-14733984D02*
X9215420Y-14600650D01*
X9215420Y-14619698D02*
X9224944Y-14610174D01*
X9224944Y-14610174D02*
X9243991Y-14600650D01*
X9243991Y-14600650D02*
X9272563Y-14600650D01*
X9272563Y-14600650D02*
X9291610Y-14610174D01*
X9291610Y-14610174D02*
X9301134Y-14629222D01*
X9301134Y-14629222D02*
X9301134Y-14733984D01*
X9301134Y-14629222D02*
X9310658Y-14610174D01*
X9310658Y-14610174D02*
X9329705Y-14600650D01*
X9329705Y-14600650D02*
X9358277Y-14600650D01*
X9358277Y-14600650D02*
X9377325Y-14610174D01*
X9377325Y-14610174D02*
X9386848Y-14629222D01*
X9386848Y-14629222D02*
X9386848Y-14733984D01*
X9482086Y-14733984D02*
X9482086Y-14600650D01*
X9482086Y-14619698D02*
X9491610Y-14610174D01*
X9491610Y-14610174D02*
X9510658Y-14600650D01*
X9510658Y-14600650D02*
X9539229Y-14600650D01*
X9539229Y-14600650D02*
X9558277Y-14610174D01*
X9558277Y-14610174D02*
X9567801Y-14629222D01*
X9567801Y-14629222D02*
X9567801Y-14733984D01*
X9567801Y-14629222D02*
X9577325Y-14610174D01*
X9577325Y-14610174D02*
X9596372Y-14600650D01*
X9596372Y-14600650D02*
X9624944Y-14600650D01*
X9624944Y-14600650D02*
X9643991Y-14610174D01*
X9643991Y-14610174D02*
X9653515Y-14629222D01*
X9653515Y-14629222D02*
X9653515Y-14733984D01*
X10043991Y-14524460D02*
X9872563Y-14781603D01*
X10301134Y-14533984D02*
X10320182Y-14533984D01*
X10320182Y-14533984D02*
X10339229Y-14543508D01*
X10339229Y-14543508D02*
X10348753Y-14553031D01*
X10348753Y-14553031D02*
X10358277Y-14572079D01*
X10358277Y-14572079D02*
X10367801Y-14610174D01*
X10367801Y-14610174D02*
X10367801Y-14657793D01*
X10367801Y-14657793D02*
X10358277Y-14695888D01*
X10358277Y-14695888D02*
X10348753Y-14714936D01*
X10348753Y-14714936D02*
X10339229Y-14724460D01*
X10339229Y-14724460D02*
X10320182Y-14733984D01*
X10320182Y-14733984D02*
X10301134Y-14733984D01*
X10301134Y-14733984D02*
X10282087Y-14724460D01*
X10282087Y-14724460D02*
X10272563Y-14714936D01*
X10272563Y-14714936D02*
X10263039Y-14695888D01*
X10263039Y-14695888D02*
X10253515Y-14657793D01*
X10253515Y-14657793D02*
X10253515Y-14610174D01*
X10253515Y-14610174D02*
X10263039Y-14572079D01*
X10263039Y-14572079D02*
X10272563Y-14553031D01*
X10272563Y-14553031D02*
X10282087Y-14543508D01*
X10282087Y-14543508D02*
X10301134Y-14533984D01*
X10453515Y-14714936D02*
X10463039Y-14724460D01*
X10463039Y-14724460D02*
X10453515Y-14733984D01*
X10453515Y-14733984D02*
X10443991Y-14724460D01*
X10443991Y-14724460D02*
X10453515Y-14714936D01*
X10453515Y-14714936D02*
X10453515Y-14733984D01*
X10653515Y-14733984D02*
X10539229Y-14733984D01*
X10596372Y-14733984D02*
X10596372Y-14533984D01*
X10596372Y-14533984D02*
X10577325Y-14562555D01*
X10577325Y-14562555D02*
X10558277Y-14581603D01*
X10558277Y-14581603D02*
X10539229Y-14591127D01*
X10729706Y-14553031D02*
X10739229Y-14543508D01*
X10739229Y-14543508D02*
X10758277Y-14533984D01*
X10758277Y-14533984D02*
X10805896Y-14533984D01*
X10805896Y-14533984D02*
X10824944Y-14543508D01*
X10824944Y-14543508D02*
X10834468Y-14553031D01*
X10834468Y-14553031D02*
X10843991Y-14572079D01*
X10843991Y-14572079D02*
X10843991Y-14591127D01*
X10843991Y-14591127D02*
X10834468Y-14619698D01*
X10834468Y-14619698D02*
X10720182Y-14733984D01*
X10720182Y-14733984D02*
X10843991Y-14733984D01*
X11015420Y-14533984D02*
X10977325Y-14533984D01*
X10977325Y-14533984D02*
X10958277Y-14543508D01*
X10958277Y-14543508D02*
X10948753Y-14553031D01*
X10948753Y-14553031D02*
X10929706Y-14581603D01*
X10929706Y-14581603D02*
X10920182Y-14619698D01*
X10920182Y-14619698D02*
X10920182Y-14695888D01*
X10920182Y-14695888D02*
X10929706Y-14714936D01*
X10929706Y-14714936D02*
X10939229Y-14724460D01*
X10939229Y-14724460D02*
X10958277Y-14733984D01*
X10958277Y-14733984D02*
X10996372Y-14733984D01*
X10996372Y-14733984D02*
X11015420Y-14724460D01*
X11015420Y-14724460D02*
X11024944Y-14714936D01*
X11024944Y-14714936D02*
X11034468Y-14695888D01*
X11034468Y-14695888D02*
X11034468Y-14648269D01*
X11034468Y-14648269D02*
X11024944Y-14629222D01*
X11024944Y-14629222D02*
X11015420Y-14619698D01*
X11015420Y-14619698D02*
X10996372Y-14610174D01*
X10996372Y-14610174D02*
X10958277Y-14610174D01*
X10958277Y-14610174D02*
X10939229Y-14619698D01*
X10939229Y-14619698D02*
X10929706Y-14629222D01*
X10929706Y-14629222D02*
X10920182Y-14648269D01*
X11158277Y-14533984D02*
X11177325Y-14533984D01*
X11177325Y-14533984D02*
X11196372Y-14543508D01*
X11196372Y-14543508D02*
X11205896Y-14553031D01*
X11205896Y-14553031D02*
X11215420Y-14572079D01*
X11215420Y-14572079D02*
X11224944Y-14610174D01*
X11224944Y-14610174D02*
X11224944Y-14657793D01*
X11224944Y-14657793D02*
X11215420Y-14695888D01*
X11215420Y-14695888D02*
X11205896Y-14714936D01*
X11205896Y-14714936D02*
X11196372Y-14724460D01*
X11196372Y-14724460D02*
X11177325Y-14733984D01*
X11177325Y-14733984D02*
X11158277Y-14733984D01*
X11158277Y-14733984D02*
X11139229Y-14724460D01*
X11139229Y-14724460D02*
X11129706Y-14714936D01*
X11129706Y-14714936D02*
X11120182Y-14695888D01*
X11120182Y-14695888D02*
X11110658Y-14657793D01*
X11110658Y-14657793D02*
X11110658Y-14610174D01*
X11110658Y-14610174D02*
X11120182Y-14572079D01*
X11120182Y-14572079D02*
X11129706Y-14553031D01*
X11129706Y-14553031D02*
X11139229Y-14543508D01*
X11139229Y-14543508D02*
X11158277Y-14533984D01*
X11301134Y-14533984D02*
X11301134Y-14572079D01*
X11377325Y-14533984D02*
X11377325Y-14572079D01*
X11672563Y-14810174D02*
X11663039Y-14800650D01*
X11663039Y-14800650D02*
X11643991Y-14772079D01*
X11643991Y-14772079D02*
X11634468Y-14753031D01*
X11634468Y-14753031D02*
X11624944Y-14724460D01*
X11624944Y-14724460D02*
X11615420Y-14676841D01*
X11615420Y-14676841D02*
X11615420Y-14638746D01*
X11615420Y-14638746D02*
X11624944Y-14591127D01*
X11624944Y-14591127D02*
X11634468Y-14562555D01*
X11634468Y-14562555D02*
X11643991Y-14543508D01*
X11643991Y-14543508D02*
X11663039Y-14514936D01*
X11663039Y-14514936D02*
X11672563Y-14505412D01*
X11739229Y-14553031D02*
X11748753Y-14543508D01*
X11748753Y-14543508D02*
X11767801Y-14533984D01*
X11767801Y-14533984D02*
X11815420Y-14533984D01*
X11815420Y-14533984D02*
X11834468Y-14543508D01*
X11834468Y-14543508D02*
X11843991Y-14553031D01*
X11843991Y-14553031D02*
X11853515Y-14572079D01*
X11853515Y-14572079D02*
X11853515Y-14591127D01*
X11853515Y-14591127D02*
X11843991Y-14619698D01*
X11843991Y-14619698D02*
X11729706Y-14733984D01*
X11729706Y-14733984D02*
X11853515Y-14733984D01*
X12091610Y-14733984D02*
X12091610Y-14533984D01*
X12177325Y-14733984D02*
X12177325Y-14629222D01*
X12177325Y-14629222D02*
X12167801Y-14610174D01*
X12167801Y-14610174D02*
X12148753Y-14600650D01*
X12148753Y-14600650D02*
X12120182Y-14600650D01*
X12120182Y-14600650D02*
X12101134Y-14610174D01*
X12101134Y-14610174D02*
X12091610Y-14619698D01*
X12301134Y-14733984D02*
X12282087Y-14724460D01*
X12282087Y-14724460D02*
X12272563Y-14714936D01*
X12272563Y-14714936D02*
X12263039Y-14695888D01*
X12263039Y-14695888D02*
X12263039Y-14638746D01*
X12263039Y-14638746D02*
X12272563Y-14619698D01*
X12272563Y-14619698D02*
X12282087Y-14610174D01*
X12282087Y-14610174D02*
X12301134Y-14600650D01*
X12301134Y-14600650D02*
X12329706Y-14600650D01*
X12329706Y-14600650D02*
X12348753Y-14610174D01*
X12348753Y-14610174D02*
X12358277Y-14619698D01*
X12358277Y-14619698D02*
X12367801Y-14638746D01*
X12367801Y-14638746D02*
X12367801Y-14695888D01*
X12367801Y-14695888D02*
X12358277Y-14714936D01*
X12358277Y-14714936D02*
X12348753Y-14724460D01*
X12348753Y-14724460D02*
X12329706Y-14733984D01*
X12329706Y-14733984D02*
X12301134Y-14733984D01*
X12482087Y-14733984D02*
X12463039Y-14724460D01*
X12463039Y-14724460D02*
X12453515Y-14705412D01*
X12453515Y-14705412D02*
X12453515Y-14533984D01*
X12634468Y-14724460D02*
X12615420Y-14733984D01*
X12615420Y-14733984D02*
X12577325Y-14733984D01*
X12577325Y-14733984D02*
X12558277Y-14724460D01*
X12558277Y-14724460D02*
X12548753Y-14705412D01*
X12548753Y-14705412D02*
X12548753Y-14629222D01*
X12548753Y-14629222D02*
X12558277Y-14610174D01*
X12558277Y-14610174D02*
X12577325Y-14600650D01*
X12577325Y-14600650D02*
X12615420Y-14600650D01*
X12615420Y-14600650D02*
X12634468Y-14610174D01*
X12634468Y-14610174D02*
X12643991Y-14629222D01*
X12643991Y-14629222D02*
X12643991Y-14648269D01*
X12643991Y-14648269D02*
X12548753Y-14667317D01*
X12720182Y-14724460D02*
X12739230Y-14733984D01*
X12739230Y-14733984D02*
X12777325Y-14733984D01*
X12777325Y-14733984D02*
X12796372Y-14724460D01*
X12796372Y-14724460D02*
X12805896Y-14705412D01*
X12805896Y-14705412D02*
X12805896Y-14695888D01*
X12805896Y-14695888D02*
X12796372Y-14676841D01*
X12796372Y-14676841D02*
X12777325Y-14667317D01*
X12777325Y-14667317D02*
X12748753Y-14667317D01*
X12748753Y-14667317D02*
X12729706Y-14657793D01*
X12729706Y-14657793D02*
X12720182Y-14638746D01*
X12720182Y-14638746D02*
X12720182Y-14629222D01*
X12720182Y-14629222D02*
X12729706Y-14610174D01*
X12729706Y-14610174D02*
X12748753Y-14600650D01*
X12748753Y-14600650D02*
X12777325Y-14600650D01*
X12777325Y-14600650D02*
X12796372Y-14610174D01*
X12872563Y-14810174D02*
X12882087Y-14800650D01*
X12882087Y-14800650D02*
X12901134Y-14772079D01*
X12901134Y-14772079D02*
X12910658Y-14753031D01*
X12910658Y-14753031D02*
X12920182Y-14724460D01*
X12920182Y-14724460D02*
X12929706Y-14676841D01*
X12929706Y-14676841D02*
X12929706Y-14638746D01*
X12929706Y-14638746D02*
X12920182Y-14591127D01*
X12920182Y-14591127D02*
X12910658Y-14562555D01*
X12910658Y-14562555D02*
X12901134Y-14543508D01*
X12901134Y-14543508D02*
X12882087Y-14514936D01*
X12882087Y-14514936D02*
X12872563Y-14505412D01*
X13234468Y-14810174D02*
X13224944Y-14800650D01*
X13224944Y-14800650D02*
X13205896Y-14772079D01*
X13205896Y-14772079D02*
X13196372Y-14753031D01*
X13196372Y-14753031D02*
X13186849Y-14724460D01*
X13186849Y-14724460D02*
X13177325Y-14676841D01*
X13177325Y-14676841D02*
X13177325Y-14638746D01*
X13177325Y-14638746D02*
X13186849Y-14591127D01*
X13186849Y-14591127D02*
X13196372Y-14562555D01*
X13196372Y-14562555D02*
X13205896Y-14543508D01*
X13205896Y-14543508D02*
X13224944Y-14514936D01*
X13224944Y-14514936D02*
X13234468Y-14505412D01*
X13310658Y-14600650D02*
X13310658Y-14733984D01*
X13310658Y-14619698D02*
X13320182Y-14610174D01*
X13320182Y-14610174D02*
X13339230Y-14600650D01*
X13339230Y-14600650D02*
X13367801Y-14600650D01*
X13367801Y-14600650D02*
X13386849Y-14610174D01*
X13386849Y-14610174D02*
X13396372Y-14629222D01*
X13396372Y-14629222D02*
X13396372Y-14733984D01*
X13520182Y-14733984D02*
X13501134Y-14724460D01*
X13501134Y-14724460D02*
X13491611Y-14714936D01*
X13491611Y-14714936D02*
X13482087Y-14695888D01*
X13482087Y-14695888D02*
X13482087Y-14638746D01*
X13482087Y-14638746D02*
X13491611Y-14619698D01*
X13491611Y-14619698D02*
X13501134Y-14610174D01*
X13501134Y-14610174D02*
X13520182Y-14600650D01*
X13520182Y-14600650D02*
X13548753Y-14600650D01*
X13548753Y-14600650D02*
X13567801Y-14610174D01*
X13567801Y-14610174D02*
X13577325Y-14619698D01*
X13577325Y-14619698D02*
X13586849Y-14638746D01*
X13586849Y-14638746D02*
X13586849Y-14695888D01*
X13586849Y-14695888D02*
X13577325Y-14714936D01*
X13577325Y-14714936D02*
X13567801Y-14724460D01*
X13567801Y-14724460D02*
X13548753Y-14733984D01*
X13548753Y-14733984D02*
X13520182Y-14733984D01*
X13643992Y-14600650D02*
X13720182Y-14600650D01*
X13672563Y-14533984D02*
X13672563Y-14705412D01*
X13672563Y-14705412D02*
X13682087Y-14724460D01*
X13682087Y-14724460D02*
X13701134Y-14733984D01*
X13701134Y-14733984D02*
X13720182Y-14733984D01*
X13939230Y-14600650D02*
X13939230Y-14800650D01*
X13939230Y-14610174D02*
X13958277Y-14600650D01*
X13958277Y-14600650D02*
X13996373Y-14600650D01*
X13996373Y-14600650D02*
X14015420Y-14610174D01*
X14015420Y-14610174D02*
X14024944Y-14619698D01*
X14024944Y-14619698D02*
X14034468Y-14638746D01*
X14034468Y-14638746D02*
X14034468Y-14695888D01*
X14034468Y-14695888D02*
X14024944Y-14714936D01*
X14024944Y-14714936D02*
X14015420Y-14724460D01*
X14015420Y-14724460D02*
X13996373Y-14733984D01*
X13996373Y-14733984D02*
X13958277Y-14733984D01*
X13958277Y-14733984D02*
X13939230Y-14724460D01*
X14148753Y-14733984D02*
X14129706Y-14724460D01*
X14129706Y-14724460D02*
X14120182Y-14705412D01*
X14120182Y-14705412D02*
X14120182Y-14533984D01*
X14310658Y-14733984D02*
X14310658Y-14629222D01*
X14310658Y-14629222D02*
X14301134Y-14610174D01*
X14301134Y-14610174D02*
X14282087Y-14600650D01*
X14282087Y-14600650D02*
X14243992Y-14600650D01*
X14243992Y-14600650D02*
X14224944Y-14610174D01*
X14310658Y-14724460D02*
X14291611Y-14733984D01*
X14291611Y-14733984D02*
X14243992Y-14733984D01*
X14243992Y-14733984D02*
X14224944Y-14724460D01*
X14224944Y-14724460D02*
X14215420Y-14705412D01*
X14215420Y-14705412D02*
X14215420Y-14686365D01*
X14215420Y-14686365D02*
X14224944Y-14667317D01*
X14224944Y-14667317D02*
X14243992Y-14657793D01*
X14243992Y-14657793D02*
X14291611Y-14657793D01*
X14291611Y-14657793D02*
X14310658Y-14648269D01*
X14377325Y-14600650D02*
X14453515Y-14600650D01*
X14405896Y-14533984D02*
X14405896Y-14705412D01*
X14405896Y-14705412D02*
X14415420Y-14724460D01*
X14415420Y-14724460D02*
X14434468Y-14733984D01*
X14434468Y-14733984D02*
X14453515Y-14733984D01*
X14596373Y-14724460D02*
X14577325Y-14733984D01*
X14577325Y-14733984D02*
X14539230Y-14733984D01*
X14539230Y-14733984D02*
X14520182Y-14724460D01*
X14520182Y-14724460D02*
X14510658Y-14705412D01*
X14510658Y-14705412D02*
X14510658Y-14629222D01*
X14510658Y-14629222D02*
X14520182Y-14610174D01*
X14520182Y-14610174D02*
X14539230Y-14600650D01*
X14539230Y-14600650D02*
X14577325Y-14600650D01*
X14577325Y-14600650D02*
X14596373Y-14610174D01*
X14596373Y-14610174D02*
X14605896Y-14629222D01*
X14605896Y-14629222D02*
X14605896Y-14648269D01*
X14605896Y-14648269D02*
X14510658Y-14667317D01*
X14777325Y-14733984D02*
X14777325Y-14533984D01*
X14777325Y-14724460D02*
X14758277Y-14733984D01*
X14758277Y-14733984D02*
X14720182Y-14733984D01*
X14720182Y-14733984D02*
X14701134Y-14724460D01*
X14701134Y-14724460D02*
X14691611Y-14714936D01*
X14691611Y-14714936D02*
X14682087Y-14695888D01*
X14682087Y-14695888D02*
X14682087Y-14638746D01*
X14682087Y-14638746D02*
X14691611Y-14619698D01*
X14691611Y-14619698D02*
X14701134Y-14610174D01*
X14701134Y-14610174D02*
X14720182Y-14600650D01*
X14720182Y-14600650D02*
X14758277Y-14600650D01*
X14758277Y-14600650D02*
X14777325Y-14610174D01*
X14853515Y-14810174D02*
X14863039Y-14800650D01*
X14863039Y-14800650D02*
X14882087Y-14772079D01*
X14882087Y-14772079D02*
X14891611Y-14753031D01*
X14891611Y-14753031D02*
X14901134Y-14724460D01*
X14901134Y-14724460D02*
X14910658Y-14676841D01*
X14910658Y-14676841D02*
X14910658Y-14638746D01*
X14910658Y-14638746D02*
X14901134Y-14591127D01*
X14901134Y-14591127D02*
X14891611Y-14562555D01*
X14891611Y-14562555D02*
X14882087Y-14543508D01*
X14882087Y-14543508D02*
X14863039Y-14514936D01*
X14863039Y-14514936D02*
X14853515Y-14505412D01*
M02*
